<?xml version="1.0" standalone="no"?>
<!DOCTYPE svg PUBLIC "-//W3C//DTD SVG 1.1//EN" "http://www.w3.org/Graphics/SVG/1.1/DTD/svg11.dtd" >
<svg xmlns="http://www.w3.org/2000/svg" xmlns:xlink="http://www.w3.org/1999/xlink" version="1.1">
<metadata>
Created by FontForge 20201107 at Tue Jan  7 16:00:13 2025
 By 
Copyright (c) 2020 by MadeType. All rights reserved.
</metadata>
<defs>
<font id="MADEMirage-Bold" horiz-adv-x="546" >
  <font-face 
    font-family="MADE Mirage"
    font-weight="700"
    font-stretch="normal"
    units-per-em="2048"
    panose-1="2 0 8 3 0 0 0 2 0 4"
    ascent="1638"
    descent="-410"
    x-height="971"
    cap-height="1434"
    bbox="-221 -686 2578 2052"
    underline-thickness="102"
    underline-position="-204"
    unicode-range="U+0020-F6C3"
  />
<missing-glyph horiz-adv-x="409" 
 />
    <glyph glyph-name=".notdef" horiz-adv-x="409" 
 />
    <glyph glyph-name=".null" horiz-adv-x="0" 
 />
    <glyph glyph-name="nonmarkingreturn" horiz-adv-x="682" 
 />
    <glyph glyph-name="space" unicode=" " horiz-adv-x="409" 
 />
    <glyph glyph-name="exclam" unicode="!" horiz-adv-x="458" 
d="M229 264q63 0 105.5 -38t42.5 -103t-43 -104t-105 -39t-104.5 39t-42.5 104t42 103t105 38zM178 438q-6 141 -36 392t-42 483q-3 67 33 104t96 37t96 -37t33 -104q-12 -232 -42.5 -483t-36.5 -392q-2 -29 -15 -46t-35 -17t-36 17t-15 46z" />
    <glyph glyph-name="quotedbl" unicode="&#x22;" horiz-adv-x="690" 
d="M188 1454q53 0 81.5 -35t21.5 -92q-12 -102 -51 -291q-5 -25 -18.5 -40t-33.5 -15q-40 0 -53 55q-39 189 -51 291q-6 57 22 92t82 35zM504 1454q53 0 81 -35t21 -92q-12 -102 -51 -291q-10 -55 -51 -55q-40 0 -53 55q-37 179 -52 291q-6 57 22.5 92t82.5 35z" />
    <glyph glyph-name="numbersign" unicode="#" horiz-adv-x="1411" 
d="M1329 920h-303l-78 -365h291v-90h-309l-101 -463h-90l99 463h-359l-100 -463h-90l98 463h-305v90h324l77 365h-311v98h334l88 416h92l-90 -416h358l90 416h93l-90 -416h282v-98zM856 555l78 365h-359l-77 -365h358z" />
    <glyph glyph-name="dollar" unicode="$" horiz-adv-x="1148" 
d="M702 860q69 -40 106 -62.5t91.5 -60.5t81 -66.5t57.5 -72t39.5 -86.5t8 -99.5t-18.5 -121.5q-27 -100 -95 -168.5t-154.5 -101t-192.5 -39.5v-246h-99v244q-281 10 -465 139v336h52q57 -182 160.5 -287.5t246.5 -112.5h6v531q-6 4 -14 8q-44 25 -71 41.5t-69.5 44.5
t-69.5 49.5t-61.5 54.5t-54 62.5t-39.5 68.5t-26.5 78.5t-5 87.5t15.5 99q23 87 82.5 147t137.5 89t175 36v246h99v-244q103 -6 189 -39.5t185 -99.5v-297h-49q-45 184 -123 267.5t-202 92.5v-471q14 -8 40 -24.5t37 -22.5zM377 1200q-3 -65 35 -119.5t114 -109.5v399
q-71 -17 -108.5 -62.5t-40.5 -107.5zM801 262q5 51 -4.5 91t-36 72t-56.5 54.5t-79 50.5v-467q77 18 122 70.5t54 128.5z" />
    <glyph glyph-name="percent" unicode="%" horiz-adv-x="1736" 
d="M788 1067q0 -172 -107.5 -280.5t-264.5 -108.5q-158 0 -266.5 108.5t-108.5 280.5q0 171 108 279t267 108q157 0 264.5 -108t107.5 -279zM416 737q79 0 126.5 89.5t47.5 240.5q0 152 -47 241t-127 89q-82 0 -129 -89t-47 -241q0 -151 47.5 -240.5t128.5 -89.5zM1321 756
q159 0 267 -108t108 -279q0 -173 -108 -281t-267 -108t-267 108t-108 281q0 171 108 279t267 108zM1321 37q80 0 127 90t47 242q0 151 -47 240t-127 89q-81 0 -128.5 -89t-47.5 -240q0 -153 47 -242.5t129 -89.5zM1231 1434h102l-825 -1434h-90z" />
    <glyph glyph-name="ampersand" unicode="&#x26;" horiz-adv-x="1642" 
d="M1231 274q82 -82 184 -142t197 -60v-70q-62 -21 -128 -22.5t-121 11.5t-109 37t-92.5 49t-69.5 52q-9 8 -41 37t-54 49q-146 -235 -399 -235q-100 0 -195.5 27.5t-172 77t-123 127.5t-46.5 171q0 150 87 249t251 142q-96 72 -151.5 169t-42.5 212q17 137 131.5 218
t273.5 81q108 0 204 -36.5t159 -106.5t71 -158q13 -145 -72.5 -252t-238.5 -151q28 -27 129 -123t158 -150q31 84 59.5 140t67.5 103.5t89.5 72t115.5 28.5q81 4 143 -34t90 -107q8 -22 10 -47.5t-3.5 -52.5t-25.5 -51t-53 -37q-59 -25 -119.5 7.5t-70.5 106.5
q-6 44 -23.5 63t-46.5 17q-44 -3 -84.5 -75.5t-85.5 -194.5q115 -112 148 -142zM416 1180q-2 -47 18.5 -96t63.5 -99t80 -85.5t94 -84.5q167 121 172 332q4 104 -58 167.5t-161 63.5q-91 0 -148.5 -53t-60.5 -145zM612 57q206 7 324 215q-243 226 -457 435
q-73 -51 -124.5 -136t-57.5 -172q-9 -110 36 -191t118.5 -117.5t160.5 -33.5z" />
    <glyph glyph-name="quotesingle" unicode="'" horiz-adv-x="374" 
d="M186 1454q54 0 82.5 -35t22.5 -92q-12 -102 -51 -291q-13 -55 -54 -55t-51 55q-39 189 -51 291q-7 57 21 92t81 35z" />
    <glyph glyph-name="parenleft" unicode="(" horiz-adv-x="563" 
d="M481 1530q-184 -304 -184 -813q0 -507 184 -811l-37 -35q-65 63 -124.5 145t-115 189t-89 240.5t-33.5 271.5q0 139 33.5 273t89 241t115 189t124.5 145z" />
    <glyph glyph-name="parenright" unicode=")" horiz-adv-x="563" 
d="M119 1565q65 -63 124.5 -145t115 -189t89 -241t33.5 -273q0 -138 -33.5 -271.5t-89 -240.5t-115 -189t-124.5 -145l-37 35q184 304 184 811q0 509 -184 813z" />
    <glyph glyph-name="asterisk" unicode="*" horiz-adv-x="925" 
d="M836 1780q15 -45 -6 -80t-72 -45q-40 -8 -203 -37q81 -74 152 -150q36 -37 34 -77t-41 -70q-38 -27 -77 -16.5t-64 55.5q-36 64 -98 196q-57 -119 -99 -196q-25 -45 -64 -55.5t-77 16.5q-39 29 -40.5 69.5t34.5 77.5q70 75 154 152q-105 14 -201 35q-51 10 -73 45.5
t-7 79.5q17 44 56 58t85 -9q103 -53 177 -98q-23 114 -35 206q-7 51 19 83t73 32t72.5 -32t19.5 -83q-12 -92 -35 -206q80 48 176 98q46 23 85.5 9t54.5 -58z" />
    <glyph glyph-name="plus" unicode="+" horiz-adv-x="907" 
d="M825 737v-98h-321v-324h-98v324h-324v98h324v322h98v-322h321z" />
    <glyph glyph-name="comma" unicode="," horiz-adv-x="454" 
d="M227 264q60 0 101.5 -44t42.5 -116q1 -77 -16.5 -144t-51.5 -117t-67 -84.5t-76 -67.5l-41 43q117 114 131 246h-23q-62 0 -103.5 38.5t-41.5 104.5q0 65 41.5 103t103.5 38z" />
    <glyph glyph-name="hyphen" unicode="-" horiz-adv-x="907" 
d="M82 735h743v-98h-743v98z" />
    <glyph glyph-name="period" unicode="." horiz-adv-x="458" 
d="M229 264q63 0 105.5 -38t42.5 -103t-43 -104t-105 -39t-104.5 39t-42.5 104t42 103t105 38z" />
    <glyph glyph-name="slash" unicode="/" horiz-adv-x="774" 
d="M600 1434h92l-518 -1432h-92z" />
    <glyph glyph-name="zero" unicode="0" horiz-adv-x="1230" 
d="M614 1454q124 0 231 -53t184.5 -148.5t122 -234t44.5 -301.5t-44.5 -301.5t-122 -234t-184.5 -148.5t-231 -53q-252 0 -415.5 204t-163.5 533t163.5 533t415.5 204zM614 55q140 0 212.5 173t72.5 489q0 315 -72.5 488t-212.5 173t-211 -172.5t-71 -488.5
q0 -317 71 -489.5t211 -172.5z" />
    <glyph glyph-name="one" unicode="1" horiz-adv-x="659" 
d="M481 195q0 -63 21 -94t76 -35v-66h-480v66q55 4 76 35t21 94v987h-123v65l360 187h49v-1239z" />
    <glyph glyph-name="two" unicode="2" horiz-adv-x="1144" 
d="M1022 358h51l-39 -358h-962v92q120 117 199.5 199t167 185.5t139 188.5t89 184t44.5 195q11 147 -34.5 236t-150.5 98q-83 7 -130 -30.5t-42 -106.5q6 -136 -47 -178q-36 -28 -83.5 -30t-85.5 19t-50 56q-26 81 27 166q55 88 161.5 134t249.5 46q78 0 151 -15t138 -48
t112.5 -80t74 -116t24.5 -151q-2 -53 -16.5 -107t-35 -101t-58 -100t-69.5 -93.5t-87 -93.5t-92.5 -87t-103 -87t-102.5 -82t-106 -82h398q124 0 183 34.5t85 112.5z" />
    <glyph glyph-name="three" unicode="3" horiz-adv-x="1198" 
d="M729 776q193 -33 295 -129t102 -252q0 -185 -158 -300t-393 -115q-166 0 -293.5 50t-175.5 130q-25 43 -31 89t7 77q22 64 92 81.5t127 -30.5q27 -24 35.5 -59t5 -64t4.5 -59q21 -79 77.5 -109.5t151.5 -30.5q114 0 179 88t65 242q0 166 -82.5 254t-267.5 88v76
q141 17 202.5 92t61.5 229q0 249 -172 254q-68 3 -109 -34.5t-38 -102.5q3 -74 -6 -115.5t-41 -64.5q-45 -33 -90.5 -30.5t-81.5 25t-48 52.5q-13 40 -5 84t32 82q52 82 152.5 131t242.5 49q123 0 224.5 -35.5t167 -112t65.5 -182.5q0 -118 -78.5 -210t-218.5 -138z" />
    <glyph glyph-name="four" unicode="4" horiz-adv-x="1163" 
d="M1122 356h-178v-161q0 -63 20.5 -94t75.5 -35v-66h-479v66q55 4 75.5 35t20.5 94v161h-647v107l662 971h272v-971h178v-107zM141 463h516v758z" />
    <glyph glyph-name="five" unicode="5" horiz-adv-x="1179" 
d="M578 909q236 0 383 -121.5t147 -326.5q0 -211 -153.5 -346t-395.5 -135q-151 0 -276.5 46t-184.5 134q-55 84 -26 166q21 58 86 79.5t133 -28.5q27 -22 35.5 -57t5 -64.5t4.5 -60.5q39 -140 211 -140q77 0 135.5 52.5t88.5 138.5t32 192q1 75 -13.5 139t-44.5 116.5
t-80.5 84.5t-117.5 37q-169 12 -279 -102l-82 24l58 697h794v-211h-716l-31 -392q127 78 287 78z" />
    <glyph glyph-name="six" unicode="6" horiz-adv-x="1241" 
d="M674 915q212 0 354.5 -129t138.5 -337q-6 -210 -157 -339.5t-375 -129.5q-154 0 -278 63t-200 187t-83 290q-10 214 33 390t126.5 292t198 181t248.5 71q144 6 259.5 -46t158.5 -132q53 -95 18 -176q-15 -36 -52 -55.5t-79.5 -15.5t-73.5 32q-54 45 -45 180q3 66 -50 108
t-154 29q-62 -8 -111 -44t-90.5 -108t-69 -192t-39.5 -284q43 73 132.5 119t189.5 46zM621 55q116 0 186 106.5t70 287.5q0 162 -69 270t-187 108q-117 0 -189 -108.5t-72 -269.5q0 -180 72 -287t189 -107z" />
    <glyph glyph-name="seven" unicode="7" horiz-adv-x="1087" 
d="M90 1434h936v-93q-101 -100 -176 -249t-116.5 -318t-62.5 -323.5t-28 -313.5q-3 -75 -43.5 -116t-97.5 -41q-66 0 -110.5 38t-41.5 109q10 250 145 550.5t330 545.5h-454q-125 0 -184 -34.5t-85 -113.5h-51z" />
    <glyph glyph-name="eight" unicode="8" horiz-adv-x="1249" 
d="M823 799q85 -33 148.5 -71t116 -91t74.5 -124t12 -157q-20 -166 -170.5 -271t-378.5 -105q-110 0 -212.5 28t-183 79.5t-123.5 133.5t-30 182q16 131 102.5 205t231.5 109q-178 87 -232 201.5t-14 265.5q24 89 94.5 151t164 90.5t202.5 28.5q124 0 230 -36.5t174 -109
t71 -167.5q6 -260 -277 -342zM387 1155q0 -42 18 -79t45 -65.5t75 -58.5t89.5 -51t106.5 -51q125 94 125 280q0 113 -55 180.5t-166 67.5q-109 0 -173.5 -58.5t-64.5 -164.5zM639 55q124 0 198 66.5t74 183.5q0 114 -101 197t-300 157q-77 -49 -114 -109.5t-46 -150.5
q-14 -162 71.5 -253t217.5 -91z" />
    <glyph glyph-name="nine" unicode="9" horiz-adv-x="1232" 
d="M1159 915q8 -172 -17.5 -320t-78 -257t-127.5 -188.5t-167 -121.5t-196 -48q-144 -9 -265.5 45.5t-164.5 134.5q-53 94 -18 174q23 57 89.5 70t115.5 -29q53 -47 45 -180q-3 -65 57 -109t160 -31q82 12 140 76t98 201.5t57 351.5q-42 -72 -131.5 -119t-190.5 -47
q-136 0 -248.5 57t-179 165t-63.5 247q4 138 75.5 245.5t191 164.5t265.5 57q153 0 275 -63t196.5 -186.5t81.5 -289.5zM618 608q119 0 191 109t72 270q0 178 -73 285.5t-190 107.5q-116 0 -184.5 -106.5t-68.5 -286.5q0 -163 67.5 -271t185.5 -108z" />
    <glyph glyph-name="colon" unicode=":" horiz-adv-x="458" 
d="M229 264q63 0 105.5 -38t42.5 -103t-43 -104t-105 -39t-104.5 39t-42.5 104t42 103t105 38zM229 664q-63 0 -105 38t-42 103t42.5 104t104.5 39t105 -39t43 -104t-42.5 -103t-105.5 -38z" />
    <glyph glyph-name="semicolon" unicode=";" horiz-adv-x="458" 
d="M229 664q-63 0 -105 38t-42 103t42.5 104t104.5 39t105 -39t43 -104t-42.5 -103t-105.5 -38zM229 264q61 0 103 -44t43 -116q1 -62 -12 -119t-33 -98.5t-50 -80t-57 -64t-61 -51.5l-39 43q114 114 131 246h-25q-61 0 -103 39t-42 104t42 103t103 38z" />
    <glyph glyph-name="less" unicode="&#x3c;" horiz-adv-x="798" 
d="M717 885v-176l-432 -193l432 -192v-179l-635 304v135z" />
    <glyph glyph-name="equal" unicode="=" horiz-adv-x="907" 
d="M82 879h743v-99h-743v99zM82 469v98h743v-98h-743z" />
    <glyph glyph-name="greater" unicode="&#x3e;" horiz-adv-x="798" 
d="M82 885l635 -301v-135l-635 -304v179l432 192l-432 193v176z" />
    <glyph glyph-name="question" unicode="?" horiz-adv-x="1036" 
d="M465 264q63 0 105 -38t42 -103t-42.5 -104t-104.5 -39t-105 39t-43 104t42.5 103t105.5 38zM498 1454q123 0 225 -36.5t167.5 -116t61.5 -189.5q-3 -77 -26 -136.5t-59 -97.5t-79 -70.5t-87 -66t-81.5 -72t-65.5 -100.5t-36 -141q-7 -53 -53 -53q-24 0 -39 13.5t-14 39.5
q4 93 25.5 169.5t51.5 124t65.5 95.5t66 85.5t53.5 91.5t28 116q10 127 -45 197.5t-159 70.5q-76 0 -124 -36.5t-44 -100.5q5 -75 -4.5 -118.5t-40.5 -67.5q-49 -39 -111 -22.5t-82 77.5q-13 47 -4.5 89t29.5 75q44 74 145 127t236 53z" />
    <glyph glyph-name="at" unicode="@" horiz-adv-x="1718" 
d="M848 1534q173 0 327 -60t264 -164t174 -249t64 -309q0 -167 -69 -291.5t-195 -151.5q-95 -19 -194 18.5t-134 123.5q-99 -148 -276 -148q-163 0 -257.5 108.5t-94.5 297.5t94.5 297t257.5 108q187 0 287 -164l133 148h51v-537q0 -87 37 -131t92 -41q54 3 97.5 54
t67 132.5t23.5 176.5q0 138 -55 266.5t-151.5 226t-238 156.5t-304.5 59q-155 0 -291.5 -59t-231.5 -158t-149.5 -232.5t-54.5 -279.5q0 -158 53 -294t149.5 -235.5t241.5 -156.5t320 -57q91 0 179.5 26.5t141.5 63.5v-82q-47 -31 -141.5 -56.5t-179.5 -25.5
q-257 0 -448.5 101.5t-293.5 286t-102 429.5q0 166 62.5 315t170 256t257 169.5t317.5 62.5zM862 371q90 0 138.5 91t48.5 247t-48.5 247t-138.5 91q-89 0 -132.5 -93t-43.5 -245t43.5 -245t132.5 -93z" />
    <glyph glyph-name="A" unicode="A" horiz-adv-x="1492" 
d="M1325 195q27 -61 60.5 -93t87.5 -36v-66h-553v66q61 3 85.5 38t2.5 91l-97 241h-528l-90 -241q-21 -60 0 -92t80 -37v-66h-353v66q55 4 89 36t55 93l379 1028q26 60 10.5 101.5t-74.5 45.5v64h328zM426 553h438l-225 577z" />
    <glyph glyph-name="B" unicode="B" horiz-adv-x="1353" 
d="M944 772q178 -19 282 -116.5t95 -254.5q-12 -193 -171 -297t-419 -104h-649v66q55 4 75.5 35t20.5 94v1046q0 63 -20.5 93t-75.5 36v64h528q266 0 418.5 -94t145.5 -279q-3 -103 -64.5 -180.5t-165.5 -108.5zM874 1061q0 125 -69 190.5t-227 65.5h-103v-510h103
q158 0 227 65t69 189zM664 119q164 0 247.5 72t83.5 210q0 137 -84 209t-247 72h-189v-563h189z" />
    <glyph glyph-name="C" unicode="C" horiz-adv-x="1429" 
d="M1311 428h57l-47 -309q-203 -154 -512 -139q-165 8 -306.5 61.5t-246.5 146.5t-165 229t-60 300t59 302.5t162.5 233.5t245.5 148t305 53q139 0 279 -37.5t239 -101.5v-324h-57q-45 190 -162.5 289.5t-286.5 97.5q-149 -2 -254 -91.5t-154 -235t-49 -334.5
q0 -292 130 -472.5t348 -189.5q180 -7 296 84.5t179 288.5z" />
    <glyph glyph-name="D" unicode="D" horiz-adv-x="1505" 
d="M657 1434q161 0 295 -36.5t230 -101t162.5 -154.5t98.5 -197t32 -228q0 -151 -52 -280t-151 -227t-257 -154t-358 -56h-575v66q56 4 77 35t21 94v1046q0 63 -21 93t-77 36v64h575zM616 119q259 0 396 161t137 437t-137 438t-396 162h-141v-1198h141z" />
    <glyph glyph-name="E" unicode="E" horiz-adv-x="1243" 
d="M1130 387h52l-41 -387h-1059v66q56 4 76 34.5t20 94.5v1046q0 64 -20 93.5t-76 35.5v64h1020l39 -385h-51q-71 268 -289 268h-326v-531h217q52 0 86 8.5t53 27t28 40.5t15 58h52v-385h-52q-8 48 -22.5 74t-53 42.5t-106.5 16.5h-217v-549h367q217 0 288 268z" />
    <glyph glyph-name="F" unicode="F" horiz-adv-x="1183" 
d="M1102 1434l41 -385h-53q-71 268 -287 268h-326v-557h215q68 0 106.5 16.5t53 42.5t22.5 74h52v-385h-52q-8 48 -22.5 74t-53 42.5t-106.5 16.5h-215v-446q0 -63 20.5 -94t75.5 -35v-66h-491v66q56 4 77 35t21 94v1046q0 63 -21 93t-77 36v64h1020z" />
    <glyph glyph-name="G" unicode="G" horiz-adv-x="1503" 
d="M995 623h478v-64q-55 -6 -76 -36t-21 -93v-268q-93 -95 -249 -142.5t-316 -39.5q-165 8 -307 61.5t-247.5 146.5t-165.5 229.5t-60 299.5q0 164 59 302.5t162.5 233.5t245.5 148t305 53q139 0 280 -37.5t240 -101.5v-324h-57q-47 190 -164 289.5t-285 97.5
q-113 -1 -201.5 -52.5t-143.5 -141.5t-83.5 -208.5t-28.5 -258.5q0 -293 129.5 -473t348.5 -189q163 -9 256 72v303q0 63 -21.5 93t-77.5 36v64z" />
    <glyph glyph-name="H" unicode="H" horiz-adv-x="1568" 
d="M1487 1370q-56 -6 -77 -36t-21 -93v-1046q0 -63 21 -94t77 -35v-66h-492v66q56 4 77.5 35t21.5 94v487h-619v-487q0 -63 21 -94t77 -35v-66h-491v66q56 4 77 35t21 94v1046q0 63 -21 93t-77 36v64h491v-64q-56 -6 -77 -36t-21 -93v-442h619v442q0 63 -21.5 93t-77.5 36
v64h492v-64z" />
    <glyph glyph-name="I" unicode="I" horiz-adv-x="655" 
d="M573 1370q-56 -6 -77 -36t-21 -93v-1046q0 -63 21 -94t77 -35v-66h-491v66q55 4 75.5 35t20.5 94v1046q0 63 -20.5 93t-75.5 36v64h491v-64z" />
    <glyph glyph-name="J" unicode="J" horiz-adv-x="1030" 
d="M477 1434h492v-64q-56 -6 -77.5 -36t-21.5 -93v-684q0 -296 -109.5 -436.5t-350.5 -140.5q-126 0 -228 50t-145 132q-20 36 -24 80t12 84q24 56 90.5 68t111.5 -27q16 -14 26.5 -31.5t15 -39t6 -36t1.5 -37.5v-28q2 -57 35 -97.5t97 -40.5q87 0 127 95t40 299v790
q0 63 -21 93t-77 36v64z" />
    <glyph glyph-name="K" unicode="K" horiz-adv-x="1531" 
d="M1350 195q69 -113 161 -129v-66h-557v66q55 3 69.5 37.5t-19.5 91.5l-340 536l-189 -199v-337q0 -63 20.5 -94t75.5 -35v-66h-489v66q55 4 75.5 35t20.5 94v1046q0 63 -20.5 93t-75.5 34v66h489v-66q-55 -4 -75.5 -34t-20.5 -93v-561l518 557q66 68 43 106q-10 22 -51 25
v66h379v-66q-57 -5 -99 -28.5t-122 -106.5l-262 -275z" />
    <glyph glyph-name="L" unicode="L" horiz-adv-x="1218" 
d="M1137 387h51l-41 -387h-1065v66q55 4 75.5 35t20.5 94v1046q0 63 -20.5 93t-75.5 36v64h491v-64q-56 -6 -77 -36t-21 -93v-1122h373q218 0 289 268z" />
    <glyph glyph-name="M" unicode="M" horiz-adv-x="1845" 
d="M1694 195q13 -62 40 -93.5t81 -35.5v-66h-486v66q56 4 75.5 34t8.5 90l-168 893l-364 -1083h-111l-383 1083l-137 -888q-11 -66 6 -95.5t74 -33.5v-66h-299v66q54 4 76.5 33.5t33.5 95.5l160 1046q11 65 -6.5 94t-73.5 35v64h336l348 -1002l336 1002h324v-64
q-59 -6 -77 -34.5t-5 -94.5z" />
    <glyph glyph-name="N" unicode="N" horiz-adv-x="1515" 
d="M1130 1434h314v-64q-56 -6 -77 -36t-21 -93v-1241h-179l-870 1102v-907q0 -63 21 -94t77 -35v-66h-313v66q56 4 77 35t21 94v1046q0 63 -21 93t-77 36v64h342l805 -1022v829q0 63 -21.5 93t-77.5 36v64z" />
    <glyph glyph-name="O" unicode="O" horiz-adv-x="1628" 
d="M813 1454q160 0 303 -55t246.5 -151.5t164 -234.5t60.5 -296q0 -157 -60.5 -295t-164 -234.5t-246.5 -152t-303 -55.5t-302.5 55.5t-246 152t-163.5 234t-60 295.5t60 296t163.5 234.5t246 151.5t302.5 55zM813 55q198 0 324.5 179t126.5 483q0 305 -126.5 483
t-324.5 178q-197 0 -322.5 -178t-125.5 -483q0 -304 126 -483t322 -179z" />
    <glyph glyph-name="P" unicode="P" horiz-adv-x="1255" 
d="M637 1434q265 0 421 -124.5t156 -328.5q0 -205 -156 -329t-421 -124h-160v-333q0 -63 20.5 -94t75.5 -35v-66h-491v66q56 4 77 35t21 94v1046q0 63 -21 93t-77 34v66h555zM571 645q84 0 148.5 26.5t103.5 73t58.5 106t19.5 130.5t-19.5 130t-58.5 105.5t-103.5 72.5
t-148.5 26h-94v-670h94z" />
    <glyph glyph-name="Q" unicode="Q" horiz-adv-x="1628" 
d="M1755 -115l37 -37q-24 -92 -85 -153.5t-144.5 -86.5t-186.5 -14.5t-208 55t-213.5 130.5t-198.5 203q-150 10 -281.5 69t-227 154.5t-151 228t-55.5 283.5q0 158 60.5 296t164 234.5t246.5 151.5t303 55t302.5 -55t246 -151.5t163.5 -234.5t60 -296q0 -150 -55 -282.5
t-150 -228t-226.5 -155t-281.5 -69.5q71 -36 147.5 -67.5t179.5 -60.5t196 -39.5t190 5.5t168 65zM815 55q197 0 323 179t126 483t-126 482.5t-323 178.5q-198 0 -324 -178.5t-126 -482.5t126 -483t324 -179z" />
    <glyph glyph-name="R" unicode="R" horiz-adv-x="1425" 
d="M1249 195q75 -115 156 -129v-66h-385l-356 582h-13h-176v-387q0 -63 21 -94t77 -35v-66h-491v66q56 4 77 35t21 94v1046q0 63 -21 93t-77 34v66h569q258 0 417 -115.5t159 -310.5q0 -127 -69.5 -222.5t-196.5 -148.5zM475 698h109q160 0 245.5 84t85.5 226t-85 224.5
t-246 82.5h-109v-617z" />
    <glyph glyph-name="S" unicode="S" horiz-adv-x="1150" 
d="M702 862q174 -102 238 -155q131 -107 145 -240q9 -78 -18 -176q-22 -82 -72 -143.5t-119.5 -97.5t-148 -53t-166.5 -17q-142 0 -272.5 35t-227.5 104v336h52q57 -181 160.5 -286t246.5 -114q126 -6 198 51.5t83 155.5q5 48 -4.5 86.5t-26 65.5t-51.5 54.5t-66 46
t-83 47.5q-38 21 -58 32q-44 25 -71 41.5t-69.5 44.5t-69.5 49.5t-61.5 54.5t-54 62.5t-39.5 69t-26.5 79t-5 88t15.5 99.5q24 95 95 158t161.5 88.5t200.5 25.5q118 0 211 -33t200 -106l2 -295h-51q-46 186 -127 269t-209 89q-112 6 -173 -45.5t-64 -132.5q-2 -41 15 -79.5
t41.5 -68t74 -66t87 -60t107.5 -64.5z" />
    <glyph glyph-name="T" unicode="T" horiz-adv-x="1372" 
d="M1292 1434l39 -385h-51q-71 266 -289 266h-157v-1120q0 -63 21 -94t77 -35v-66h-492v66q56 4 77.5 35t21.5 94v1120h-158q-218 0 -289 -266h-51l39 385h1212z" />
    <glyph glyph-name="U" unicode="U" horiz-adv-x="1495" 
d="M1122 1434h312v-66q-55 -4 -76 -34t-21 -93v-676q0 -264 -148 -424.5t-407 -160.5q-124 0 -231.5 34.5t-191.5 102.5t-132.5 180t-48.5 256v688q0 63 -20.5 93t-75.5 34v66h491v-66q-56 -4 -77 -34t-21 -93v-700q0 -214 103.5 -329.5t277.5 -115.5q118 0 202 63
t122.5 162.5t38.5 223.5v696q0 63 -21 93t-76 34v66z" />
    <glyph glyph-name="V" unicode="V" horiz-adv-x="1478" 
d="M1133 1434h325v-66q-55 -4 -88.5 -35.5t-54.5 -91.5l-457 -1241h-172l-520 1241q-25 61 -58.5 92t-87.5 35v66h551v-66q-59 -3 -82.5 -42t-1.5 -95l363 -936l348 946q48 124 -65 127v66z" />
    <glyph glyph-name="W" unicode="W" horiz-adv-x="2109" 
d="M1767 1434h322v-66q-53 -3 -81.5 -29t-47.5 -86l-397 -1253h-146l-344 1053l-342 -1053h-145l-434 1257q-22 63 -47.5 84.5t-84.5 26.5v66h531v-66q-51 -3 -73.5 -42.5t-2.5 -100.5l264 -822l336 1031h164l332 -1026l262 833q20 68 4 96.5t-70 30.5v66z" />
    <glyph glyph-name="X" unicode="X" horiz-adv-x="1431" 
d="M1233 186q37 -56 76 -86t92 -34v-66h-529v66q49 1 64.5 34t-12.5 74l-301 447l-291 -447q-63 -96 53 -108v-66h-348v66q91 8 153 102l363 555l-354 526q-38 56 -76 85.5t-92 33.5v66h530v-66q-46 0 -60.5 -34t13.5 -77l242 -358l231 354q34 55 20 85t-63 30v66h342v-66
q-88 -5 -151 -94l-310 -477z" />
    <glyph glyph-name="Y" unicode="Y" horiz-adv-x="1388" 
d="M1032 1434h336v-66q-45 -3 -74 -22.5t-55 -61.5l-362 -651v-438q0 -63 20.5 -94t75.5 -35v-66h-492v66q56 4 77.5 35t21.5 94v411l-402 643q-36 58 -70.5 86.5t-87.5 32.5v66h529v-66q-48 0 -68 -31t6 -77l310 -529l290 524q27 47 10 80t-65 33v66z" />
    <glyph glyph-name="Z" unicode="Z" horiz-adv-x="1273" 
d="M1171 387h52l-41 -387h-1131v119l791 1196h-422q-218 0 -289 -266h-51l41 385h1050v-119l-784 -1196h496q217 0 288 268z" />
    <glyph glyph-name="bracketleft" unicode="[" horiz-adv-x="548" 
d="M467 1442h-184v-1489h184v-98h-385v1685h385v-98z" />
    <glyph glyph-name="backslash" unicode="\" horiz-adv-x="774" 
d="M174 1434l518 -1432h-90l-520 1432h92z" />
    <glyph glyph-name="bracketright" unicode="]" horiz-adv-x="548" 
d="M82 1540h385v-1685h-385v98h184v1489h-184v98z" />
    <glyph glyph-name="asciicircum" unicode="^" horiz-adv-x="790" 
d="M438 1561l271 -359l-41 -35l-273 215l-272 -215l-41 35l272 359h84z" />
    <glyph glyph-name="underscore" unicode="_" horiz-adv-x="907" 
d="M82 0h743v-98h-743v98z" />
    <glyph glyph-name="grave" unicode="`" horiz-adv-x="593" 
d="M481 1235q43 -32 25 -70q-16 -34 -72 -20q-190 57 -274 90q-53 20 -71 61.5t7 87.5q25 44 68.5 52.5t89.5 -23.5q112 -79 227 -178z" />
    <glyph glyph-name="a" unicode="a" horiz-adv-x="1052" 
d="M1028 115l25 -45q-21 -34 -71.5 -62t-107.5 -28q-35 0 -71 8.5t-70.5 26t-57.5 50.5t-26 76q-36 -82 -110.5 -121.5t-161.5 -39.5q-68 0 -127.5 14t-111 43t-82.5 80t-33 119q-2 71 20 126.5t58 91t89.5 60.5t107.5 37t118 18q146 12 219 21v84q0 123 -29.5 182
t-105.5 68q-54 5 -100 -23t-42 -92q4 -46 -9.5 -80t-36.5 -48.5t-51.5 -20t-55.5 5.5q-54 19 -72 65.5t10 110.5q67 147 349 147q62 0 119 -9.5t115.5 -35t101.5 -65t70.5 -105t27.5 -149.5v-459q0 -37 18.5 -55.5t42 -15.5t41.5 20zM469 86q82 3 124 80t42 190v160
q-7 0 -113 -14q-108 -13 -159 -70t-54 -158q-3 -96 42 -143t118 -45z" />
    <glyph glyph-name="b" unicode="b" horiz-adv-x="1220" 
d="M725 989q206 0 330.5 -135.5t124.5 -368.5t-124.5 -369t-330.5 -136q-230 0 -356 204l-166 -184h-66v1241q0 63 -20.5 93t-75.5 34v66l336 79h51v-649q115 125 297 125zM659 63q114 0 174 117.5t60 304.5t-60 304.5t-174 117.5q-113 0 -172 -113t-59 -309t59 -309
t172 -113z" />
    <glyph glyph-name="c" unicode="c" horiz-adv-x="987" 
d="M907 262l39 -31q-57 -109 -166.5 -180t-247.5 -71q-103 0 -196 33.5t-166 96.5t-116.5 164t-43.5 226q0 152 68.5 264t184.5 168.5t265 56.5q133 0 229.5 -41t141.5 -114q25 -41 30 -88t-16 -88t-69 -58q-67 -25 -127 18t-53 138q6 81 -27.5 126.5t-112.5 41.5
q-108 -8 -175 -125.5t-52 -298.5q8 -98 45.5 -172t91 -113.5t119 -57t129.5 -9t123.5 37.5t101.5 76z" />
    <glyph glyph-name="d" unicode="d" horiz-adv-x="1179" 
d="M1161 100l19 -57q-73 -63 -193 -63q-44 0 -86.5 14t-78.5 48t-44 83q-121 -145 -313 -145q-206 0 -330.5 136t-124.5 369t124.5 368.5t330.5 135.5q182 0 297 -125v377q0 63 -20.5 93t-75.5 34v66l335 79h52v-1347q0 -38 16.5 -58t40.5 -19.5t51 11.5zM530 63
q113 0 172.5 113.5t59.5 308.5t-59.5 308.5t-172.5 113.5q-77 0 -130.5 -56.5t-78 -150t-24.5 -215.5t24.5 -215.5t78 -150t130.5 -56.5z" />
    <glyph glyph-name="e" unicode="e" horiz-adv-x="1001" 
d="M958 530v-30h-659q6 -83 33.5 -149.5t70 -107t95 -66t109.5 -29t112 7t104.5 38.5t85.5 68l37 -31q-58 -110 -165.5 -180.5t-245.5 -70.5q-104 0 -197 33.5t-167 96.5t-117.5 164t-43.5 226q0 224 140.5 356.5t365.5 132.5q142 0 244.5 -63t151 -165.5t46.5 -230.5z
M512 924q-89 -3 -147.5 -90t-67.5 -230h397q1 58 -7 110.5t-26.5 102.5t-57 79t-91.5 28z" />
    <glyph glyph-name="f" unicode="f" horiz-adv-x="677" 
d="M776 1352q21 -26 33.5 -56.5t9 -70t-32.5 -68.5q-38 -39 -95.5 -26.5t-80.5 67.5q-8 18 -12.5 37t-7.5 41t-6 33q-25 91 -113 77q-37 -6 -57 -42.5t-11 -88.5q9 -45 24.5 -86t24 -82t9.5 -116h241v-105h-241v-671q0 -63 20.5 -94t75.5 -35v-66h-483v66q55 4 75.5 35
t20.5 94v671h-170v105h170v114q0 171 82 270.5t233 108.5q93 4 168 -25t123 -87z" />
    <glyph glyph-name="g" unicode="g" horiz-adv-x="1161" 
d="M588 176q292 3 426 -66t125 -239q-9 -178 -166.5 -300t-401.5 -122q-169 0 -297 34.5t-200.5 109t-61.5 180.5q7 67 59 122.5t140 92.5q-93 35 -135 92t-21 131q20 64 90 103t158 55q-147 100 -147 274q0 106 59 186.5t152 120t204 39.5q120 0 213 -43q13 70 41 133
q25 57 73 90t99 28.5t80 -50.5q19 -28 15.5 -59.5t-19 -58t-47 -41.5t-68.5 -9q-82 13 -100 -21q-11 -16 -14 -47q143 -98 143 -268q0 -107 -59.5 -188.5t-153 -121.5t-203.5 -40q-101 0 -188 35q-130 -24 -135 -76q-2 -28 24.5 -44t102.5 -24.5t213 -7.5zM571 918
q-77 0 -119 -71.5t-42 -203.5q0 -133 42 -204.5t119 -71.5q76 0 119 72t43 204q0 131 -43 203t-119 72zM911 -233q3 34 -5.5 60t-23.5 43.5t-42.5 29.5t-53.5 18.5t-68 10t-74.5 4.5t-82.5 1q-103 0 -215 17q-97 -66 -100 -184q-2 -55 17 -98.5t51.5 -71t78 -45.5
t92.5 -25.5t99 -7.5q128 0 223 66.5t104 181.5z" />
    <glyph glyph-name="h" unicode="h" horiz-adv-x="1224" 
d="M1106 195q0 -63 21 -94t77 -35v-66h-485v66q56 4 76 34.5t20 94.5v434q0 256 -188 256q-93 0 -146 -71.5t-53 -178.5v-440q0 -63 21 -94t77 -35v-66h-485v66q56 4 77 35t21 94v1046q0 63 -21 93t-77 34v66l338 79h49v-651q112 127 295 127q194 0 288.5 -106.5
t94.5 -286.5v-401z" />
    <glyph glyph-name="i" unicode="i" 
d="M428 195q0 -63 21 -94t77 -35v-66h-485v66q56 4 77 35t21 94v524q0 63 -21 93t-77 34v65l338 78h49v-794zM272 1108q-77 0 -128.5 47t-51.5 127q0 79 52 126.5t128 47.5t128.5 -47.5t52.5 -126.5q0 -80 -52 -127t-129 -47z" />
    <glyph glyph-name="j" unicode="j" horiz-adv-x="487" 
d="M14 911l338 78h49v-1042q0 -380 -276 -391q-97 -5 -178.5 30t-126.5 105q-18 28 -26 67t5.5 82t55.5 64q45 24 90 11.5t69 -58.5q11 -23 17.5 -73.5t7.5 -55.5q13 -48 41.5 -69t64.5 -13q30 6 44 37t4 81q-9 48 -30.5 92t-35.5 93t-14 131v639q0 63 -21.5 93t-77.5 34v65
zM246 1108q-77 0 -128.5 47t-51.5 127q0 79 52 126.5t128 47.5t128 -47.5t52 -126.5q0 -80 -51.5 -127t-128.5 -47z" />
    <glyph glyph-name="k" unicode="k" horiz-adv-x="1234" 
d="M1040 195q38 -53 75.5 -84t88.5 -45v-66h-469v66q30 5 36.5 22.5t-4.5 43t-38 63.5l-197 278l-104 -94v-184q0 -63 20.5 -94t75.5 -35v-66h-483v66q55 4 75.5 35t20.5 94v1046q0 63 -20.5 93t-75.5 34v66l336 79h51v-1034l363 324q26 23 36.5 46t2 38.5t-36.5 17.5v66
h331v-66q-125 -15 -211 -92l-194 -174z" />
    <glyph glyph-name="l" unicode="l" 
d="M430 195q0 -64 20 -94.5t76 -34.5v-66h-485v66q56 4 77 35t21 94v1046q0 63 -21 93t-77 34v66l338 79h51v-1318z" />
    <glyph glyph-name="m" unicode="m" horiz-adv-x="1847" 
d="M1731 195q0 -63 20.5 -94t75.5 -35v-66h-484v66q55 4 76 35t21 94v434q0 256 -176 256q-86 0 -135.5 -71.5t-49.5 -178.5v-440q0 -63 21 -94t76 -35v-66h-484v66q55 4 75.5 35t20.5 94v434q0 256 -176 256q-85 0 -134.5 -71.5t-49.5 -178.5v-440q0 -63 21 -94t77 -35v-66
h-485v66q56 4 77 35t21 94v524q0 63 -21 93t-77 34v65l324 78h51v-139q106 139 293 139q244 0 329 -182q107 182 322 182q188 0 279.5 -106.5t91.5 -286.5v-401z" />
    <glyph glyph-name="n" unicode="n" horiz-adv-x="1222" 
d="M1106 195q0 -63 20.5 -94t75.5 -35v-66h-483v66q55 4 75.5 35t20.5 94v434q0 256 -188 256q-93 0 -146 -71.5t-53 -178.5v-440q0 -63 20.5 -94t75.5 -35v-66h-483v66q55 4 75.5 35t20.5 94v524q0 63 -20.5 93t-75.5 34v65l324 78h51v-145q109 145 307 145
q194 0 288.5 -106.5t94.5 -286.5v-401z" />
    <glyph glyph-name="o" unicode="o" horiz-adv-x="1112" 
d="M541 989q108 0 203 -33t168.5 -94.5t116 -159t42.5 -217.5t-42.5 -217.5t-116 -159.5t-168.5 -95t-203 -33t-203.5 33t-169 95t-116 159.5t-42.5 217.5q0 97 28 179t77 141.5t116 101t145.5 62t164.5 20.5zM541 63q110 0 170.5 116.5t60.5 305.5q0 188 -60.5 304
t-170.5 116t-172 -116t-62 -304t62 -305t172 -117z" />
    <glyph glyph-name="p" unicode="p" horiz-adv-x="1185" 
d="M705 989q204 0 322 -135t118 -369q0 -235 -118 -370t-322 -135q-181 0 -297 126v-376q0 -63 20.5 -93t75.5 -34v-66h-484v66q55 4 76 34t21 93v989q0 63 -21 93t-76 34v65l336 78h52v-125q115 125 297 125zM639 63q112 0 165.5 115.5t53.5 306.5t-53.5 306.5
t-165.5 115.5q-113 0 -173 -113.5t-60 -308.5t60 -308.5t173 -113.5z" />
    <glyph glyph-name="q" unicode="q" horiz-adv-x="1177" 
d="M1040 -270q0 -63 21 -93t76 -34v-66h-484v66q55 4 76 34t21 93v376q-119 -126 -299 -126q-203 0 -322 135.5t-119 369.5t119 369t322 135q234 0 356 -203l168 185h65v-1241zM516 63q114 0 174 113t60 309t-60 309t-174 113q-111 0 -165 -115.5t-54 -306.5t54 -306.5
t165 -115.5z" />
    <glyph glyph-name="r" unicode="r" horiz-adv-x="921" 
d="M879 860q10 -31 12 -65t-19.5 -70.5t-64.5 -54.5q-57 -25 -119 8t-72 106q-6 45 -23 64.5t-46 17.5q-57 -4 -88 -68t-31 -175v-428q0 -63 21 -94t77 -35v-66h-485v66q56 4 77 35t21 94v524q0 63 -21 93t-77 34v65l326 78h49v-143q67 137 231 143q84 3 144 -30t88 -99z
" />
    <glyph glyph-name="s" unicode="s" horiz-adv-x="841" 
d="M270 815q-5 -36 8.5 -65t52.5 -55.5t67.5 -41.5t91.5 -43q15 -7 22 -10q34 -15 52.5 -24t51 -26t51 -30t44 -33.5t39.5 -39.5t28 -45t18 -52.5t2.5 -60t-12.5 -70.5q-32 -115 -138.5 -177t-258.5 -62q-101 0 -208 28t-171 78v248h47q32 -137 127.5 -210t204.5 -73
q65 0 111.5 27t56.5 78q6 20 2.5 38t-9 32t-19 27.5t-28 24t-36 21.5t-42 20.5t-47.5 21.5q-22 10 -34 15q-48 22 -82 39.5t-72.5 42t-64 48.5t-48 56.5t-32 67.5t-9.5 80t13 96q15 57 53 99t89.5 64.5t106.5 32t114 7.5q174 -3 303 -104l2 -221h-47q-37 137 -97.5 196.5
t-160.5 59.5q-31 0 -58.5 -7.5t-52.5 -32.5t-31 -65z" />
    <glyph glyph-name="t" unicode="t" horiz-adv-x="733" 
d="M659 172l33 -55q-36 -58 -102 -97.5t-152 -39.5q-58 0 -105 13t-90 43t-67 88.5t-24 141.5v600h-142v105q130 0 220 83t122 212h88v-295h195v-105h-195v-600q0 -92 78 -121q73 -25 141 27z" />
    <glyph glyph-name="u" unicode="u" horiz-adv-x="1202" 
d="M1065 195q0 -63 20.5 -94t75.5 -35v-66h-387v111q-110 -131 -293 -131q-194 0 -288.5 107.5t-94.5 287.5v344q0 63 -21 93t-77 34v65l338 78h49v-647q0 -121 46.5 -188.5t144.5 -67.5q93 0 144.5 71t51.5 179v383q0 63 -20.5 93t-75.5 34v65l338 78h49v-794z" />
    <glyph glyph-name="v" unicode="v" horiz-adv-x="1099" 
d="M786 971h283v-66q-51 -3 -81.5 -25t-53.5 -75l-336 -805h-143l-353 776q-27 63 -58.5 94t-84.5 35v66h514v-66q-110 -9 -61 -129l209 -500l219 529q19 41 4.5 70t-58.5 30v66z" />
    <glyph glyph-name="w" unicode="w" horiz-adv-x="1581" 
d="M1266 971h284v-66q-52 -3 -79.5 -24t-47.5 -76l-290 -805h-146l-231 639l-224 -639h-131l-309 776q-26 66 -53 95.5t-80 33.5v66h514v-66q-57 -4 -76 -38t2 -91l156 -454l233 649h144l217 -666l178 496q16 46 0.5 74.5t-61.5 29.5v66z" />
    <glyph glyph-name="x" unicode="x" horiz-adv-x="1103" 
d="M911 195q6 -8 20 -27t18.5 -25t16 -20t17.5 -19t16.5 -14t19 -12.5t20 -7t24.5 -4.5v-66h-485v66q34 3 46 21t3.5 45.5t-33.5 62.5l-143 196l-162 -231q-30 -41 -22 -66.5t46 -27.5v-66h-284v66q52 3 90.5 26t73.5 76l200 301l-225 309q-25 35 -38.5 52t-34 37.5
t-40.5 28.5t-45 9v66h490v-66q-49 -4 -51.5 -40.5t36.5 -88.5l117 -160l137 195q28 41 21 66.5t-45 27.5v66h284v-66q-53 -3 -90.5 -24.5t-74.5 -75.5l-177 -264z" />
    <glyph glyph-name="y" unicode="y" horiz-adv-x="1081" 
d="M780 971h271v-66q-49 -3 -74 -24t-49 -76l-357 -856q-68 -155 -120.5 -240.5t-102 -123.5t-115.5 -50q-56 -10 -126.5 3.5t-110.5 49.5q-23 19 -39.5 47.5t-16 68.5t30.5 71q29 30 67.5 32.5t69.5 -19.5t42 -60q15 -56 30 -73q21 -23 62 -20q23 2 43.5 12.5t49.5 40
t64.5 94t75.5 161.5l-377 833q-29 63 -60.5 94t-84.5 35v66h514v-66q-108 -9 -59 -129l206 -500l220 529q19 41 5.5 70t-59.5 30v66z" />
    <glyph glyph-name="z" unicode="z" horiz-adv-x="974" 
d="M862 293h51l-39 -293h-833v106l512 760h-162q-118 0 -179 -50t-89 -138h-51l41 293h766v-105l-504 -760h219q119 0 179.5 49.5t88.5 137.5z" />
    <glyph glyph-name="braceleft" unicode="{" horiz-adv-x="677" 
d="M596 1481q-72 -22 -115 -101q-24 -41 -29 -109.5t0.5 -183t4.5 -157.5q-1 -61 -15 -108.5t-33 -72.5t-43 -41t-37.5 -20.5t-23.5 -5.5q10 -1 24 -5.5t37.5 -21t42.5 -41.5t33 -72t15 -108q1 -44 -4.5 -158.5t-0.5 -182.5t29 -109q43 -79 115 -101v-57q-45 4 -93.5 15.5
t-107.5 43t-88 76.5q-36 58 -44.5 143t3.5 265q2 34 2.5 63t-2 52t-5 41.5t-8.5 33t-10.5 25t-13 19t-13.5 13t-14.5 9.5t-13.5 6.5t-14 5.5q-15 5 -38 8.5t-38 4.5l-16 1v62q59 2 92 14q10 4 14 5.5t13.5 6.5t14.5 9.5t13.5 13t13 19t10.5 25t8.5 33t5 41.5t2 52t-2.5 63
q-12 180 -3.5 265t44.5 143q29 45 88.5 76.5t106 42.5t94.5 16v-57z" />
    <glyph glyph-name="bar" unicode="|" horiz-adv-x="337" 
d="M82 1434h174v-1674h-174v1674z" />
    <glyph glyph-name="braceright" unicode="}" horiz-adv-x="677" 
d="M502 727q15 -5 38.5 -8.5t39.5 -4.5l16 -1v-62q-61 -2 -94 -14q-10 -4 -14 -5.5t-13.5 -6.5t-14.5 -9.5t-13.5 -13t-13 -19t-10.5 -25t-8.5 -33t-5 -41.5t-2 -52t2.5 -63q13 -179 5 -265t-46 -143q-29 -45 -88 -76.5t-107 -43t-92 -15.5v57q33 11 60.5 33t52.5 68
q24 41 29 109t-0.5 182.5t-4.5 158.5q1 61 16 108t34 72t42.5 41.5t37 21t22.5 5.5q-9 1 -22.5 5.5t-37 20.5t-42.5 41t-34 72.5t-16 108.5q-1 43 4.5 157.5t0.5 183t-29 109.5q-25 46 -52.5 68t-60.5 33v57q47 -5 93 -16t105.5 -42.5t88.5 -76.5q38 -57 46 -143t-5 -265
q-2 -34 -2.5 -63t2 -52t5 -41.5t8.5 -33t10.5 -25t13 -19t13.5 -13t14.5 -9.5t13.5 -6.5t14 -5.5z" />
    <glyph glyph-name="asciitilde" unicode="~" horiz-adv-x="876" 
d="M289 870q51 0 90.5 -11.5t89.5 -37.5q112 -59 172 -59q76 0 100 82h54q-14 -236 -185 -236q-12 0 -24 1t-25 3.5t-22.5 4t-23 6.5t-21 7.5t-23 8.5t-21.5 8.5t-23.5 10.5t-23.5 10q-89 39 -145 39q-79 0 -121 -82h-55q7 104 67 174.5t140 70.5z" />
    <glyph glyph-name="exclamdown" unicode="&#xa1;" horiz-adv-x="458" 
d="M229 729q-63 0 -105 38t-42 103q0 66 42.5 105t104.5 39t105 -39.5t43 -104.5t-42.5 -103t-105.5 -38zM279 555q6 -141 36.5 -391.5t42.5 -482.5q3 -67 -33 -104.5t-96 -37.5t-96 37.5t-33 104.5q12 232 42 482.5t36 391.5q1 29 15 46t36 17t36 -17t14 -46z" />
    <glyph glyph-name="cent" unicode="&#xa2;" horiz-adv-x="987" 
d="M946 463q-56 -107 -163 -178t-242 -74v-277h-99v283q-89 14 -165.5 53.5t-136.5 102.5t-94.5 155t-35.5 203q0 204 119.5 332t312.5 154v282h99v-276q127 -1 220 -43.5t138 -114.5q25 -41 30.5 -88t-15.5 -88t-68 -58q-69 -25 -129 18t-53 138q6 76 -23.5 121.5
t-99.5 46.5v-764q98 -28 200 0.5t168 102.5zM299 731q14 -198 143 -291v688q-75 -43 -115 -148.5t-28 -248.5z" />
    <glyph glyph-name="sterling" unicode="&#xa3;" horiz-adv-x="1202" 
d="M1090 358h51l-39 -358h-987v92q45 104 62.5 206.5t15.5 178t-15 185.5h-137v98h125q-23 158 -25 284q-2 82 24.5 151t74 116t112.5 80t138 48t151 15q142 0 248.5 -46t161.5 -134q52 -84 26 -166q-19 -55 -90 -72.5t-127 25.5q-55 44 -49 178q5 71 -41.5 108.5
t-128.5 30.5q-106 -10 -151.5 -98.5t-34.5 -237.5q13 -154 4 -282h325v-98h-335q-37 -267 -160 -451h532q125 0 184 34.5t85 112.5z" />
    <glyph glyph-name="currency" unicode="&#xa4;" horiz-adv-x="1339" 
d="M1200 717q0 -203 -121 -340l178 -178l-69 -70l-182 182q-139 -100 -336 -100t-336 100l-182 -182l-70 70l178 178q-121 134 -121 340t121 340l-178 178l70 70l182 -183q141 101 336 101t336 -101l182 183l69 -70l-178 -178q121 -137 121 -340zM670 297q110 0 170.5 116
t60.5 304t-60.5 304t-170.5 116t-172 -116t-62 -304t62 -304t172 -116z" />
    <glyph glyph-name="yen" unicode="&#xa5;" horiz-adv-x="1388" 
d="M1032 1434h336v-66q-45 -4 -74 -24t-55 -60l-352 -633h203v-98h-213v-94h213v-99h-213v-165q0 -63 20.5 -94t75.5 -35v-66h-492v66q56 4 77.5 35t21.5 94v165h-226v99h226v94h-226v98h197l-373 596q-35 59 -69.5 88t-88.5 33v66h529v-66q-47 0 -67.5 -32t5.5 -76
l310 -529l290 524q27 47 10 80t-65 33v66z" />
    <glyph glyph-name="brokenbar" unicode="&#xa6;" horiz-adv-x="337" 
d="M82 1434h174v-701h-174v701zM82 -240v701h174v-701h-174z" />
    <glyph glyph-name="section" unicode="&#xa7;" horiz-adv-x="1249" 
d="M782 993q62 -36 105.5 -63.5t92 -63.5t79.5 -69t58 -75.5t38 -86t10 -97.5t-18 -114q-31 -113 -139 -188q73 -123 30 -287q-25 -96 -95.5 -159t-160.5 -89.5t-200 -26.5q-143 0 -258.5 48t-169.5 135q-52 84 -27 163q12 36 49.5 57.5t84.5 20t83 -29.5q55 -44 49 -179
q-4 -65 47 -101t127 -36q109 0 166 49t60 127q1 41 -16 80t-42 68.5t-73 66t-87.5 61t-107.5 64.5q-63 37 -106 64.5t-92 64.5t-79.5 69.5t-58.5 75t-38.5 86t-10 97.5t17.5 113q35 116 142 190q-75 127 -31 285q24 96 95 159.5t161.5 89t200.5 25.5q144 0 259 -46.5
t169 -133.5q52 -85 24 -166q-19 -55 -89.5 -71.5t-127.5 26.5q-53 42 -47 178q4 65 -47 101t-127 36q-109 0 -165.5 -49t-59.5 -129q-2 -41 15 -80t41.5 -68.5t73.5 -66t88 -61t107 -64.5zM657 522q175 -108 232 -155q4 8 4 16q11 57 -1.5 102.5t-58 88.5t-78 65.5
t-109.5 68.5l-54 33q-178 110 -234 156q0 -4 -4 -16q-13 -75 25 -139t81.5 -95.5t144.5 -92.5q34 -21 52 -32z" />
    <glyph glyph-name="dieresis" unicode="&#xa8;" horiz-adv-x="786" 
d="M219 1427q58 0 97.5 -36t39.5 -97t-39.5 -96t-97.5 -35t-97.5 35t-39.5 96t39.5 97t97.5 36zM567 1427q58 0 98 -36t40 -97t-40 -96t-98 -35t-97.5 35t-39.5 96t39.5 97t97.5 36z" />
    <glyph glyph-name="copyright" unicode="&#xa9;" horiz-adv-x="1585" 
d="M793 -47q-152 0 -291.5 59.5t-240.5 160.5t-160.5 240.5t-59.5 291.5q0 153 59.5 292.5t160.5 239.5t240 159.5t292 59.5t292 -59.5t239.5 -159.5t160 -239.5t59.5 -292.5q0 -122 -38 -236.5t-107.5 -207t-162 -162.5t-207 -108t-236.5 -38zM793 1376q-137 0 -261.5 -53
t-214.5 -143t-143 -214t-53 -261q0 -182 90 -337t245 -245t337 -90q137 0 261 53t214 143t143 214.5t53 261.5t-53 261t-143 214t-214 143t-261 53zM1110 549h35l-29 -182q-122 -91 -307 -82q-198 9 -327.5 126t-129.5 308q0 193 129 312.5t324 119.5q83 0 168 -22t143 -60
v-188h-33q-27 111 -98.5 169t-171.5 56q-87 -1 -148.5 -53.5t-90.5 -138t-29 -195.5q0 -172 75.5 -277.5t204.5 -111.5q212 -9 285 219z" />
    <glyph glyph-name="guillemotleft" unicode="&#xab;" horiz-adv-x="944" 
d="M862 950l-215 -286l215 -287l-35 -41l-356 285v84l356 284zM473 950l-215 -286l215 -287l-35 -41l-356 285v84l356 284z" />
    <glyph glyph-name="registered" unicode="&#xae;" horiz-adv-x="1585" 
d="M793 -47q-152 0 -291.5 59.5t-240.5 160.5t-160.5 240.5t-59.5 291.5q0 153 59.5 292.5t160.5 239.5t240 159.5t292 59.5t292.5 -59.5t239.5 -159.5t159.5 -239.5t59.5 -292.5t-59.5 -292t-159.5 -240t-239.5 -160.5t-292.5 -59.5zM793 1376q-136 0 -260.5 -53
t-214.5 -143t-143.5 -214t-53.5 -261q0 -181 90.5 -336t245.5 -245.5t336 -90.5q137 0 261 53.5t214 143.5t143 214.5t53 260.5q0 137 -53 261t-143 214t-214 143t-261 53zM1130 412q45 -68 91 -76v-37h-226l-209 340h-8h-102v-227q0 -37 12.5 -55t44.5 -21v-37h-287v37
q32 3 44 21t12 55v614q0 37 -12 55t-44 19v39h332q152 0 246 -68t94 -182q0 -74 -41 -130t-116 -87zM676 709h63q95 0 145 48t50 132t-50 132t-145 48h-63v-360z" />
    <glyph glyph-name="macron" unicode="&#xaf;" horiz-adv-x="872" 
d="M82 1325h709v-98h-709v98z" />
    <glyph glyph-name="degree" unicode="&#xb0;" horiz-adv-x="776" 
d="M389 1454q128 0 216.5 -78t88.5 -205t-88.5 -205.5t-216.5 -78.5q-130 0 -218.5 78.5t-88.5 205.5t88.5 205t218.5 78zM389 936q70 0 109 67t39 168q0 100 -39 168t-109 68q-71 0 -109 -68t-38 -168q0 -101 38 -168t109 -67z" />
    <glyph glyph-name="plusminus" unicode="&#xb1;" horiz-adv-x="907" 
d="M82 301v98h743v-98h-743zM502 926h323v-99h-323v-323h-99v323h-321v99h321v321h99v-321z" />
    <glyph glyph-name="acute" unicode="&#xb4;" horiz-adv-x="593" 
d="M498 1384q25 -46 7 -87.5t-71 -61.5q-84 -33 -274 -90q-56 -14 -72 20q-20 36 25 70q113 98 225 178q46 32 90.5 23.5t69.5 -52.5z" />
    <glyph glyph-name="paragraph" unicode="&#xb6;" horiz-adv-x="1112" 
d="M442 1434h588v-66q-55 -4 -75.5 -34.5t-20.5 -94.5v-1239h-119v1356h-172v-1356h-119v674h-82q-162 0 -261 103.5t-99 275.5q0 174 99 277.5t261 103.5z" />
    <glyph glyph-name="cedilla" unicode="&#xb8;" horiz-adv-x="526" 
d="M305 -111q75 -12 110 -54t27 -101q-10 -69 -62 -104.5t-132 -35.5q-50 0 -98.5 19.5t-67.5 42.5l29 45q22 -22 61 -25q77 -9 86 78q9 67 -47 76q-23 4 -51 -4l-17 43l45 131h68l-37 -111q53 4 86 0z" />
    <glyph glyph-name="guillemotright" unicode="&#xbb;" horiz-adv-x="946" 
d="M475 705v-84l-356 -285l-37 41l217 287l-217 286l37 39zM508 989l356 -284v-84l-356 -285l-37 41l215 287l-215 286z" />
    <glyph glyph-name="questiondown" unicode="&#xbf;" horiz-adv-x="1036" 
d="M573 729q-63 0 -105 38t-42 103q0 66 42.5 105t104.5 39t105 -39.5t43 -104.5t-42.5 -103t-105.5 -38zM946 -117q12 -48 4 -89t-28 -75q-44 -74 -145 -127t-236 -53q-123 0 -226 36.5t-169 116t-62 189.5q3 77 26.5 136.5t59 97.5t79 70.5t87.5 66t82 72t66 100.5t36 141
q2 24 15 38.5t36 14.5q25 0 40.5 -13.5t15.5 -39.5q-3 -81 -19.5 -148.5t-41 -114t-53.5 -87.5t-58 -76.5t-54 -71.5t-42.5 -83t-22.5 -101q-10 -127 45.5 -197.5t159.5 -70.5q76 0 124 36.5t44 100.5q-12 143 43 187q51 39 112.5 22t81.5 -78z" />
    <glyph glyph-name="Agrave" unicode="&#xc0;" horiz-adv-x="1492" 
d="M1325 195q27 -61 60.5 -93t87.5 -36v-66h-553v66q61 3 85.5 38t2.5 91l-97 241h-528l-90 -241q-21 -60 0 -92t80 -37v-66h-353v66q55 4 89 36t55 93l379 1028q26 60 10.5 101.5t-74.5 45.5v64h328zM426 553h438l-225 577zM854 1645q43 -32 25 -70q-17 -35 -72 -21
q-183 55 -275 91q-53 20 -70.5 61.5t7.5 87.5q25 44 68.5 52.5t89.5 -23.5q112 -79 227 -178z" />
    <glyph glyph-name="Aacute" unicode="&#xc1;" horiz-adv-x="1492" 
d="M1325 195q27 -61 60.5 -93t87.5 -36v-66h-553v66q61 3 85.5 38t2.5 91l-97 241h-528l-90 -241q-21 -60 0 -92t80 -37v-66h-353v66q55 4 89 36t55 93l379 1028q26 60 10.5 101.5t-74.5 45.5v64h328zM426 553h438l-225 577zM881 1794q25 -46 7 -87.5t-71 -61.5
q-96 -37 -274 -91q-55 -13 -72 21q-20 36 25 70q113 98 225 178q46 32 90.5 23.5t69.5 -52.5z" />
    <glyph glyph-name="Acircumflex" unicode="&#xc2;" horiz-adv-x="1492" 
d="M1325 195q27 -61 60.5 -93t87.5 -36v-66h-553v66q61 3 85.5 38t2.5 91l-97 241h-528l-90 -241q-21 -60 0 -92t80 -37v-66h-353v66q55 4 89 36t55 93l379 1028q26 60 10.5 101.5t-74.5 45.5v64h328zM426 553h438l-225 577zM725 1851l289 -268l-35 -47l-295 166l-297 -166
l-33 47l287 268h84z" />
    <glyph glyph-name="Atilde" unicode="&#xc3;" horiz-adv-x="1492" 
d="M1325 195q27 -61 60.5 -93t87.5 -36v-66h-553v66q61 3 85.5 38t2.5 91l-97 241h-528l-90 -241q-21 -60 0 -92t80 -37v-66h-353v66q55 4 89 36t55 93l379 1028q26 60 10.5 101.5t-74.5 45.5v64h328zM426 553h438l-225 577zM537 1802q49 0 87 -11.5t91 -37.5
q116 -61 172 -61q79 0 100 84h55q-8 -110 -51 -167t-133 -57q-19 0 -38.5 3t-33 6t-36.5 11t-31.5 11.5t-36 15.5t-33.5 15q-93 39 -143 39q-77 0 -123 -82h-55q9 103 68.5 167t140.5 64z" />
    <glyph glyph-name="Adieresis" unicode="&#xc4;" horiz-adv-x="1492" 
d="M1325 195q27 -61 60.5 -93t87.5 -36v-66h-553v66q61 3 85.5 38t2.5 91l-97 241h-528l-90 -241q-21 -60 0 -92t80 -37v-66h-353v66q55 4 89 36t55 93l379 1028q26 60 10.5 101.5t-74.5 45.5v64h328zM426 553h438l-225 577zM510 1837q58 0 97.5 -36t39.5 -97t-39.5 -96
t-97.5 -35t-97.5 35t-39.5 96t39.5 97t97.5 36zM858 1837q58 0 97.5 -36t39.5 -97t-39.5 -96t-97.5 -35t-97.5 35t-39.5 96t39.5 97t97.5 36z" />
    <glyph glyph-name="Aring" unicode="&#xc5;" horiz-adv-x="1492" 
d="M1325 195q27 -61 60.5 -93t87.5 -36v-66h-553v66q61 3 85.5 38t2.5 91l-97 241h-528l-90 -241q-21 -60 0 -92t80 -37v-66h-353v66q55 4 89 36t55 93l379 1028q26 60 10.5 101.5t-74.5 45.5v64h328zM426 553h438l-225 577zM684 1923q94 0 160.5 -54.5t66.5 -142.5
t-66.5 -142t-160.5 -54q-95 0 -161 54t-66 142t66 142.5t161 54.5zM684 1567q44 0 67 45t23 114q0 68 -23 113t-67 45t-67 -45t-23 -113q0 -69 23 -114t67 -45z" />
    <glyph glyph-name="AE" unicode="&#xc6;" horiz-adv-x="2078" 
d="M1966 385h51l-41 -385h-1058v66q55 4 75.5 35t20.5 94v241h-500l-154 -241q-36 -57 -21 -90.5t75 -38.5v-66h-394v66q57 4 109 38.5t88 88.5l662 1040q22 35 27 65t-10.5 49.5t-51.5 20.5v66h1093l39 -385h-51q-71 266 -289 266h-325v-529h217q68 0 106.5 17t52 43
t21.5 74h53v-385h-53q-8 48 -22 74t-52 42.5t-106 16.5h-217v-549h366q213 0 289 266zM1014 553v668l-424 -668h424z" />
    <glyph glyph-name="Ccedilla" unicode="&#xc7;" horiz-adv-x="1429" 
d="M1321 121q-202 -153 -506 -141l-31 -91q55 4 88 0q75 -12 110 -54t26 -101q-9 -68 -61.5 -104t-133.5 -36q-49 0 -97 19.5t-69 42.5l29 45q28 -23 61 -25q77 -9 86 78q9 67 -47 76q-22 4 -51 -4l-14 43l39 117q-206 21 -367 112t-256.5 252.5t-95.5 368.5q0 164 59 302.5
t162.5 233t245.5 147t305 52.5q139 0 279 -37.5t239 -101.5v-322h-57q-45 190 -162.5 289.5t-286.5 97.5q-149 -2 -253.5 -91.5t-153 -235t-48.5 -334.5q0 -294 129 -473.5t347 -188.5q180 -9 295.5 83.5t179.5 289.5h57z" />
    <glyph glyph-name="Egrave" unicode="&#xc8;" horiz-adv-x="1243" 
d="M1130 387h52l-41 -387h-1059v66q56 4 76 34.5t20 94.5v1046q0 64 -20 93.5t-76 35.5v64h1020l39 -385h-51q-71 268 -289 268h-326v-531h217q52 0 86 8.5t53 27t28 40.5t15 58h52v-385h-52q-8 48 -22.5 74t-53 42.5t-106.5 16.5h-217v-549h367q217 0 288 268zM821 1645
q43 -32 25 -70q-17 -35 -72 -21q-178 54 -274 91q-53 20 -71 61.5t7 87.5q25 44 68.5 52.5t89.5 -23.5q112 -79 227 -178z" />
    <glyph glyph-name="Eacute" unicode="&#xc9;" horiz-adv-x="1243" 
d="M1130 387h52l-41 -387h-1059v66q56 4 76 34.5t20 94.5v1046q0 64 -20 93.5t-76 35.5v64h1020l39 -385h-51q-71 268 -289 268h-326v-531h217q52 0 86 8.5t53 27t28 40.5t15 58h52v-385h-52q-8 48 -22.5 74t-53 42.5t-106.5 16.5h-217v-549h367q217 0 288 268zM827 1794
q25 -46 7.5 -87.5t-70.5 -61.5q-92 -36 -275 -91q-55 -13 -71 21q-21 37 24 70q108 93 226 178q46 32 90 23.5t69 -52.5z" />
    <glyph glyph-name="Ecircumflex" unicode="&#xca;" horiz-adv-x="1243" 
d="M1130 387h52l-41 -387h-1059v66q56 4 76 34.5t20 94.5v1046q0 64 -20 93.5t-76 35.5v64h1020l39 -385h-51q-71 268 -289 268h-326v-531h217q52 0 86 8.5t53 27t28 40.5t15 58h52v-385h-52q-8 48 -22.5 74t-53 42.5t-106.5 16.5h-217v-549h367q217 0 288 268zM672 1851
l289 -268l-35 -47l-295 166l-297 -166l-33 47l287 268h84z" />
    <glyph glyph-name="Edieresis" unicode="&#xcb;" horiz-adv-x="1243" 
d="M1130 387h52l-41 -387h-1059v66q56 4 76 34.5t20 94.5v1046q0 64 -20 93.5t-76 35.5v64h1020l39 -385h-51q-71 268 -289 268h-326v-531h217q52 0 86 8.5t53 27t28 40.5t15 58h52v-385h-52q-8 48 -22.5 74t-53 42.5t-106.5 16.5h-217v-549h367q217 0 288 268zM457 1837
q58 0 97.5 -36t39.5 -97t-39.5 -96t-97.5 -35t-98 35t-40 96t40 97t98 36zM805 1837q58 0 97.5 -36t39.5 -97t-39.5 -96t-97.5 -35t-97.5 35t-39.5 96t39.5 97t97.5 36z" />
    <glyph glyph-name="Igrave" unicode="&#xcc;" horiz-adv-x="655" 
d="M573 1370q-56 -6 -77 -36t-21 -93v-1046q0 -63 21 -94t77 -35v-66h-491v66q55 4 75.5 35t20.5 94v1046q0 63 -20.5 93t-75.5 36v64h491v-64zM518 1645q43 -32 25 -70q-17 -35 -72 -21q-178 54 -274 91q-53 20 -71 61.5t7 87.5q25 44 68.5 52.5t89.5 -23.5
q112 -79 227 -178z" />
    <glyph glyph-name="Iacute" unicode="&#xcd;" horiz-adv-x="655" 
d="M573 1370q-56 -6 -77 -36t-21 -93v-1046q0 -63 21 -94t77 -35v-66h-491v66q55 4 75.5 35t20.5 94v1046q0 63 -20.5 93t-75.5 36v64h491v-64zM522 1794q25 -46 7.5 -87.5t-70.5 -61.5q-92 -36 -275 -91q-55 -13 -71 21q-21 37 24 70q113 98 225 178q46 32 90.5 23.5
t69.5 -52.5z" />
    <glyph glyph-name="Icircumflex" unicode="&#xce;" horiz-adv-x="655" 
d="M573 1370q-56 -6 -77 -36t-21 -93v-1046q0 -63 21 -94t77 -35v-66h-491v66q55 4 75.5 35t20.5 94v1046q0 63 -20.5 93t-75.5 36v64h491v-64zM369 1851l288 -268l-34 -47l-295 166l-297 -166l-33 47l287 268h84z" />
    <glyph glyph-name="Idieresis" unicode="&#xcf;" horiz-adv-x="655" 
d="M573 1370q-56 -6 -77 -36t-21 -93v-1046q0 -63 21 -94t77 -35v-66h-491v66q55 4 75.5 35t20.5 94v1046q0 63 -20.5 93t-75.5 36v64h491v-64zM154 1837q58 0 97.5 -36t39.5 -97t-39.5 -96t-97.5 -35t-98 35t-40 96t40 97t98 36zM502 1837q58 0 97.5 -36t39.5 -97
t-39.5 -96t-97.5 -35t-97.5 35t-39.5 96t39.5 97t97.5 36z" />
    <glyph glyph-name="Eth" unicode="&#xd0;" horiz-adv-x="1503" 
d="M657 1434q200 0 357.5 -56t256.5 -154t150.5 -227t51.5 -280t-51.5 -280t-150.5 -227t-256.5 -154t-357.5 -56h-575v66q55 4 75.5 35t20.5 94v487h-96v98h96v461q0 63 -20.5 93t-75.5 34v66h575zM616 119q259 0 395 161t136 437t-136 437t-395 161h-141v-535h316v-98
h-316v-563h141z" />
    <glyph glyph-name="Ntilde" unicode="&#xd1;" horiz-adv-x="1515" 
d="M1130 1434h314v-64q-56 -6 -77 -36t-21 -93v-1241h-179l-870 1102v-907q0 -63 21 -94t77 -35v-66h-313v66q56 4 77 35t21 94v1046q0 63 -21 93t-77 36v64h342l805 -1022v829q0 63 -21.5 93t-77.5 36v64zM655 1802q49 0 87.5 -11.5t91.5 -37.5q116 -61 172 -61
q79 0 100 84h55q-8 -110 -51 -167t-133 -57q-19 0 -38.5 3t-33 6t-36.5 11t-31.5 11.5t-36 15.5t-33.5 15q-93 39 -143 39q-77 0 -123 -82h-56q9 103 68.5 167t140.5 64z" />
    <glyph glyph-name="Ograve" unicode="&#xd2;" horiz-adv-x="1628" 
d="M813 1454q160 0 303 -55t246.5 -151.5t164 -234.5t60.5 -296q0 -157 -60.5 -295t-164 -234.5t-246.5 -152t-303 -55.5t-302.5 55.5t-246 152t-163.5 234t-60 295.5t60 296t163.5 234.5t246 151.5t302.5 55zM813 55q198 0 324.5 179t126.5 483q0 305 -126.5 483
t-324.5 178q-197 0 -322.5 -178t-125.5 -483q0 -304 126 -483t322 -179zM1004 1645q42 -31 24 -70q-17 -35 -72 -21q-178 54 -274 91q-53 20 -71 61.5t7 87.5q25 44 68.5 52.5t89.5 -23.5q118 -83 228 -178z" />
    <glyph glyph-name="Oacute" unicode="&#xd3;" horiz-adv-x="1628" 
d="M813 1454q160 0 303 -55t246.5 -151.5t164 -234.5t60.5 -296q0 -157 -60.5 -295t-164 -234.5t-246.5 -152t-303 -55.5t-302.5 55.5t-246 152t-163.5 234t-60 295.5t60 296t163.5 234.5t246 151.5t302.5 55zM813 55q198 0 324.5 179t126.5 483q0 305 -126.5 483
t-324.5 178q-197 0 -322.5 -178t-125.5 -483q0 -304 126 -483t322 -179zM1010 1794q25 -46 7 -87.5t-71 -61.5q-96 -37 -274 -91q-55 -13 -72 21q-20 36 25 70q113 98 225 178q46 32 90.5 23.5t69.5 -52.5z" />
    <glyph glyph-name="Ocircumflex" unicode="&#xd4;" horiz-adv-x="1628" 
d="M813 1454q160 0 303 -55t246.5 -151.5t164 -234.5t60.5 -296q0 -157 -60.5 -295t-164 -234.5t-246.5 -152t-303 -55.5t-302.5 55.5t-246 152t-163.5 234t-60 295.5t60 296t163.5 234.5t246 151.5t302.5 55zM813 55q198 0 324.5 179t126.5 483q0 305 -126.5 483
t-324.5 178q-197 0 -322.5 -178t-125.5 -483q0 -304 126 -483t322 -179zM854 1851l289 -268l-35 -47l-295 166l-297 -166l-33 47l287 268h84z" />
    <glyph glyph-name="Otilde" unicode="&#xd5;" horiz-adv-x="1628" 
d="M813 1454q160 0 303 -55t246.5 -151.5t164 -234.5t60.5 -296q0 -157 -60.5 -295t-164 -234.5t-246.5 -152t-303 -55.5t-302.5 55.5t-246 152t-163.5 234t-60 295.5t60 296t163.5 234.5t246 151.5t302.5 55zM813 55q198 0 324.5 179t126.5 483q0 305 -126.5 483
t-324.5 178q-197 0 -322.5 -178t-125.5 -483q0 -304 126 -483t322 -179zM666 1802q49 0 87 -11.5t91 -37.5q116 -61 172 -61q79 0 100 84h55q-8 -110 -51 -167t-133 -57q-19 0 -38.5 3t-33 6t-36.5 11t-31.5 11.5t-36 15.5t-33.5 15q-93 39 -143 39q-77 0 -123 -82h-55
q9 103 68.5 167t140.5 64z" />
    <glyph glyph-name="Odieresis" unicode="&#xd6;" horiz-adv-x="1628" 
d="M813 1454q160 0 303 -55t246.5 -151.5t164 -234.5t60.5 -296q0 -157 -60.5 -295t-164 -234.5t-246.5 -152t-303 -55.5t-302.5 55.5t-246 152t-163.5 234t-60 295.5t60 296t163.5 234.5t246 151.5t302.5 55zM813 55q198 0 324.5 179t126.5 483q0 305 -126.5 483
t-324.5 178q-197 0 -322.5 -178t-125.5 -483q0 -304 126 -483t322 -179zM639 1837q58 0 97.5 -36t39.5 -97t-39.5 -96t-97.5 -35t-97.5 35t-39.5 96t39.5 97t97.5 36zM987 1837q58 0 97.5 -36t39.5 -97t-39.5 -96t-97.5 -35t-97.5 35t-39.5 96t39.5 97t97.5 36z" />
    <glyph glyph-name="multiply" unicode="&#xd7;" horiz-adv-x="759" 
d="M678 915l-227 -227l227 -229l-70 -70l-227 229l-229 -229l-70 70l229 229l-229 227l70 70l229 -229l227 229z" />
    <glyph glyph-name="Oslash" unicode="&#xd8;" horiz-adv-x="1628" 
d="M1391 1223q94 -98 145 -228t51 -278q0 -158 -60 -295.5t-163.5 -234t-246 -152t-302.5 -55.5q-290 0 -500 167l-180 -178l-69 68l176 176q-199 205 -199 504q0 158 60 296t163.5 234.5t246 151.5t302.5 55q291 0 502 -166l178 178l70 -69zM367 717q0 -190 49 -330
l758 758q-62 113 -154.5 173t-204.5 60q-196 0 -322 -178.5t-126 -482.5zM815 55q198 0 324.5 179t126.5 483q0 185 -52 330l-755 -756q60 -114 152 -175t204 -61z" />
    <glyph glyph-name="Ugrave" unicode="&#xd9;" horiz-adv-x="1495" 
d="M1122 1434h312v-66q-55 -4 -76 -34t-21 -93v-676q0 -264 -148 -424.5t-407 -160.5q-124 0 -231.5 34.5t-191.5 102.5t-132.5 180t-48.5 256v688q0 63 -20.5 93t-75.5 34v66h491v-66q-56 -4 -77 -34t-21 -93v-700q0 -214 103.5 -329.5t277.5 -115.5q118 0 202 63
t122.5 162.5t38.5 223.5v696q0 63 -21 93t-76 34v66zM1030 1645q43 -32 25 -70q-17 -35 -72 -21q-178 54 -274 91q-53 20 -71 61.5t7 87.5q25 44 68.5 52.5t89.5 -23.5q112 -79 227 -178z" />
    <glyph glyph-name="Uacute" unicode="&#xda;" horiz-adv-x="1495" 
d="M1122 1434h312v-66q-55 -4 -76 -34t-21 -93v-676q0 -264 -148 -424.5t-407 -160.5q-124 0 -231.5 34.5t-191.5 102.5t-132.5 180t-48.5 256v688q0 63 -20.5 93t-75.5 34v66h491v-66q-56 -4 -77 -34t-21 -93v-700q0 -214 103.5 -329.5t277.5 -115.5q118 0 202 63
t122.5 162.5t38.5 223.5v696q0 63 -21 93t-76 34v66zM1034 1794q25 -46 7.5 -87.5t-70.5 -61.5q-92 -36 -275 -91q-55 -13 -71 21q-21 37 24 70q113 98 225 178q46 32 90.5 23.5t69.5 -52.5z" />
    <glyph glyph-name="Ucircumflex" unicode="&#xdb;" horiz-adv-x="1495" 
d="M1122 1434h312v-66q-55 -4 -76 -34t-21 -93v-676q0 -264 -148 -424.5t-407 -160.5q-124 0 -231.5 34.5t-191.5 102.5t-132.5 180t-48.5 256v688q0 63 -20.5 93t-75.5 34v66h491v-66q-56 -4 -77 -34t-21 -93v-700q0 -214 103.5 -329.5t277.5 -115.5q118 0 202 63
t122.5 162.5t38.5 223.5v696q0 63 -21 93t-76 34v66zM881 1851l288 -268l-34 -47l-295 166l-297 -166l-33 47l287 268h84z" />
    <glyph glyph-name="Udieresis" unicode="&#xdc;" horiz-adv-x="1495" 
d="M1122 1434h312v-66q-55 -4 -76 -34t-21 -93v-676q0 -264 -148 -424.5t-407 -160.5q-124 0 -231.5 34.5t-191.5 102.5t-132.5 180t-48.5 256v688q0 63 -20.5 93t-75.5 34v66h491v-66q-56 -4 -77 -34t-21 -93v-700q0 -214 103.5 -329.5t277.5 -115.5q118 0 202 63
t122.5 162.5t38.5 223.5v696q0 63 -21 93t-76 34v66zM666 1837q58 0 97.5 -36t39.5 -97t-39.5 -96t-97.5 -35t-98 35t-40 96t40 97t98 36zM1014 1837q58 0 97.5 -36t39.5 -97t-39.5 -96t-97.5 -35t-97.5 35t-39.5 96t39.5 97t97.5 36z" />
    <glyph glyph-name="Yacute" unicode="&#xdd;" horiz-adv-x="1388" 
d="M1032 1434h336v-66q-45 -3 -74 -22.5t-55 -61.5l-362 -651v-438q0 -63 20.5 -94t75.5 -35v-66h-492v66q56 4 77.5 35t21.5 94v411l-402 643q-36 58 -70.5 86.5t-87.5 32.5v66h529v-66q-48 0 -68 -31t6 -77l310 -529l290 524q27 47 10 80t-65 33v66zM971 1794
q25 -46 7 -87.5t-71 -61.5q-96 -37 -274 -91q-55 -13 -72 21q-20 36 25 70q113 98 225 178q46 32 90.5 23.5t69.5 -52.5z" />
    <glyph glyph-name="Thorn" unicode="&#xde;" horiz-adv-x="1255" 
d="M637 1169q265 0 421 -124t156 -328t-156 -328.5t-421 -124.5h-162v-69q0 -63 21 -94t77 -35v-66h-491v66q55 4 75.5 35t20.5 94v1046q0 63 -20.5 93t-75.5 34v66h491v-66q-56 -4 -77 -34t-21 -93v-72h162zM571 383q84 0 148.5 26t103.5 72.5t58.5 105.5t19.5 130
t-19.5 130.5t-58.5 106t-103.5 73t-148.5 26.5h-96v-670h96z" />
    <glyph glyph-name="germandbls" unicode="&#xdf;" horiz-adv-x="1380" 
d="M1001 745q47 -22 85 -42.5t74 -44.5t63 -48t49.5 -52t36.5 -58.5t22 -65t7.5 -74t-9.5 -84.5q-20 -98 -84 -166t-151 -99t-193 -31q-107 0 -220.5 35t-197.5 91l-2 336h66q45 -188 128.5 -283.5t198.5 -103.5q91 -6 146.5 38.5t64.5 127.5q11 100 -50.5 167t-207.5 136
q-110 52 -178.5 101t-105 105t-33 120t44.5 141q65 121 68 238q3 82 -20 127.5t-77 42.5q-35 -1 -56.5 -32t-30 -100.5t-10 -118.5t-1.5 -149v-41v-958h-387v66q56 4 77 35t21 94v823q0 211 97.5 323.5t293.5 112.5q165 0 250.5 -71.5t75.5 -172.5q-14 -146 -178 -219
q-86 -36 105 -140q63 -34 218 -106z" />
    <glyph glyph-name="agrave" unicode="&#xe0;" horiz-adv-x="1052" 
d="M1028 115l25 -45q-21 -34 -71.5 -62t-107.5 -28q-35 0 -71 8.5t-70.5 26t-57.5 50.5t-26 76q-36 -82 -110.5 -121.5t-161.5 -39.5q-68 0 -127.5 14t-111 43t-82.5 80t-33 119q-2 71 20 126.5t58 91t89.5 60.5t107.5 37t118 18q146 12 219 21v84q0 123 -29.5 182
t-105.5 68q-54 5 -100 -23t-42 -92q4 -46 -9.5 -80t-36.5 -48.5t-51.5 -20t-55.5 5.5q-54 19 -72 65.5t10 110.5q67 147 349 147q62 0 119 -9.5t115.5 -35t101.5 -65t70.5 -105t27.5 -149.5v-459q0 -37 18.5 -55.5t42 -15.5t41.5 20zM469 86q82 3 124 80t42 190v160
q-7 0 -113 -14q-108 -13 -159 -70t-54 -158q-3 -96 42 -143t118 -45zM748 1214q42 -31 24 -69q-17 -35 -72 -21q-190 57 -274 90q-53 20 -71 62t7 88q25 44 68.5 52.5t89.5 -23.5q111 -78 228 -179z" />
    <glyph glyph-name="aacute" unicode="&#xe1;" horiz-adv-x="1052" 
d="M1028 115l25 -45q-21 -34 -71.5 -62t-107.5 -28q-35 0 -71 8.5t-70.5 26t-57.5 50.5t-26 76q-36 -82 -110.5 -121.5t-161.5 -39.5q-68 0 -127.5 14t-111 43t-82.5 80t-33 119q-2 71 20 126.5t58 91t89.5 60.5t107.5 37t118 18q146 12 219 21v84q0 123 -29.5 182
t-105.5 68q-54 5 -100 -23t-42 -92q4 -46 -9.5 -80t-36.5 -48.5t-51.5 -20t-55.5 5.5q-54 19 -72 65.5t10 110.5q67 147 349 147q62 0 119 -9.5t115.5 -35t101.5 -65t70.5 -105t27.5 -149.5v-459q0 -37 18.5 -55.5t42 -15.5t41.5 20zM469 86q82 3 124 80t42 190v160
q-7 0 -113 -14q-108 -13 -159 -70t-54 -158q-3 -96 42 -143t118 -45zM711 1364q25 -46 7 -88t-71 -62q-84 -33 -274 -90q-55 -13 -72 21q-20 36 25 69q120 103 225 179q46 32 90.5 23.5t69.5 -52.5z" />
    <glyph glyph-name="acircumflex" unicode="&#xe2;" horiz-adv-x="1052" 
d="M1028 115l25 -45q-21 -34 -71.5 -62t-107.5 -28q-35 0 -71 8.5t-70.5 26t-57.5 50.5t-26 76q-36 -82 -110.5 -121.5t-161.5 -39.5q-68 0 -127.5 14t-111 43t-82.5 80t-33 119q-2 71 20 126.5t58 91t89.5 60.5t107.5 37t118 18q146 12 219 21v84q0 123 -29.5 182
t-105.5 68q-54 5 -100 -23t-42 -92q4 -46 -9.5 -80t-36.5 -48.5t-51.5 -20t-55.5 5.5q-54 19 -72 65.5t10 110.5q67 147 349 147q62 0 119 -9.5t115.5 -35t101.5 -65t70.5 -105t27.5 -149.5v-459q0 -37 18.5 -55.5t42 -15.5t41.5 20zM469 86q82 3 124 80t42 190v160
q-7 0 -113 -14q-108 -13 -159 -70t-54 -158q-3 -96 42 -143t118 -45zM578 1421l288 -268l-35 -47l-294 166l-297 -166l-33 47l287 268h84z" />
    <glyph glyph-name="atilde" unicode="&#xe3;" horiz-adv-x="1052" 
d="M1028 115l25 -45q-21 -34 -71.5 -62t-107.5 -28q-35 0 -71 8.5t-70.5 26t-57.5 50.5t-26 76q-36 -82 -110.5 -121.5t-161.5 -39.5q-68 0 -127.5 14t-111 43t-82.5 80t-33 119q-2 71 20 126.5t58 91t89.5 60.5t107.5 37t118 18q146 12 219 21v84q0 123 -29.5 182
t-105.5 68q-54 5 -100 -23t-42 -92q4 -46 -9.5 -80t-36.5 -48.5t-51.5 -20t-55.5 5.5q-54 19 -72 65.5t10 110.5q67 147 349 147q62 0 119 -9.5t115.5 -35t101.5 -65t70.5 -105t27.5 -149.5v-459q0 -37 18.5 -55.5t42 -15.5t41.5 20zM469 86q82 3 124 80t42 190v160
q-7 0 -113 -14q-108 -13 -159 -70t-54 -158q-3 -96 42 -143t118 -45zM387 1372q49 0 87 -11.5t91 -37.5q116 -61 172 -61q80 0 101 84h55q-8 -110 -51 -167t-133 -57q-19 0 -38.5 3t-33 6t-36.5 11t-31.5 11.5t-36 15.5t-33.5 15q-93 39 -144 39q-77 0 -123 -82h-55
q9 103 68.5 167t140.5 64z" />
    <glyph glyph-name="adieresis" unicode="&#xe4;" horiz-adv-x="1052" 
d="M1028 115l25 -45q-21 -34 -71.5 -62t-107.5 -28q-35 0 -71 8.5t-70.5 26t-57.5 50.5t-26 76q-36 -82 -110.5 -121.5t-161.5 -39.5q-68 0 -127.5 14t-111 43t-82.5 80t-33 119q-2 71 20 126.5t58 91t89.5 60.5t107.5 37t118 18q146 12 219 21v84q0 123 -29.5 182
t-105.5 68q-54 5 -100 -23t-42 -92q4 -46 -9.5 -80t-36.5 -48.5t-51.5 -20t-55.5 5.5q-54 19 -72 65.5t10 110.5q67 147 349 147q62 0 119 -9.5t115.5 -35t101.5 -65t70.5 -105t27.5 -149.5v-459q0 -37 18.5 -55.5t42 -15.5t41.5 20zM469 86q82 3 124 80t42 190v160
q-7 0 -113 -14q-108 -13 -159 -70t-54 -158q-3 -96 42 -143t118 -45zM362 1407q58 0 98 -36t40 -97t-40 -96t-98 -35t-97.5 35t-39.5 96t39.5 97t97.5 36zM711 1407q58 0 97.5 -36t39.5 -97t-39.5 -96t-97.5 -35t-98 35t-40 96t40 97t98 36z" />
    <glyph glyph-name="aring" unicode="&#xe5;" horiz-adv-x="1052" 
d="M1028 115l25 -45q-21 -34 -71.5 -62t-107.5 -28q-35 0 -71 8.5t-70.5 26t-57.5 50.5t-26 76q-36 -82 -110.5 -121.5t-161.5 -39.5q-68 0 -127.5 14t-111 43t-82.5 80t-33 119q-2 71 20 126.5t58 91t89.5 60.5t107.5 37t118 18q146 12 219 21v84q0 123 -29.5 182
t-105.5 68q-54 5 -100 -23t-42 -92q4 -46 -9.5 -80t-36.5 -48.5t-51.5 -20t-55.5 5.5q-54 19 -72 65.5t10 110.5q67 147 349 147q62 0 119 -9.5t115.5 -35t101.5 -65t70.5 -105t27.5 -149.5v-459q0 -37 18.5 -55.5t42 -15.5t41.5 20zM469 86q82 3 124 80t42 190v160
q-7 0 -113 -14q-108 -13 -159 -70t-54 -158q-3 -96 42 -143t118 -45zM537 1493q94 0 160.5 -54.5t66.5 -142.5t-66.5 -142t-160.5 -54q-95 0 -161.5 54t-66.5 142t66.5 142.5t161.5 54.5zM537 1137q44 0 67 45t23 114q0 68 -23 113t-67 45t-67.5 -45t-23.5 -113t23.5 -113.5
t67.5 -45.5z" />
    <glyph glyph-name="ae" unicode="&#xe6;" horiz-adv-x="1619" 
d="M1597 528v-28h-659v-2q6 -83 34 -149t70.5 -106.5t95 -65.5t109.5 -28.5t111.5 6.5t104 37.5t85.5 67.5l37 -31q-56 -108 -164.5 -178.5t-246.5 -70.5q-153 0 -279 69.5t-190 200.5q-62 -270 -328 -270q-68 0 -127.5 13.5t-111 42t-82.5 79t-33 118.5q-2 71 20 127
t58 91.5t89.5 60.5t107 37t118.5 18q140 15 221 21v84q0 124 -30.5 183.5t-106.5 66.5q-54 6 -99 -22t-41 -93q3 -46 -10.5 -80t-37 -48.5t-52 -19.5t-55.5 7q-54 18 -72 65.5t10 110.5q69 147 349 147q214 0 331 -104q132 104 332 104q142 0 244.5 -63t151 -166t46.5 -232z
M1151 922q-89 -1 -147 -88t-66 -230h395q1 45 -3.5 87t-17 85.5t-32 75.5t-53 51.5t-76.5 18.5zM469 86q55 1 94 39.5t56.5 98t17.5 132.5v160q-13 -2 -30 -4t-42 -5t-43 -5q-108 -15 -159 -72t-54 -156q-3 -97 42 -144t118 -44z" />
    <glyph glyph-name="ccedilla" unicode="&#xe7;" horiz-adv-x="987" 
d="M946 229q-56 -105 -162 -175.5t-239 -73.5l-31 -91q53 4 88 0q74 -12 109 -54t26 -101q-10 -69 -62 -104.5t-132 -35.5q-50 0 -97.5 19.5t-68.5 42.5l29 45q28 -23 61 -25q77 -9 86 78q9 67 -47 76q-23 4 -51 -4l-15 43l37 113q-95 9 -178 46t-148 100t-103 158.5
t-38 211.5q0 228 145.5 359.5t372.5 131.5q131 0 227.5 -42.5t143.5 -115.5q25 -40 30 -86.5t-16.5 -87t-68.5 -57.5q-67 -25 -127 17.5t-53 136.5q5 83 -28 128.5t-112 41.5q-108 -8 -175 -126t-52 -300q8 -98 45.5 -171.5t91 -113t119 -56.5t129.5 -9t123.5 37.5
t101.5 76.5z" />
    <glyph glyph-name="egrave" unicode="&#xe8;" horiz-adv-x="1001" 
d="M958 530v-30h-659q6 -83 33.5 -149.5t70 -107t95 -66t109.5 -29t112 7t104.5 38.5t85.5 68l37 -31q-58 -110 -165.5 -180.5t-245.5 -70.5q-104 0 -197 33.5t-167 96.5t-117.5 164t-43.5 226q0 224 140.5 356.5t365.5 132.5q142 0 244.5 -63t151 -165.5t46.5 -230.5z
M512 924q-89 -3 -147.5 -90t-67.5 -230h397q1 58 -7 110.5t-26.5 102.5t-57 79t-91.5 28zM717 1214q42 -31 24 -69q-17 -35 -71 -21q-194 59 -275 90q-52 20 -70 62t7 88q25 45 68 53t89 -24q111 -78 228 -179z" />
    <glyph glyph-name="eacute" unicode="&#xe9;" horiz-adv-x="1001" 
d="M958 530v-30h-659q6 -83 33.5 -149.5t70 -107t95 -66t109.5 -29t112 7t104.5 38.5t85.5 68l37 -31q-58 -110 -165.5 -180.5t-245.5 -70.5q-104 0 -197 33.5t-167 96.5t-117.5 164t-43.5 226q0 224 140.5 356.5t365.5 132.5q142 0 244.5 -63t151 -165.5t46.5 -230.5z
M512 924q-89 -3 -147.5 -90t-67.5 -230h397q1 58 -7 110.5t-26.5 102.5t-57 79t-91.5 28zM721 1364q25 -46 7 -88t-71 -62q-84 -33 -274 -90q-55 -13 -72 21q-20 36 25 69q120 103 225 179q46 32 90.5 23.5t69.5 -52.5z" />
    <glyph glyph-name="ecircumflex" unicode="&#xea;" horiz-adv-x="1001" 
d="M958 530v-30h-659q6 -83 33.5 -149.5t70 -107t95 -66t109.5 -29t112 7t104.5 38.5t85.5 68l37 -31q-58 -110 -165.5 -180.5t-245.5 -70.5q-104 0 -197 33.5t-167 96.5t-117.5 164t-43.5 226q0 224 140.5 356.5t365.5 132.5q142 0 244.5 -63t151 -165.5t46.5 -230.5z
M512 924q-89 -3 -147.5 -90t-67.5 -230h397q1 58 -7 110.5t-26.5 102.5t-57 79t-91.5 28zM547 1421l289 -268l-35 -47l-295 166l-297 -166l-33 47l287 268h84z" />
    <glyph glyph-name="edieresis" unicode="&#xeb;" horiz-adv-x="1001" 
d="M958 530v-30h-659q6 -83 33.5 -149.5t70 -107t95 -66t109.5 -29t112 7t104.5 38.5t85.5 68l37 -31q-58 -110 -165.5 -180.5t-245.5 -70.5q-104 0 -197 33.5t-167 96.5t-117.5 164t-43.5 226q0 224 140.5 356.5t365.5 132.5q142 0 244.5 -63t151 -165.5t46.5 -230.5z
M512 924q-89 -3 -147.5 -90t-67.5 -230h397q1 58 -7 110.5t-26.5 102.5t-57 79t-91.5 28zM332 1407q58 0 97.5 -36t39.5 -97t-39.5 -96t-97.5 -35t-97.5 35t-39.5 96t39.5 97t97.5 36zM680 1407q58 0 97.5 -36t39.5 -97t-39.5 -96t-97.5 -35t-97.5 35t-39.5 96t39.5 97
t97.5 36z" />
    <glyph glyph-name="igrave" unicode="&#xec;" 
d="M428 195q0 -63 21 -94t77 -35v-66h-485v66q56 4 77 35t21 94v524q0 63 -21 93t-77 34v65l338 78h49v-794zM453 1214q42 -31 24 -69q-17 -35 -71 -21q-194 59 -275 90q-52 20 -70 62t7 88q25 45 68 53t89 -24q111 -78 228 -179z" />
    <glyph glyph-name="iacute" unicode="&#xed;" 
d="M428 195q0 -63 21 -94t77 -35v-66h-485v66q56 4 77 35t21 94v524q0 63 -21 93t-77 34v65l338 78h49v-794zM459 1364q25 -46 7 -88t-71 -62q-84 -33 -274 -90q-55 -13 -72 21q-20 36 25 69q120 103 225 179q46 32 90.5 23.5t69.5 -52.5z" />
    <glyph glyph-name="icircumflex" unicode="&#xee;" 
d="M432 195q0 -63 21 -94t77 -35v-66h-485v66q56 4 77 35t21 94v524q0 63 -21 93t-77 34v65l338 78h49v-794zM309 1421l289 -268l-35 -47l-295 166l-297 -166l-32 47l286 268h84z" />
    <glyph glyph-name="idieresis" unicode="&#xef;" 
d="M430 195q0 -63 21 -94t77 -35v-66h-485v66q56 4 77 35t21 94v524q0 63 -21 93t-77 34v65l338 78h49v-794zM92 1407q58 0 97.5 -36t39.5 -97t-39.5 -96t-97.5 -35t-97.5 35t-39.5 96t39.5 97t97.5 36zM440 1407q58 0 98 -36t40 -97t-40 -96t-98 -35t-97.5 35t-39.5 96
t39.5 97t97.5 36z" />
    <glyph glyph-name="eth" unicode="&#xf0;" horiz-adv-x="1173" 
d="M840 1233q141 -131 214 -315t52 -400q-25 -251 -176.5 -394.5t-384.5 -143.5q-146 0 -265.5 57t-191.5 164t-76 245q-3 139 63.5 247t180 165t250.5 57q99 0 188.5 -46.5t130.5 -118.5q-14 220 -143 387l-150 -95l-40 70l137 86q-86 86 -188 136t-179 61l6 80
q127 0 259.5 -49t248.5 -138l166 105l41 -70zM557 55q117 0 189.5 106.5t72.5 284.5q0 161 -72 270t-190 109q-117 0 -185.5 -108.5t-68.5 -270.5q0 -179 69 -285t185 -106z" />
    <glyph glyph-name="ntilde" unicode="&#xf1;" horiz-adv-x="1222" 
d="M1106 195q0 -63 20.5 -94t75.5 -35v-66h-483v66q55 4 75.5 35t20.5 94v434q0 256 -188 256q-93 0 -146 -71.5t-53 -178.5v-440q0 -63 20.5 -94t75.5 -35v-66h-483v66q55 4 75.5 35t20.5 94v524q0 63 -20.5 93t-75.5 34v65l324 78h51v-145q109 145 307 145
q194 0 288.5 -106.5t94.5 -286.5v-401zM473 1372q49 0 87 -11.5t91 -37.5q116 -61 172 -61q80 0 101 84h55q-8 -110 -51 -167t-133 -57q-19 0 -38.5 3t-33 6t-36.5 11t-31.5 11.5t-36 15.5t-33.5 15q-93 39 -144 39q-77 0 -123 -82h-55q9 103 68.5 167t140.5 64z" />
    <glyph glyph-name="ograve" unicode="&#xf2;" horiz-adv-x="1112" 
d="M541 989q108 0 203 -33t168.5 -94.5t116 -159t42.5 -217.5t-42.5 -217.5t-116 -159.5t-168.5 -95t-203 -33t-203.5 33t-169 95t-116 159.5t-42.5 217.5q0 97 28 179t77 141.5t116 101t145.5 62t164.5 20.5zM541 63q110 0 170.5 116.5t60.5 305.5q0 188 -60.5 304
t-170.5 116t-172 -116t-62 -304t62 -305t172 -117zM752 1214q42 -31 24 -69q-17 -35 -71 -21q-194 59 -275 90q-52 20 -70 62t7 88q25 45 68 53t89 -24q111 -78 228 -179z" />
    <glyph glyph-name="oacute" unicode="&#xf3;" horiz-adv-x="1112" 
d="M541 989q108 0 203 -33t168.5 -94.5t116 -159t42.5 -217.5t-42.5 -217.5t-116 -159.5t-168.5 -95t-203 -33t-203.5 33t-169 95t-116 159.5t-42.5 217.5q0 97 28 179t77 141.5t116 101t145.5 62t164.5 20.5zM541 63q110 0 170.5 116.5t60.5 305.5q0 188 -60.5 304
t-170.5 116t-172 -116t-62 -304t62 -305t172 -117zM756 1364q25 -46 7 -88t-71 -62q-84 -33 -274 -90q-55 -13 -72 21q-20 36 25 69q120 103 225 179q46 32 90.5 23.5t69.5 -52.5z" />
    <glyph glyph-name="ocircumflex" unicode="&#xf4;" horiz-adv-x="1112" 
d="M541 989q108 0 203 -33t168.5 -94.5t116 -159t42.5 -217.5t-42.5 -217.5t-116 -159.5t-168.5 -95t-203 -33t-203.5 33t-169 95t-116 159.5t-42.5 217.5q0 97 28 179t77 141.5t116 101t145.5 62t164.5 20.5zM541 63q110 0 170.5 116.5t60.5 305.5q0 188 -60.5 304
t-170.5 116t-172 -116t-62 -304t62 -305t172 -117zM582 1421l288 -268l-34 -47l-295 166l-297 -166l-33 47l287 268h84z" />
    <glyph glyph-name="otilde" unicode="&#xf5;" horiz-adv-x="1112" 
d="M541 989q108 0 203 -33t168.5 -94.5t116 -159t42.5 -217.5t-42.5 -217.5t-116 -159.5t-168.5 -95t-203 -33t-203.5 33t-169 95t-116 159.5t-42.5 217.5q0 97 28 179t77 141.5t116 101t145.5 62t164.5 20.5zM541 63q110 0 170.5 116.5t60.5 305.5q0 188 -60.5 304
t-170.5 116t-172 -116t-62 -304t62 -305t172 -117zM391 1372q49 0 87 -11.5t91 -37.5q116 -61 172 -61q80 0 101 84h55q-8 -110 -51 -167t-133 -57q-19 0 -38.5 3t-33 6t-36.5 11t-31.5 11.5t-36 15.5t-33.5 15q-93 39 -144 39q-76 0 -122 -82h-56q9 103 68.5 167t140.5 64z
" />
    <glyph glyph-name="odieresis" unicode="&#xf6;" horiz-adv-x="1112" 
d="M541 989q108 0 203 -33t168.5 -94.5t116 -159t42.5 -217.5t-42.5 -217.5t-116 -159.5t-168.5 -95t-203 -33t-203.5 33t-169 95t-116 159.5t-42.5 217.5q0 97 28 179t77 141.5t116 101t145.5 62t164.5 20.5zM541 63q110 0 170.5 116.5t60.5 305.5q0 188 -60.5 304
t-170.5 116t-172 -116t-62 -304t62 -305t172 -117zM367 1407q58 0 97.5 -36t39.5 -97t-39.5 -96t-97.5 -35t-98 35t-40 96t40 97t98 36zM715 1407q58 0 97.5 -36t39.5 -97t-39.5 -96t-97.5 -35t-97.5 35t-39.5 96t39.5 97t97.5 36z" />
    <glyph glyph-name="divide" unicode="&#xf7;" horiz-adv-x="907" 
d="M82 737h743v-98h-743v98zM455 870q-62 0 -105 39.5t-43 104.5t43 104t105 39t104.5 -39t42.5 -104q0 -66 -42.5 -105t-104.5 -39zM455 535q62 0 104.5 -38.5t42.5 -103.5t-42.5 -104t-104.5 -39t-105 39t-43 104t42.5 103.5t105.5 38.5z" />
    <glyph glyph-name="oslash" unicode="&#xf8;" horiz-adv-x="1112" 
d="M1077 950l-125 -127q121 -134 121 -340q0 -120 -42.5 -217t-116 -158.5t-168.5 -94.5t-203 -33q-199 0 -336 98l-131 -129l-70 69l127 125q-121 134 -121 340q0 121 42.5 218.5t116 159.5t169 95t203.5 33q201 0 336 -100l129 131zM309 483q0 -76 13 -149l411 411
q-64 160 -190 160q-110 0 -172 -117t-62 -305zM774 483q0 81 -12 152l-410 -412q28 -75 77 -117.5t114 -42.5q110 0 170.5 116t60.5 304z" />
    <glyph glyph-name="ugrave" unicode="&#xf9;" horiz-adv-x="1202" 
d="M1065 195q0 -63 20.5 -94t75.5 -35v-66h-387v111q-110 -131 -293 -131q-194 0 -288.5 107.5t-94.5 287.5v344q0 63 -21 93t-77 34v65l338 78h49v-647q0 -121 46.5 -188.5t144.5 -67.5q93 0 144.5 71t51.5 179v383q0 63 -20.5 93t-75.5 34v65l338 78h49v-794zM811 1214
q43 -32 25 -69q-17 -35 -72 -21q-194 59 -275 90q-52 20 -70 62t7 88q25 44 68.5 52.5t89.5 -23.5q106 -75 227 -179z" />
    <glyph glyph-name="uacute" unicode="&#xfa;" horiz-adv-x="1202" 
d="M1065 195q0 -63 20.5 -94t75.5 -35v-66h-387v111q-110 -131 -293 -131q-194 0 -288.5 107.5t-94.5 287.5v344q0 63 -21 93t-77 34v65l338 78h49v-647q0 -121 46.5 -188.5t144.5 -67.5q93 0 144.5 71t51.5 179v383q0 63 -20.5 93t-75.5 34v65l338 78h49v-794zM756 1364
q25 -46 7 -88t-71 -62q-84 -33 -274 -90q-55 -13 -72 21q-20 36 25 69q120 103 225 179q46 32 90.5 23.5t69.5 -52.5z" />
    <glyph glyph-name="ucircumflex" unicode="&#xfb;" horiz-adv-x="1202" 
d="M1065 195q0 -63 20.5 -94t75.5 -35v-66h-387v111q-110 -131 -293 -131q-194 0 -288.5 107.5t-94.5 287.5v344q0 63 -21 93t-77 34v65l338 78h49v-647q0 -121 46.5 -188.5t144.5 -67.5q93 0 144.5 71t51.5 179v383q0 63 -20.5 93t-75.5 34v65l338 78h49v-794zM621 1421
l288 -268l-35 -47l-294 166l-297 -166l-33 47l287 268h84z" />
    <glyph glyph-name="udieresis" unicode="&#xfc;" horiz-adv-x="1202" 
d="M1065 195q0 -63 20.5 -94t75.5 -35v-66h-387v111q-110 -131 -293 -131q-194 0 -288.5 107.5t-94.5 287.5v344q0 63 -21 93t-77 34v65l338 78h49v-647q0 -121 46.5 -188.5t144.5 -67.5q93 0 144.5 71t51.5 179v383q0 63 -20.5 93t-75.5 34v65l338 78h49v-794zM406 1407
q58 0 97.5 -36t39.5 -97t-39.5 -96t-97.5 -35t-98 35t-40 96t40 97t98 36zM754 1407q58 0 97.5 -36t39.5 -97t-39.5 -96t-97.5 -35t-98 35t-40 96t40 97t98 36z" />
    <glyph glyph-name="yacute" unicode="&#xfd;" horiz-adv-x="1081" 
d="M780 971h271v-66q-49 -3 -74 -24t-49 -76l-357 -856q-68 -155 -120.5 -240.5t-102 -123.5t-115.5 -50q-56 -10 -126.5 3.5t-110.5 49.5q-23 19 -39.5 47.5t-16 68.5t30.5 71q29 30 67.5 32.5t69.5 -19.5t42 -60q15 -56 30 -73q21 -23 62 -20q23 2 43.5 12.5t49.5 40
t64.5 94t75.5 161.5l-377 833q-29 63 -60.5 94t-84.5 35v66h514v-66q-108 -9 -59 -129l206 -500l220 529q19 41 5.5 70t-59.5 30v66zM834 1364q25 -46 7 -88t-71 -62q-84 -33 -274 -90q-55 -13 -72 21q-20 36 25 69q120 103 225 179q46 32 90.5 23.5t69.5 -52.5z" />
    <glyph glyph-name="thorn" unicode="&#xfe;" horiz-adv-x="1187" 
d="M707 989q204 0 322 -135t118 -371q0 -234 -118 -368.5t-322 -134.5q-182 0 -299 124v-374q0 -65 21 -95t77 -34v-66h-486v66q56 4 77.5 34.5t21.5 94.5v1509q0 63 -21.5 94t-77.5 35v66l338 79h50v-651q117 127 299 127zM641 63q112 0 165.5 115t53.5 305
q0 191 -53.5 306.5t-165.5 115.5q-113 0 -173 -113.5t-60 -308.5q0 -194 60 -307t173 -113z" />
    <glyph glyph-name="ydieresis" unicode="&#xff;" horiz-adv-x="1081" 
d="M780 971h271v-66q-49 -3 -74 -24t-49 -76l-357 -856q-68 -155 -120.5 -240.5t-102 -123.5t-115.5 -50q-56 -10 -126.5 3.5t-110.5 49.5q-23 19 -39.5 47.5t-16 68.5t30.5 71q29 30 67.5 32.5t69.5 -19.5t42 -60q15 -56 30 -73q21 -23 62 -20q23 2 43.5 12.5t49.5 40
t64.5 94t75.5 161.5l-377 833q-29 63 -60.5 94t-84.5 35v66h514v-66q-108 -9 -59 -129l206 -500l220 529q19 41 5.5 70t-59.5 30v66zM463 1407q58 0 97.5 -36t39.5 -97t-39.5 -96t-97.5 -35t-97.5 35t-39.5 96t39.5 97t97.5 36zM811 1407q58 0 97.5 -36t39.5 -97t-39.5 -96
t-97.5 -35t-97.5 35t-39.5 96t39.5 97t97.5 36z" />
    <glyph glyph-name="Amacron" unicode="&#x100;" horiz-adv-x="1492" 
d="M1325 195q27 -61 60.5 -93t87.5 -36v-66h-553v66q61 3 85.5 38t2.5 91l-97 241h-528l-90 -241q-21 -60 0 -92t80 -37v-66h-353v66q55 4 89 36t55 93l379 1028q26 60 10.5 101.5t-74.5 45.5v64h328zM426 553h438l-225 577zM330 1735h708v-99h-708v99z" />
    <glyph glyph-name="amacron" unicode="&#x101;" horiz-adv-x="1052" 
d="M1028 115l25 -45q-21 -34 -71.5 -62t-107.5 -28q-35 0 -71 8.5t-70.5 26t-57.5 50.5t-26 76q-36 -82 -110.5 -121.5t-161.5 -39.5q-68 0 -127.5 14t-111 43t-82.5 80t-33 119q-2 71 20 126.5t58 91t89.5 60.5t107.5 37t118 18q146 12 219 21v84q0 123 -29.5 182
t-105.5 68q-54 5 -100 -23t-42 -92q4 -46 -9.5 -80t-36.5 -48.5t-51.5 -20t-55.5 5.5q-54 19 -72 65.5t10 110.5q67 147 349 147q62 0 119 -9.5t115.5 -35t101.5 -65t70.5 -105t27.5 -149.5v-459q0 -37 18.5 -55.5t42 -15.5t41.5 20zM469 86q82 3 124 80t42 190v160
q-7 0 -113 -14q-108 -13 -159 -70t-54 -158q-3 -96 42 -143t118 -45zM182 1305h709v-99h-709v99z" />
    <glyph glyph-name="Abreve" unicode="&#x102;" horiz-adv-x="1492" 
d="M1325 195q27 -61 60.5 -93t87.5 -36v-66h-553v66q61 3 85.5 38t2.5 91l-97 241h-528l-90 -241q-21 -60 0 -92t80 -37v-66h-353v66q55 4 89 36t55 93l379 1028q26 60 10.5 101.5t-74.5 45.5v64h328zM426 553h438l-225 577zM911 1819l50 -15q-11 -112 -87.5 -184
t-189.5 -72q-111 0 -187 72.5t-87 183.5l49 15q27 -55 86.5 -84t138.5 -29q81 0 140.5 29t86.5 84z" />
    <glyph glyph-name="abreve" unicode="&#x103;" horiz-adv-x="1052" 
d="M1028 115l25 -45q-21 -34 -71.5 -62t-107.5 -28q-35 0 -71 8.5t-70.5 26t-57.5 50.5t-26 76q-36 -82 -110.5 -121.5t-161.5 -39.5q-68 0 -127.5 14t-111 43t-82.5 80t-33 119q-2 71 20 126.5t58 91t89.5 60.5t107.5 37t118 18q146 12 219 21v84q0 123 -29.5 182
t-105.5 68q-54 5 -100 -23t-42 -92q4 -46 -9.5 -80t-36.5 -48.5t-51.5 -20t-55.5 5.5q-54 19 -72 65.5t10 110.5q67 147 349 147q62 0 119 -9.5t115.5 -35t101.5 -65t70.5 -105t27.5 -149.5v-459q0 -37 18.5 -55.5t42 -15.5t41.5 20zM469 86q82 3 124 80t42 190v160
q-7 0 -113 -14q-108 -13 -159 -70t-54 -158q-3 -96 42 -143t118 -45zM762 1389l49 -15q-11 -112 -87 -184t-189 -72q-111 0 -187.5 72.5t-87.5 183.5l49 15q27 -55 87 -84t139 -29q81 0 140.5 29t86.5 84z" />
    <glyph glyph-name="Aogonek" unicode="&#x104;" horiz-adv-x="1495" 
d="M1321 0q-99 -99 -107 -197q-5 -51 22.5 -76t65 -22t66.5 25l29 -37q-23 -37 -73 -68t-114 -31q-97 0 -149.5 59.5t-22.5 153.5q22 63 85 113t126 80h-327v66q60 3 84 37.5t2 91.5l-95 239h-530l-88 -239q-43 -119 78 -129v-66h-353v66q56 4 89.5 35.5t56.5 93.5l379 1026
q25 60 10 102t-74 45v66h326l520 -1239q25 -62 58.5 -93.5t89.5 -35.5v-66h-154zM428 553h438l-227 575z" />
    <glyph glyph-name="aogonek" unicode="&#x105;" horiz-adv-x="1052" 
d="M909 -18q-81 -89 -90 -179q-4 -51 23.5 -76t64.5 -22t66 25l28 -37q-23 -37 -72.5 -68t-113.5 -31q-96 0 -148.5 60t-21.5 153q18 54 68.5 100t107.5 77q-68 12 -118 51t-54 106q-36 -82 -110.5 -121.5t-163.5 -39.5q-67 0 -126.5 14t-111 42.5t-82.5 80t-32 119.5
q-2 71 19 126.5t57 91t89.5 60.5t107 37t118.5 18q31 3 111 10t110 9v86q0 123 -30.5 182t-106.5 66q-54 6 -99 -22t-41 -93q3 -45 -10.5 -79t-36.5 -48.5t-51.5 -20t-54.5 6.5q-54 19 -72.5 65.5t8.5 110.5q69 147 351 147q62 0 118.5 -9.5t115.5 -35t102 -65.5t70.5 -106
t27.5 -150v-457q0 -37 18.5 -55.5t41.5 -16t40 18.5l27 -43q-16 -28 -56 -53.5t-88 -34.5zM635 356v160q-7 0 -113 -14q-110 -13 -161 -70t-54 -158q-3 -96 42 -143t118 -45q83 3 125.5 80t42.5 190z" />
    <glyph glyph-name="Cacute" unicode="&#x106;" horiz-adv-x="1429" 
d="M1311 428h57l-47 -309q-203 -154 -512 -139q-165 8 -306.5 61.5t-246.5 146.5t-165 229t-60 300t59 302.5t162.5 233.5t245.5 148t305 53q139 0 279 -37.5t239 -101.5v-324h-57q-45 190 -162.5 289.5t-286.5 97.5q-149 -2 -254 -91.5t-154 -235t-49 -334.5
q0 -292 130 -472.5t348 -189.5q180 -7 296 84.5t179 288.5zM977 1794q25 -46 7 -87.5t-71 -61.5q-96 -37 -274 -91q-55 -13 -72 21q-20 36 25 70q113 98 225 178q46 32 90.5 23.5t69.5 -52.5z" />
    <glyph glyph-name="cacute" unicode="&#x107;" horiz-adv-x="987" 
d="M907 262l39 -31q-57 -109 -166.5 -180t-247.5 -71q-103 0 -196 33.5t-166 96.5t-116.5 164t-43.5 226q0 152 68.5 264t184.5 168.5t265 56.5q133 0 229.5 -41t141.5 -114q25 -41 30 -88t-16 -88t-69 -58q-67 -25 -127 18t-53 138q6 81 -27.5 126.5t-112.5 41.5
q-108 -8 -175 -125.5t-52 -298.5q8 -98 45.5 -172t91 -113.5t119 -57t129.5 -9t123.5 37.5t101.5 76zM715 1364q25 -46 7 -88t-71 -62q-84 -33 -274 -90q-55 -13 -72 21q-20 36 25 69q120 103 225 179q46 32 90.5 23.5t69.5 -52.5z" />
    <glyph glyph-name="Ccircumflex" unicode="&#x108;" horiz-adv-x="1429" 
d="M1311 428h57l-47 -309q-203 -154 -512 -139q-165 8 -306.5 61.5t-246.5 146.5t-165 229t-60 300t59 302.5t162.5 233.5t245.5 148t305 53q139 0 279 -37.5t239 -101.5v-324h-57q-45 190 -162.5 289.5t-286.5 97.5q-149 -2 -254 -91.5t-154 -235t-49 -334.5
q0 -292 130 -472.5t348 -189.5q180 -7 296 84.5t179 288.5zM801 1851l289 -268l-35 -47l-295 166l-297 -166l-33 47l287 268h84z" />
    <glyph glyph-name="ccircumflex" unicode="&#x109;" horiz-adv-x="987" 
d="M907 262l39 -31q-57 -109 -166.5 -180t-247.5 -71q-103 0 -196 33.5t-166 96.5t-116.5 164t-43.5 226q0 152 68.5 264t184.5 168.5t265 56.5q133 0 229.5 -41t141.5 -114q25 -41 30 -88t-16 -88t-69 -58q-67 -25 -127 18t-53 138q6 81 -27.5 126.5t-112.5 41.5
q-108 -8 -175 -125.5t-52 -298.5q8 -98 45.5 -172t91 -113.5t119 -57t129.5 -9t123.5 37.5t101.5 76zM559 1421l289 -268l-35 -47l-295 166l-297 -166l-33 47l287 268h84z" />
    <glyph glyph-name="Cdotaccent" unicode="&#x10a;" horiz-adv-x="1429" 
d="M1311 428h57l-47 -309q-203 -154 -512 -139q-165 8 -306.5 61.5t-246.5 146.5t-165 229t-60 300t59 302.5t162.5 233.5t245.5 148t305 53q139 0 279 -37.5t239 -101.5v-324h-57q-45 190 -162.5 289.5t-286.5 97.5q-149 -2 -254 -91.5t-154 -235t-49 -334.5
q0 -292 130 -472.5t348 -189.5q180 -7 296 84.5t179 288.5zM760 1837q58 0 97.5 -36t39.5 -97t-39.5 -96t-97.5 -35t-97.5 35t-39.5 96t39.5 97t97.5 36z" />
    <glyph glyph-name="cdotaccent" unicode="&#x10b;" horiz-adv-x="987" 
d="M907 262l39 -31q-57 -109 -166.5 -180t-247.5 -71q-103 0 -196 33.5t-166 96.5t-116.5 164t-43.5 226q0 152 68.5 264t184.5 168.5t265 56.5q133 0 229.5 -41t141.5 -114q25 -41 30 -88t-16 -88t-69 -58q-67 -25 -127 18t-53 138q6 81 -27.5 126.5t-112.5 41.5
q-108 -8 -175 -125.5t-52 -298.5q8 -98 45.5 -172t91 -113.5t119 -57t129.5 -9t123.5 37.5t101.5 76zM518 1407q58 0 97.5 -36t39.5 -97t-39.5 -96t-97.5 -35t-97.5 35t-39.5 96t39.5 97t97.5 36z" />
    <glyph glyph-name="Ccaron" unicode="&#x10c;" horiz-adv-x="1429" 
d="M1311 428h57l-47 -309q-203 -154 -512 -139q-165 8 -306.5 61.5t-246.5 146.5t-165 229t-60 300t59 302.5t162.5 233.5t245.5 148t305 53q139 0 279 -37.5t239 -101.5v-324h-57q-45 190 -162.5 289.5t-286.5 97.5q-149 -2 -254 -91.5t-154 -235t-49 -334.5
q0 -292 130 -472.5t348 -189.5q180 -7 296 84.5t179 288.5zM1057 1851l33 -45l-289 -270h-84l-287 270l33 45l297 -163z" />
    <glyph glyph-name="ccaron" unicode="&#x10d;" horiz-adv-x="987" 
d="M907 262l39 -31q-57 -109 -166.5 -180t-247.5 -71q-103 0 -196 33.5t-166 96.5t-116.5 164t-43.5 226q0 152 68.5 264t184.5 168.5t265 56.5q133 0 229.5 -41t141.5 -114q25 -41 30 -88t-16 -88t-69 -58q-67 -25 -127 18t-53 138q6 81 -27.5 126.5t-112.5 41.5
q-108 -8 -175 -125.5t-52 -298.5q8 -98 45.5 -172t91 -113.5t119 -57t129.5 -9t123.5 37.5t101.5 76zM815 1421l33 -45l-289 -270h-84l-287 270l33 45l297 -164z" />
    <glyph glyph-name="Dcaron" unicode="&#x10e;" horiz-adv-x="1505" 
d="M657 1434q161 0 295 -36.5t230 -101t162.5 -154.5t98.5 -197t32 -228q0 -151 -52 -280t-151 -227t-257 -154t-358 -56h-575v66q56 4 77 35t21 94v1046q0 63 -21 93t-77 36v64h575zM616 119q259 0 396 161t137 437t-137 438t-396 162h-141v-1198h141zM1034 1851l33 -45
l-289 -270h-84l-286 270l32 45l297 -163z" />
    <glyph glyph-name="dcaron" unicode="&#x10f;" horiz-adv-x="1372" 
d="M1161 100l19 -57q-73 -63 -193 -63q-44 0 -86.5 14t-78.5 48t-44 83q-121 -145 -313 -145q-206 0 -330.5 136t-124.5 369t124.5 368.5t330.5 135.5q182 0 297 -125v377q0 63 -20.5 93t-75.5 34v66l335 79h52v-1347q0 -38 16.5 -58t40.5 -19.5t51 11.5zM530 63
q113 0 172.5 113.5t59.5 308.5t-59.5 308.5t-172.5 113.5q-77 0 -130.5 -56.5t-78 -150t-24.5 -215.5t24.5 -215.5t78 -150t130.5 -56.5zM1309 1518q60 0 101 -45t42 -117q5 -245 -211 -412l-41 41q61 61 91.5 119t39.5 129h-22q-62 0 -104 38t-42 103q0 66 42 105t104 39z
" />
    <glyph glyph-name="Dcroat" unicode="&#x110;" horiz-adv-x="1503" 
d="M657 1434q200 0 357.5 -56t256.5 -154t150.5 -227t51.5 -280t-51.5 -280t-150.5 -227t-256.5 -154t-357.5 -56h-575v66q55 4 75.5 35t20.5 94v487h-96v98h96v461q0 63 -20.5 93t-75.5 34v66h575zM616 119q259 0 395 161t136 437t-136 437t-395 161h-141v-535h316v-98
h-316v-563h141z" />
    <glyph glyph-name="dcroat" unicode="&#x111;" horiz-adv-x="1179" 
d="M1180 1106h-127v-940q0 -39 16.5 -59.5t40.5 -19.5t51 11l19 -55q-69 -63 -193 -63q-45 0 -87 13.5t-78 47t-44 82.5q-119 -143 -315 -143q-205 0 -329 135.5t-124 367.5q0 234 124 370t329 136q182 0 299 -127v244h-305v98h305v35q0 63 -20.5 94t-75.5 35v66l335 79h52
v-309h127v-98zM530 63q113 0 172.5 113t59.5 307q0 195 -59.5 308.5t-172.5 113.5q-77 0 -130.5 -56.5t-78 -150t-24.5 -215.5q0 -121 24.5 -214t78 -149.5t130.5 -56.5z" />
    <glyph glyph-name="Emacron" unicode="&#x112;" horiz-adv-x="1243" 
d="M1130 387h52l-41 -387h-1059v66q56 4 76 34.5t20 94.5v1046q0 64 -20 93.5t-76 35.5v64h1020l39 -385h-51q-71 268 -289 268h-326v-531h217q52 0 86 8.5t53 27t28 40.5t15 58h52v-385h-52q-8 48 -22.5 74t-53 42.5t-106.5 16.5h-217v-549h367q217 0 288 268zM276 1735
h709v-99h-709v99z" />
    <glyph glyph-name="emacron" unicode="&#x113;" horiz-adv-x="1001" 
d="M958 530v-30h-659q6 -83 33.5 -149.5t70 -107t95 -66t109.5 -29t112 7t104.5 38.5t85.5 68l37 -31q-58 -110 -165.5 -180.5t-245.5 -70.5q-104 0 -197 33.5t-167 96.5t-117.5 164t-43.5 226q0 224 140.5 356.5t365.5 132.5q142 0 244.5 -63t151 -165.5t46.5 -230.5z
M512 924q-89 -3 -147.5 -90t-67.5 -230h397q1 58 -7 110.5t-26.5 102.5t-57 79t-91.5 28zM152 1305h708v-99h-708v99z" />
    <glyph glyph-name="Ebreve" unicode="&#x114;" horiz-adv-x="1243" 
d="M1130 387h52l-41 -387h-1059v66q56 4 76 34.5t20 94.5v1046q0 64 -20 93.5t-76 35.5v64h1020l39 -385h-51q-71 268 -289 268h-326v-531h217q52 0 86 8.5t53 27t28 40.5t15 58h52v-385h-52q-8 48 -22.5 74t-53 42.5t-106.5 16.5h-217v-549h367q217 0 288 268zM858 1819
l49 -15q-11 -112 -87 -184t-189 -72q-111 0 -187.5 72.5t-87.5 183.5l50 15q27 -55 86.5 -84t138.5 -29q81 0 140.5 29t86.5 84z" />
    <glyph glyph-name="ebreve" unicode="&#x115;" horiz-adv-x="1001" 
d="M958 530v-30h-659q6 -83 33.5 -149.5t70 -107t95 -66t109.5 -29t112 7t104.5 38.5t85.5 68l37 -31q-58 -110 -165.5 -180.5t-245.5 -70.5q-104 0 -197 33.5t-167 96.5t-117.5 164t-43.5 226q0 224 140.5 356.5t365.5 132.5q142 0 244.5 -63t151 -165.5t46.5 -230.5z
M512 924q-89 -3 -147.5 -90t-67.5 -230h397q1 58 -7 110.5t-26.5 102.5t-57 79t-91.5 28zM731 1389l49 -15q-11 -112 -87 -184t-189 -72q-111 0 -187.5 72.5t-87.5 183.5l50 15q27 -55 86.5 -84t138.5 -29q81 0 140.5 29t86.5 84z" />
    <glyph glyph-name="Edotaccent" unicode="&#x116;" horiz-adv-x="1243" 
d="M1130 387h52l-41 -387h-1059v66q56 4 76 34.5t20 94.5v1046q0 64 -20 93.5t-76 35.5v64h1020l39 -385h-51q-71 268 -289 268h-326v-531h217q52 0 86 8.5t53 27t28 40.5t15 58h52v-385h-52q-8 48 -22.5 74t-53 42.5t-106.5 16.5h-217v-549h367q217 0 288 268zM631 1837
q58 0 97.5 -36t39.5 -97t-39.5 -96t-97.5 -35t-97.5 35t-39.5 96t39.5 97t97.5 36z" />
    <glyph glyph-name="edotaccent" unicode="&#x117;" horiz-adv-x="1001" 
d="M958 530v-30h-659q6 -83 33.5 -149.5t70 -107t95 -66t109.5 -29t112 7t104.5 38.5t85.5 68l37 -31q-58 -110 -165.5 -180.5t-245.5 -70.5q-104 0 -197 33.5t-167 96.5t-117.5 164t-43.5 226q0 224 140.5 356.5t365.5 132.5q142 0 244.5 -63t151 -165.5t46.5 -230.5z
M512 924q-89 -3 -147.5 -90t-67.5 -230h397q1 58 -7 110.5t-26.5 102.5t-57 79t-91.5 28zM506 1407q58 0 97.5 -36t39.5 -97t-39.5 -96t-97.5 -35t-97.5 35t-39.5 96t39.5 97t97.5 36z" />
    <glyph glyph-name="Eogonek" unicode="&#x118;" horiz-adv-x="1241" 
d="M1028 0q-98 -98 -106 -197q-5 -51 22 -76t64 -22t67 25l27 -37q-23 -38 -71.5 -68.5t-112.5 -30.5q-98 0 -151 60t-22 153q22 63 85 113t126 80h-874v66q55 4 75.5 34.5t20.5 94.5v1044q0 64 -20.5 94.5t-75.5 34.5v66h1018l41 -385h-51q-76 266 -289 266h-326v-531h215
q100 0 135 31.5t47 104.5h52v-388h-52q-12 73 -47 104.5t-135 31.5h-215v-549h365q217 0 288 266h52l-39 -385h-113z" />
    <glyph glyph-name="eogonek" unicode="&#x119;" horiz-adv-x="999" 
d="M956 530v-30h-659v-2q6 -83 34 -149t70.5 -106.5t95 -65.5t109.5 -28.5t111.5 7t104 38.5t85.5 68l37 -33q-46 -90 -132.5 -155.5t-197.5 -85.5q-87 -98 -92 -185q-5 -51 22 -76t64.5 -22t67.5 25l26 -37q-23 -38 -71.5 -68.5t-112.5 -30.5q-98 0 -150.5 60t-21.5 153
q33 94 170 173q-101 2 -191 37t-161 98t-112.5 162t-41.5 221q0 226 139.5 358.5t364.5 132.5q142 0 244.5 -63t151 -165.5t46.5 -230.5zM692 604q1 58 -7 110.5t-26.5 102t-57 79t-91.5 28.5q-89 -3 -147.5 -90.5t-65.5 -229.5h395z" />
    <glyph glyph-name="Ecaron" unicode="&#x11a;" horiz-adv-x="1243" 
d="M1130 387h52l-41 -387h-1059v66q56 4 76 34.5t20 94.5v1046q0 64 -20 93.5t-76 35.5v64h1020l39 -385h-51q-71 268 -289 268h-326v-531h217q52 0 86 8.5t53 27t28 40.5t15 58h52v-385h-52q-8 48 -22.5 74t-53 42.5t-106.5 16.5h-217v-549h367q217 0 288 268zM928 1851
l33 -45l-289 -270h-84l-287 270l33 45l297 -163z" />
    <glyph glyph-name="ecaron" unicode="&#x11b;" horiz-adv-x="1001" 
d="M958 530v-30h-659q6 -83 33.5 -149.5t70 -107t95 -66t109.5 -29t112 7t104.5 38.5t85.5 68l37 -31q-58 -110 -165.5 -180.5t-245.5 -70.5q-104 0 -197 33.5t-167 96.5t-117.5 164t-43.5 226q0 224 140.5 356.5t365.5 132.5q142 0 244.5 -63t151 -165.5t46.5 -230.5z
M512 924q-89 -3 -147.5 -90t-67.5 -230h397q1 58 -7 110.5t-26.5 102.5t-57 79t-91.5 28zM803 1421l33 -45l-289 -270h-84l-287 270l33 45l297 -164z" />
    <glyph glyph-name="Gcircumflex" unicode="&#x11c;" horiz-adv-x="1503" 
d="M995 623h478v-64q-55 -6 -76 -36t-21 -93v-268q-93 -95 -249 -142.5t-316 -39.5q-165 8 -307 61.5t-247.5 146.5t-165.5 229.5t-60 299.5q0 164 59 302.5t162.5 233.5t245.5 148t305 53q139 0 280 -37.5t240 -101.5v-324h-57q-47 190 -164 289.5t-285 97.5
q-113 -1 -201.5 -52.5t-143.5 -141.5t-83.5 -208.5t-28.5 -258.5q0 -293 129.5 -473t348.5 -189q163 -9 256 72v303q0 63 -21.5 93t-77.5 36v64zM854 1851l289 -268l-35 -47l-295 166l-297 -166l-33 47l287 268h84z" />
    <glyph glyph-name="gcircumflex" unicode="&#x11d;" horiz-adv-x="1161" 
d="M588 176q292 3 426 -66t125 -239q-9 -178 -166.5 -300t-401.5 -122q-169 0 -297 34.5t-200.5 109t-61.5 180.5q7 67 59 122.5t140 92.5q-93 35 -135 92t-21 131q20 64 90 103t158 55q-147 100 -147 274q0 106 59 186.5t152 120t204 39.5q120 0 213 -43q13 70 41 133
q25 57 73 90t99 28.5t80 -50.5q19 -28 15.5 -59.5t-19 -58t-47 -41.5t-68.5 -9q-82 13 -100 -21q-11 -16 -14 -47q143 -98 143 -268q0 -107 -59.5 -188.5t-153 -121.5t-203.5 -40q-101 0 -188 35q-130 -24 -135 -76q-2 -28 24.5 -44t102.5 -24.5t213 -7.5zM571 918
q-77 0 -119 -71.5t-42 -203.5q0 -133 42 -204.5t119 -71.5q76 0 119 72t43 204q0 131 -43 203t-119 72zM911 -233q3 34 -5.5 60t-23.5 43.5t-42.5 29.5t-53.5 18.5t-68 10t-74.5 4.5t-82.5 1q-103 0 -215 17q-97 -66 -100 -184q-2 -55 17 -98.5t51.5 -71t78 -45.5
t92.5 -25.5t99 -7.5q128 0 223 66.5t104 181.5zM616 1421l289 -268l-35 -47l-295 166l-296 -166l-33 47l286 268h84z" />
    <glyph glyph-name="Gbreve" unicode="&#x11e;" horiz-adv-x="1503" 
d="M995 623h478v-64q-55 -6 -76 -36t-21 -93v-268q-93 -95 -249 -142.5t-316 -39.5q-165 8 -307 61.5t-247.5 146.5t-165.5 229.5t-60 299.5q0 164 59 302.5t162.5 233.5t245.5 148t305 53q139 0 280 -37.5t240 -101.5v-324h-57q-47 190 -164 289.5t-285 97.5
q-113 -1 -201.5 -52.5t-143.5 -141.5t-83.5 -208.5t-28.5 -258.5q0 -293 129.5 -473t348.5 -189q163 -9 256 72v303q0 63 -21.5 93t-77.5 36v64zM1038 1819l49 -15q-11 -112 -87 -184t-189 -72q-111 0 -187 72.5t-87 183.5l49 15q27 -55 86.5 -84t138.5 -29q81 0 140.5 29
t86.5 84z" />
    <glyph glyph-name="gbreve" unicode="&#x11f;" horiz-adv-x="1161" 
d="M588 176q292 3 426 -66t125 -239q-9 -178 -166.5 -300t-401.5 -122q-169 0 -297 34.5t-200.5 109t-61.5 180.5q7 67 59 122.5t140 92.5q-93 35 -135 92t-21 131q20 64 90 103t158 55q-147 100 -147 274q0 106 59 186.5t152 120t204 39.5q120 0 213 -43q13 70 41 133
q25 57 73 90t99 28.5t80 -50.5q19 -28 15.5 -59.5t-19 -58t-47 -41.5t-68.5 -9q-82 13 -100 -21q-11 -16 -14 -47q143 -98 143 -268q0 -107 -59.5 -188.5t-153 -121.5t-203.5 -40q-101 0 -188 35q-130 -24 -135 -76q-2 -28 24.5 -44t102.5 -24.5t213 -7.5zM571 918
q-77 0 -119 -71.5t-42 -203.5q0 -133 42 -204.5t119 -71.5q76 0 119 72t43 204q0 131 -43 203t-119 72zM911 -233q3 34 -5.5 60t-23.5 43.5t-42.5 29.5t-53.5 18.5t-68 10t-74.5 4.5t-82.5 1q-103 0 -215 17q-97 -66 -100 -184q-2 -55 17 -98.5t51.5 -71t78 -45.5
t92.5 -25.5t99 -7.5q128 0 223 66.5t104 181.5zM801 1389l49 -15q-11 -112 -87.5 -184t-189.5 -72q-111 0 -187 72.5t-87 183.5l49 15q27 -55 86.5 -84t138.5 -29q81 0 141 29t87 84z" />
    <glyph glyph-name="Gdotaccent" unicode="&#x120;" horiz-adv-x="1503" 
d="M995 623h478v-64q-55 -6 -76 -36t-21 -93v-268q-93 -95 -249 -142.5t-316 -39.5q-165 8 -307 61.5t-247.5 146.5t-165.5 229.5t-60 299.5q0 164 59 302.5t162.5 233.5t245.5 148t305 53q139 0 280 -37.5t240 -101.5v-324h-57q-47 190 -164 289.5t-285 97.5
q-113 -1 -201.5 -52.5t-143.5 -141.5t-83.5 -208.5t-28.5 -258.5q0 -293 129.5 -473t348.5 -189q163 -9 256 72v303q0 63 -21.5 93t-77.5 36v64zM813 1837q58 0 97.5 -36t39.5 -97t-39.5 -96t-97.5 -35t-97.5 35t-39.5 96t39.5 97t97.5 36z" />
    <glyph glyph-name="gdotaccent" unicode="&#x121;" horiz-adv-x="1161" 
d="M588 176q292 3 426 -66t125 -239q-9 -178 -166.5 -300t-401.5 -122q-169 0 -297 34.5t-200.5 109t-61.5 180.5q7 67 59 122.5t140 92.5q-93 35 -135 92t-21 131q20 64 90 103t158 55q-147 100 -147 274q0 106 59 186.5t152 120t204 39.5q120 0 213 -43q13 70 41 133
q25 57 73 90t99 28.5t80 -50.5q19 -28 15.5 -59.5t-19 -58t-47 -41.5t-68.5 -9q-82 13 -100 -21q-11 -16 -14 -47q143 -98 143 -268q0 -107 -59.5 -188.5t-153 -121.5t-203.5 -40q-101 0 -188 35q-130 -24 -135 -76q-2 -28 24.5 -44t102.5 -24.5t213 -7.5zM571 918
q-77 0 -119 -71.5t-42 -203.5q0 -133 42 -204.5t119 -71.5q76 0 119 72t43 204q0 131 -43 203t-119 72zM911 -233q3 34 -5.5 60t-23.5 43.5t-42.5 29.5t-53.5 18.5t-68 10t-74.5 4.5t-82.5 1q-103 0 -215 17q-97 -66 -100 -184q-2 -55 17 -98.5t51.5 -71t78 -45.5
t92.5 -25.5t99 -7.5q128 0 223 66.5t104 181.5zM575 1407q58 0 98 -36t40 -97t-40 -96t-98 -35t-97.5 35t-39.5 96t39.5 97t97.5 36z" />
    <glyph glyph-name="Gcommaaccent" unicode="&#x122;" horiz-adv-x="1503" 
d="M995 623h478v-64q-55 -6 -76 -36t-21 -93v-268q-93 -95 -249 -142.5t-316 -39.5q-165 8 -307 61.5t-247.5 146.5t-165.5 229.5t-60 299.5q0 164 59 302.5t162.5 233.5t245.5 148t305 53q139 0 280 -37.5t240 -101.5v-324h-57q-47 190 -164 289.5t-285 97.5
q-113 -1 -201.5 -52.5t-143.5 -141.5t-83.5 -208.5t-28.5 -258.5q0 -293 129.5 -473t348.5 -189q163 -9 256 72v303q0 63 -21.5 93t-77.5 36v64zM809 -113q61 0 102.5 -43.5t42.5 -115.5q1 -77 -16.5 -143t-52 -116.5t-67.5 -85.5t-77 -69l-39 43q61 62 92 120t40 128
q-1 0 -12.5 -1t-12.5 -1q-61 0 -102 39t-41 104t41 103t102 38z" />
    <glyph glyph-name="gcommaaccent" unicode="&#x123;" horiz-adv-x="1161" 
d="M588 176q292 3 426 -66t125 -239q-9 -178 -166.5 -300t-401.5 -122q-169 0 -297 34.5t-200.5 109t-61.5 180.5q7 67 59 122.5t140 92.5q-93 35 -135 92t-21 131q20 64 90 103t158 55q-147 100 -147 274q0 106 59 186.5t152 120t204 39.5q120 0 213 -43q13 70 41 133
q25 57 73 90t99 28.5t80 -50.5q19 -28 15.5 -59.5t-19 -58t-47 -41.5t-68.5 -9q-82 13 -100 -21q-11 -16 -14 -47q143 -98 143 -268q0 -107 -59.5 -188.5t-153 -121.5t-203.5 -40q-101 0 -188 35q-130 -24 -135 -76q-2 -28 24.5 -44t102.5 -24.5t213 -7.5zM571 918
q-77 0 -119 -71.5t-42 -203.5q0 -133 42 -204.5t119 -71.5q76 0 119 72t43 204q0 131 -43 203t-119 72zM911 -233q3 34 -5.5 60t-23.5 43.5t-42.5 29.5t-53.5 18.5t-68 10t-74.5 4.5t-82.5 1q-103 0 -215 17q-97 -66 -100 -184q-2 -55 17 -98.5t51.5 -71t78 -45.5
t92.5 -25.5t99 -7.5q128 0 223 66.5t104 181.5zM555 1423q62 0 103.5 -38t41.5 -103q0 -66 -41.5 -104.5t-103.5 -38.5q-60 0 -101.5 44.5t-41.5 116.5q-5 245 211 412l41 -41q-62 -62 -93.5 -120t-38.5 -128h23z" />
    <glyph glyph-name="Hcircumflex" unicode="&#x124;" horiz-adv-x="1568" 
d="M1487 1370q-56 -6 -77 -36t-21 -93v-1046q0 -63 21 -94t77 -35v-66h-492v66q56 4 77.5 35t21.5 94v487h-619v-487q0 -63 21 -94t77 -35v-66h-491v66q56 4 77 35t21 94v1046q0 63 -21 93t-77 36v64h491v-64q-56 -6 -77 -36t-21 -93v-442h619v442q0 63 -21.5 93t-77.5 36
v64h492v-64zM825 1851l289 -268l-35 -47l-295 166l-297 -166l-32 47l286 268h84z" />
    <glyph glyph-name="hcircumflex" unicode="&#x125;" horiz-adv-x="1234" 
d="M1116 195q0 -63 21 -94t77 -35v-66h-485v66q56 4 76 34.5t20 94.5v434q0 256 -188 256q-93 0 -146 -71.5t-53 -178.5v-440q0 -63 21.5 -94t77.5 -35v-66h-486v66q56 4 77.5 35t21.5 94v1046q0 63 -21.5 93t-77.5 34v66l338 79h49v-651q112 127 295 127
q194 0 288.5 -106.5t94.5 -286.5v-401zM412 1845l288 -268l-34 -47l-295 166l-297 -166l-33 47l287 268h84z" />
    <glyph glyph-name="Hbar" unicode="&#x126;" horiz-adv-x="1566" 
d="M1485 1368q-55 -4 -75.5 -34t-20.5 -93v-133h96v-98h-96v-815q0 -63 20.5 -94t75.5 -35v-66h-490v66q55 4 76 35t21 94v485h-617v-485q0 -63 20.5 -94t75.5 -35v-66h-489v66q55 4 75.5 35t20.5 94v815h-96v98h96v133q0 63 -20.5 93t-75.5 34v66h489v-66q-55 -4 -75.5 -34
t-20.5 -93v-133h617v133q0 63 -21 93t-76 34v66h490v-66zM1092 799v211h-617v-211h617z" />
    <glyph glyph-name="hbar" unicode="&#x127;" horiz-adv-x="1222" 
d="M1104 193q0 -63 21 -93.5t77 -36.5v-63h-485v63q56 6 77 36.5t21 93.5v434q0 256 -190 256q-93 0 -145 -70.5t-52 -179.5v-440q0 -63 20.5 -93.5t75.5 -36.5v-63h-483v63q55 6 75.5 36.5t20.5 93.5v913h-96v98h96v35q0 63 -20.5 94t-75.5 35v66l336 79h51v-309h336v-98
h-336v-246q108 129 293 129q194 0 288.5 -107.5t94.5 -287.5v-401z" />
    <glyph glyph-name="Itilde" unicode="&#x128;" horiz-adv-x="655" 
d="M571 1370q-56 -6 -77 -36t-21 -93v-1046q0 -63 21 -94t77 -35v-66h-491v66q55 4 75.5 35t20.5 94v1046q0 63 -20.5 93t-75.5 36v64h491v-64zM178 1802q49 0 87 -11.5t91 -37.5q116 -61 172 -61q80 0 101 84h55q-8 -110 -51 -167t-133 -57q-19 0 -38.5 3t-33 6t-36.5 11
t-31.5 11.5t-36 15.5t-33.5 15q-93 39 -144 39q-76 0 -122 -82h-56q9 103 68.5 167t140.5 64z" />
    <glyph glyph-name="itilde" unicode="&#x129;" 
d="M432 195q0 -63 21 -94t77 -35v-66h-485v66q56 4 77 35t21 94v524q0 63 -21 93t-77 34v65l338 78h49v-794zM119 1372q49 0 87 -11.5t91 -37.5q116 -61 172 -61q79 0 100 84h56q-8 -110 -51.5 -167t-133.5 -57q-19 0 -38.5 3t-33 6t-36.5 11t-31.5 11.5t-35.5 15.5t-34 15
q-93 39 -143 39q-77 0 -123 -82h-55q9 103 68.5 167t140.5 64z" />
    <glyph glyph-name="Imacron" unicode="&#x12a;" horiz-adv-x="655" 
d="M573 1370q-56 -6 -77 -36t-21 -93v-1046q0 -63 21 -94t77 -35v-66h-491v66q55 4 75.5 35t20.5 94v1046q0 63 -20.5 93t-75.5 36v64h491v-64zM-27 1735h709v-99h-709v99z" />
    <glyph glyph-name="imacron" unicode="&#x12b;" 
d="M430 195q0 -63 21 -94t77 -35v-66h-485v66q56 4 77 35t21 94v524q0 63 -21 93t-77 34v65l338 78h49v-794zM-88 1305h709v-99h-709v99z" />
    <glyph glyph-name="Ibreve" unicode="&#x12c;" horiz-adv-x="655" 
d="M573 1370q-56 -6 -77 -36t-21 -93v-1046q0 -63 21 -94t77 -35v-66h-491v66q55 4 75.5 35t20.5 94v1046q0 63 -20.5 93t-75.5 36v64h491v-64zM555 1819l49 -15q-11 -112 -87 -184t-189 -72q-111 0 -187.5 72.5t-87.5 183.5l49 15q27 -55 87 -84t139 -29q81 0 140.5 29
t86.5 84z" />
    <glyph glyph-name="ibreve" unicode="&#x12d;" 
d="M428 195q0 -63 21 -94t77 -35v-66h-485v66q56 4 77 35t21 94v524q0 63 -21 93t-77 34v65l338 78h49v-794zM489 1389l50 -15q-11 -112 -87.5 -184t-189.5 -72q-111 0 -187 72.5t-87 183.5l49 15q27 -55 86.5 -84t138.5 -29q81 0 140.5 29t86.5 84z" />
    <glyph glyph-name="Iogonek" unicode="&#x12e;" horiz-adv-x="655" 
d="M573 1368q-55 -4 -75.5 -34.5t-20.5 -94.5v-1044q0 -64 20.5 -94.5t75.5 -34.5v-66h-147q-99 -99 -107 -197q-4 -51 23.5 -76t64.5 -22t66 25l29 -37q-23 -38 -72 -68.5t-113 -30.5q-98 0 -150.5 60t-21.5 153q22 63 85 113.5t126 79.5h-272v66q55 4 75.5 34.5t20.5 94.5
v1044q0 64 -20.5 94.5t-75.5 34.5v66h489v-66z" />
    <glyph glyph-name="iogonek" unicode="&#x12f;" 
d="M270 1106q-75 0 -127.5 47t-52.5 127t52.5 127t127.5 47q77 0 129 -47t52 -127t-52 -127t-129 -47zM391 0q-98 -98 -106 -197q-5 -51 22 -76t64 -22t67 25l27 -37q-23 -38 -71.5 -68.5t-112.5 -30.5q-98 0 -150.5 60t-21.5 153q22 63 84.5 113t125.5 80h-278v66
q55 4 75.5 34.5t20.5 94.5v522q0 63 -20.5 94t-75.5 35v65l338 78h49v-794q0 -64 20.5 -94.5t75.5 -34.5v-66h-133z" />
    <glyph glyph-name="Idotaccent" unicode="&#x130;" horiz-adv-x="655" 
d="M573 1370q-56 -6 -77 -36t-21 -93v-1046q0 -63 21 -94t77 -35v-66h-491v66q55 4 75.5 35t20.5 94v1046q0 63 -20.5 93t-75.5 36v64h491v-64zM328 1837q58 0 97.5 -36t39.5 -97t-39.5 -96t-97.5 -35t-98 35t-40 96t40 97t98 36z" />
    <glyph glyph-name="dotlessi" unicode="&#x131;" 
d="M428 195q0 -63 21 -94t77 -35v-66h-485v66q56 4 77 35t21 94v524q0 63 -21 93t-77 34v65l338 78h49v-794z" />
    <glyph glyph-name="IJ" unicode="&#x132;" horiz-adv-x="1634" 
d="M573 1370q-56 -6 -77 -36t-21 -93v-1046q0 -63 21 -94t77 -35v-66h-491v66q55 4 75.5 35t20.5 94v1046q0 63 -20.5 93t-75.5 36v64h491v-64zM1081 1434h492v-64q-56 -6 -77 -36t-21 -93v-684q0 -296 -110 -436.5t-351 -140.5q-126 0 -228 50t-145 132q-20 36 -24 80
t12 84q24 56 90.5 68t111.5 -27q16 -14 26.5 -31.5t15 -39.5t6 -35.5t2 -37.5t0.5 -28q2 -57 34.5 -97.5t96.5 -40.5q87 0 127.5 95.5t40.5 298.5v790q0 63 -21.5 93t-77.5 36v64z" />
    <glyph glyph-name="ij" unicode="&#x133;" horiz-adv-x="1099" 
d="M428 195q0 -63 21 -94t77 -35v-66h-485v66q56 4 77 35t21 94v524q0 63 -21 93t-77 34v65l338 78h49v-794zM272 1108q-77 0 -128.5 47t-51.5 127q0 79 52 126.5t128 47.5t128.5 -47.5t52.5 -126.5q0 -80 -52 -127t-129 -47zM627 911l338 78h49v-1042q0 -380 -277 -391
q-97 -5 -178.5 30t-126.5 105q-18 28 -26 67t5.5 82t55.5 64q45 24 90.5 11.5t69.5 -58.5q11 -23 16.5 -72.5t7.5 -56.5q13 -48 42 -69t65 -13q29 6 43 37t4 81q-9 48 -30.5 92t-35.5 93t-14 131v639q0 63 -21 93t-77 34v65zM858 1108q-77 0 -128.5 47t-51.5 127
q0 79 52 126.5t128 47.5t128 -47.5t52 -126.5q0 -80 -51.5 -127t-128.5 -47z" />
    <glyph glyph-name="Jcircumflex" unicode="&#x134;" horiz-adv-x="1030" 
d="M477 1434h492v-64q-56 -6 -77.5 -36t-21.5 -93v-684q0 -296 -109.5 -436.5t-350.5 -140.5q-126 0 -228 50t-145 132q-20 36 -24 80t12 84q24 56 90.5 68t111.5 -27q16 -14 26.5 -31.5t15 -39t6 -36t1.5 -37.5v-28q2 -57 35 -97.5t97 -40.5q87 0 127 95t40 299v790
q0 63 -21 93t-77 36v64zM674 1851l289 -268l-35 -47l-295 166l-297 -166l-33 47l287 268h84z" />
    <glyph glyph-name="jcircumflex" unicode="&#x135;" horiz-adv-x="487" 
d="M14 911l338 78h49v-1042q0 -380 -276 -391q-97 -5 -178.5 30t-126.5 105q-18 28 -26 67t5.5 82t55.5 64q45 24 90 11.5t69 -58.5q11 -23 17.5 -73.5t7.5 -55.5q13 -48 41.5 -69t64.5 -13q30 6 44 37t4 81q-9 48 -30.5 92t-35.5 93t-14 131v639q0 63 -21.5 93t-77.5 34v65
zM150 1421l288 -268l-35 -47l-294 166l-297 -166l-33 47l287 268h84z" />
    <glyph glyph-name="Kcommaaccent" unicode="&#x136;" horiz-adv-x="1531" 
d="M1350 195q69 -113 161 -129v-66h-557v66q55 3 69.5 37.5t-19.5 91.5l-340 536l-189 -199v-337q0 -63 20.5 -94t75.5 -35v-66h-489v66q55 4 75.5 35t20.5 94v1046q0 63 -20.5 93t-75.5 34v66h489v-66q-55 -4 -75.5 -34t-20.5 -93v-561l518 557q66 68 43 106q-10 22 -51 25
v66h379v-66q-57 -5 -99 -28.5t-122 -106.5l-262 -275zM793 -113q61 0 102.5 -43.5t42.5 -115.5q1 -77 -16.5 -143t-52 -116.5t-67.5 -85.5t-77 -69l-39 43q60 62 91 120t40 128q-1 0 -12 -1t-12 -1q-61 0 -102.5 39t-41.5 104t41.5 103t102.5 38z" />
    <glyph glyph-name="kcommaaccent" unicode="&#x137;" horiz-adv-x="1234" 
d="M1040 195q38 -53 75.5 -84t88.5 -45v-66h-469v66q30 5 36.5 22.5t-4.5 43t-38 63.5l-197 278l-104 -94v-184q0 -63 20.5 -94t75.5 -35v-66h-483v66q55 4 75.5 35t20.5 94v1046q0 63 -20.5 93t-75.5 34v66l336 79h51v-1034l363 324q26 23 36.5 46t2 38.5t-36.5 17.5v66
h331v-66q-125 -15 -211 -92l-194 -174zM641 -113q61 0 102.5 -43.5t42.5 -115.5q1 -77 -16.5 -143t-52 -116.5t-67.5 -85.5t-77 -69l-38 43q60 62 91 120t40 128q-1 0 -12.5 -1t-12.5 -1q-61 0 -102 39t-41 104t41 103t102 38z" />
    <glyph glyph-name="kgreenlandic" unicode="&#x138;" horiz-adv-x="1234" 
d="M1040 195q37 -52 75.5 -83.5t90.5 -45.5v-66h-471v66q22 4 32 14t8 27.5t-13 38.5t-31 49l-196 278l-107 -94v-184q0 -63 21 -94t77 -35v-66h-485v66q56 4 77 35t21 94v657q0 63 -21 93t-77 34v65l338 80h49v-645l365 324q26 23 36 46t1 38.5t-37 17.5v66h331v-66
q-125 -15 -211 -92l-194 -174z" />
    <glyph glyph-name="Lacute" unicode="&#x139;" horiz-adv-x="1218" 
d="M1137 387h51l-41 -387h-1065v66q55 4 75.5 35t20.5 94v1046q0 63 -20.5 93t-75.5 36v64h491v-64q-56 -6 -77 -36t-21 -93v-1122h373q218 0 289 268zM522 1794q25 -46 7.5 -87.5t-70.5 -61.5q-92 -36 -275 -91q-55 -13 -71 21q-21 37 24 70q113 98 225 178
q46 32 90.5 23.5t69.5 -52.5z" />
    <glyph glyph-name="lacute" unicode="&#x13a;" horiz-adv-x="565" 
d="M449 195q0 -64 20 -94.5t76 -34.5v-66h-486v66q56 4 77.5 35t21.5 94v1046q0 63 -21.5 93t-77.5 34v66l338 79h52v-1318zM457 1810q25 -46 7 -87.5t-71 -61.5q-84 -33 -274 -90q-56 -14 -72 20q-20 36 25 70q113 98 225 178q46 32 90.5 23.5t69.5 -52.5z" />
    <glyph glyph-name="Lcommaaccent" unicode="&#x13b;" horiz-adv-x="1218" 
d="M1137 387h51l-41 -387h-1065v66q55 4 75.5 35t20.5 94v1046q0 63 -20.5 93t-75.5 36v64h491v-64q-56 -6 -77 -36t-21 -93v-1122h373q218 0 289 268zM651 -113q61 0 103 -43.5t43 -115.5q1 -77 -16.5 -143t-52 -116.5t-67.5 -85.5t-77 -69l-39 43q60 62 91 120t40 128
q-1 0 -12.5 -1t-12.5 -1q-61 0 -102 39t-41 104t41 103t102 38z" />
    <glyph glyph-name="lcommaaccent" unicode="&#x13c;" 
d="M430 195q0 -64 20 -94.5t76 -34.5v-66h-485v66q56 4 77 35t21 94v1046q0 63 -21 93t-77 34v66l338 79h51v-1318zM281 -113q61 0 102.5 -43.5t42.5 -115.5q1 -77 -16.5 -143t-52 -116.5t-67.5 -85.5t-77 -69l-39 43q60 62 91 120t40 128q-1 0 -12 -1t-12 -1
q-61 0 -102.5 39t-41.5 104t41.5 103t102.5 38z" />
    <glyph glyph-name="Lcaron" unicode="&#x13d;" horiz-adv-x="1218" 
d="M1137 387h51l-41 -387h-1065v66q55 4 75.5 35t20.5 94v1046q0 63 -20.5 93t-75.5 36v64h491v-64q-56 -6 -77 -36t-21 -93v-1122h373q218 0 289 268zM883 1454q60 0 101 -45t42 -117q1 -77 -16.5 -143t-51.5 -116t-67 -84.5t-76 -67.5l-41 41q61 61 91.5 118.5t39.5 128.5
h-22q-62 0 -104 38.5t-42 103.5t42 104t104 39z" />
    <glyph glyph-name="lcaron" unicode="&#x13e;" horiz-adv-x="757" 
d="M430 195q0 -64 20 -94.5t76 -34.5v-66h-485v66q56 4 77 35t21 94v1046q0 63 -21 93t-77 34v66l338 79h51v-1318zM694 1518q60 0 101.5 -45t42.5 -117q5 -245 -211 -412l-41 41q61 61 91.5 119t39.5 129h-23q-62 0 -103.5 38t-41.5 103q0 66 41.5 105t103.5 39z" />
    <glyph glyph-name="Ldot" unicode="&#x13f;" horiz-adv-x="1218" 
d="M1137 387h51l-41 -387h-1065v66q55 4 75.5 35t20.5 94v1046q0 63 -20.5 93t-75.5 36v64h491v-64q-56 -6 -77 -36t-21 -93v-1122h373q218 0 289 268zM860 848q58 0 97.5 -36t39.5 -97t-39.5 -96t-97.5 -35t-97.5 35t-39.5 96t39.5 97t97.5 36z" />
    <glyph glyph-name="ldot" unicode="&#x140;" horiz-adv-x="839" 
d="M430 195q0 -64 20 -94.5t76 -34.5v-66h-485v66q56 4 77 35t21 94v1046q0 63 -21 93t-77 34v66l338 79h51v-1318zM682 860q58 0 97.5 -36t39.5 -97t-39.5 -96t-97.5 -35t-97.5 35t-39.5 96t39.5 97t97.5 36z" />
    <glyph glyph-name="Lslash" unicode="&#x141;" horiz-adv-x="1218" 
d="M1135 385h53l-41 -385h-1065v66q55 4 75.5 35t20.5 94v159l-96 -30v98l96 31v788q0 63 -20.5 93t-75.5 34v66h489v-66q-55 -4 -75.5 -34t-20.5 -93v-696l336 104v-98l-336 -105v-327h373q216 0 287 266z" />
    <glyph glyph-name="lslash" unicode="&#x142;" 
d="M578 549l-150 -57v-299q0 -63 21 -93.5t77 -36.5v-63h-485v63q56 6 77 36.5t21 93.5v188l-149 -55v98l149 55v760q0 63 -21 94t-77 35v66l338 79h49v-923l150 57v-98z" />
    <glyph glyph-name="Nacute" unicode="&#x143;" horiz-adv-x="1515" 
d="M1130 1434h314v-64q-56 -6 -77 -36t-21 -93v-1241h-179l-870 1102v-907q0 -63 21 -94t77 -35v-66h-313v66q56 4 77 35t21 94v1046q0 63 -21 93t-77 36v64h342l805 -1022v829q0 63 -21.5 93t-77.5 36v64zM979 1794q25 -46 7 -87.5t-71 -61.5q-96 -37 -274 -91
q-55 -13 -72 21q-20 36 25 70q113 98 225 178q46 32 90.5 23.5t69.5 -52.5z" />
    <glyph glyph-name="nacute" unicode="&#x144;" horiz-adv-x="1222" 
d="M1106 195q0 -63 20.5 -94t75.5 -35v-66h-483v66q55 4 75.5 35t20.5 94v434q0 256 -188 256q-93 0 -146 -71.5t-53 -178.5v-440q0 -63 20.5 -94t75.5 -35v-66h-483v66q55 4 75.5 35t20.5 94v524q0 63 -20.5 93t-75.5 34v65l324 78h51v-145q109 145 307 145
q194 0 288.5 -106.5t94.5 -286.5v-401zM817 1384q25 -46 7.5 -87.5t-70.5 -61.5q-81 -31 -275 -90q-55 -13 -71 20q-21 37 24 70q113 98 225 178q46 32 90.5 23.5t69.5 -52.5z" />
    <glyph glyph-name="Ncommaaccent" unicode="&#x145;" horiz-adv-x="1515" 
d="M1130 1434h314v-64q-56 -6 -77 -36t-21 -93v-1241h-179l-870 1102v-907q0 -63 21 -94t77 -35v-66h-313v66q56 4 77 35t21 94v1046q0 63 -21 93t-77 36v64h342l805 -1022v829q0 63 -21.5 93t-77.5 36v64zM760 -113q61 0 102.5 -43.5t42.5 -115.5q1 -77 -16.5 -143
t-52 -116.5t-67.5 -85.5t-77 -69l-39 43q60 62 91 120t40 128q-1 0 -12 -1t-12 -1q-61 0 -102.5 39t-41.5 104t41.5 103t102.5 38z" />
    <glyph glyph-name="ncommaaccent" unicode="&#x146;" horiz-adv-x="1222" 
d="M1106 195q0 -63 20.5 -94t75.5 -35v-66h-483v66q55 4 75.5 35t20.5 94v434q0 256 -188 256q-93 0 -146 -71.5t-53 -178.5v-440q0 -63 20.5 -94t75.5 -35v-66h-483v66q55 4 75.5 35t20.5 94v524q0 63 -20.5 93t-75.5 34v65l324 78h51v-145q109 145 307 145
q194 0 288.5 -106.5t94.5 -286.5v-401zM618 -113q61 0 103 -43.5t43 -115.5q1 -77 -16.5 -143t-52 -116.5t-67.5 -85.5t-77 -69l-39 43q60 62 91 120t40 128q-1 0 -12.5 -1t-12.5 -1q-61 0 -102 39t-41 104t41 103t102 38z" />
    <glyph glyph-name="Ncaron" unicode="&#x147;" horiz-adv-x="1515" 
d="M1130 1434h314v-64q-56 -6 -77 -36t-21 -93v-1241h-179l-870 1102v-907q0 -63 21 -94t77 -35v-66h-313v66q56 4 77 35t21 94v1046q0 63 -21 93t-77 36v64h342l805 -1022v829q0 63 -21.5 93t-77.5 36v64zM1079 1851l33 -45l-289 -270h-84l-286 270l32 45l297 -163z" />
    <glyph glyph-name="ncaron" unicode="&#x148;" horiz-adv-x="1222" 
d="M1106 195q0 -63 20.5 -94t75.5 -35v-66h-483v66q55 4 75.5 35t20.5 94v434q0 256 -188 256q-93 0 -146 -71.5t-53 -178.5v-440q0 -63 20.5 -94t75.5 -35v-66h-483v66q55 4 75.5 35t20.5 94v524q0 63 -20.5 93t-75.5 34v65l324 78h51v-145q109 145 307 145
q194 0 288.5 -106.5t94.5 -286.5v-401zM918 1421l32 -45l-288 -270h-84l-287 270l33 45l297 -164z" />
    <glyph glyph-name="napostrophe" unicode="&#x149;" horiz-adv-x="1533" 
d="M1417 195q0 -63 20.5 -94t75.5 -35v-66h-483v66q55 4 75.5 35t20.5 94v434q0 256 -188 256q-93 0 -146 -71.5t-53 -178.5v-440q0 -63 21 -94t76 -35v-66h-484v66q55 4 76 35t21 94v524q0 63 -21 93t-76 34v65l324 78h51v-145q109 145 307 145q194 0 288.5 -106.5
t94.5 -286.5v-401zM164 1452q61 0 102.5 -44t42.5 -116q1 -77 -16.5 -143t-52 -116.5t-67.5 -85t-77 -68.5l-39 43q61 62 91.5 119.5t39.5 127.5q-1 0 -12 -1t-12 -1q-61 0 -102.5 39.5t-41.5 104.5t41.5 103t102.5 38z" />
    <glyph glyph-name="Eng" unicode="&#x14a;" horiz-adv-x="1515" 
d="M1130 1434h314v-66q-56 -4 -77 -34t-21 -93v-1196q0 -503 -381 -508q-154 -3 -279.5 52.5t-173.5 142.5q-21 35 -25 81t13 85q26 56 91.5 68t110.5 -29q16 -14 26.5 -31.5t15 -39.5t6 -35.5t2 -38t0.5 -28.5q3 -61 67 -100t150 -37q257 3 260 373h-62l-870 1102v-907
q0 -63 21 -94t77 -35v-66h-313v66q56 4 77 35t21 94v1046q0 63 -21 93t-77 34v66h342l805 -1022v829q0 63 -21.5 93t-77.5 34v66z" />
    <glyph glyph-name="eng" unicode="&#x14b;" horiz-adv-x="1218" 
d="M721 989q195 0 290 -107.5t95 -287.5v-666q0 -382 -277 -393q-98 -3 -179.5 31t-125.5 104q-19 27 -27 66.5t5 82.5t55 64q47 25 91 12.5t69 -59.5q12 -23 17.5 -71t8.5 -58q12 -48 40 -69t65 -13q30 6 43.5 37t3.5 82q-8 41 -23 77t-27 59t-21 69.5t-9 111.5v566
q0 256 -188 256q-94 0 -146.5 -70.5t-52.5 -179.5v-440q0 -63 20.5 -93.5t75.5 -36.5v-63h-483v63q55 6 75.5 36.5t20.5 93.5v524q0 63 -20.5 94t-75.5 35v63l324 80h49v-145q112 145 307 145z" />
    <glyph glyph-name="Omacron" unicode="&#x14c;" horiz-adv-x="1628" 
d="M813 1454q160 0 303 -55t246.5 -151.5t164 -234.5t60.5 -296q0 -157 -60.5 -295t-164 -234.5t-246.5 -152t-303 -55.5t-302.5 55.5t-246 152t-163.5 234t-60 295.5t60 296t163.5 234.5t246 151.5t302.5 55zM813 55q198 0 324.5 179t126.5 483q0 305 -126.5 483
t-324.5 178q-197 0 -322.5 -178t-125.5 -483q0 -304 126 -483t322 -179zM459 1735h708v-99h-708v99z" />
    <glyph glyph-name="omacron" unicode="&#x14d;" horiz-adv-x="1112" 
d="M541 989q108 0 203 -33t168.5 -94.5t116 -159t42.5 -217.5t-42.5 -217.5t-116 -159.5t-168.5 -95t-203 -33t-203.5 33t-169 95t-116 159.5t-42.5 217.5q0 97 28 179t77 141.5t116 101t145.5 62t164.5 20.5zM541 63q110 0 170.5 116.5t60.5 305.5q0 188 -60.5 304
t-170.5 116t-172 -116t-62 -304t62 -305t172 -117zM186 1305h709v-99h-709v99z" />
    <glyph glyph-name="Obreve" unicode="&#x14e;" horiz-adv-x="1628" 
d="M813 1454q160 0 303 -55t246.5 -151.5t164 -234.5t60.5 -296q0 -157 -60.5 -295t-164 -234.5t-246.5 -152t-303 -55.5t-302.5 55.5t-246 152t-163.5 234t-60 295.5t60 296t163.5 234.5t246 151.5t302.5 55zM813 55q198 0 324.5 179t126.5 483q0 305 -126.5 483
t-324.5 178q-197 0 -322.5 -178t-125.5 -483q0 -304 126 -483t322 -179zM1040 1819l50 -15q-11 -112 -87.5 -184t-189.5 -72q-111 0 -187 72.5t-87 183.5l49 15q27 -55 86.5 -84t138.5 -29q81 0 140.5 29t86.5 84z" />
    <glyph glyph-name="obreve" unicode="&#x14f;" horiz-adv-x="1112" 
d="M541 989q108 0 203 -33t168.5 -94.5t116 -159t42.5 -217.5t-42.5 -217.5t-116 -159.5t-168.5 -95t-203 -33t-203.5 33t-169 95t-116 159.5t-42.5 217.5q0 97 28 179t77 141.5t116 101t145.5 62t164.5 20.5zM541 63q110 0 170.5 116.5t60.5 305.5q0 188 -60.5 304
t-170.5 116t-172 -116t-62 -304t62 -305t172 -117zM766 1389l49 -15q-11 -112 -87 -184t-189 -72q-111 0 -187.5 72.5t-87.5 183.5l49 15q27 -55 87 -84t139 -29q81 0 140.5 29t86.5 84z" />
    <glyph glyph-name="Ohungarumlaut" unicode="&#x150;" horiz-adv-x="1628" 
d="M813 1454q160 0 303 -55t246.5 -151.5t164 -234.5t60.5 -296q0 -157 -60.5 -295t-164 -234.5t-246.5 -152t-303 -55.5t-302.5 55.5t-246 152t-163.5 234t-60 295.5t60 296t163.5 234.5t246 151.5t302.5 55zM813 55q198 0 324.5 179t126.5 483q0 305 -126.5 483
t-324.5 178q-197 0 -322.5 -178t-125.5 -483q0 -304 126 -483t322 -179zM879 1853q38 -36 34 -79.5t-47 -79.5q-82 -69 -229 -174q-49 -31 -76 -4q-27 24 0 73q82 136 158 242q34 46 78.5 51.5t81.5 -29.5zM1200 1853q38 -35 34.5 -79.5t-46.5 -79.5q-77 -65 -230 -174
q-49 -30 -75 -4q-27 24 0 73q87 145 157 242q34 46 78.5 51.5t81.5 -29.5z" />
    <glyph glyph-name="ohungarumlaut" unicode="&#x151;" horiz-adv-x="1112" 
d="M541 989q108 0 203 -33t168.5 -94.5t116 -159t42.5 -217.5t-42.5 -217.5t-116 -159.5t-168.5 -95t-203 -33t-203.5 33t-169 95t-116 159.5t-42.5 217.5q0 97 28 179t77 141.5t116 101t145.5 62t164.5 20.5zM541 63q110 0 170.5 116.5t60.5 305.5q0 188 -60.5 304
t-170.5 116t-172 -116t-62 -304t62 -305t172 -117zM584 1444q38 -36 34 -80t-47 -80q-82 -69 -229 -174q-49 -31 -76 -4q-27 25 0 74q78 130 158 241q34 46 78.5 52t81.5 -29zM905 1444q38 -35 34.5 -80t-46.5 -80q-82 -69 -229 -174q-49 -31 -76 -4q-27 25 0 74
q84 139 157 241q34 46 78.5 52t81.5 -29z" />
    <glyph glyph-name="OE" unicode="&#x152;" horiz-adv-x="2457" 
d="M2345 385h51l-41 -385h-1059v66q56 4 77.5 35t21.5 94v24q-107 -114 -258 -176.5t-324 -62.5q-160 0 -302.5 55.5t-246 152t-163.5 234t-60 295.5t60 296t163.5 234.5t246 151.5t302.5 55q174 0 325 -62.5t257 -177.5v27q0 63 -21.5 93t-77.5 34v66h1020l39 -385h-51
q-71 266 -289 266h-325v-529h217q52 0 86 8.5t53 27t28 40.5t15 58h51v-385h-51q-8 48 -22.5 74t-53 42.5t-106.5 16.5h-217v-549h366q218 0 289 266zM813 55q198 0 324.5 179t126.5 483t-126.5 482.5t-324.5 178.5t-324.5 -178.5t-126.5 -482.5t126.5 -483t324.5 -179z" />
    <glyph glyph-name="oe" unicode="&#x153;" horiz-adv-x="1783" 
d="M1741 528v-28h-660v-2q6 -83 33.5 -149t70 -106.5t95 -65.5t110 -28.5t112.5 6.5t104.5 37.5t85.5 67.5l37 -31q-56 -108 -165 -178.5t-247 -70.5q-111 0 -211 37.5t-172 109.5q-147 -147 -393 -147q-108 0 -203.5 33t-169 94.5t-116 158.5t-42.5 217q0 121 42.5 218.5
t116 159.5t169 95t203.5 33q114 0 214 -35.5t171 -103.5q139 139 372 139q142 0 244.5 -63t151.5 -166t47 -232zM541 63q110 0 171.5 116t61.5 304t-61.5 305t-171.5 117q-108 0 -170 -117.5t-62 -304.5t62 -303.5t170 -116.5zM1477 604q1 58 -7 110t-27 101.5t-57.5 78.5
t-91.5 28q-89 -1 -147 -88t-66 -230h396z" />
    <glyph glyph-name="Racute" unicode="&#x154;" horiz-adv-x="1425" 
d="M1249 195q75 -115 156 -129v-66h-385l-356 582h-13h-176v-387q0 -63 21 -94t77 -35v-66h-491v66q56 4 77 35t21 94v1046q0 63 -21 93t-77 34v66h569q258 0 417 -115.5t159 -310.5q0 -127 -69.5 -222.5t-196.5 -148.5zM475 698h109q160 0 245.5 84t85.5 226t-85 224.5
t-246 82.5h-109v-617zM842 1794q25 -46 7 -87.5t-71 -61.5q-96 -37 -274 -91q-55 -13 -72 21q-20 36 25 70q113 98 225 178q46 32 90.5 23.5t69.5 -52.5z" />
    <glyph glyph-name="racute" unicode="&#x155;" horiz-adv-x="921" 
d="M879 860q10 -31 12 -65t-19.5 -70.5t-64.5 -54.5q-57 -25 -119 8t-72 106q-6 45 -23 64.5t-46 17.5q-57 -4 -88 -68t-31 -175v-428q0 -63 21 -94t77 -35v-66h-485v66q56 4 77 35t21 94v524q0 63 -21 93t-77 34v65l326 78h49v-143q67 137 231 143q84 3 144 -30t88 -99z
M662 1364q25 -46 7 -88t-71 -62q-84 -33 -274 -90q-55 -13 -72 21q-20 36 24 69q115 99 226 179q46 32 90.5 23.5t69.5 -52.5z" />
    <glyph glyph-name="Rcommaaccent" unicode="&#x156;" horiz-adv-x="1425" 
d="M1249 195q75 -115 156 -129v-66h-385l-356 582h-13h-176v-387q0 -63 21 -94t77 -35v-66h-491v66q56 4 77 35t21 94v1046q0 63 -21 93t-77 34v66h569q258 0 417 -115.5t159 -310.5q0 -127 -69.5 -222.5t-196.5 -148.5zM475 698h109q160 0 245.5 84t85.5 226t-85 224.5
t-246 82.5h-109v-617zM745 -113q61 0 103 -43.5t43 -115.5q1 -77 -16.5 -143t-52 -116.5t-67.5 -85.5t-77 -69l-39 43q60 62 91 120t40 128q-1 0 -12.5 -1t-12.5 -1q-61 0 -102 39t-41 104t41 103t102 38z" />
    <glyph glyph-name="rcommaaccent" unicode="&#x157;" horiz-adv-x="921" 
d="M879 860q10 -31 12 -65t-19.5 -70.5t-64.5 -54.5q-57 -25 -119 8t-72 106q-6 45 -23 64.5t-46 17.5q-57 -4 -88 -68t-31 -175v-428q0 -63 21 -94t77 -35v-66h-485v66q56 4 77 35t21 94v524q0 63 -21 93t-77 34v65l326 78h49v-143q67 137 231 143q84 3 144 -30t88 -99z
M279 -113q61 0 102.5 -43.5t42.5 -115.5q1 -77 -16.5 -143t-52 -116.5t-67.5 -85.5t-77 -69l-39 43q60 62 91 120t40 128q-1 0 -12 -1t-12 -1q-61 0 -102.5 39t-41.5 104t41.5 103t102.5 38z" />
    <glyph glyph-name="Rcaron" unicode="&#x158;" horiz-adv-x="1425" 
d="M1249 195q75 -115 156 -129v-66h-385l-356 582h-13h-176v-387q0 -63 21 -94t77 -35v-66h-491v66q56 4 77 35t21 94v1046q0 63 -21 93t-77 34v66h569q258 0 417 -115.5t159 -310.5q0 -127 -69.5 -222.5t-196.5 -148.5zM475 698h109q160 0 245.5 84t85.5 226t-85 224.5
t-246 82.5h-109v-617zM922 1851l32 -45l-288 -270h-84l-287 270l33 45l297 -163z" />
    <glyph glyph-name="rcaron" unicode="&#x159;" horiz-adv-x="921" 
d="M879 860q10 -31 12 -65t-19.5 -70.5t-64.5 -54.5q-57 -25 -119 8t-72 106q-6 45 -23 64.5t-46 17.5q-57 -4 -88 -68t-31 -175v-428q0 -63 21 -94t77 -35v-66h-485v66q56 4 77 35t21 94v524q0 63 -21 93t-77 34v65l326 78h49v-143q67 137 231 143q84 3 144 -30t88 -99z
M762 1421l33 -45l-289 -270h-84l-287 270l33 45l297 -164z" />
    <glyph glyph-name="Sacute" unicode="&#x15a;" horiz-adv-x="1150" 
d="M702 862q174 -102 238 -155q131 -107 145 -240q9 -78 -18 -176q-22 -82 -72 -143.5t-119.5 -97.5t-148 -53t-166.5 -17q-142 0 -272.5 35t-227.5 104v336h52q57 -181 160.5 -286t246.5 -114q126 -6 198 51.5t83 155.5q5 48 -4.5 86.5t-26 65.5t-51.5 54.5t-66 46
t-83 47.5q-38 21 -58 32q-44 25 -71 41.5t-69.5 44.5t-69.5 49.5t-61.5 54.5t-54 62.5t-39.5 69t-26.5 79t-5 88t15.5 99.5q24 95 95 158t161.5 88.5t200.5 25.5q118 0 211 -33t200 -106l2 -295h-51q-46 186 -127 269t-209 89q-112 6 -173 -45.5t-64 -132.5q-2 -41 15 -79.5
t41.5 -68t74 -66t87 -60t107.5 -64.5zM831 1794q25 -46 7.5 -87.5t-70.5 -61.5q-96 -37 -274 -91q-55 -13 -72 21q-21 37 24 70q108 93 226 178q46 32 90 23.5t69 -52.5z" />
    <glyph glyph-name="sacute" unicode="&#x15b;" horiz-adv-x="841" 
d="M270 815q-5 -36 8.5 -65t52.5 -55.5t67.5 -41.5t91.5 -43q15 -7 22 -10q34 -15 52.5 -24t51 -26t51 -30t44 -33.5t39.5 -39.5t28 -45t18 -52.5t2.5 -60t-12.5 -70.5q-32 -115 -138.5 -177t-258.5 -62q-101 0 -208 28t-171 78v248h47q32 -137 127.5 -210t204.5 -73
q65 0 111.5 27t56.5 78q6 20 2.5 38t-9 32t-19 27.5t-28 24t-36 21.5t-42 20.5t-47.5 21.5q-22 10 -34 15q-48 22 -82 39.5t-72.5 42t-64 48.5t-48 56.5t-32 67.5t-9.5 80t13 96q15 57 53 99t89.5 64.5t106.5 32t114 7.5q174 -3 303 -104l2 -221h-47q-37 137 -97.5 196.5
t-160.5 59.5q-31 0 -58.5 -7.5t-52.5 -32.5t-31 -65zM641 1364q25 -46 7 -88t-70 -62q-81 -31 -275 -90q-55 -13 -72 21q-20 36 25 69q120 103 225 179q46 32 90.5 23.5t69.5 -52.5z" />
    <glyph glyph-name="Scircumflex" unicode="&#x15c;" horiz-adv-x="1150" 
d="M702 862q174 -102 238 -155q131 -107 145 -240q9 -78 -18 -176q-22 -82 -72 -143.5t-119.5 -97.5t-148 -53t-166.5 -17q-142 0 -272.5 35t-227.5 104v336h52q57 -181 160.5 -286t246.5 -114q126 -6 198 51.5t83 155.5q5 48 -4.5 86.5t-26 65.5t-51.5 54.5t-66 46
t-83 47.5q-38 21 -58 32q-44 25 -71 41.5t-69.5 44.5t-69.5 49.5t-61.5 54.5t-54 62.5t-39.5 69t-26.5 79t-5 88t15.5 99.5q24 95 95 158t161.5 88.5t200.5 25.5q118 0 211 -33t200 -106l2 -295h-51q-46 186 -127 269t-209 89q-112 6 -173 -45.5t-64 -132.5q-2 -41 15 -79.5
t41.5 -68t74 -66t87 -60t107.5 -64.5zM657 1851l289 -268l-35 -47l-295 166l-297 -166l-32 47l286 268h84z" />
    <glyph glyph-name="scircumflex" unicode="&#x15d;" horiz-adv-x="841" 
d="M270 815q-5 -36 8.5 -65t52.5 -55.5t67.5 -41.5t91.5 -43q15 -7 22 -10q34 -15 52.5 -24t51 -26t51 -30t44 -33.5t39.5 -39.5t28 -45t18 -52.5t2.5 -60t-12.5 -70.5q-32 -115 -138.5 -177t-258.5 -62q-101 0 -208 28t-171 78v248h47q32 -137 127.5 -210t204.5 -73
q65 0 111.5 27t56.5 78q6 20 2.5 38t-9 32t-19 27.5t-28 24t-36 21.5t-42 20.5t-47.5 21.5q-22 10 -34 15q-48 22 -82 39.5t-72.5 42t-64 48.5t-48 56.5t-32 67.5t-9.5 80t13 96q15 57 53 99t89.5 64.5t106.5 32t114 7.5q174 -3 303 -104l2 -221h-47q-37 137 -97.5 196.5
t-160.5 59.5q-31 0 -58.5 -7.5t-52.5 -32.5t-31 -65zM446 1421l289 -268l-35 -47l-294 166l-297 -166l-33 47l286 268h84z" />
    <glyph glyph-name="Scedilla" unicode="&#x15e;" horiz-adv-x="1148" 
d="M702 860q54 -31 82.5 -48.5t74.5 -47t70 -49.5t57 -51.5t48 -58t31.5 -63t19.5 -73.5t-0.5 -82.5t-17.5 -95.5q-28 -102 -99.5 -172t-161 -101.5t-200.5 -37.5l-28 -91q52 4 86 0q74 -12 109.5 -54t27.5 -101q-10 -68 -63 -104t-134 -36q-49 0 -97 20t-67 42l27 45
q28 -23 61 -25q76 -9 88 78q6 67 -49 76q-22 4 -51 -4l-14 43l37 111q-288 7 -478 139v336h52q57 -182 160.5 -287.5t246.5 -112.5q126 -7 198 50t81 157q6 58 -5 101t-52.5 81.5t-70 57t-103.5 60.5q-37 21 -56 32q-44 25 -71 41.5t-69.5 44.5t-69.5 49.5t-61.5 54.5
t-54.5 62.5t-39.5 68.5t-26.5 78.5t-5.5 87.5t14.5 99q25 96 96.5 159.5t162 89t200.5 25.5q117 0 210 -33.5t201 -105.5v-297h-49q-46 187 -127 270.5t-209 89.5q-113 6 -173.5 -45.5t-63.5 -132.5q-2 -41 15 -80t41.5 -68.5t73.5 -66t88 -61t107 -64.5z" />
    <glyph glyph-name="scedilla" unicode="&#x15f;" horiz-adv-x="841" 
d="M512 600q134 -63 187 -104q137 -108 87 -277q-30 -107 -124 -168t-230 -69l-31 -93q55 4 88 0q75 -12 110 -54t26 -101q-9 -68 -61.5 -104t-133.5 -36q-49 0 -97 20t-67 42l27 45q28 -23 61 -25q76 -9 88 78q6 67 -49 76q-22 4 -51 -4l-14 43l37 111q-97 3 -195 31
t-160 75v248h47q32 -137 127.5 -210t204.5 -73q65 0 111.5 27t56.5 78q7 34 -0.5 59.5t-39 49t-55 36t-79.5 37.5l-39 18q-48 22 -82 39.5t-73 42t-63.5 48t-47.5 56t-32.5 67.5t-9.5 80t13 97q15 57 53 99t89.5 64.5t106.5 32t114 7.5q174 -7 303 -104v-221h-47
q-35 137 -95 196.5t-161 59.5q-51 0 -92.5 -24t-49.5 -83q-4 -29 6.5 -54t27 -43t49.5 -38t59.5 -33t72.5 -33z" />
    <glyph glyph-name="Scaron" unicode="&#x160;" horiz-adv-x="1150" 
d="M702 862q174 -102 238 -155q131 -107 145 -240q9 -78 -18 -176q-22 -82 -72 -143.5t-119.5 -97.5t-148 -53t-166.5 -17q-142 0 -272.5 35t-227.5 104v336h52q57 -181 160.5 -286t246.5 -114q126 -6 198 51.5t83 155.5q5 48 -4.5 86.5t-26 65.5t-51.5 54.5t-66 46
t-83 47.5q-38 21 -58 32q-44 25 -71 41.5t-69.5 44.5t-69.5 49.5t-61.5 54.5t-54 62.5t-39.5 69t-26.5 79t-5 88t15.5 99.5q24 95 95 158t161.5 88.5t200.5 25.5q118 0 211 -33t200 -106l2 -295h-51q-46 186 -127 269t-209 89q-112 6 -173 -45.5t-64 -132.5q-2 -41 15 -79.5
t41.5 -68t74 -66t87 -60t107.5 -64.5zM913 1851l33 -45l-289 -270h-84l-286 270l32 45l297 -163z" />
    <glyph glyph-name="scaron" unicode="&#x161;" horiz-adv-x="841" 
d="M270 815q-5 -36 8.5 -65t52.5 -55.5t67.5 -41.5t91.5 -43q15 -7 22 -10q34 -15 52.5 -24t51 -26t51 -30t44 -33.5t39.5 -39.5t28 -45t18 -52.5t2.5 -60t-12.5 -70.5q-32 -115 -138.5 -177t-258.5 -62q-101 0 -208 28t-171 78v248h47q32 -137 127.5 -210t204.5 -73
q65 0 111.5 27t56.5 78q6 20 2.5 38t-9 32t-19 27.5t-28 24t-36 21.5t-42 20.5t-47.5 21.5q-22 10 -34 15q-48 22 -82 39.5t-72.5 42t-64 48.5t-48 56.5t-32 67.5t-9.5 80t13 96q15 57 53 99t89.5 64.5t106.5 32t114 7.5q174 -3 303 -104l2 -221h-47q-37 137 -97.5 196.5
t-160.5 59.5q-31 0 -58.5 -7.5t-52.5 -32.5t-31 -65zM702 1421l33 -45l-289 -270h-84l-286 270l33 45l297 -164z" />
    <glyph glyph-name="Tcommaaccent" unicode="&#x162;" horiz-adv-x="1372" 
d="M1292 1434l39 -385h-51q-71 266 -289 266h-157v-1120q0 -63 21 -94t77 -35v-66h-492v66q56 4 77.5 35t21.5 94v1120h-158q-218 0 -289 -266h-51l39 385h1212zM682 -113q61 0 102.5 -43.5t42.5 -115.5q1 -77 -16.5 -143t-52 -116.5t-67.5 -85.5t-77 -69l-39 43
q61 62 92 120t40 128q-1 0 -12.5 -1t-12.5 -1q-61 0 -102 39t-41 104t41 103t102 38z" />
    <glyph glyph-name="tcommaaccent" unicode="&#x163;" horiz-adv-x="733" 
d="M659 172l33 -55q-36 -58 -102 -97.5t-152 -39.5q-58 0 -105 13t-90 43t-67 88.5t-24 141.5v600h-142v105q130 0 220 83t122 212h88v-295h195v-105h-195v-600q0 -92 78 -121q73 -25 141 27zM328 -113q61 0 102.5 -43.5t42.5 -115.5q1 -77 -16.5 -143t-52 -116.5
t-67.5 -85.5t-77 -69l-39 43q60 62 91 120t40 128q-1 0 -12 -1t-12 -1q-61 0 -102.5 39t-41.5 104t41.5 103t102.5 38z" />
    <glyph glyph-name="Tcaron" unicode="&#x164;" horiz-adv-x="1372" 
d="M1292 1434l39 -385h-51q-71 266 -289 266h-157v-1120q0 -63 21 -94t77 -35v-66h-492v66q56 4 77.5 35t21.5 94v1120h-158q-218 0 -289 -266h-51l39 385h1212zM983 1851l33 -45l-289 -270h-84l-287 270l33 45l297 -163z" />
    <glyph glyph-name="tcaron" unicode="&#x165;" horiz-adv-x="907" 
d="M659 172l33 -55q-36 -58 -102 -97.5t-152 -39.5q-58 0 -105 13t-90 43t-67 88.5t-24 141.5v600h-142v105q130 0 220 83t122 212h88v-295h195v-105h-195v-600q0 -92 78 -121q73 -25 141 27zM803 1491q60 0 101 -45t42 -117q1 -77 -16.5 -143t-51.5 -116t-67 -84.5
t-76 -67.5l-41 40q61 61 91.5 119t39.5 129h-22q-62 0 -104 38.5t-42 103.5t42 104t104 39z" />
    <glyph glyph-name="Tbar" unicode="&#x166;" horiz-adv-x="1374" 
d="M1294 1434l39 -385h-51q-71 266 -289 266h-157v-549h206v-98h-206v-473q0 -63 21 -94t77 -35v-66h-492v66q55 4 76 35t21 94v473h-205v98h205v549h-158q-216 0 -287 -266h-53l41 385h1212z" />
    <glyph glyph-name="tbar" unicode="&#x167;" horiz-adv-x="731" 
d="M657 170l33 -55q-36 -58 -101 -96.5t-153 -38.5q-286 0 -286 284v346h-140v99h140v157h-140v105q130 0 219.5 82.5t120.5 212.5h90v-295h193v-105h-193v-157h160v-99h-160v-346q0 -92 78 -121q70 -25 139 27z" />
    <glyph glyph-name="Utilde" unicode="&#x168;" horiz-adv-x="1495" 
d="M1122 1434h312v-66q-55 -4 -76 -34t-21 -93v-676q0 -264 -148 -424.5t-407 -160.5q-124 0 -231.5 34.5t-191.5 102.5t-132.5 180t-48.5 256v688q0 63 -20.5 93t-75.5 34v66h491v-66q-56 -4 -77 -34t-21 -93v-700q0 -214 103.5 -329.5t277.5 -115.5q118 0 202 63
t122.5 162.5t38.5 223.5v696q0 63 -21 93t-76 34v66zM711 1802q49 0 87 -11.5t91 -37.5q116 -61 172 -61q79 0 100 84h56q-8 -110 -51.5 -167t-133.5 -57q-19 0 -38.5 3t-33 6t-36.5 11t-31.5 11.5t-35.5 15.5t-34 15q-93 39 -143 39q-77 0 -123 -82h-55q9 103 68.5 167
t140.5 64z" />
    <glyph glyph-name="utilde" unicode="&#x169;" horiz-adv-x="1202" 
d="M1065 195q0 -63 20.5 -94t75.5 -35v-66h-387v111q-110 -131 -293 -131q-194 0 -288.5 107.5t-94.5 287.5v344q0 63 -21 93t-77 34v65l338 78h49v-647q0 -121 46.5 -188.5t144.5 -67.5q93 0 144.5 71t51.5 179v383q0 63 -20.5 93t-75.5 34v65l338 78h49v-794zM432 1372
q49 0 87 -11.5t91 -37.5q116 -61 172 -61q80 0 101 84h55q-8 -110 -51 -167t-133 -57q-19 0 -38.5 3t-33 6t-36.5 11t-31.5 11.5t-36 15.5t-33.5 15q-93 39 -144 39q-76 0 -122 -82h-56q9 103 68.5 167t140.5 64z" />
    <glyph glyph-name="Umacron" unicode="&#x16a;" horiz-adv-x="1495" 
d="M1122 1434h312v-66q-55 -4 -76 -34t-21 -93v-676q0 -264 -148 -424.5t-407 -160.5q-124 0 -231.5 34.5t-191.5 102.5t-132.5 180t-48.5 256v688q0 63 -20.5 93t-75.5 34v66h491v-66q-56 -4 -77 -34t-21 -93v-700q0 -214 103.5 -329.5t277.5 -115.5q118 0 202 63
t122.5 162.5t38.5 223.5v696q0 63 -21 93t-76 34v66zM506 1735h708v-99h-708v99z" />
    <glyph glyph-name="umacron" unicode="&#x16b;" horiz-adv-x="1202" 
d="M1065 195q0 -63 20.5 -94t75.5 -35v-66h-387v111q-110 -131 -293 -131q-194 0 -288.5 107.5t-94.5 287.5v344q0 63 -21 93t-77 34v65l338 78h49v-647q0 -121 46.5 -188.5t144.5 -67.5q93 0 144.5 71t51.5 179v383q0 63 -20.5 93t-75.5 34v65l338 78h49v-794zM225 1305
h709v-99h-709v99z" />
    <glyph glyph-name="Ubreve" unicode="&#x16c;" horiz-adv-x="1495" 
d="M1122 1434h312v-66q-55 -4 -76 -34t-21 -93v-676q0 -264 -148 -424.5t-407 -160.5q-124 0 -231.5 34.5t-191.5 102.5t-132.5 180t-48.5 256v688q0 63 -20.5 93t-75.5 34v66h491v-66q-56 -4 -77 -34t-21 -93v-700q0 -214 103.5 -329.5t277.5 -115.5q118 0 202 63
t122.5 162.5t38.5 223.5v696q0 63 -21 93t-76 34v66zM1065 1819l49 -15q-11 -112 -87 -184t-189 -72q-111 0 -187.5 72.5t-87.5 183.5l49 15q27 -55 87 -84t139 -29q81 0 140.5 29t86.5 84z" />
    <glyph glyph-name="ubreve" unicode="&#x16d;" horiz-adv-x="1202" 
d="M1065 195q0 -63 20.5 -94t75.5 -35v-66h-387v111q-110 -131 -293 -131q-194 0 -288.5 107.5t-94.5 287.5v344q0 63 -21 93t-77 34v65l338 78h49v-647q0 -121 46.5 -188.5t144.5 -67.5q93 0 144.5 71t51.5 179v383q0 63 -20.5 93t-75.5 34v65l338 78h49v-794zM807 1389
l49 -15q-11 -112 -87 -184t-189 -72q-111 0 -187.5 72.5t-87.5 183.5l49 15q27 -55 87 -84t139 -29q81 0 140.5 29t86.5 84z" />
    <glyph glyph-name="Uring" unicode="&#x16e;" horiz-adv-x="1495" 
d="M1122 1434h312v-66q-55 -4 -76 -34t-21 -93v-676q0 -264 -148 -424.5t-407 -160.5q-124 0 -231.5 34.5t-191.5 102.5t-132.5 180t-48.5 256v688q0 63 -20.5 93t-75.5 34v66h491v-66q-56 -4 -77 -34t-21 -93v-700q0 -214 103.5 -329.5t277.5 -115.5q118 0 202 63
t122.5 162.5t38.5 223.5v696q0 63 -21 93t-76 34v66zM860 1923q94 0 160.5 -54.5t66.5 -142.5t-66.5 -142t-160.5 -54q-95 0 -161 54t-66 142t66 142.5t161 54.5zM860 1567q44 0 67 45t23 114q0 68 -23 113t-67 45t-67 -45t-23 -113q0 -69 23 -114t67 -45z" />
    <glyph glyph-name="uring" unicode="&#x16f;" horiz-adv-x="1202" 
d="M1065 195q0 -63 20.5 -94t75.5 -35v-66h-387v111q-110 -131 -293 -131q-194 0 -288.5 107.5t-94.5 287.5v344q0 63 -21 93t-77 34v65l338 78h49v-647q0 -121 46.5 -188.5t144.5 -67.5q93 0 144.5 71t51.5 179v383q0 63 -20.5 93t-75.5 34v65l338 78h49v-794zM580 1493
q94 0 160.5 -54.5t66.5 -142.5t-66.5 -142t-160.5 -54q-95 0 -161.5 54t-66.5 142t66.5 142.5t161.5 54.5zM580 1137q44 0 67 45t23 114q0 68 -23 113t-67 45t-67.5 -45t-23.5 -113t23.5 -113.5t67.5 -45.5z" />
    <glyph glyph-name="Uhungarumlaut" unicode="&#x170;" horiz-adv-x="1495" 
d="M1122 1434h312v-66q-55 -4 -76 -34t-21 -93v-676q0 -264 -148 -424.5t-407 -160.5q-124 0 -231.5 34.5t-191.5 102.5t-132.5 180t-48.5 256v688q0 63 -20.5 93t-75.5 34v66h491v-66q-56 -4 -77 -34t-21 -93v-700q0 -214 103.5 -329.5t277.5 -115.5q118 0 202 63
t122.5 162.5t38.5 223.5v696q0 63 -21 93t-76 34v66zM883 1853q38 -36 34 -79.5t-47 -79.5q-82 -69 -229 -174q-49 -31 -76 -4q-27 24 0 73q82 136 158 242q34 46 78.5 51.5t81.5 -29.5zM1204 1853q38 -35 34.5 -79.5t-46.5 -79.5q-82 -69 -229 -174q-49 -31 -76 -4
q-27 24 0 73q87 145 157 242q34 46 78.5 51.5t81.5 -29.5z" />
    <glyph glyph-name="uhungarumlaut" unicode="&#x171;" horiz-adv-x="1202" 
d="M1065 195q0 -63 20.5 -94t75.5 -35v-66h-387v111q-110 -131 -293 -131q-194 0 -288.5 107.5t-94.5 287.5v344q0 63 -21 93t-77 34v65l338 78h49v-647q0 -121 46.5 -188.5t144.5 -67.5q93 0 144.5 71t51.5 179v383q0 63 -20.5 93t-75.5 34v65l338 78h49v-794zM666 1423
q38 -36 34 -79.5t-47 -79.5q-82 -69 -229 -174q-50 -31 -76 -5q-27 25 0 74q82 136 158 242q34 46 78.5 51.5t81.5 -29.5zM987 1423q38 -35 34.5 -79.5t-46.5 -79.5q-77 -65 -230 -174q-49 -31 -75 -5q-27 25 0 74q87 145 157 242q34 46 78.5 51.5t81.5 -29.5z" />
    <glyph glyph-name="Uogonek" unicode="&#x172;" horiz-adv-x="1495" 
d="M1122 1434h312v-66q-55 -4 -76 -34.5t-21 -94.5v-676q0 -239 -124.5 -395.5t-344.5 -183.5q-83 -91 -92 -181q-4 -51 23.5 -76t64.5 -22t66 25l28 -37q-23 -38 -71.5 -68.5t-112.5 -30.5q-98 0 -150.5 60t-21.5 153q30 92 170 173q-123 2 -228 37t-188 103t-130.5 179
t-47.5 254v686q0 64 -20.5 94.5t-75.5 34.5v66h489v-66q-55 -4 -75.5 -34.5t-20.5 -94.5v-700q0 -212 103.5 -327.5t277.5 -115.5q118 0 202 63t122.5 162.5t38.5 223.5v694q0 64 -21 94.5t-76 34.5v66z" />
    <glyph glyph-name="uogonek" unicode="&#x173;" horiz-adv-x="1202" 
d="M1030 0q-98 -98 -106 -197q-5 -51 22 -76t64 -22t67 25l27 -37q-23 -38 -71.5 -68.5t-112.5 -30.5q-98 0 -150.5 60t-21.5 153q22 63 84.5 113t125.5 80h-184v109q-111 -129 -293 -129q-194 0 -288.5 107.5t-94.5 287.5v342q0 63 -21 94t-77 35v65l338 78h49v-647
q0 -121 46.5 -188.5t144.5 -67.5q93 0 144.5 71t51.5 179v381q0 63 -20.5 94t-75.5 35v65l338 78h49v-794q0 -64 20.5 -94.5t75.5 -34.5v-66h-131z" />
    <glyph glyph-name="Wcircumflex" unicode="&#x174;" horiz-adv-x="2109" 
d="M1767 1434h322v-66q-53 -3 -81.5 -29t-47.5 -86l-397 -1253h-146l-344 1053l-342 -1053h-145l-434 1257q-22 63 -47.5 84.5t-84.5 26.5v66h531v-66q-51 -3 -73.5 -42.5t-2.5 -100.5l264 -822l336 1031h164l332 -1026l262 833q20 68 4 96.5t-70 30.5v66zM1198 1851
l289 -268l-35 -47l-295 166l-297 -166l-33 47l287 268h84z" />
    <glyph glyph-name="wcircumflex" unicode="&#x175;" horiz-adv-x="1581" 
d="M1266 971h284v-66q-52 -3 -79.5 -24t-47.5 -76l-290 -805h-146l-231 639l-224 -639h-131l-309 776q-26 66 -53 95.5t-80 33.5v66h514v-66q-57 -4 -76 -38t2 -91l156 -454l233 649h144l217 -666l178 496q16 46 0.5 74.5t-61.5 29.5v66zM897 1421l289 -268l-35 -47
l-295 166l-297 -166l-33 47l287 268h84z" />
    <glyph glyph-name="Ycircumflex" unicode="&#x176;" horiz-adv-x="1388" 
d="M1032 1434h336v-66q-45 -3 -74 -22.5t-55 -61.5l-362 -651v-438q0 -63 20.5 -94t75.5 -35v-66h-492v66q56 4 77.5 35t21.5 94v411l-402 643q-36 58 -70.5 86.5t-87.5 32.5v66h529v-66q-48 0 -68 -31t6 -77l310 -529l290 524q27 47 10 80t-65 33v66zM838 1851l288 -268
l-34 -47l-295 166l-297 -166l-33 47l287 268h84z" />
    <glyph glyph-name="ycircumflex" unicode="&#x177;" horiz-adv-x="1081" 
d="M780 971h271v-66q-49 -3 -74 -24t-49 -76l-357 -856q-68 -155 -120.5 -240.5t-102 -123.5t-115.5 -50q-56 -10 -126.5 3.5t-110.5 49.5q-23 19 -39.5 47.5t-16 68.5t30.5 71q29 30 67.5 32.5t69.5 -19.5t42 -60q15 -56 30 -73q21 -23 62 -20q23 2 43.5 12.5t49.5 40
t64.5 94t75.5 161.5l-377 833q-29 63 -60.5 94t-84.5 35v66h514v-66q-108 -9 -59 -129l206 -500l220 529q19 41 5.5 70t-59.5 30v66zM678 1421l289 -268l-35 -47l-295 166l-297 -166l-33 47l287 268h84z" />
    <glyph glyph-name="Ydieresis" unicode="&#x178;" horiz-adv-x="1388" 
d="M1032 1434h336v-66q-45 -3 -74 -22.5t-55 -61.5l-362 -651v-438q0 -63 20.5 -94t75.5 -35v-66h-492v66q56 4 77.5 35t21.5 94v411l-402 643q-36 58 -70.5 86.5t-87.5 32.5v66h529v-66q-48 0 -68 -31t6 -77l310 -529l290 524q27 47 10 80t-65 33v66zM623 1837
q58 0 97.5 -36t39.5 -97t-39.5 -96t-97.5 -35t-98 35t-40 96t40 97t98 36zM971 1837q58 0 97.5 -36t39.5 -97t-39.5 -96t-97.5 -35t-97.5 35t-39.5 96t39.5 97t97.5 36z" />
    <glyph glyph-name="Zacute" unicode="&#x179;" horiz-adv-x="1273" 
d="M1171 387h52l-41 -387h-1131v119l791 1196h-422q-218 0 -289 -266h-51l41 385h1050v-119l-784 -1196h496q217 0 288 268zM893 1794q25 -46 7 -87.5t-71 -61.5q-96 -37 -274 -91q-55 -13 -72 21q-20 36 25 70q113 98 225 178q46 32 90.5 23.5t69.5 -52.5z" />
    <glyph glyph-name="zacute" unicode="&#x17a;" horiz-adv-x="974" 
d="M862 293h51l-39 -293h-833v106l512 760h-162q-118 0 -179 -50t-89 -138h-51l41 293h766v-105l-504 -760h219q119 0 179.5 49.5t88.5 137.5zM754 1364q25 -46 7 -88t-71 -62q-84 -33 -274 -90q-55 -13 -72 21q-20 36 25 69q120 103 225 179q46 32 90.5 23.5t69.5 -52.5z
" />
    <glyph glyph-name="Zdotaccent" unicode="&#x17b;" horiz-adv-x="1273" 
d="M1171 387h52l-41 -387h-1131v119l791 1196h-422q-218 0 -289 -266h-51l41 385h1050v-119l-784 -1196h496q217 0 288 268zM678 1837q58 0 97.5 -36t39.5 -97t-39.5 -96t-97.5 -35t-97.5 35t-39.5 96t39.5 97t97.5 36z" />
    <glyph glyph-name="zdotaccent" unicode="&#x17c;" horiz-adv-x="974" 
d="M862 293h51l-39 -293h-833v106l512 760h-162q-118 0 -179 -50t-89 -138h-51l41 293h766v-105l-504 -760h219q119 0 179.5 49.5t88.5 137.5zM539 1407q58 0 97.5 -36t39.5 -97t-39.5 -96t-97.5 -35t-98 35t-40 96t40 97t98 36z" />
    <glyph glyph-name="Zcaron" unicode="&#x17d;" horiz-adv-x="1273" 
d="M1171 387h52l-41 -387h-1131v119l791 1196h-422q-218 0 -289 -266h-51l41 385h1050v-119l-784 -1196h496q217 0 288 268zM975 1851l33 -45l-289 -270h-84l-287 270l33 45l297 -163z" />
    <glyph glyph-name="zcaron" unicode="&#x17e;" horiz-adv-x="974" 
d="M862 293h51l-39 -293h-833v106l512 760h-162q-118 0 -179 -50t-89 -138h-51l41 293h766v-105l-504 -760h219q119 0 179.5 49.5t88.5 137.5zM815 1421l33 -45l-289 -270h-84l-287 270l33 45l297 -164z" />
    <glyph glyph-name="longs" unicode="&#x17f;" horiz-adv-x="616" 
d="M776 1350q21 -24 34 -55.5t9 -71t-33 -68.5q-38 -38 -95.5 -25.5t-80.5 66.5q-10 24 -16.5 62.5t-9.5 48.5q-25 91 -113 77q-37 -5 -57 -42t-11 -89q9 -44 25 -87t24 -86t9 -124v-763q0 -63 20.5 -93.5t75.5 -36.5v-63h-483v63q55 6 75.5 36.5t20.5 93.5v673h-170v105
h170v112q0 171 82 271.5t233 109.5q92 6 167 -24.5t124 -89.5z" />
    <glyph glyph-name="AEacute" unicode="&#x1fc;" horiz-adv-x="2078" 
d="M1966 385h51l-41 -385h-1058v66q55 4 75.5 35t20.5 94v241h-500l-154 -241q-36 -57 -21 -90.5t75 -38.5v-66h-394v66q57 4 109 38.5t88 88.5l662 1040q22 35 27 65t-10.5 49.5t-51.5 20.5v66h1093l39 -385h-51q-71 266 -289 266h-325v-529h217q68 0 106.5 17t52 43
t21.5 74h53v-385h-53q-8 48 -22 74t-52 42.5t-106 16.5h-217v-549h366q213 0 289 266zM1014 553v668l-424 -668h424zM1440 1794q25 -46 7 -87.5t-71 -61.5q-96 -37 -274 -91q-55 -13 -72 21q-20 36 25 70q113 98 225 178q46 32 90.5 23.5t69.5 -52.5z" />
    <glyph glyph-name="aeacute" unicode="&#x1fd;" horiz-adv-x="1640" 
d="M1597 528v-28h-659v-2q6 -83 34 -149t70.5 -106.5t95 -65.5t109.5 -28.5t111.5 6.5t104 37.5t85.5 67.5l37 -31q-56 -108 -164.5 -178.5t-246.5 -70.5q-153 0 -279 69.5t-190 200.5q-62 -270 -328 -270q-68 0 -127.5 13.5t-111 42t-82.5 79t-33 118.5q-2 71 20 127
t58 91.5t89.5 60.5t107 37t118.5 18q140 15 221 21v84q0 124 -30.5 183.5t-106.5 66.5q-54 6 -99 -22t-41 -93q3 -46 -10.5 -80t-37 -48.5t-52 -19.5t-55.5 7q-54 18 -72 65.5t10 110.5q69 147 349 147q214 0 331 -104q132 104 332 104q142 0 244.5 -63t151 -166t46.5 -232z
M1151 922q-89 -1 -147 -88t-66 -230h395q1 45 -3.5 87t-17 85.5t-32 75.5t-53 51.5t-76.5 18.5zM469 86q55 1 94 39.5t56.5 98t17.5 132.5v160q-13 -2 -30 -4t-42 -5t-43 -5q-108 -15 -159 -72t-54 -156q-3 -97 42 -144t118 -44zM1087 1364q25 -46 7 -88t-70 -62
q-84 -33 -274 -90q-55 -13 -72 21q-20 36 24 69q115 99 226 179q46 32 90 23.5t69 -52.5z" />
    <glyph glyph-name="Oslashacute" unicode="&#x1fe;" horiz-adv-x="1628" 
d="M1391 1223q94 -98 145 -228t51 -278q0 -158 -60 -295.5t-163.5 -234t-246 -152t-302.5 -55.5q-290 0 -500 167l-180 -178l-69 68l176 176q-199 205 -199 504q0 158 60 296t163.5 234.5t246 151.5t302.5 55q291 0 502 -166l178 178l70 -69zM367 717q0 -190 49 -330
l758 758q-62 113 -154.5 173t-204.5 60q-196 0 -322 -178.5t-126 -482.5zM815 55q198 0 324.5 179t126.5 483q0 185 -52 330l-755 -756q60 -114 152 -175t204 -61zM1012 1794q25 -46 7 -87.5t-71 -61.5q-96 -37 -274 -91q-55 -13 -72 21q-20 36 25 70q113 98 225 178
q46 32 90.5 23.5t69.5 -52.5z" />
    <glyph glyph-name="oslashacute" unicode="&#x1ff;" horiz-adv-x="1112" 
d="M1077 950l-125 -127q121 -134 121 -340q0 -120 -42.5 -217t-116 -158.5t-168.5 -94.5t-203 -33q-199 0 -336 98l-131 -129l-70 69l127 125q-121 134 -121 340q0 121 42.5 218.5t116 159.5t169 95t203.5 33q201 0 336 -100l129 131zM309 483q0 -76 13 -149l411 411
q-64 160 -190 160q-110 0 -172 -117t-62 -305zM774 483q0 81 -12 152l-410 -412q28 -75 77 -117.5t114 -42.5q110 0 170.5 116t60.5 304zM752 1364q25 -46 7 -88t-71 -62q-84 -33 -274 -90q-55 -13 -72 21q-20 36 25 69q120 103 225 179q46 32 90.5 23.5t69.5 -52.5z" />
    <glyph glyph-name="Scommaaccent" unicode="&#x218;" horiz-adv-x="1150" 
d="M702 862q174 -102 238 -155q131 -107 145 -240q9 -78 -18 -176q-22 -82 -72 -143.5t-119.5 -97.5t-148 -53t-166.5 -17q-142 0 -272.5 35t-227.5 104v336h52q57 -181 160.5 -286t246.5 -114q126 -6 198 51.5t83 155.5q5 48 -4.5 86.5t-26 65.5t-51.5 54.5t-66 46
t-83 47.5q-38 21 -58 32q-44 25 -71 41.5t-69.5 44.5t-69.5 49.5t-61.5 54.5t-54 62.5t-39.5 69t-26.5 79t-5 88t15.5 99.5q24 95 95 158t161.5 88.5t200.5 25.5q118 0 211 -33t200 -106l2 -295h-51q-46 186 -127 269t-209 89q-112 6 -173 -45.5t-64 -132.5q-2 -41 15 -79.5
t41.5 -68t74 -66t87 -60t107.5 -64.5zM582 -113q61 0 102.5 -43.5t42.5 -115.5q1 -77 -16.5 -143t-52 -116.5t-67.5 -85.5t-77 -69l-39 43q60 62 91 120t40 128q-1 0 -12 -1t-12 -1q-61 0 -102.5 39t-41.5 104t41.5 103t102.5 38z" />
    <glyph glyph-name="scommaaccent" unicode="&#x219;" horiz-adv-x="841" 
d="M270 815q-5 -36 8.5 -65t52.5 -55.5t67.5 -41.5t91.5 -43q15 -7 22 -10q34 -15 52.5 -24t51 -26t51 -30t44 -33.5t39.5 -39.5t28 -45t18 -52.5t2.5 -60t-12.5 -70.5q-32 -115 -138.5 -177t-258.5 -62q-101 0 -208 28t-171 78v248h47q32 -137 127.5 -210t204.5 -73
q65 0 111.5 27t56.5 78q6 20 2.5 38t-9 32t-19 27.5t-28 24t-36 21.5t-42 20.5t-47.5 21.5q-22 10 -34 15q-48 22 -82 39.5t-72.5 42t-64 48.5t-48 56.5t-32 67.5t-9.5 80t13 96q15 57 53 99t89.5 64.5t106.5 32t114 7.5q174 -3 303 -104l2 -221h-47q-37 137 -97.5 196.5
t-160.5 59.5q-31 0 -58.5 -7.5t-52.5 -32.5t-31 -65zM422 -113q61 0 102.5 -43.5t42.5 -115.5q1 -77 -16.5 -143t-52 -116.5t-67.5 -85.5t-77 -69l-39 43q60 62 91 120t40 128q-1 0 -12 -1t-12 -1q-61 0 -102 39t-41 104t41 103t102 38z" />
    <glyph glyph-name="circumflex" unicode="&#x2c6;" horiz-adv-x="823" 
d="M453 1442l288 -268l-34 -48l-295 166l-297 -166l-33 48l287 268h84z" />
    <glyph glyph-name="caron" unicode="&#x2c7;" horiz-adv-x="823" 
d="M709 1442l32 -45l-288 -271h-84l-287 271l33 45l297 -164z" />
    <glyph glyph-name="breve" unicode="&#x2d8;" horiz-adv-x="714" 
d="M584 1409l49 -14q-11 -112 -87.5 -184t-189.5 -72q-111 0 -187 72.5t-87 183.5l49 14q27 -55 86.5 -84t138.5 -29q81 0 141 29t87 84z" />
    <glyph glyph-name="dotaccent" unicode="&#x2d9;" horiz-adv-x="438" 
d="M219 1427q58 0 97.5 -36t39.5 -97t-39.5 -96t-97.5 -35t-97.5 35t-39.5 96t39.5 97t97.5 36z" />
    <glyph glyph-name="ring" unicode="&#x2da;" horiz-adv-x="618" 
d="M309 1513q94 0 161 -54t67 -142t-67 -142.5t-161 -54.5q-95 0 -161 54.5t-66 142.5t66 142t161 54zM309 1157q44 0 67 45.5t23 114.5q0 68 -23 113t-67 45t-67 -45t-23 -113q0 -69 23 -114.5t67 -45.5z" />
    <glyph glyph-name="ogonek" unicode="&#x2db;" horiz-adv-x="532" 
d="M305 0h72q-99 -99 -107 -197q-5 -51 22 -76t64.5 -22t67.5 25l27 -37q-23 -38 -72 -68.5t-113 -30.5q-98 0 -150.5 60t-21.5 153q22 63 85 113t126 80z" />
    <glyph glyph-name="tilde" unicode="&#x2dc;" horiz-adv-x="878" 
d="M291 1393q48 0 86 -11.5t92 -38.5q116 -61 172 -61q79 0 100 84h56q-8 -109 -51.5 -166t-133.5 -57q-16 0 -31.5 1.5t-32.5 5.5t-27.5 7t-30.5 10.5t-27 10.5t-30.5 13.5t-29.5 12.5q-93 39 -143 39q-77 0 -123 -82h-55q9 103 68.5 167.5t140.5 64.5z" />
    <glyph glyph-name="hungarumlaut" unicode="&#x2dd;" horiz-adv-x="854" 
d="M414 1444q38 -36 34 -80t-47 -80q-82 -69 -229 -174q-49 -31 -76 -4q-27 25 0 74q78 130 158 241q34 46 78.5 52t81.5 -29zM735 1444q38 -35 34.5 -80t-46.5 -80q-82 -69 -229 -174q-49 -31 -76 -4q-27 25 0 74q84 139 157 241q34 46 78.5 52t81.5 -29z" />
    <glyph glyph-name="Wgrave" unicode="&#x1e80;" horiz-adv-x="2109" 
d="M1767 1434h322v-66q-53 -3 -81.5 -29t-47.5 -86l-397 -1253h-146l-344 1053l-342 -1053h-145l-434 1257q-22 63 -47.5 84.5t-84.5 26.5v66h531v-66q-51 -3 -73.5 -42.5t-2.5 -100.5l264 -822l336 1031h164l332 -1026l262 833q20 68 4 96.5t-70 30.5v66zM1348 1645
q42 -31 24 -70q-17 -35 -72 -21q-178 54 -274 91q-53 20 -70.5 61.5t7.5 87.5q25 45 68 53t89 -24q118 -83 228 -178z" />
    <glyph glyph-name="wgrave" unicode="&#x1e81;" horiz-adv-x="1581" 
d="M1266 971h284v-66q-52 -3 -79.5 -24t-47.5 -76l-290 -805h-146l-231 639l-224 -639h-131l-309 776q-26 66 -53 95.5t-80 33.5v66h514v-66q-57 -4 -76 -38t2 -91l156 -454l233 649h144l217 -666l178 496q16 46 0.5 74.5t-61.5 29.5v66zM1026 1214q43 -32 25 -69
q-17 -35 -72 -21q-190 57 -274 90q-53 20 -71 62t7 88q25 44 68.5 52.5t89.5 -23.5q106 -75 227 -179z" />
    <glyph glyph-name="Wacute" unicode="&#x1e82;" horiz-adv-x="2109" 
d="M1767 1434h322v-66q-53 -3 -81.5 -29t-47.5 -86l-397 -1253h-146l-344 1053l-342 -1053h-145l-434 1257q-22 63 -47.5 84.5t-84.5 26.5v66h531v-66q-51 -3 -73.5 -42.5t-2.5 -100.5l264 -822l336 1031h164l332 -1026l262 833q20 68 4 96.5t-70 30.5v66zM1372 1794
q25 -46 7.5 -87.5t-70.5 -61.5q-92 -36 -275 -91q-55 -13 -71 21q-21 37 24 70q113 98 225 178q46 32 90.5 23.5t69.5 -52.5z" />
    <glyph glyph-name="wacute" unicode="&#x1e83;" horiz-adv-x="1581" 
d="M1266 971h284v-66q-52 -3 -79.5 -24t-47.5 -76l-290 -805h-146l-231 639l-224 -639h-131l-309 776q-26 66 -53 95.5t-80 33.5v66h514v-66q-57 -4 -76 -38t2 -91l156 -454l233 649h144l217 -666l178 496q16 46 0.5 74.5t-61.5 29.5v66zM1032 1364q25 -46 7 -88t-70 -62
q-81 -31 -275 -90q-55 -13 -71 21q-20 36 24 69q120 103 225 179q46 32 90.5 23.5t69.5 -52.5z" />
    <glyph glyph-name="Wdieresis" unicode="&#x1e84;" horiz-adv-x="2109" 
d="M1767 1434h322v-66q-53 -3 -81.5 -29t-47.5 -86l-397 -1253h-146l-344 1053l-342 -1053h-145l-434 1257q-22 63 -47.5 84.5t-84.5 26.5v66h531v-66q-51 -3 -73.5 -42.5t-2.5 -100.5l264 -822l336 1031h164l332 -1026l262 833q20 68 4 96.5t-70 30.5v66zM983 1837
q58 0 97.5 -36t39.5 -97t-39.5 -96t-97.5 -35t-97.5 35t-39.5 96t39.5 97t97.5 36zM1331 1837q58 0 97.5 -36t39.5 -97t-39.5 -96t-97.5 -35t-97.5 35t-39.5 96t39.5 97t97.5 36z" />
    <glyph glyph-name="wdieresis" unicode="&#x1e85;" horiz-adv-x="1581" 
d="M1266 971h284v-66q-52 -3 -79.5 -24t-47.5 -76l-290 -805h-146l-231 639l-224 -639h-131l-309 776q-26 66 -53 95.5t-80 33.5v66h514v-66q-57 -4 -76 -38t2 -91l156 -454l233 649h144l217 -666l178 496q16 46 0.5 74.5t-61.5 29.5v66zM682 1407q58 0 97.5 -36t39.5 -97
t-39.5 -96t-97.5 -35t-97.5 35t-39.5 96t39.5 97t97.5 36zM1030 1407q58 0 97.5 -36t39.5 -97t-39.5 -96t-97.5 -35t-97.5 35t-39.5 96t39.5 97t97.5 36z" />
    <glyph glyph-name="Ygrave" unicode="&#x1ef2;" horiz-adv-x="1388" 
d="M1032 1434h336v-66q-45 -3 -74 -22.5t-55 -61.5l-362 -651v-438q0 -63 20.5 -94t75.5 -35v-66h-492v66q56 4 77.5 35t21.5 94v411l-402 643q-36 58 -70.5 86.5t-87.5 32.5v66h529v-66q-48 0 -68 -31t6 -77l310 -529l290 524q27 47 10 80t-65 33v66zM967 1645
q42 -31 24 -70q-17 -35 -71 -21q-183 55 -275 91q-53 20 -70.5 61.5t7.5 87.5q25 45 68 53t89 -24q118 -83 228 -178z" />
    <glyph glyph-name="ygrave" unicode="&#x1ef3;" horiz-adv-x="1081" 
d="M780 971h271v-66q-49 -3 -74 -24t-49 -76l-357 -856q-68 -155 -120.5 -240.5t-102 -123.5t-115.5 -50q-56 -10 -126.5 3.5t-110.5 49.5q-23 19 -39.5 47.5t-16 68.5t30.5 71q29 30 67.5 32.5t69.5 -19.5t42 -60q15 -56 30 -73q21 -23 62 -20q23 2 43.5 12.5t49.5 40
t64.5 94t75.5 161.5l-377 833q-29 63 -60.5 94t-84.5 35v66h514v-66q-108 -9 -59 -129l206 -500l220 529q19 41 5.5 70t-59.5 30v66zM786 1214q43 -32 25 -69q-17 -35 -72 -21q-190 57 -274 90q-53 20 -71 62t7 88q25 44 68.5 52.5t89.5 -23.5q106 -75 227 -179z" />
    <glyph glyph-name="endash" unicode="&#x2013;" horiz-adv-x="999" 
d="M82 735h836v-98h-836v98z" />
    <glyph glyph-name="emdash" unicode="&#x2014;" horiz-adv-x="1107" 
d="M82 735h944v-98h-944v98z" />
    <glyph glyph-name="quoteleft" unicode="&#x2018;" horiz-adv-x="454" 
d="M227 1378q62 0 104 -38t42 -103t-42 -104t-104 -39q-60 0 -101.5 44.5t-41.5 116.5q-5 245 211 412l41 -41q-62 -62 -93 -120t-38 -128h22z" />
    <glyph glyph-name="quoteright" unicode="&#x2019;" horiz-adv-x="454" 
d="M227 1491q60 0 101.5 -45t42.5 -117q1 -77 -16.5 -143t-51.5 -116t-67 -84.5t-76 -67.5l-41 40q61 61 91.5 119t39.5 129h-23q-62 0 -103.5 38.5t-41.5 103.5q0 66 41.5 104.5t103.5 38.5z" />
    <glyph glyph-name="quotesinglbase" unicode="&#x201a;" horiz-adv-x="454" 
d="M227 264q60 0 102 -44t42 -116q1 -77 -16.5 -144t-51.5 -117t-67 -84.5t-76 -67.5l-41 43q117 114 131 246h-23q-62 0 -103.5 38.5t-41.5 104.5q0 65 41.5 103t103.5 38z" />
    <glyph glyph-name="quotedblleft" unicode="&#x201c;" horiz-adv-x="856" 
d="M631 1378q61 0 102 -38t41 -103t-41 -104t-102 -39t-103 44.5t-43 116.5q-1 77 17 143t52.5 116.5t67.5 85t76 67.5l39 -41q-60 -62 -91 -120t-40 -128h25zM229 1378q61 0 102.5 -38t41.5 -103t-41.5 -104t-102.5 -39t-102.5 44.5t-42.5 116.5q-5 247 213 412l39 -41
q-61 -61 -91.5 -119t-39.5 -129h24z" />
    <glyph glyph-name="quotedblright" unicode="&#x201d;" horiz-adv-x="856" 
d="M225 1491q61 0 103 -45t43 -117q5 -246 -213 -411l-39 40q60 62 91 120t40 128h-25q-61 0 -102 38.5t-41 103.5t41 104t102 39zM629 1491q60 0 101 -45t42 -117q1 -77 -16.5 -143t-51.5 -116t-67 -84.5t-76 -67.5l-41 40q62 62 93 120t38 128h-22q-62 0 -104 38.5
t-42 103.5t42 104t104 39z" />
    <glyph glyph-name="quotedblbase" unicode="&#x201e;" horiz-adv-x="858" 
d="M227 264q60 0 101.5 -44t42.5 -116q1 -77 -16.5 -144t-51.5 -117t-67 -84.5t-76 -67.5l-41 43q117 114 131 246h-23q-62 0 -103.5 38.5t-41.5 104.5q0 65 41.5 103t103.5 38zM629 264q60 0 102 -44t43 -116q1 -62 -12 -119t-33 -98.5t-50 -80t-57 -64t-61 -51.5l-41 43
q117 114 131 246h-22q-61 0 -103.5 39t-42.5 104t42.5 103t103.5 38z" />
    <glyph glyph-name="dagger" unicode="&#x2020;" horiz-adv-x="1054" 
d="M846 1171q57 8 92 -20t35 -82q0 -53 -35 -81t-92 -21q-63 7 -268 45q7 -142 30 -424t35 -508q3 -69 -27 -106t-88 -37q-60 0 -89.5 37t-26.5 106q12 226 35 508t30 424q-194 -37 -266 -45q-58 -7 -93.5 21t-35.5 81q0 54 35 82t94 20q126 -15 262 -45q-43 233 -49 281
q-6 57 22 92t82 35q53 0 81.5 -35t21.5 -92q-15 -120 -49 -281q141 31 264 45z" />
    <glyph glyph-name="daggerdbl" unicode="&#x2021;" horiz-adv-x="1056" 
d="M846 758q57 6 93 -22.5t36 -82.5q0 -53 -36 -81t-93 -21q-105 14 -236 41q27 -374 33 -512q4 -69 -26 -106t-89 -37q-58 0 -87.5 37t-26.5 106q11 225 35 512q-128 -26 -238 -41q-57 -7 -93 21t-36 81q0 54 36 82.5t93 22.5q88 -11 248 -43q12 149 18 297
q-194 -37 -266 -45q-57 -7 -93 21t-36 81q0 54 36 82t93 20q123 -14 264 -45q-34 161 -49 281q-7 57 21 92t81 35q54 0 82.5 -35t20.5 -92q-7 -63 -47 -281q136 30 262 45q57 8 93 -20t36 -82q0 -53 -36 -81t-93 -21q-72 8 -266 45q4 -104 20 -297q160 32 246 43z" />
    <glyph glyph-name="bullet" unicode="&#x2022;" horiz-adv-x="561" 
d="M281 991q85 0 141.5 -52.5t56.5 -143.5t-56.5 -144t-141.5 -53t-142 53t-57 144t57 143.5t142 52.5z" />
    <glyph glyph-name="ellipsis" unicode="&#x2026;" horiz-adv-x="1292" 
d="M229 264q62 0 105 -39t43 -104t-42.5 -103t-105.5 -38t-105 38t-42 103t42.5 104t104.5 39zM1063 264q63 0 105 -38.5t42 -104.5t-41.5 -103.5t-105.5 -37.5q-63 0 -105.5 38t-42.5 103t43 104t105 39zM647 264q62 0 105 -39t43 -104t-42.5 -103t-105.5 -38t-105 38
t-42 103t42.5 104t104.5 39z" />
    <glyph glyph-name="perthousand" unicode="&#x2030;" horiz-adv-x="2619" 
d="M791 1067q0 -172 -108.5 -280.5t-266.5 -108.5t-266.5 108.5t-108.5 280.5q0 171 108 279t267 108t267 -108t108 -279zM416 737q79 0 126.5 89.5t47.5 240.5q0 152 -47 241t-127 89t-127 -89t-47 -241q0 -151 47.5 -240.5t126.5 -89.5zM1321 756q159 0 267 -108t108 -279
q0 -173 -108 -281t-267 -108t-267 108t-108 281q0 171 108 279t267 108zM1321 37q80 0 128 90t48 242q0 150 -48 239.5t-128 89.5t-127 -89t-47 -240q0 -152 47 -242t127 -90zM2204 756q158 0 266 -108t108 -279q0 -173 -107.5 -281t-266.5 -108t-267 108t-108 281
q0 171 108 279t267 108zM2204 37q80 0 128 90t48 242q0 150 -48 239.5t-128 89.5t-127 -89t-47 -240q0 -152 47 -242t127 -90zM1233 1434h102l-825 -1434h-90z" />
    <glyph glyph-name="guilsinglleft" unicode="&#x2039;" horiz-adv-x="557" 
d="M475 950l-217 -286l217 -287l-37 -41l-356 285v84l356 284z" />
    <glyph glyph-name="guilsinglright" unicode="&#x203a;" horiz-adv-x="555" 
d="M117 989l356 -284v-84l-356 -285l-35 41l215 287l-215 286z" />
    <glyph glyph-name="fraction" unicode="&#x2044;" horiz-adv-x="774" 
d="M600 1434h92l-518 -1432h-92z" />
    <glyph glyph-name="Euro" unicode="&#x20ac;" horiz-adv-x="1544" 
d="M1425 430h58l-47 -309q-205 -156 -512 -141q-185 9 -339.5 74t-263.5 185t-151 281h-139v98h121q-7 54 -7 101q0 9 1 28.5t1 28.5h-116v98h129q52 265 259.5 422.5t498.5 157.5q139 0 279 -37.5t239 -101.5v-322h-58q-45 189 -162 288.5t-286 96.5q-189 -1 -302.5 -138.5
t-142.5 -365.5h502v-98h-510q-2 -18 -2 -57t4 -101h443v-98h-428q39 -209 159 -332.5t297 -130.5q180 -9 295.5 83.5t179.5 289.5z" />
    <glyph glyph-name="ruble" unicode="&#x20bd;" horiz-adv-x="1255" 
d="M637 528h-162v-77h342v-99h-342v-157q0 -63 21 -94t77 -35v-66h-491v66q55 4 75.5 35t20.5 94v157h-96v99h96v77h-96v117h96v596q0 63 -20.5 93t-75.5 34v66h555q265 0 421 -124.5t156 -328.5q0 -205 -156 -329t-421 -124zM475 1315v-670h96q84 0 148.5 26.5t103.5 73
t58.5 106t19.5 130.5t-19.5 130t-58.5 105.5t-103.5 72.5t-148.5 26h-96z" />
    <glyph glyph-name="bitcoin" unicode="&#x20bf;" horiz-adv-x="1353" 
d="M946 772q177 -19 280.5 -117t94.5 -256q-10 -179 -149.5 -281t-370.5 -116v-266h-99v264h-145v-264h-98v264h-377v66q55 4 75.5 35t20.5 94v1044q0 63 -20.5 94t-75.5 35v66h377v264h98v-264h53q30 0 92 -4v268h99v-279q181 -30 280 -120t93 -238q-3 -103 -64 -180.5
t-164 -108.5zM874 1061q0 124 -69 189t-227 65h-103v-510h103q158 0 227 65.5t69 190.5zM664 119q164 0 247.5 71t83.5 209q0 139 -83.5 211t-247.5 72h-189v-563h189z" />
    <glyph glyph-name="afii61352" unicode="&#x2116;" horiz-adv-x="2418" 
d="M1130 1368v66h314v-66q-56 -4 -77 -34t-21 -93v-1241h-179l-870 1102v-907q0 -63 21 -94t77 -35v-66h-313v66q56 4 77 35t21 94v1046q0 63 -21 93t-77 34v66h342l805 -1022v829q0 63 -21.5 93t-77.5 34zM1931 887q-128 0 -216.5 78.5t-88.5 205.5t88.5 205t216.5 78
q130 0 218.5 -78t88.5 -205t-88.5 -205.5t-218.5 -78.5zM1931 1407q-70 0 -108.5 -68t-38.5 -168q0 -101 38.5 -168t108.5 -67q72 0 110 67t38 168q0 100 -38.5 168t-109.5 68zM1487 711h891v-99h-891v99z" />
    <glyph glyph-name="minus" unicode="&#x2212;" horiz-adv-x="907" 
d="M82 737h743v-98h-743v98z" />
    <glyph glyph-name="approxequal" unicode="&#x2248;" horiz-adv-x="876" 
d="M289 717q50 0 88.5 -11.5t91.5 -37.5q38 -20 60 -30.5t53.5 -20t58.5 -9.5q76 0 100 82h54q-14 -235 -185 -235q-35 0 -75.5 10.5t-59 18t-72.5 30.5q-89 39 -145 39q-79 0 -121 -82h-55q7 104 67 175t140 71zM289 1024q51 0 90.5 -11.5t89.5 -37.5q38 -20 60 -30.5
t53.5 -20t58.5 -9.5q76 0 100 82h54q-14 -235 -185 -235q-22 0 -42 2.5t-45 10.5t-36 12t-44.5 17.5t-39.5 16.5q-89 39 -145 39q-79 0 -121 -80h-55q7 103 67 173.5t140 70.5z" />
    <glyph glyph-name="notequal" unicode="&#x2260;" horiz-adv-x="907" 
d="M825 780h-256l-123 -213h379v-98h-434l-125 -215l-80 49l97 166h-201v98h258l121 213h-379v99h436l125 215l80 -50l-96 -165h198v-99z" />
    <glyph glyph-name="commaaccent" unicode="&#xf6c3;" horiz-adv-x="454" 
d="M225 -113q61 0 103 -43.5t43 -115.5q1 -77 -16.5 -143t-52 -116.5t-67.5 -85.5t-77 -69l-39 43q60 62 91 120t40 128q-1 0 -12.5 -1t-12.5 -1q-61 0 -102 39t-41 104t41 103t102 38z" />
    </font>
</defs>
</svg>
