<?xml version="1.0" standalone="no"?>
<!DOCTYPE svg PUBLIC "-//W3C//DTD SVG 1.1//EN" "http://www.w3.org/Graphics/SVG/1.1/DTD/svg11.dtd" >
<svg xmlns="http://www.w3.org/2000/svg" xmlns:xlink="http://www.w3.org/1999/xlink" version="1.1">
<metadata>
Created by FontForge 20201107 at Tue Jan  7 16:22:12 2025
 By 
Copyright (c) 2020 by MadeType. All rights reserved.
</metadata>
<defs>
<font id="MADEMirage" horiz-adv-x="1148" >
  <font-face 
    font-family="MADE Mirage"
    font-weight="400"
    font-stretch="normal"
    units-per-em="2048"
    panose-1="2 0 5 3 0 0 0 2 0 4"
    ascent="1638"
    descent="-410"
    x-height="969"
    cap-height="1434"
    bbox="-219 -616 2540 1962"
    underline-thickness="102"
    underline-position="-204"
    unicode-range="U+0020-F6C3"
  />
<missing-glyph horiz-adv-x="409" 
 />
    <glyph glyph-name=".notdef" horiz-adv-x="409" 
 />
    <glyph glyph-name=".null" horiz-adv-x="0" 
 />
    <glyph glyph-name="nonmarkingreturn" horiz-adv-x="682" 
 />
    <glyph glyph-name="space" unicode=" " horiz-adv-x="409" 
 />
    <glyph glyph-name="exclam" unicode="!" horiz-adv-x="407" 
d="M205 178q42 0 71 -27t29 -73q0 -45 -29 -71.5t-71 -26.5q-43 0 -73 26.5t-30 71.5q0 46 30 73t73 27zM205 1454q29 0 48.5 -24t18.5 -76q-6 -224 -25.5 -551t-19.5 -457q0 -41 -22 -41q-25 0 -25 41q0 130 -19.5 457t-25.5 551q-1 52 19.5 76t50.5 24z" />
    <glyph glyph-name="quotedbl" unicode="&#x22;" horiz-adv-x="585" 
d="M168 1454q70 0 65 -82q-21 -204 -34 -291q-3 -28 -31 -28q-26 0 -29 28q-16 110 -35 291q-8 82 64 82zM418 1454q71 0 63 -82q-15 -178 -32 -291q-3 -28 -31 -28q-25 0 -31 28q-9 63 -33 291q-8 82 64 82z" />
    <glyph glyph-name="numbersign" unicode="#" horiz-adv-x="1398" 
d="M1296 950h-303l-86 -403h299v-45h-309l-106 -502h-46l107 502h-406l-106 -502h-45l106 502h-299v45h310l86 403h-305v45h313l94 439h45l-94 -439h405l95 439h45l-95 -439h295v-45zM862 547l86 403h-405l-86 -403h405z" />
    <glyph glyph-name="dollar" unicode="$" 
d="M592 821l57 -30q90 -47 136 -72.5t116 -75.5t101.5 -93t51 -106t7.5 -133q-31 -168 -156.5 -252t-312.5 -82v-217h-37v220q-124 6 -256 43.5t-217 97.5v270h22q21 -88 68 -159t109.5 -115.5t131.5 -70t142 -30.5v639q-39 20 -66 34t-63 35t-61 38.5t-55.5 41t-50 46
t-40.5 50t-32 57t-19 63t-7 72t9 79.5q26 134 127.5 207t257.5 76v217h37v-217q202 -9 395 -154v-256h-24q-86 357 -371 373v-596zM276 1190q-5 -47 8 -89.5t36 -76t62.5 -67.5t79 -59.5t93.5 -55.5v575q-109 -3 -187.5 -62t-91.5 -165zM928 244q15 71 -4.5 128.5
t-77.5 106.5t-109.5 79.5t-144.5 76.5v-621q131 0 221.5 56.5t114.5 173.5z" />
    <glyph glyph-name="percent" unicode="%" horiz-adv-x="1730" 
d="M754 1065q0 -175 -96.5 -281t-245.5 -106q-148 0 -244 106t-96 281q0 177 96 283t244 106q149 0 245.5 -106t96.5 -283zM412 709q104 0 166.5 96.5t62.5 259.5q0 164 -62.5 261t-166.5 97q-103 0 -165.5 -97t-62.5 -261q0 -162 62.5 -259t165.5 -97zM1319 754
q148 0 244 -105.5t96 -281.5t-96 -281.5t-244 -105.5q-149 0 -245.5 105t-96.5 282t96.5 282t245.5 105zM1319 8q103 0 165 97.5t62 261.5t-62 260t-165 96q-105 0 -167 -96t-62 -260t62.5 -261.5t166.5 -97.5zM1255 1434h50l-826 -1434h-49z" />
    <glyph glyph-name="ampersand" unicode="&#x26;" horiz-adv-x="1665" 
d="M1182 272q48 -48 85.5 -81.5t98.5 -79.5t122 -68.5t116 -17.5v-25q-52 -21 -107.5 -22.5t-102.5 11t-95 37.5t-82 49t-66 52q-51 44 -141 131q-118 -278 -406 -278q-132 0 -247.5 48t-190 141.5t-74.5 211.5q0 150 106 252.5t269 134.5q-244 198 -229 387
q9 140 112 219.5t264 79.5q105 0 193 -35t144 -104.5t59 -161.5q4 -139 -90.5 -245.5t-249.5 -143.5q243 -233 366 -350q9 24 23.5 64.5t23 64t22 58t25 54.5t27.5 45.5t33.5 40t39.5 29t48 20.5t57 7q66 1 118.5 -27.5t74.5 -75.5q15 -31 9 -68t-34 -53q-37 -22 -74 -3
t-40 63q-3 98 -89 104q-26 2 -49.5 -8.5t-45.5 -37.5t-38.5 -52.5t-37.5 -73t-33 -78t-34 -88.5q-2 -5 -3 -8q57 -53 123 -119zM367 1180q0 -46 22.5 -96.5t63.5 -100.5t81 -90t93 -86q111 37 185 129t77 211q4 117 -71 193.5t-189 76.5q-124 0 -193 -62t-69 -175zM614 14
q253 0 365 271q-91 87 -266.5 253.5t-200.5 190.5q-115 -36 -192 -122t-84 -208q-6 -89 26 -164t88 -122t125 -73t139 -26z" />
    <glyph glyph-name="quotesingle" unicode="'" horiz-adv-x="337" 
d="M168 1454q70 0 65 -82q-21 -204 -34 -291q-3 -28 -31 -28q-25 0 -31 28q-9 63 -33 291q-8 82 64 82z" />
    <glyph glyph-name="parenleft" unicode="(" horiz-adv-x="509" 
d="M408 1524q-96 -148 -136.5 -365t-40.5 -442q0 -227 40.5 -443.5t136.5 -363.5l-27 -25q-121 134 -200 351.5t-79 480.5q0 261 79 478t200 353z" />
    <glyph glyph-name="parenright" unicode=")" horiz-adv-x="507" 
d="M129 1548q120 -136 198.5 -352.5t78.5 -478.5q0 -264 -78.5 -481t-198.5 -351l-27 25q95 147 134.5 363.5t39.5 443.5q0 226 -39.5 442.5t-134.5 364.5z" />
    <glyph glyph-name="asterisk" unicode="*" horiz-adv-x="808" 
d="M702 1733q19 -58 -49 -74q-109 -24 -213 -41q93 -89 158 -164q48 -51 -2 -88q-51 -34 -84 25q-25 43 -104 192q-71 -134 -105 -192q-35 -58 -84 -25q-51 35 -4 88q52 58 158 164q-138 23 -217 41q-69 16 -50 74q21 59 84 28q118 -53 195 -98q-26 172 -31 229
q-4 36 11.5 53t42.5 17q60 0 55 -70q-6 -68 -31 -225q106 58 189 94q63 31 81 -28z" />
    <glyph glyph-name="plus" unicode="+" horiz-adv-x="894" 
d="M793 682v-45h-324v-324h-45v324h-322v45h322v322h45v-322h324z" />
    <glyph glyph-name="comma" unicode="," horiz-adv-x="415" 
d="M209 178q42 0 71.5 -31t30.5 -84q1 -105 -56 -198.5t-124 -143.5l-29 31q113 119 123 228h-16q-43 0 -73 26.5t-30 71.5q0 46 30 73t73 27z" />
    <glyph glyph-name="hyphen" unicode="-" horiz-adv-x="894" 
d="M102 682h691v-45h-691v45z" />
    <glyph glyph-name="period" unicode="." horiz-adv-x="407" 
d="M205 178q43 0 71.5 -27t28.5 -73t-28.5 -72t-71.5 -26t-73 26.5t-30 71.5q0 46 30 73t73 27z" />
    <glyph glyph-name="slash" unicode="/" horiz-adv-x="768" 
d="M621 1434h45l-519 -1434h-45z" />
    <glyph glyph-name="zero" unicode="0" horiz-adv-x="1185" 
d="M592 1454q235 0 378.5 -202t143.5 -535q0 -334 -143.5 -535.5t-378.5 -201.5q-234 0 -377 201.5t-143 535.5q0 332 143 534.5t377 202.5zM592 14q174 0 279.5 182.5t105.5 520.5q0 337 -105.5 518.5t-279.5 181.5q-173 0 -279 -182t-106 -518q0 -337 106 -520t279 -183z
" />
    <glyph glyph-name="one" unicode="1" horiz-adv-x="532" 
d="M440 25v-25h-325v25q55 4 75.5 34t20.5 93v1122h-109v24l224 136h16v-1282q0 -63 21 -93t77 -34z" />
    <glyph glyph-name="two" unicode="2" horiz-adv-x="1091" 
d="M977 225h22l-26 -225h-881v37q59 62 136.5 140t131 131.5t117.5 121t107.5 119t88 115t71 120.5t45 123.5t22.5 134.5q8 165 -68 271t-223 106q-108 1 -172 -59t-67 -135q-4 -59 -33 -88q-18 -16 -44.5 -16.5t-47.5 16.5q-46 41 -15 114q34 77 136.5 140t242.5 63
q133 0 233 -47.5t153 -142t42 -222.5q-6 -67 -29.5 -134t-57 -126t-85 -124t-101 -117t-118.5 -117t-124 -114t-131 -116.5t-128 -115.5h553q120 0 173 35.5t77 111.5z" />
    <glyph glyph-name="three" unicode="3" horiz-adv-x="1132" 
d="M621 768q209 -27 314 -124.5t105 -250.5q0 -187 -131.5 -300t-349.5 -113q-157 0 -288.5 69.5t-164.5 145.5q-31 74 15 112q21 18 47.5 18t44.5 -18q29 -27 33 -86q3 -72 95 -140.5t218 -68.5q165 0 253.5 96.5t88.5 274.5q0 174 -109 269.5t-329 95.5v30
q147 3 245.5 94.5t98.5 249.5q0 142 -68.5 219.5t-183.5 77.5q-103 0 -164.5 -60t-64.5 -134q-4 -59 -33 -88q-18 -16 -44.5 -16.5t-47.5 16.5q-46 41 -15 114q33 76 135 139.5t230 63.5q105 0 194 -38t145 -115t56 -179q0 -125 -88 -221t-237 -133z" />
    <glyph glyph-name="four" unicode="4" horiz-adv-x="1157" 
d="M1085 369h-206v-217q0 -63 20.5 -93t75.5 -34v-25h-326v25q56 4 77.5 34t21.5 93v217h-707v39l707 1026h131v-1026h206v-39zM88 408h660v954z" />
    <glyph glyph-name="five" unicode="5" horiz-adv-x="1136" 
d="M559 895q111 0 202 -36t150 -99t91 -146t32 -178q0 -199 -133.5 -327.5t-361.5 -128.5q-137 0 -269.5 64.5t-163.5 135.5q-30 72 15 115q21 17 48.5 16.5t45.5 -16.5q31 -34 31 -88q3 -70 90 -132.5t203 -62.5q175 0 265.5 117t90.5 307q0 84 -21 157.5t-62 131.5
t-109 91.5t-154 33.5q-93 0 -164 -25t-145 -71l-23 10l57 670h703v-78h-674l-45 -549q154 88 301 88z" />
    <glyph glyph-name="six" unicode="6" horiz-adv-x="1167" 
d="M600 901q202 5 339.5 -121t133.5 -334q-6 -209 -142 -337.5t-337 -128.5q-97 0 -185 36t-156.5 102t-111 166.5t-47.5 221.5q-12 283 50.5 495t190.5 328.5t306 124.5q141 6 248 -48t139 -128q31 -73 -14 -115q-21 -17 -48.5 -16.5t-45.5 16.5q-31 34 -31 88
q-5 74 -71.5 125t-182.5 43q-173 -13 -284 -193t-132 -544q68 104 166 161t215 58zM594 14q154 0 250 118t96 314q0 194 -95 303t-251 109q-157 0 -262 -110.5t-105 -301.5q0 -193 106 -312.5t261 -119.5z" />
    <glyph glyph-name="seven" unicode="7" horiz-adv-x="1056" 
d="M109 1434h856v-39q-100 -100 -184.5 -270.5t-135.5 -354t-80 -354.5t-33 -305q-1 -77 -17.5 -104t-47.5 -27q-35 0 -55 17.5t-17 68.5q13 305 150.5 677.5t343.5 612.5h-533q-83 0 -135 -19.5t-76 -49.5t-41 -81h-22z" />
    <glyph glyph-name="eight" unicode="8" horiz-adv-x="1220" 
d="M719 799q226 -71 326 -178.5t79 -274.5q-23 -166 -155 -266t-355 -100q-145 0 -262.5 46.5t-188.5 139t-71 215.5q0 151 107 253.5t270 133.5q-307 136 -274 383q17 138 134 220.5t285 82.5q111 0 209 -38.5t160.5 -111.5t65.5 -165q4 -134 -89 -221.5t-241 -118.5z
M311 1128q3 -108 91.5 -180.5t254.5 -120.5q125 37 199 112t74 194q0 122 -84 203t-217 81q-141 0 -231 -78t-87 -211zM995 332q4 51 -7 94.5t-31 77t-56 64t-72 52t-90 44t-98.5 37.5t-108.5 34q-127 -27 -208.5 -115t-90.5 -221q-5 -93 29 -169t93.5 -121.5t130 -70
t143.5 -24.5q158 0 256 82.5t110 235.5z" />
    <glyph glyph-name="nine" unicode="9" horiz-adv-x="1169" 
d="M1073 928q12 -274 -45.5 -485t-181.5 -333t-299 -130q-141 -6 -251 48.5t-142 127.5q-32 74 14 112q20 17 47.5 17t44.5 -17q29 -26 33 -86q3 -72 73 -124t185 -44q356 26 397 736q-66 -102 -168.5 -159.5t-212.5 -60.5q-202 -5 -339.5 121t-133.5 334q6 210 142 339.5
t337 129.5q98 0 185.5 -34.5t156 -99t111 -166t47.5 -226.5zM573 573q157 0 262 110.5t105 301.5q0 193 -106 312.5t-261 119.5q-154 0 -250 -118t-96 -314q0 -194 95 -303t251 -109z" />
    <glyph glyph-name="colon" unicode=":" horiz-adv-x="407" 
d="M205 178q43 0 71.5 -27t28.5 -73t-28.5 -72t-71.5 -26t-73 26.5t-30 71.5q0 46 30 73t73 27zM205 727q-43 0 -73 26.5t-30 71.5q0 46 30 73.5t73 27.5t71.5 -27.5t28.5 -73.5t-28.5 -72t-71.5 -26z" />
    <glyph glyph-name="semicolon" unicode=";" horiz-adv-x="413" 
d="M209 727q-43 0 -73 26.5t-30 71.5q0 46 30 73.5t73 27.5t71.5 -27.5t28.5 -73.5t-28.5 -72t-71.5 -26zM209 178q43 0 71.5 -31.5t28.5 -83.5q2 -72 -29.5 -145.5t-70 -119.5t-78.5 -77l-29 31q109 115 123 228h-16q-43 0 -73 26.5t-30 71.5q0 46 30 73t73 27z" />
    <glyph glyph-name="less" unicode="&#x3c;" horiz-adv-x="786" 
d="M684 840v-105l-471 -221l471 -221v-103l-582 289v72z" />
    <glyph glyph-name="equal" unicode="=" horiz-adv-x="894" 
d="M102 829h691v-45h-691v45zM102 487v45h691v-45h-691z" />
    <glyph glyph-name="greater" unicode="&#x3e;" horiz-adv-x="786" 
d="M102 840l582 -289v-72l-582 -289v103l471 221l-471 221v105z" />
    <glyph glyph-name="question" unicode="?" horiz-adv-x="1028" 
d="M508 1454q121 0 215.5 -38.5t150.5 -121t50 -198.5q-5 -82 -30.5 -146.5t-63 -107.5t-81.5 -81t-88 -77t-81.5 -84t-62.5 -113.5t-30 -154.5q0 -27 -16 -27q-22 0 -22 27q2 84 20 154.5t46.5 119.5t63 92.5t69 84t64 83.5t50 102t24.5 128q8 152 -66 238.5t-212 86.5
q-109 0 -179 -61.5t-73 -134.5q-4 -56 -33 -88q-18 -16 -44.5 -16.5t-47.5 16.5q-45 40 -14 114q32 75 144 139t247 64zM475 178q43 0 71.5 -27t28.5 -73t-28.5 -72t-71.5 -26t-72.5 26t-29.5 72t29.5 73t72.5 27z" />
    <glyph glyph-name="at" unicode="@" horiz-adv-x="1740" 
d="M860 1513q169 0 319.5 -59t257.5 -160.5t169.5 -242.5t62.5 -299q0 -109 -26.5 -203t-82.5 -160t-133 -80q-100 -18 -194 30t-119 146q-41 -87 -113.5 -134.5t-164.5 -47.5q-158 0 -261.5 112t-103.5 294t103.5 293.5t261.5 111.5q89 0 158.5 -45t111.5 -127l86 154h22
v-535q0 -124 61 -182t146 -43q68 12 118 75.5t73.5 152t23.5 188.5q0 139 -55.5 270t-154 232.5t-246.5 163t-320 61.5q-165 0 -307.5 -59.5t-239.5 -160.5t-152 -238t-55 -290q0 -166 59 -308.5t163 -242.5t250.5 -156.5t316.5 -56.5q91 0 174 25.5t135 62.5v-41
q-48 -32 -136 -57t-173 -25q-183 0 -337 59.5t-260.5 164.5t-166 253.5t-59.5 321.5q0 162 59.5 306.5t163 249t250.5 165.5t315 61zM836 328q120 0 195 102.5t75 278.5q0 174 -75 276t-195 102q-117 0 -183.5 -103.5t-66.5 -274.5q0 -173 66.5 -277t183.5 -104z" />
    <glyph glyph-name="A" unicode="A" horiz-adv-x="1452" 
d="M1262 154q50 -121 149 -129v-25h-371v25q58 5 81.5 39.5t0.5 89.5l-141 333h-625l-129 -333q-44 -119 82 -129v-25h-268v25q55 4 89 37.5t56 91.5l422 1106q23 65 6.5 103t-65.5 44v27h178zM371 526h594l-310 742h-2z" />
    <glyph glyph-name="B" unicode="B" horiz-adv-x="1275" 
d="M752 764q211 -12 336.5 -112t125.5 -267q0 -195 -159 -290t-443 -95h-510v25q56 4 77.5 34.5t21.5 94.5v1126q0 63 -21.5 93t-77.5 34v27h437q251 0 391.5 -89.5t140.5 -261.5q0 -126 -93.5 -213.5t-225.5 -105.5zM338 1395v-623h201q197 0 300 78t103 233
q0 149 -107 230.5t-309 81.5h-188zM600 37q87 0 153.5 8t129.5 30.5t104 60.5t65.5 100.5t24.5 148.5q0 78 -25 138.5t-68 99.5t-105 64t-130 35.5t-149 10.5v2v-2h-262v-696h262z" />
    <glyph glyph-name="C" unicode="C" horiz-adv-x="1413" 
d="M1317 387h24l-41 -256q-187 -151 -485 -151q-154 0 -293 55t-240.5 151t-161 234t-59.5 297q0 212 94.5 380.5t260.5 262.5t372 94q141 0 278.5 -40.5t233.5 -113.5v-256h-24q-44 184 -176.5 278.5t-311.5 94.5q-119 0 -225 -48t-185.5 -135.5t-126 -221.5t-46.5 -295
t50.5 -296t135.5 -223t194.5 -136t229.5 -48q178 0 309.5 92.5t192.5 280.5z" />
    <glyph glyph-name="D" unicode="D" horiz-adv-x="1452" 
d="M598 1434q230 0 410 -88.5t281.5 -252t101.5 -376.5q0 -214 -101.5 -377.5t-281.5 -251.5t-410 -88h-496v25q56 4 77.5 34.5t21.5 94.5v1126q0 63 -21.5 93t-77.5 34v27h496zM586 37q314 0 489.5 172.5t175.5 507.5t-175.5 506.5t-489.5 171.5h-250v-1358h250z" />
    <glyph glyph-name="E" unicode="E" horiz-adv-x="1202" 
d="M1096 252h24l-39 -252h-979v25q55 4 76 34.5t21 94.5v1126q0 63 -21 93t-76 34v27h926l39 -252h-25q-14 39 -31 70t-47.5 67t-77.5 56t-106 20h-444v-647h319q99 0 135 31.5t48 103.5h24v-308h-24q-6 36 -15 58.5t-28.5 41.5t-53.5 27.5t-86 8.5h-319v-674h498
q59 0 106 20.5t77.5 57t47 67.5t31.5 70z" />
    <glyph glyph-name="F" unicode="F" horiz-adv-x="1116" 
d="M1014 1434l41 -252h-25q-12 31 -24 55t-34.5 55.5t-49 52.5t-66.5 35.5t-88 14.5h-432v-686h305q69 0 107.5 16.5t52.5 42.5t22 74h25v-305h-25q-8 48 -22 74t-52.5 42.5t-107.5 16.5h-305v-516q0 -64 20.5 -94.5t75.5 -34.5v-25h-330v25q55 4 76 34.5t21 94.5v1126
q0 63 -21 93t-76 34v27h912z" />
    <glyph glyph-name="G" unicode="G" horiz-adv-x="1484" 
d="M1120 580h324v-25q-55 -6 -75.5 -36t-20.5 -93v-274q-92 -83 -239.5 -127.5t-295.5 -44.5q-154 0 -292 55t-239.5 151t-161 234t-59.5 297q0 211 98 380.5t266.5 263t373.5 93.5q141 0 271.5 -40t227.5 -114v-256h-24q-44 186 -170 279.5t-305 93.5q-119 0 -226 -48
t-190 -135.5t-131.5 -221.5t-48.5 -295t50.5 -296t135.5 -223t194.5 -136t229.5 -48q131 0 237 42.5t169 121.5v248q0 63 -21.5 93t-77.5 36v25z" />
    <glyph glyph-name="H" unicode="H" horiz-adv-x="1523" 
d="M1421 1407q-55 -4 -75.5 -34t-20.5 -93v-1126q0 -64 20.5 -94.5t75.5 -34.5v-25h-329v25q55 4 75.5 34.5t20.5 94.5v553h-852v-553q0 -64 20.5 -94.5t75.5 -34.5v-25h-330v25q55 4 76 34.5t21 94.5v1126q0 63 -21 93t-76 34v27h330v-27q-55 -4 -75.5 -34t-20.5 -93v-535
h852v535q0 63 -20.5 93t-75.5 34v27h329v-27z" />
    <glyph glyph-name="I" unicode="I" horiz-adv-x="536" 
d="M434 1407q-56 -4 -77 -34t-21 -93v-1126q0 -65 21 -95t77 -34v-25h-332v25q56 4 77.5 34.5t21.5 94.5v1126q0 63 -21.5 93t-77.5 34v27h332v-27z" />
    <glyph glyph-name="J" unicode="J" horiz-adv-x="966" 
d="M553 1434h332v-27q-56 -4 -77.5 -34t-21.5 -93v-776q0 -264 -102.5 -394t-288.5 -130q-124 0 -220.5 58.5t-123.5 129.5q-13 31 -7 66t32 51q21 14 48 12.5t44 -18.5q22 -22 22 -84q-1 -28 9.5 -57t33 -57.5t66.5 -46.5t104 -18q71 0 120 31t76.5 92t39.5 139.5t12 184.5
v817q0 63 -21 93t-77 34v27z" />
    <glyph glyph-name="K" unicode="K" horiz-adv-x="1435" 
d="M1247 154q65 -104 148 -129v-25h-340v25q56 6 67 39.5t-24 89.5l-451 686l-311 -334v-352q0 -63 20.5 -93t75.5 -36v-25h-330v25q55 6 76 36t21 93v1126q0 63 -21 94t-76 35v25h330v-25q-55 -4 -75.5 -35t-20.5 -94v-719l670 719q48 52 56.5 86.5t-30.5 42.5v25h219v-25
q-28 -7 -44.5 -13t-51.5 -29t-72 -60l-342 -367z" />
    <glyph glyph-name="L" unicode="L" horiz-adv-x="1173" 
d="M1096 252h26l-41 -252h-979v25q55 4 76 34.5t21 94.5v1126q0 63 -21 93t-76 34v27h330v-27q-55 -4 -75.5 -34t-20.5 -93v-1243h500q48 0 88 15t66.5 36t48.5 52.5t34 56t23 55.5z" />
    <glyph glyph-name="M" unicode="M" horiz-adv-x="1882" 
d="M1681 154q14 -67 42.5 -96t86.5 -33v-25h-358v25q116 9 96 129l-205 1083l-423 -1237h-58l-454 1247l-168 -1093q-10 -66 9.5 -95t78.5 -34v-25h-256v25q58 5 87 34.5t38 94.5l174 1126q9 66 -7 94.5t-73 32.5v27h180l465 -1262l432 1262h164v-27q-56 -4 -73 -34.5
t-5 -92.5z" />
    <glyph glyph-name="N" unicode="N" horiz-adv-x="1462" 
d="M1139 1434h231v-27q-55 -4 -75.5 -34t-20.5 -93v-1280h-72l-964 1243v-1089q0 -65 21 -95t77 -34v-25h-234v25q55 4 76 34.5t21 94.5v1126q0 63 -21 93t-76 34v27h170l963 -1244v1090q0 63 -20.5 93t-75.5 34v27z" />
    <glyph glyph-name="O" unicode="O" horiz-adv-x="1628" 
d="M813 1454q154 0 293 -55t240.5 -151.5t161 -234.5t59.5 -296q0 -159 -59.5 -297t-161 -234t-240.5 -151t-293 -55t-292 55t-239.5 151t-161 234t-59.5 297q0 158 59.5 296t161 234.5t239.5 151.5t292 55zM813 14q120 0 229.5 48t194.5 136t135.5 223t50.5 296t-50.5 295
t-135.5 221.5t-194.5 135.5t-229.5 48t-229.5 -48t-194.5 -135.5t-135.5 -221.5t-50.5 -295t50.5 -296t135.5 -223t194.5 -136t229.5 -48z" />
    <glyph glyph-name="P" unicode="P" horiz-adv-x="1155" 
d="M571 1434q249 0 386 -116t137 -310t-137 -310t-386 -116h-235v-428q0 -63 20.5 -93t75.5 -36v-25h-330v25q55 6 76 36t21 93v1126q0 63 -21 94t-76 35v25h469zM557 618q194 0 295.5 107.5t101.5 282.5t-101.5 282t-295.5 107h-221v-779h221z" />
    <glyph glyph-name="Q" unicode="Q" horiz-adv-x="1628" 
d="M1700 -131l18 -19q-50 -127 -183 -155.5t-324.5 44.5t-409.5 238q-204 4 -372.5 99t-268 264t-99.5 377q0 158 59.5 296t161 234.5t240.5 151.5t293 55t292 -55t239.5 -151.5t161 -234.5t59.5 -296q0 -152 -55 -286t-149.5 -229.5t-224 -154t-274.5 -67.5
q68 -36 136.5 -67.5t169 -64.5t188.5 -45.5t181.5 2t160.5 64.5zM205 717q0 -161 50.5 -296t135.5 -223t194.5 -136t229.5 -48q119 0 228 48.5t194 136t135.5 222.5t50.5 296t-50.5 295t-135.5 221.5t-194 135.5t-228 48q-120 0 -229.5 -48t-194.5 -135.5t-135.5 -221.5
t-50.5 -295z" />
    <glyph glyph-name="R" unicode="R" horiz-adv-x="1298" 
d="M1092 154q74 -105 165 -129v-25h-210l-433 623q-10 -2 -28 -2h-248v-467q0 -63 20.5 -93t75.5 -36v-25h-330v25q55 6 76 36t21 93v1126q0 63 -21 94t-76 35v25h482q238 0 374 -108.5t136 -297.5q0 -155 -91 -256t-257 -135zM573 659q188 0 285.5 98.5t97.5 270.5
t-97.5 270.5t-285.5 98.5h-235v-738h235z" />
    <glyph glyph-name="S" unicode="S" 
d="M279 1192q-7 -64 18 -121t72.5 -100.5t111 -83.5t134 -77t140.5 -74.5t131 -81t105 -92t63.5 -112.5t6.5 -137q-31 -171 -158.5 -253.5t-318.5 -79.5q-127 3 -269.5 41t-232.5 102v270h24q22 -92 72.5 -165.5t117 -118t140 -68t148.5 -25.5q132 -3 226.5 54t119.5 176
q14 69 -7 127t-67 101t-109 82t-134.5 75t-142.5 73t-132.5 83t-105.5 99t-61.5 127t-0.5 161q27 137 132.5 209.5t266.5 72.5q218 0 418 -153v-256h-22q-92 372 -396 372q-113 0 -196 -58.5t-94 -168.5z" />
    <glyph glyph-name="T" unicode="T" horiz-adv-x="1296" 
d="M1196 1434l39 -267h-25q-15 43 -31 75t-46 71t-77 60.5t-108 21.5h-231v-1241q0 -64 20.5 -94.5t75.5 -34.5v-25h-330v25q55 4 76 34.5t21 94.5v1241h-232q-61 0 -108 -21.5t-77 -60.5t-46 -71t-31 -75h-25l39 267h1096z" />
    <glyph glyph-name="U" unicode="U" horiz-adv-x="1476" 
d="M1163 1434h232v-25q-55 -6 -76 -36t-21 -93v-729q0 -76 -15.5 -151.5t-53 -152t-93.5 -135t-144.5 -95.5t-198.5 -37q-265 0 -429.5 153.5t-164.5 417.5v729q0 63 -21 93t-76 36v25h332v-25q-56 -6 -77 -36t-21 -93v-729q0 -246 122.5 -385t336.5 -139q102 0 184 33.5
t133 86.5t85.5 123.5t48.5 140t14 140.5v729q0 63 -21 93t-76 36v25z" />
    <glyph glyph-name="V" unicode="V" horiz-adv-x="1452" 
d="M1143 1434h268v-25q-98 -10 -145 -129l-488 -1280h-53l-535 1280q-49 119 -149 129v25h371v-25q-58 -6 -80.5 -41t-1.5 -88l469 -1118l426 1118q44 116 -82 129v25z" />
    <glyph glyph-name="W" unicode="W" horiz-adv-x="2097" 
d="M1788 1434h268v-25q-109 -12 -145 -129l-393 -1280h-54l-424 1245l-370 -1245h-52l-440 1280q-22 65 -52 94t-85 35v25h371v-25q-60 -6 -86 -38t-7 -91l367 -1087l369 1241h57l422 -1246l334 1092q19 66 0 94.5t-80 34.5v25z" />
    <glyph glyph-name="X" unicode="X" horiz-adv-x="1361" 
d="M1139 154q39 -59 78.5 -92t93.5 -37v-25h-357v25q57 5 67 37.5t-28 91.5l-366 551l-361 -551q-37 -62 -22 -93t75 -36v-25h-268v25q94 7 172 129l381 583l-358 543q-42 61 -80.5 92t-91.5 37v25h342v-25q-55 -6 -57 -44t34 -85l303 -459l301 459q36 59 21 91t-74 38v25
h268v-25q-95 -10 -174 -129l-319 -492z" />
    <glyph glyph-name="Y" unicode="Y" horiz-adv-x="1320" 
d="M1012 1434h268v-25q-104 -11 -168 -129l-360 -674v-452q0 -64 20.5 -94.5t75.5 -34.5v-25h-330v25q55 4 75.5 34.5t20.5 94.5v436l-405 690q-68 119 -168 129v25h371v-25q-59 -6 -76 -38t16 -91l377 -635l342 635q61 117 -59 129v25z" />
    <glyph glyph-name="Z" unicode="Z" horiz-adv-x="1239" 
d="M1143 264h24l-39 -264h-1056v37l882 1358h-559q-61 0 -108 -21.5t-77 -60.5t-46 -71t-31 -75h-24l41 267h964v-39l-887 -1358h654q61 0 108 21.5t77 60t46 70.5t31 75z" />
    <glyph glyph-name="bracketleft" unicode="[" horiz-adv-x="546" 
d="M444 1495h-221v-1597h221v-45h-342v1687h342v-45z" />
    <glyph glyph-name="backslash" unicode="\" horiz-adv-x="768" 
d="M147 1434l519 -1434h-43l-521 1434h45z" />
    <glyph glyph-name="bracketright" unicode="]" horiz-adv-x="546" 
d="M102 1540h342v-1687h-342v45h224v1597h-224v45z" />
    <glyph glyph-name="asciicircum" unicode="^" horiz-adv-x="825" 
d="M449 1559l274 -330l-23 -21l-288 228l-287 -228l-23 21l275 330h72z" />
    <glyph glyph-name="underscore" unicode="_" horiz-adv-x="894" 
d="M102 0h691v-45h-691v45z" />
    <glyph glyph-name="grave" unicode="`" horiz-adv-x="530" 
d="M412 1208q21 -15 10 -34q-11 -22 -35 -13q-92 34 -237 94q-66 27 -37 84t90 15q137 -90 209 -146z" />
    <glyph glyph-name="a" unicode="a" horiz-adv-x="970" 
d="M940 59l10 -14q-13 -24 -43.5 -44.5t-70.5 -20.5q-69 0 -106.5 33.5t-37.5 101.5v98q-29 -101 -112 -167t-213 -66q-135 -1 -223 71t-91 185q-4 126 84.5 209.5t231.5 97.5l323 24v107q0 164 -51.5 225.5t-173.5 61.5q-79 0 -133 -42t-53 -112q0 -58 -32 -80.5t-71 -7.5
q-36 16 -42.5 54.5t11.5 68.5q36 70 119.5 106t192.5 41q58 2 108.5 -6.5t99 -32.5t83.5 -62t56 -99t21 -140v-536q0 -39 19.5 -59t45.5 -18t48 23zM422 33q125 3 197.5 103t72.5 239v164q-104 -5 -266 -25q-119 -15 -186 -87.5t-62 -180.5q3 -100 70 -158t174 -55z" />
    <glyph glyph-name="b" unicode="b" horiz-adv-x="1144" 
d="M641 989q197 0 325 -139.5t128 -366.5q0 -226 -128.5 -364.5t-324.5 -138.5q-110 0 -198.5 55t-141.5 155l-106 -190h-27v1280q0 63 -20.5 93t-75.5 36v25l213 65h18v-721q53 101 140.5 156t197.5 55zM641 10q146 0 228.5 129t82.5 344q0 217 -82.5 346t-228.5 129
q-150 0 -244 -128t-94 -347q0 -218 94 -345.5t244 -127.5z" />
    <glyph glyph-name="c" unicode="c" horiz-adv-x="964" 
d="M889 207l24 -17q-66 -101 -153.5 -155.5t-212.5 -54.5q-136 0 -248 61.5t-180 179.5t-68 271q0 115 39 210t106.5 157t157 96t191.5 34q126 0 216.5 -43.5t127.5 -118.5q20 -30 13.5 -68t-42.5 -54q-41 -15 -73 8t-29 82q3 72 -53 119t-154 47q-159 0 -258.5 -124
t-99.5 -345q0 -113 40 -203t102.5 -142t141 -77t155 -17t146 47.5t111.5 106.5z" />
    <glyph glyph-name="d" unicode="d" horiz-adv-x="1134" 
d="M1108 37l6 -19q-15 -13 -49 -25.5t-74 -12.5q-65 0 -107 32t-42 94v82q-53 -100 -140.5 -154t-197.5 -54q-196 0 -324.5 138.5t-128.5 364.5q0 227 128 366.5t325 139.5q110 0 197.5 -55t140.5 -156v502q0 63 -21 93t-76 36v25l213 65h19v-1386q0 -56 38.5 -74t92.5 -2z
M504 10q150 0 244 127.5t94 345.5q0 219 -94 347t-244 128q-146 0 -228.5 -129t-82.5 -346q0 -215 82.5 -344t228.5 -129z" />
    <glyph glyph-name="e" unicode="e" horiz-adv-x="985" 
d="M934 553v-14h-741v-47q0 -113 41 -203t105 -142t144.5 -77t158.5 -17t148.5 47.5t112.5 106.5l25 -17q-143 -213 -381 -213q-136 0 -248 62t-180 181t-68 272q0 230 135 363.5t344 133.5q94 0 167.5 -31t117 -77.5t71.5 -107.5t38 -114.5t10 -105.5zM530 961
q-141 0 -229.5 -101t-103.5 -285h610q-10 386 -277 386z" />
    <glyph glyph-name="f" unicode="f" horiz-adv-x="600" 
d="M635 1409q51 -32 64 -76.5t-21 -72.5q-31 -27 -68 -5t-43 78q-4 49 -35 73t-79 19q-31 -2 -52 -12t-33 -30t-18 -41t-7 -57t0 -65.5t3 -78t2 -84.5v-88h266v-37h-266v-778q0 -63 21 -94t77 -35v-25h-327v25q55 4 75.5 35t20.5 94v778h-184v37h184v149q-2 76 6.5 131.5
t34.5 104.5t80 74.5t135 25.5q99 0 164 -45z" />
    <glyph glyph-name="g" unicode="g" horiz-adv-x="1159" 
d="M596 135q90 0 162 -7t138 -25t110.5 -47.5t71.5 -76.5t28 -110q2 -83 -32 -156.5t-99 -129.5t-167.5 -89t-229.5 -33q-254 0 -400.5 91.5t-144.5 218.5q1 88 77.5 150.5t213.5 92.5q-108 17 -170 67t-50 142q5 38 31 67t65 46.5t75.5 27.5t76.5 15q-70 44 -109.5 114
t-39.5 160q0 154 108 245t267 91q132 0 227 -59q8 87 55 151q36 49 82 58t70 -27q24 -32 -1.5 -69.5t-78.5 -34.5q-44 3 -71 -24.5t-30 -72.5q123 -95 123 -258q0 -153 -108 -244.5t-268 -91.5q-97 0 -183 39q-215 -22 -233 -104q-16 -70 82 -93.5t352 -23.5zM336 653
q0 -138 67.5 -219.5t174.5 -81.5q108 0 174.5 81.5t66.5 219.5q0 140 -66.5 221.5t-174.5 81.5q-107 0 -174.5 -82t-67.5 -221zM590 -496q67 0 134.5 15.5t134 48t109 94t44.5 143.5q1 33 -8 60.5t-24 47t-39.5 34.5t-48.5 24.5t-58 16t-61.5 9.5t-64 4t-60.5 0.5t-57.5 -1
t-47.5 -0.5q-97 0 -150 6q-233 -52 -233 -239q0 -58 20 -103t56.5 -73t77 -46t94 -26.5t94 -11.5t88.5 -3z" />
    <glyph glyph-name="h" unicode="h" 
d="M1098 25v-25h-328v25q55 4 75.5 35t20.5 94v421q0 77 -13 140.5t-42.5 119t-85.5 87t-135 30.5q-111 0 -199 -88.5t-88 -193.5v-516q0 -63 21 -94t77 -35v-25h-329v25q56 4 77 35t21 94v1126q0 63 -21 93t-77 36v25l213 65h18v-690q49 83 131.5 131.5t186.5 48.5
q173 0 276.5 -97.5t103.5 -291.5v-446q0 -63 21 -94t76 -35z" />
    <glyph glyph-name="i" unicode="i" horiz-adv-x="450" 
d="M399 25v-25h-327v25q55 4 75.5 35t20.5 94v616q0 63 -20.5 94t-75.5 35v25l213 65h16v-835q0 -63 21 -94t77 -35zM217 1157q-42 0 -71 27t-29 73q0 45 29 72t71 27q43 0 72.5 -26.5t29.5 -72.5t-29.5 -73t-72.5 -27z" />
    <glyph glyph-name="j" unicode="j" horiz-adv-x="448" 
d="M78 924l213 65h16v-977q0 -189 -18 -258q-44 -140 -209 -133q-68 3 -128 35t-83 88q-15 32 -10 66t30 51q23 14 46 12t38 -20q8 -8 12.5 -19t5 -19t1 -23t0.5 -21q1 -58 35.5 -88t87.5 -25q40 4 63 35.5t23 77.5q0 13 -13.5 79t-13.5 177v743q0 63 -20.5 94t-75.5 35v25z
M223 1157q-42 0 -71 27t-29 73q0 45 29 72t71 27q43 0 73 -26.5t30 -72.5t-30 -73t-73 -27z" />
    <glyph glyph-name="k" unicode="k" horiz-adv-x="1110" 
d="M899 154q41 -51 80 -80.5t90 -48.5v-25h-301v25q28 4 39 15t3.5 30t-19.5 37t-37 47l-312 370l-139 -131v-239q0 -63 20.5 -93t75.5 -36v-25h-327v25q56 6 77 36t21 93v1126q0 63 -21 94t-77 35v25l213 67h18v-1055l459 428q24 23 26.5 39.5t-8.5 24t-28 8.5v25h190v-25
q-26 -5 -37 -9t-36 -20.5t-60 -48.5l-277 -260z" />
    <glyph glyph-name="l" unicode="l" horiz-adv-x="450" 
d="M399 25v-25h-327v25q55 4 75.5 35t20.5 94v1126q0 63 -20.5 93t-75.5 36v25l213 65h18v-1345q0 -63 20.5 -94t75.5 -35z" />
    <glyph glyph-name="m" unicode="m" horiz-adv-x="1792" 
d="M1741 25v-25h-330v25q56 4 77 35t21 94v421q0 377 -262 377q-111 0 -192.5 -88t-81.5 -194v-516q0 -63 20.5 -94t75.5 -35v-25h-328v25q55 4 76 35t21 94v421q0 377 -263 377q-110 0 -192 -88t-82 -194v-516q0 -63 21 -94t77 -35v-25h-327v25q55 4 75.5 35t20.5 94v616
q0 63 -20.5 94t-75.5 35v25l213 65h16v-180q105 182 303 182q126 0 216.5 -58t127.5 -171q108 229 328 229q166 0 266 -99.5t100 -291.5v-446q0 -63 21.5 -94t77.5 -35z" />
    <glyph glyph-name="n" unicode="n" 
d="M1098 25v-25h-328v25q55 4 75.5 35t20.5 94v421q0 77 -13 140.5t-42 119t-85 87t-134 30.5q-112 0 -200.5 -88.5t-88.5 -193.5v-516q0 -63 21 -94t77 -35v-25h-329v25q56 4 77 35t21 94v616q0 63 -21 94t-77 35v25l213 65h18v-180q49 83 131.5 131.5t186.5 48.5
q173 0 276.5 -97.5t103.5 -291.5v-446q0 -63 21 -94t76 -35z" />
    <glyph glyph-name="o" unicode="o" horiz-adv-x="1099" 
d="M535 989q136 0 247.5 -60t178.5 -176.5t67 -269.5q0 -152 -67 -268t-178.5 -175.5t-247.5 -59.5q-137 0 -248.5 59.5t-178.5 175.5t-67 268q0 153 67 269.5t178.5 176.5t248.5 60zM535 10q157 0 254.5 128t97.5 345q0 218 -97.5 346.5t-254.5 128.5t-255 -128.5
t-98 -346.5q0 -217 98 -345t255 -128z" />
    <glyph glyph-name="p" unicode="p" horiz-adv-x="1157" 
d="M621 989q198 0 326 -139t128 -365q0 -227 -128 -366t-326 -139q-109 0 -197.5 54.5t-140.5 155.5v-501q0 -63 21 -93t77 -36v-25h-330v25q56 6 77.5 36t21.5 93v1081q0 63 -21.5 94t-77.5 35v25l213 65h19v-211q52 101 140.5 156t197.5 55zM621 10q147 0 230 129t83 346
q0 215 -83 344t-230 129q-150 0 -244 -127.5t-94 -345.5q0 -219 94 -347t244 -128z" />
    <glyph glyph-name="q" unicode="q" horiz-adv-x="1126" 
d="M967 -311q0 -63 21 -93t77 -36v-25h-328v25q55 6 76 36t21 93v501q-52 -101 -140 -155.5t-198 -54.5q-197 0 -326 139t-129 366q0 225 129 364.5t326 139.5q110 0 197.5 -55.5t140.5 -155.5l106 189h27v-1278zM496 10q150 0 244 128t94 347q0 218 -94 345.5t-244 127.5
q-146 0 -230 -129t-84 -344q0 -216 84 -345.5t230 -129.5z" />
    <glyph glyph-name="r" unicode="r" horiz-adv-x="845" 
d="M793 887q15 -30 9 -67.5t-34 -53.5q-37 -22 -74.5 -3t-38.5 62q-6 101 -90 107q-47 3 -93.5 -24.5t-84.5 -79.5t-62 -134.5t-24 -179.5v-360q0 -65 21 -95t77 -34v-25h-327v25q55 4 75.5 34.5t20.5 94.5v616q0 63 -20.5 94t-75.5 35v25l213 65h16v-272
q42 124 117.5 196.5t181.5 75.5q67 1 119 -26.5t74 -75.5z" />
    <glyph glyph-name="s" unicode="s" horiz-adv-x="841" 
d="M473 555q132 -62 172 -88q119 -76 123 -187q2 -29 -4 -61q-21 -115 -118 -177t-243 -62q-98 0 -197 28t-165 78v195h20q20 -83 77.5 -146t126.5 -94t138 -33q97 -3 166 40t86 114q6 24 7 45t-7 40t-14.5 33t-26 30.5t-30 25.5t-39.5 24.5t-40.5 21.5t-46.5 22.5t-46 21.5
q-33 15 -55.5 26t-54.5 28.5t-53.5 32t-47 34.5t-41.5 39.5t-31 45t-21 51t-6 57t9 65.5q22 87 104 135.5t203 48.5q167 0 301 -104v-180h-21q-32 129 -104 193.5t-176 62.5q-84 0 -142.5 -36t-64.5 -106q-4 -45 14.5 -84t62 -72t82.5 -55.5t103 -52.5z" />
    <glyph glyph-name="t" unicode="t" horiz-adv-x="694" 
d="M610 86l13 -20q-28 -33 -76 -59.5t-103 -26.5q-106 0 -173.5 67t-67.5 217v668h-162v37q65 0 114 20.5t79 58t47 84t22 105.5h35v-268h233v-37h-233v-668q0 -168 92 -213q41 -19 89.5 -10t90.5 45z" />
    <glyph glyph-name="u" unicode="u" horiz-adv-x="1128" 
d="M958 154q0 -64 21.5 -94.5t77.5 -34.5v-25h-232v160q-101 -180 -303 -180q-175 0 -284 98t-109 291v401q0 63 -21 94t-77 35v25l213 65h18v-608q0 -76 15 -139.5t47.5 -115.5t90.5 -81.5t136 -28.5q110 0 192 88.5t82 194.5v471q0 63 -20.5 94t-75.5 35v25l213 65h16
v-835z" />
    <glyph glyph-name="v" unicode="v" horiz-adv-x="1011" 
d="M786 969h185v-25q-68 -5 -99 -86l-342 -858h-43l-374 856q-37 82 -113 88v25h295v-25q-39 -3 -50 -30.5t7 -65.5l297 -696l280 702q37 87 -43 90v25z" />
    <glyph glyph-name="w" unicode="w" horiz-adv-x="1509" 
d="M1286 969h182v-25q-66 -5 -92 -86l-307 -858h-43l-283 776l-262 -776h-41l-334 856q-31 82 -106 88v25h293v-25q-38 -3 -51.5 -29t0.5 -67l256 -684l270 805h31l286 -809l248 694q33 87 -47 90v25z" />
    <glyph glyph-name="x" unicode="x" horiz-adv-x="1056" 
d="M858 113q62 -83 127 -88v-25h-287v25q81 6 27 81l-260 359l-246 -350q-32 -43 -30 -66t42 -24v-25h-190v25q36 3 72 27.5t61 58.5l270 385l-262 360q-62 83 -125 88v25h285v-25q-39 -3 -46 -24t19 -58l211 -291l199 283q20 29 27 47.5t-1.5 30t-35.5 12.5v25h190v-25
q-37 -3 -73.5 -27.5t-61.5 -58.5l-223 -315z" />
    <glyph glyph-name="y" unicode="y" horiz-adv-x="1042" 
d="M819 969h182v-25q-65 -5 -96 -86l-344 -858q-102 -233 -177.5 -328.5t-176.5 -117.5q-41 -10 -91 -2t-81 34q-30 25 -34 64.5t28 68.5q36 28 70.5 14.5t45.5 -50.5q13 -39 38 -57.5t75 -4.5q59 16 120 100.5t142 278.5l-375 856q-37 82 -112 88v25h293v-25
q-38 -3 -49.5 -30.5t6.5 -65.5l297 -696l282 702q34 87 -43 90v25z" />
    <glyph glyph-name="z" unicode="z" horiz-adv-x="964" 
d="M848 252h24l-38 -252h-762v37l608 895h-299q-191 0 -260 -215h-27l41 252h690v-37l-608 -895h369q61 0 108 19.5t77 55.5t46.5 67.5t30.5 72.5z" />
    <glyph glyph-name="braceleft" unicode="{" horiz-adv-x="651" 
d="M549 1493q-32 -7 -51 -13.5t-49.5 -32t-53.5 -67.5q-27 -47 -32 -116t2 -178.5t6 -155.5q-1 -61 -16.5 -109t-38 -72.5t-44.5 -41t-38 -21.5l-15 -4q6 -1 16 -4.5t36 -21t46 -42t36.5 -72.5t17.5 -108q1 -47 -6 -157t-2 -179t32 -116q23 -41 53.5 -66.5t50 -32.5
t50.5 -14v-31q-36 5 -56.5 9t-62.5 17t-74.5 37t-54.5 58q-37 58 -45 144t4 266q5 39 2.5 72.5t-2.5 58t-6.5 45t-10 34.5t-13 25.5t-15 18t-16 12.5t-16 8t-15.5 6q-16 6 -32.5 10t-25.5 5h-8v34q31 1 66 15q10 4 15.5 6t16 8t16 12.5t15 18t13 25.5t10 34.5t6.5 45t2.5 58
t-2.5 72.5q-12 180 -4 266t45 144q65 102 248 121v-31z" />
    <glyph glyph-name="bar" unicode="|" horiz-adv-x="325" 
d="M102 1434h121v-1647h-121v1647z" />
    <glyph glyph-name="braceright" unicode="}" horiz-adv-x="653" 
d="M483 713q16 -6 33 -10t26 -5h9v-34q-33 -1 -68 -15q-10 -4 -15.5 -6t-16 -8t-16 -12.5t-15 -18t-13 -25.5t-10 -34.5t-6.5 -45t-2.5 -58t2.5 -72.5q12 -180 4 -266t-45 -144q-22 -34 -54.5 -58t-74.5 -37t-62.5 -17t-56.5 -9v31q31 7 50.5 14t50 32.5t53.5 66.5
q27 47 32.5 115.5t-1.5 179.5t-6 157q1 60 17 108t38 73t44 41.5t37 21.5l15 4q-6 1 -16 4.5t-35.5 20.5t-45 41.5t-36.5 72.5t-18 109q-1 45 6 155.5t1.5 179t-32.5 115.5q-23 42 -53.5 67.5t-49.5 32t-51 13.5v31q183 -19 248 -121q37 -58 45 -144t-4 -266
q-5 -39 -2.5 -72.5t2.5 -58t6.5 -45t10 -34.5t13 -25.5t15 -18t16 -12.5t16 -8t15.5 -6z" />
    <glyph glyph-name="asciitilde" unicode="~" horiz-adv-x="872" 
d="M735 817h35q-13 -184 -168 -184q-22 0 -41.5 2.5t-43 10.5t-35 12.5t-42 18t-39.5 17.5q-97 39 -145 39q-73 0 -119 -82h-35q16 191 193 191q78 0 172 -49q8 -4 33 -17t35.5 -17.5t30 -12t35.5 -10.5t32 -3q81 0 102 84z" />
    <glyph glyph-name="exclamdown" unicode="&#xa1;" horiz-adv-x="407" 
d="M203 1010q43 0 72.5 -26.5t29.5 -72.5t-29.5 -72t-72.5 -26t-72 26t-29 72t29 72.5t72 26.5zM227 643q0 -130 19.5 -456.5t25.5 -551.5q1 -53 -19 -76.5t-50 -23.5q-29 0 -49 24t-19 76q6 225 25.5 551.5t19.5 456.5q0 41 23 41q24 0 24 -41z" />
    <glyph glyph-name="cent" unicode="&#xa2;" horiz-adv-x="964" 
d="M889 440l24 -18q-138 -211 -366 -211h-45v-250h-39v256q-180 29 -296 164.5t-116 341.5q0 205 116 336.5t296 157.5v253h39v-249q7 0 20.5 1t20.5 1q125 0 217 -44.5t129 -119.5q18 -30 12 -68.5t-43 -52.5q-39 -17 -71 6t-29 82q3 74 -53 121t-154 47q-17 0 -49 -4v-895
q112 -27 219.5 11t167.5 134zM193 723q0 -163 75.5 -270t194.5 -148v879q-125 -33 -198 -152.5t-72 -308.5z" />
    <glyph glyph-name="sterling" unicode="&#xa3;" horiz-adv-x="1140" 
d="M1026 225h23l-27 -225h-907v37q51 78 80 157t36 161.5t4 151.5t-16 163h-147v39h141q-4 27 -14.5 98.5t-17.5 127t-11 109.5q-10 127 43 221t152.5 141.5t232.5 47.5q140 0 242.5 -63t136.5 -140q31 -74 -14 -114q-20 -17 -48 -16t-45 18q-28 26 -32 86q-3 74 -67 135
t-173 61q-147 -1 -223.5 -108t-67.5 -271q3 -61 11.5 -172.5t11.5 -160.5h391v-39h-391q5 -178 -25.5 -320t-122.5 -272h594q119 0 172.5 36t77.5 111z" />
    <glyph glyph-name="currency" unicode="&#xa4;" horiz-adv-x="1300" 
d="M1143 717q0 -209 -121 -346l176 -174l-29 -29l-174 174q-134 -131 -346 -131q-209 0 -346 131l-174 -174l-27 29l174 174q-120 139 -120 346q0 208 120 344l-174 176l27 27l174 -174q139 133 346 133q210 0 346 -133l174 174l29 -27l-176 -176q121 -134 121 -344z
M649 242q158 0 255 128t97 347q0 218 -97 345.5t-255 127.5q-157 0 -254.5 -128t-97.5 -345q0 -218 97.5 -346.5t254.5 -128.5z" />
    <glyph glyph-name="yen" unicode="&#xa5;" horiz-adv-x="1320" 
d="M1012 1434h268v-25q-104 -11 -168 -129l-344 -641h254v-37h-270v-153h270v-39h-270v-256q0 -63 20.5 -94t75.5 -35v-25h-330v25q55 4 75.5 35t20.5 94v256h-270v39h270v141l-6 12h-264v37h242l-377 641q-68 119 -168 129v25h371v-25q-59 -6 -76.5 -38t14.5 -91l379 -633
l342 633q61 117 -59 129v25z" />
    <glyph glyph-name="brokenbar" unicode="&#xa6;" horiz-adv-x="325" 
d="M102 -213v645h121v-645h-121zM102 1434h121v-648h-121v648z" />
    <glyph glyph-name="section" unicode="&#xa7;" horiz-adv-x="1085" 
d="M629 940q58 -33 97.5 -58.5t86.5 -61t76.5 -71.5t54.5 -80t33.5 -96.5t1.5 -111.5q-18 -136 -109 -223q84 -109 68 -242q-15 -142 -114.5 -218.5t-270.5 -76.5q-153 4 -279 73.5t-157 143.5t12 115q21 17 48.5 16.5t45.5 -16.5q31 -34 31 -88q5 -71 91.5 -139t207.5 -68
q238 0 258 242q2 34 -6.5 66.5t-22.5 58.5t-41 53.5t-52 47.5t-64 45t-68.5 42.5t-74.5 42.5q-17 9 -25 14q-71 40 -117.5 70t-100 76.5t-82 91.5t-44.5 107.5t-7 133.5q15 132 107 224q-84 109 -68 239q17 142 121.5 218.5t278.5 76.5q150 -4 270.5 -72.5t153.5 -142.5
q31 -74 -15 -115q-20 -17 -47.5 -17t-44.5 17q-29 26 -33 86q-3 73 -83 140t-201 67q-126 0 -194.5 -63t-76.5 -176q-4 -47 13.5 -91t44.5 -76t77 -69t89.5 -60.5t103.5 -59.5zM870 395q10 59 -4.5 111.5t-39.5 90t-75.5 79t-89 65.5t-104.5 62q-3 2 -34.5 20t-37.5 21.5
t-34 20t-37 22.5t-32.5 21t-35.5 24l-30 22.5t-32.5 26t-27.5 25.5q-35 -57 -43 -111q-10 -59 4.5 -112t39.5 -90t76 -79t88.5 -66t104.5 -63q79 -44 112.5 -63.5t92 -59.5t96.5 -77q34 49 43 110z" />
    <glyph glyph-name="dieresis" unicode="&#xa8;" horiz-adv-x="757" 
d="M205 1395q43 0 72.5 -27.5t29.5 -73.5t-29.5 -73t-72.5 -27t-73 27t-30 73t30 73.5t73 27.5zM553 1395q43 0 72.5 -27.5t29.5 -73.5t-29.5 -73t-72.5 -27t-71.5 27t-28.5 73t28.5 73.5t71.5 27.5z" />
    <glyph glyph-name="copyright" unicode="&#xa9;" horiz-adv-x="1607" 
d="M821 305q106 0 186 54.5t115 164.5h15l-23 -149q-111 -90 -293 -90q-186 0 -314 123t-128 311t122 311t306 123q83 0 166 -24t141 -66v-152h-14q-27 108 -107 163.5t-186 55.5q-145 0 -244.5 -111t-99.5 -300q0 -95 29.5 -174.5t79.5 -131t114.5 -80t134.5 -28.5z
M803 1436q148 0 284 -58t234 -156t156.5 -233.5t58.5 -283.5t-58.5 -283.5t-156.5 -234t-234 -156.5t-284 -58t-283.5 58t-233.5 156.5t-156 234t-58 283.5t58 283.5t156 233.5t233.5 156t283.5 58zM803 12q113 0 218.5 35t190.5 99.5t149 149.5t99 191t35 218
q0 188 -92.5 347t-252 252t-347.5 93q-187 0 -346 -93t-251.5 -252.5t-92.5 -346.5t92.5 -347t251.5 -253t346 -93z" />
    <glyph glyph-name="guillemotleft" unicode="&#xab;" horiz-adv-x="944" 
d="M842 948l-228 -286l228 -287l-21 -25l-329 289v45l329 289zM432 973l21 -25l-228 -286l228 -287l-21 -25l-330 289v45z" />
    <glyph glyph-name="registered" unicode="&#xae;" horiz-adv-x="1607" 
d="M803 -27q-148 0 -283.5 58t-233.5 156.5t-156 234t-58 283.5t58 284t156 234t233.5 156.5t283.5 58.5t284 -58.5t234 -156.5t156.5 -234t58.5 -284t-58.5 -283.5t-156.5 -234t-234 -156.5t-284 -58zM803 1397q-187 0 -346 -92.5t-251.5 -252t-92.5 -347.5
q0 -187 92.5 -346.5t251.5 -252t346 -92.5q141 0 269.5 55t221 147.5t147 220.5t54.5 268q0 188 -92.5 347.5t-252 252t-347.5 92.5zM1079 387q46 -62 99 -76v-14h-125l-254 367h-17h-147v-277q0 -37 12.5 -55t44.5 -21v-14h-194v14q32 3 44.5 21t12.5 55v664
q0 37 -12.5 54.5t-44.5 20.5v15h284q140 0 219.5 -64t79.5 -176q0 -90 -53.5 -149.5t-150.5 -79.5zM774 686q111 0 168 57t57 158t-57 159t-168 58h-139v-432h139z" />
    <glyph glyph-name="macron" unicode="&#xaf;" horiz-adv-x="815" 
d="M102 1294h611v-39h-611v39z" />
    <glyph glyph-name="degree" unicode="&#xb0;" horiz-adv-x="765" 
d="M383 1454q118 0 199.5 -80.5t81.5 -204.5t-81.5 -204t-199.5 -80t-199.5 80t-81.5 204t81.5 204.5t199.5 80.5zM383 922q87 0 137.5 66t50.5 181t-50.5 181.5t-137.5 66.5t-137.5 -66.5t-50.5 -181.5t50.5 -181t137.5 -66z" />
    <glyph glyph-name="plusminus" unicode="&#xb1;" horiz-adv-x="892" 
d="M469 829h322v-45h-322v-321h-45v321h-322v45h322v324h45v-324zM102 299v45h689v-45h-689z" />
    <glyph glyph-name="acute" unicode="&#xb4;" horiz-adv-x="530" 
d="M420 1339q26 -58 -39 -84q-116 -49 -238 -94q-23 -9 -34 13q-11 19 10 34q96 73 211 146q60 43 90 -15z" />
    <glyph glyph-name="paragraph" unicode="&#xb6;" horiz-adv-x="1052" 
d="M430 1434h520v-25q-56 -6 -77 -36t-21 -93v-1280h-37v1395h-246v-316v-1079h-39v727h-92q-152 0 -244 96t-92 256q0 159 90 255.5t238 99.5z" />
    <glyph glyph-name="cedilla" unicode="&#xb8;" horiz-adv-x="509" 
d="M289 -121q62 -10 92 -47.5t25 -85.5q-6 -62 -49.5 -97.5t-116.5 -35.5q-42 0 -81 14t-57 35l23 29q29 -29 82 -29q35 0 58.5 22.5t29.5 67.5q3 36 -11.5 60t-43.5 30q-37 8 -74 -6l-12 33l45 131h37l-39 -121q60 4 92 0z" />
    <glyph glyph-name="guillemotright" unicode="&#xbb;" horiz-adv-x="944" 
d="M102 948l21 25l330 -289v-45l-330 -289l-21 25l228 287zM512 973l330 -289v-45l-330 -289l-20 25l227 287l-227 286z" />
    <glyph glyph-name="questiondown" unicode="&#xbf;" horiz-adv-x="1028" 
d="M897 -147q45 -40 14 -115q-33 -74 -144.5 -138.5t-246.5 -64.5q-91 0 -168 23t-134.5 66.5t-88 113t-25.5 156.5q5 82 30.5 146.5t63 107.5t81.5 81t88 76.5t81.5 83.5t62.5 113.5t30 154.5q0 27 16 27q23 0 23 -27q-2 -84 -21 -154t-47.5 -119t-63 -92.5t-69 -84
t-64 -83.5t-49.5 -102t-24 -128q-7 -152 66.5 -238t211.5 -86q109 0 179 62t73 135q4 57 33 86q17 17 44.5 17t47.5 -17zM553 813q-43 0 -71.5 26t-28.5 72t28.5 72.5t71.5 26.5t72.5 -26.5t29.5 -72.5t-29.5 -72t-72.5 -26z" />
    <glyph glyph-name="Agrave" unicode="&#xc0;" horiz-adv-x="1452" 
d="M1262 154q50 -121 149 -129v-25h-371v25q58 5 81.5 39.5t0.5 89.5l-141 333h-625l-129 -333q-44 -119 82 -129v-25h-268v25q55 4 89 37.5t56 91.5l422 1106q23 65 6.5 103t-65.5 44v27h178zM371 526h594l-310 742h-2zM813 1618q21 -15 10 -35q-11 -21 -35 -12
q-92 34 -237 94q-66 27 -37 84q29 56 90 14q145 -95 209 -145z" />
    <glyph glyph-name="Aacute" unicode="&#xc1;" horiz-adv-x="1452" 
d="M1262 154q50 -121 149 -129v-25h-371v25q58 5 81.5 39.5t0.5 89.5l-141 333h-625l-129 -333q-44 -119 82 -129v-25h-268v25q55 4 89 37.5t56 91.5l422 1106q23 65 6.5 103t-65.5 44v27h178zM371 526h594l-310 742h-2zM797 1749q26 -58 -39 -84q-116 -49 -238 -94
q-24 -9 -35 12q-11 19 11 35q88 66 211 145q60 43 90 -14z" />
    <glyph glyph-name="Acircumflex" unicode="&#xc2;" horiz-adv-x="1452" 
d="M1262 154q50 -121 149 -129v-25h-371v25q58 5 81.5 39.5t0.5 89.5l-141 333h-625l-129 -333q-44 -119 82 -129v-25h-268v25q55 4 89 37.5t56 91.5l422 1106q23 65 6.5 103t-65.5 44v27h178zM371 526h594l-310 742h-2zM711 1825l274 -248l-16 -25l-295 177l-293 -177
l-16 25l274 248h72z" />
    <glyph glyph-name="Atilde" unicode="&#xc3;" horiz-adv-x="1452" 
d="M1262 154q50 -121 149 -129v-25h-371v25q58 5 81.5 39.5t0.5 89.5l-141 333h-625l-129 -333q-44 -119 82 -129v-25h-268v25q55 4 89 37.5t56 91.5l422 1106q23 65 6.5 103t-65.5 44v27h178zM371 526h594l-310 742h-2zM977 1749h35q-9 -89 -53.5 -129.5t-114.5 -40.5
q-27 0 -56 6.5t-43 11t-54 21.5t-48 20q-89 39 -145 39q-74 0 -119 -80h-35q10 91 61.5 135t124.5 44q42 0 80.5 -12.5t98.5 -39.5q17 -7 53.5 -25t61 -26t50.5 -8q39 0 66 21.5t37 62.5z" />
    <glyph glyph-name="Adieresis" unicode="&#xc4;" horiz-adv-x="1452" 
d="M1262 154q50 -121 149 -129v-25h-371v25q58 5 81.5 39.5t0.5 89.5l-141 333h-625l-129 -333q-44 -119 82 -129v-25h-268v25q55 4 89 37.5t56 91.5l422 1106q23 65 6.5 103t-65.5 44v27h178zM371 526h594l-310 742h-2zM500 1804q43 0 72.5 -27t29.5 -73t-29.5 -73
t-72.5 -27t-73 27t-30 73t30 73t73 27zM848 1804q43 0 72.5 -27t29.5 -73t-29.5 -73t-72.5 -27t-71.5 27t-28.5 73t28.5 73t71.5 27z" />
    <glyph glyph-name="Aring" unicode="&#xc5;" horiz-adv-x="1452" 
d="M1262 154q50 -121 149 -129v-25h-371v25q58 5 81.5 39.5t0.5 89.5l-141 333h-625l-129 -333q-44 -119 82 -129v-25h-268v25q55 4 89 37.5t56 91.5l422 1106q23 65 6.5 103t-65.5 44v27h178zM371 526h594l-310 742h-2zM676 1923q90 0 151.5 -54t61.5 -143q0 -90 -61 -143
t-152 -53q-92 0 -153.5 53t-61.5 143q0 89 61.5 143t153.5 54zM676 1554q59 0 94 48.5t35 123.5t-35 123.5t-94 48.5q-60 0 -95.5 -48.5t-35.5 -123.5t35.5 -123.5t95.5 -48.5z" />
    <glyph glyph-name="AE" unicode="&#xc6;" horiz-adv-x="1970" 
d="M1864 252h24l-39 -252h-979v25q55 4 76 35t21 94v333h-496l-211 -333q-36 -59 -23 -91.5t72 -37.5v-25h-268v25q94 7 170 129l713 1126q35 57 20 90t-74 39v25h926l39 -252h-25q-14 39 -31 70t-47.5 67t-77.5 56t-106 20h-444v-645h319q68 0 107 16.5t53.5 42.5t22.5 74
h24v-305h-24q-8 48 -22.5 74t-53.5 42.5t-107 16.5h-319v-674h498q59 0 106 20.5t77.5 57t47 67.5t31.5 70zM496 526h471v744z" />
    <glyph glyph-name="Ccedilla" unicode="&#xc7;" horiz-adv-x="1411" 
d="M813 -23q-6 0 -17.5 1.5t-17.5 1.5l-33 -101q61 4 93 0q62 -10 91.5 -47t24.5 -86q-6 -62 -49.5 -97.5t-116.5 -35.5q-42 0 -80.5 14t-56.5 35l21 29q36 -29 84 -29q35 0 58.5 22.5t29.5 67.5q3 35 -12 59.5t-44 30.5q-40 8 -73 -6l-13 33l39 113q-142 12 -267 72
t-216 155t-144 227t-53 281q0 212 94 380.5t259.5 262.5t371.5 94q141 0 278.5 -40.5t233.5 -113.5v-256h-24q-44 184 -176.5 278.5t-311.5 94.5q-119 0 -225 -48t-185.5 -135.5t-126 -221.5t-46.5 -295t50.5 -296t135.5 -223t194.5 -136t229.5 -48q178 0 309.5 92.5
t192.5 280.5h24l-41 -256q-194 -154 -485 -154z" />
    <glyph glyph-name="Egrave" unicode="&#xc8;" horiz-adv-x="1202" 
d="M1096 252h24l-39 -252h-979v25q55 4 76 34.5t21 94.5v1126q0 63 -21 93t-76 34v27h926l39 -252h-25q-14 39 -31 70t-47.5 67t-77.5 56t-106 20h-444v-647h319q99 0 135 31.5t48 103.5h24v-308h-24q-6 36 -15 58.5t-28.5 41.5t-53.5 27.5t-86 8.5h-319v-674h498
q59 0 106 20.5t77.5 57t47 67.5t31.5 70zM739 1618q22 -16 11 -35q-11 -21 -35 -12q-100 37 -238 94q-66 27 -37 84q29 56 90 14q145 -95 209 -145z" />
    <glyph glyph-name="Eacute" unicode="&#xc9;" horiz-adv-x="1202" 
d="M1096 252h24l-39 -252h-979v25q55 4 76 34.5t21 94.5v1126q0 63 -21 93t-76 34v27h926l39 -252h-25q-14 39 -31 70t-47.5 67t-77.5 56t-106 20h-444v-647h319q99 0 135 31.5t48 103.5h24v-308h-24q-6 36 -15 58.5t-28.5 41.5t-53.5 27.5t-86 8.5h-319v-674h498
q59 0 106 20.5t77.5 57t47 67.5t31.5 70zM743 1749q27 -59 -38 -84q-116 -49 -238 -94q-24 -9 -35 12q-11 20 10 35q88 66 211 145q60 43 90 -14z" />
    <glyph glyph-name="Ecircumflex" unicode="&#xca;" horiz-adv-x="1202" 
d="M1096 252h24l-39 -252h-979v25q55 4 76 34.5t21 94.5v1126q0 63 -21 93t-76 34v27h926l39 -252h-25q-14 39 -31 70t-47.5 67t-77.5 56t-106 20h-444v-647h319q99 0 135 31.5t48 103.5h24v-308h-24q-6 36 -15 58.5t-28.5 41.5t-53.5 27.5t-86 8.5h-319v-674h498
q59 0 106 20.5t77.5 57t47 67.5t31.5 70zM647 1825l275 -248l-17 -25l-295 177l-293 -177l-16 25l274 248h72z" />
    <glyph glyph-name="Edieresis" unicode="&#xcb;" horiz-adv-x="1202" 
d="M1096 252h24l-39 -252h-979v25q55 4 76 34.5t21 94.5v1126q0 63 -21 93t-76 34v27h926l39 -252h-25q-14 39 -31 70t-47.5 67t-77.5 56t-106 20h-444v-647h319q99 0 135 31.5t48 103.5h24v-308h-24q-6 36 -15 58.5t-28.5 41.5t-53.5 27.5t-86 8.5h-319v-674h498
q59 0 106 20.5t77.5 57t47 67.5t31.5 70zM436 1804q43 0 73 -27t30 -73t-30 -73t-73 -27t-72.5 27t-29.5 73t29.5 73t72.5 27zM784 1804q43 0 73 -27t30 -73t-30 -73t-73 -27t-71.5 27t-28.5 73t28.5 73t71.5 27z" />
    <glyph glyph-name="Igrave" unicode="&#xcc;" horiz-adv-x="536" 
d="M434 1407q-56 -4 -77 -34t-21 -93v-1126q0 -65 21 -95t77 -34v-25h-332v25q56 4 77.5 34.5t21.5 94.5v1126q0 63 -21.5 93t-77.5 34v27h332v-27zM436 1618q21 -15 10 -35q-10 -21 -34 -12q-100 37 -238 94q-66 27 -37 84q29 56 90 14q145 -95 209 -145z" />
    <glyph glyph-name="Iacute" unicode="&#xcd;" horiz-adv-x="536" 
d="M434 1407q-56 -4 -77 -34t-21 -93v-1126q0 -65 21 -95t77 -34v-25h-332v25q56 4 77.5 34.5t21.5 94.5v1126q0 63 -21.5 93t-77.5 34v27h332v-27zM399 1749q26 -58 -39 -84q-122 -52 -237 -94q-24 -9 -35 12q-11 20 10 35q88 66 211 145q60 43 90 -14z" />
    <glyph glyph-name="Icircumflex" unicode="&#xce;" horiz-adv-x="536" 
d="M434 1407q-56 -4 -77 -34t-21 -93v-1126q0 -65 21 -95t77 -34v-25h-332v25q56 4 77.5 34.5t21.5 94.5v1126q0 63 -21.5 93t-77.5 34v27h332v-27zM305 1825l275 -248l-17 -25l-295 177l-293 -177l-16 25l274 248h72z" />
    <glyph glyph-name="Idieresis" unicode="&#xcf;" horiz-adv-x="536" 
d="M434 1407q-56 -4 -77 -34t-21 -93v-1126q0 -65 21 -95t77 -34v-25h-332v25q56 4 77.5 34.5t21.5 94.5v1126q0 63 -21.5 93t-77.5 34v27h332v-27zM94 1804q43 0 73 -27t30 -73t-30 -73t-73 -27t-72.5 27t-29.5 73t29.5 73t72.5 27zM442 1804q43 0 73 -27t30 -73t-30 -73
t-73 -27t-71.5 27t-28.5 73t28.5 73t71.5 27z" />
    <glyph glyph-name="Eth" unicode="&#xd0;" horiz-adv-x="1452" 
d="M598 1434q230 0 410 -88.5t281.5 -252t101.5 -376.5t-101.5 -376.5t-281.5 -252t-410 -88.5h-496v25q56 4 77.5 35t21.5 94v557h-99v39h99v530q0 63 -21.5 93t-77.5 36v25h496zM586 37q314 0 489.5 172.5t175.5 507.5t-175.5 506.5t-489.5 171.5h-248v-645h375v-39h-375
v-674h248z" />
    <glyph glyph-name="Ntilde" unicode="&#xd1;" horiz-adv-x="1462" 
d="M1139 1434h231v-27q-55 -4 -75.5 -34t-20.5 -93v-1280h-72l-964 1243v-1089q0 -65 21 -95t77 -34v-25h-234v25q55 4 76 34.5t21 94.5v1126q0 63 -21 93t-76 34v27h170l963 -1244v1090q0 63 -20.5 93t-75.5 34v27zM1055 1749h35q-9 -89 -53.5 -129.5t-114.5 -40.5
q-27 0 -56 6.5t-43 11t-54 21.5t-48 20q-89 39 -146 39q-73 0 -118 -80h-35q10 91 61.5 135t124.5 44q42 0 79.5 -12t98.5 -40q16 -7 53 -25t62 -26t51 -8q39 0 66 21.5t37 62.5z" />
    <glyph glyph-name="Ograve" unicode="&#xd2;" horiz-adv-x="1628" 
d="M813 1454q154 0 293 -55t240.5 -151.5t161 -234.5t59.5 -296q0 -159 -59.5 -297t-161 -234t-240.5 -151t-293 -55t-292 55t-239.5 151t-161 234t-59.5 297q0 158 59.5 296t161 234.5t239.5 151.5t292 55zM813 14q120 0 229.5 48t194.5 136t135.5 223t50.5 296t-50.5 295
t-135.5 221.5t-194.5 135.5t-229.5 48t-229.5 -48t-194.5 -135.5t-135.5 -221.5t-50.5 -295t50.5 -296t135.5 -223t194.5 -136t229.5 -48zM963 1618q21 -15 10 -35q-11 -21 -35 -12q-100 37 -238 94q-66 27 -36 84q29 56 90 14q145 -95 209 -145z" />
    <glyph glyph-name="Oacute" unicode="&#xd3;" horiz-adv-x="1628" 
d="M813 1454q154 0 293 -55t240.5 -151.5t161 -234.5t59.5 -296q0 -159 -59.5 -297t-161 -234t-240.5 -151t-293 -55t-292 55t-239.5 151t-161 234t-59.5 297q0 158 59.5 296t161 234.5t239.5 151.5t292 55zM813 14q120 0 229.5 48t194.5 136t135.5 223t50.5 296t-50.5 295
t-135.5 221.5t-194.5 135.5t-229.5 48t-229.5 -48t-194.5 -135.5t-135.5 -221.5t-50.5 -295t50.5 -296t135.5 -223t194.5 -136t229.5 -48zM967 1749q26 -58 -39 -84q-116 -49 -238 -94q-24 -9 -35 12q-11 19 11 35q88 66 211 145q60 43 90 -14z" />
    <glyph glyph-name="Ocircumflex" unicode="&#xd4;" horiz-adv-x="1628" 
d="M813 1454q154 0 293 -55t240.5 -151.5t161 -234.5t59.5 -296q0 -159 -59.5 -297t-161 -234t-240.5 -151t-293 -55t-292 55t-239.5 151t-161 234t-59.5 297q0 158 59.5 296t161 234.5t239.5 151.5t292 55zM813 14q120 0 229.5 48t194.5 136t135.5 223t50.5 296t-50.5 295
t-135.5 221.5t-194.5 135.5t-229.5 48t-229.5 -48t-194.5 -135.5t-135.5 -221.5t-50.5 -295t50.5 -296t135.5 -223t194.5 -136t229.5 -48zM850 1825l274 -248l-16 -25l-295 177l-293 -177l-16 25l274 248h72z" />
    <glyph glyph-name="Otilde" unicode="&#xd5;" horiz-adv-x="1628" 
d="M813 1454q154 0 293 -55t240.5 -151.5t161 -234.5t59.5 -296q0 -159 -59.5 -297t-161 -234t-240.5 -151t-293 -55t-292 55t-239.5 151t-161 234t-59.5 297q0 158 59.5 296t161 234.5t239.5 151.5t292 55zM813 14q120 0 229.5 48t194.5 136t135.5 223t50.5 296t-50.5 295
t-135.5 221.5t-194.5 135.5t-229.5 48t-229.5 -48t-194.5 -135.5t-135.5 -221.5t-50.5 -295t50.5 -296t135.5 -223t194.5 -136t229.5 -48zM1112 1749h35q-9 -89 -53.5 -129.5t-114.5 -40.5q-27 0 -56 6.5t-43 11t-54 21.5t-48 20q-89 39 -145 39q-74 0 -119 -80h-35
q10 91 61.5 135t125.5 44q42 0 79.5 -12t98.5 -40q16 -7 53 -25t62 -26t51 -8q81 0 102 84z" />
    <glyph glyph-name="Odieresis" unicode="&#xd6;" horiz-adv-x="1628" 
d="M813 1454q154 0 293 -55t240.5 -151.5t161 -234.5t59.5 -296q0 -159 -59.5 -297t-161 -234t-240.5 -151t-293 -55t-292 55t-239.5 151t-161 234t-59.5 297q0 158 59.5 296t161 234.5t239.5 151.5t292 55zM813 14q120 0 229.5 48t194.5 136t135.5 223t50.5 296t-50.5 295
t-135.5 221.5t-194.5 135.5t-229.5 48t-229.5 -48t-194.5 -135.5t-135.5 -221.5t-50.5 -295t50.5 -296t135.5 -223t194.5 -136t229.5 -48zM639 1804q43 0 72.5 -27t29.5 -73t-29.5 -73t-72.5 -27t-72.5 27t-29.5 73t29.5 73t72.5 27zM987 1804q43 0 73 -27t30 -73t-30 -73
t-73 -27t-71.5 27t-28.5 73t28.5 73t71.5 27z" />
    <glyph glyph-name="multiply" unicode="&#xd7;" horiz-adv-x="724" 
d="M623 887l-230 -228l230 -229l-33 -31l-228 228l-229 -228l-31 31l228 229l-228 228l31 33l229 -230l228 230z" />
    <glyph glyph-name="Oslash" unicode="&#xd8;" horiz-adv-x="1628" 
d="M1362 1231q97 -99 151 -230.5t54 -283.5q0 -159 -59.5 -297t-161 -234t-240.5 -151t-293 -55q-148 0 -280 49t-234 141l-164 -166l-33 33l164 164q-97 99 -151 231.5t-54 284.5q0 158 59.5 296t161 234.5t239.5 151.5t292 55q305 0 516 -192l164 165l33 -30zM205 717
q0 -264 129 -449l932 932q-86 105 -204 161t-249 56q-119 0 -228 -48t-194 -135.5t-135.5 -221.5t-50.5 -295zM813 14q120 0 229.5 48t194.5 136t135.5 223t50.5 296q0 261 -129 446l-932 -932q86 -104 204 -160.5t247 -56.5z" />
    <glyph glyph-name="Ugrave" unicode="&#xd9;" horiz-adv-x="1476" 
d="M1163 1434h232v-25q-55 -6 -76 -36t-21 -93v-729q0 -76 -15.5 -151.5t-53 -152t-93.5 -135t-144.5 -95.5t-198.5 -37q-265 0 -429.5 153.5t-164.5 417.5v729q0 63 -21 93t-76 36v25h332v-25q-56 -6 -77 -36t-21 -93v-729q0 -246 122.5 -385t336.5 -139q102 0 184 33.5
t133 86.5t85.5 123.5t48.5 140t14 140.5v729q0 63 -21 93t-76 36v25zM958 1618q22 -16 11 -35q-11 -21 -35 -12q-100 37 -238 94q-66 27 -37 84t91 14q139 -91 208 -145z" />
    <glyph glyph-name="Uacute" unicode="&#xda;" horiz-adv-x="1476" 
d="M1163 1434h232v-25q-55 -6 -76 -36t-21 -93v-729q0 -76 -15.5 -151.5t-53 -152t-93.5 -135t-144.5 -95.5t-198.5 -37q-265 0 -429.5 153.5t-164.5 417.5v729q0 63 -21 93t-76 36v25h332v-25q-56 -6 -77 -36t-21 -93v-729q0 -246 122.5 -385t336.5 -139q102 0 184 33.5
t133 86.5t85.5 123.5t48.5 140t14 140.5v729q0 63 -21 93t-76 36v25zM963 1749q26 -58 -39 -84q-116 -49 -238 -94q-24 -9 -35 12q-11 19 11 35q93 70 210 145q33 21 55.5 16t35.5 -30z" />
    <glyph glyph-name="Ucircumflex" unicode="&#xdb;" horiz-adv-x="1476" 
d="M1163 1434h232v-25q-55 -6 -76 -36t-21 -93v-729q0 -76 -15.5 -151.5t-53 -152t-93.5 -135t-144.5 -95.5t-198.5 -37q-265 0 -429.5 153.5t-164.5 417.5v729q0 63 -21 93t-76 36v25h332v-25q-56 -6 -77 -36t-21 -93v-729q0 -246 122.5 -385t336.5 -139q102 0 184 33.5
t133 86.5t85.5 123.5t48.5 140t14 140.5v729q0 63 -21 93t-76 36v25zM846 1825l274 -248l-16 -25l-295 177l-293 -177l-16 25l274 248h72z" />
    <glyph glyph-name="Udieresis" unicode="&#xdc;" horiz-adv-x="1476" 
d="M1163 1434h232v-25q-55 -6 -76 -36t-21 -93v-729q0 -76 -15.5 -151.5t-53 -152t-93.5 -135t-144.5 -95.5t-198.5 -37q-265 0 -429.5 153.5t-164.5 417.5v729q0 63 -21 93t-76 36v25h332v-25q-56 -6 -77 -36t-21 -93v-729q0 -246 122.5 -385t336.5 -139q102 0 184 33.5
t133 86.5t85.5 123.5t48.5 140t14 140.5v729q0 63 -21 93t-76 36v25zM635 1804q43 0 72.5 -27t29.5 -73t-29.5 -73t-72.5 -27t-73 27t-30 73t30 73t73 27zM983 1804q43 0 72.5 -27t29.5 -73t-29.5 -73t-72.5 -27t-71.5 27t-28.5 73t28.5 73t71.5 27z" />
    <glyph glyph-name="Yacute" unicode="&#xdd;" horiz-adv-x="1320" 
d="M1012 1434h268v-25q-104 -11 -168 -129l-360 -674v-452q0 -64 20.5 -94.5t75.5 -34.5v-25h-330v25q55 4 75.5 34.5t20.5 94.5v436l-405 690q-68 119 -168 129v25h371v-25q-59 -6 -76 -38t16 -91l377 -635l342 635q61 117 -59 129v25zM874 1749q27 -59 -38 -84
q-116 -49 -238 -94q-24 -9 -35 12q-11 20 10 35q88 66 211 145q60 43 90 -14z" />
    <glyph glyph-name="Thorn" unicode="&#xde;" horiz-adv-x="1157" 
d="M573 1143q249 0 386 -116t137 -310q0 -193 -137.5 -309.5t-385.5 -116.5h-235v-137q0 -63 20.5 -93t75.5 -36v-25h-330v25q55 6 76 36t21 93v1126q0 63 -21 94t-76 35v25h330v-25q-55 -4 -75.5 -35t-20.5 -94v-137h235zM559 330q194 0 295.5 106.5t101.5 280.5
q0 175 -101.5 282t-295.5 107h-221v-776h221z" />
    <glyph glyph-name="germandbls" unicode="&#xdf;" horiz-adv-x="1286" 
d="M870 729q71 -32 120.5 -58.5t102 -67t81.5 -83.5t42.5 -103t2.5 -130q-22 -147 -133 -227t-267 -80q-219 0 -420 151v270h25q45 -191 146.5 -289t248.5 -98q109 0 178.5 59.5t87.5 162.5q12 73 -2.5 128.5t-63 99.5t-92.5 71t-128 69q-178 88 -255 187.5t-3 199.5
q35 49 56 111t24 119q5 90 -29 147t-121 57q-39 0 -67.5 -13t-46.5 -41t-29 -58.5t-16.5 -79.5t-7 -89.5t-1.5 -101.5v-1042h-231v25q55 4 75.5 35t20.5 94v911q0 81 17.5 149.5t53.5 123t96 85.5t140 31q83 0 144 -20.5t92.5 -56t43.5 -78t5 -91.5q-15 -99 -164 -217
q-83 -65 4 -129q44 -33 196 -100q48 -21 74 -33z" />
    <glyph glyph-name="agrave" unicode="&#xe0;" horiz-adv-x="970" 
d="M940 59l10 -14q-13 -24 -43.5 -44.5t-70.5 -20.5q-69 0 -106.5 33.5t-37.5 101.5v98q-29 -101 -112 -167t-213 -66q-135 -1 -223 71t-91 185q-4 126 84.5 209.5t231.5 97.5l323 24v107q0 164 -51.5 225.5t-173.5 61.5q-79 0 -133 -42t-53 -112q0 -58 -32 -80.5t-71 -7.5
q-36 16 -42.5 54.5t11.5 68.5q36 70 119.5 106t192.5 41q58 2 108.5 -6.5t99 -32.5t83.5 -62t56 -99t21 -140v-536q0 -39 19.5 -59t45.5 -18t48 23zM422 33q125 3 197.5 103t72.5 239v164q-104 -5 -266 -25q-119 -15 -186 -87.5t-62 -180.5q3 -100 70 -158t174 -55z
M670 1188q21 -15 10 -35q-11 -21 -35 -12q-92 34 -237 94q-66 27 -37 84q29 56 90 14q145 -95 209 -145z" />
    <glyph glyph-name="aacute" unicode="&#xe1;" horiz-adv-x="970" 
d="M940 59l10 -14q-13 -24 -43.5 -44.5t-70.5 -20.5q-69 0 -106.5 33.5t-37.5 101.5v98q-29 -101 -112 -167t-213 -66q-135 -1 -223 71t-91 185q-4 126 84.5 209.5t231.5 97.5l323 24v107q0 164 -51.5 225.5t-173.5 61.5q-79 0 -133 -42t-53 -112q0 -58 -32 -80.5t-71 -7.5
q-36 16 -42.5 54.5t11.5 68.5q36 70 119.5 106t192.5 41q58 2 108.5 -6.5t99 -32.5t83.5 -62t56 -99t21 -140v-536q0 -39 19.5 -59t45.5 -18t48 23zM422 33q125 3 197.5 103t72.5 239v164q-104 -5 -266 -25q-119 -15 -186 -87.5t-62 -180.5q3 -100 70 -158t174 -55z
M633 1319q26 -58 -39 -84q-116 -49 -238 -94q-24 -9 -34 12q-11 20 10 35q88 66 211 145q60 43 90 -14z" />
    <glyph glyph-name="acircumflex" unicode="&#xe2;" horiz-adv-x="970" 
d="M940 59l10 -14q-13 -24 -43.5 -44.5t-70.5 -20.5q-69 0 -106.5 33.5t-37.5 101.5v98q-29 -101 -112 -167t-213 -66q-135 -1 -223 71t-91 185q-4 126 84.5 209.5t231.5 97.5l323 24v107q0 164 -51.5 225.5t-173.5 61.5q-79 0 -133 -42t-53 -112q0 -58 -32 -80.5t-71 -7.5
q-36 16 -42.5 54.5t11.5 68.5q36 70 119.5 106t192.5 41q58 2 108.5 -6.5t99 -32.5t83.5 -62t56 -99t21 -140v-536q0 -39 19.5 -59t45.5 -18t48 23zM422 33q125 3 197.5 103t72.5 239v164q-104 -5 -266 -25q-119 -15 -186 -87.5t-62 -180.5q3 -100 70 -158t174 -55z
M537 1395l274 -248l-16 -25l-295 176l-293 -176l-17 25l275 248h72z" />
    <glyph glyph-name="atilde" unicode="&#xe3;" horiz-adv-x="970" 
d="M940 59l10 -14q-13 -24 -43.5 -44.5t-70.5 -20.5q-69 0 -106.5 33.5t-37.5 101.5v98q-29 -101 -112 -167t-213 -66q-135 -1 -223 71t-91 185q-4 126 84.5 209.5t231.5 97.5l323 24v107q0 164 -51.5 225.5t-173.5 61.5q-79 0 -133 -42t-53 -112q0 -58 -32 -80.5t-71 -7.5
q-36 16 -42.5 54.5t11.5 68.5q36 70 119.5 106t192.5 41q58 2 108.5 -6.5t99 -32.5t83.5 -62t56 -99t21 -140v-536q0 -39 19.5 -59t45.5 -18t48 23zM422 33q125 3 197.5 103t72.5 239v164q-104 -5 -266 -25q-119 -15 -186 -87.5t-62 -180.5q3 -100 70 -158t174 -55z
M799 1319h35q-9 -89 -53.5 -129.5t-114.5 -40.5q-27 0 -56 6.5t-43 11t-54 21.5t-48 20q-89 39 -146 39q-73 0 -118 -80h-35q10 91 61.5 135t124.5 44q42 0 79.5 -12t98.5 -40q16 -7 53 -25t62 -26t51 -8q39 0 66 21.5t37 62.5z" />
    <glyph glyph-name="adieresis" unicode="&#xe4;" horiz-adv-x="970" 
d="M940 59l10 -14q-13 -24 -43.5 -44.5t-70.5 -20.5q-69 0 -106.5 33.5t-37.5 101.5v98q-29 -101 -112 -167t-213 -66q-135 -1 -223 71t-91 185q-4 126 84.5 209.5t231.5 97.5l323 24v107q0 164 -51.5 225.5t-173.5 61.5q-79 0 -133 -42t-53 -112q0 -58 -32 -80.5t-71 -7.5
q-36 16 -42.5 54.5t11.5 68.5q36 70 119.5 106t192.5 41q58 2 108.5 -6.5t99 -32.5t83.5 -62t56 -99t21 -140v-536q0 -39 19.5 -59t45.5 -18t48 23zM422 33q125 3 197.5 103t72.5 239v164q-104 -5 -266 -25q-119 -15 -186 -87.5t-62 -180.5q3 -100 70 -158t174 -55z
M326 1374q43 0 72.5 -27t29.5 -73t-29.5 -73t-72.5 -27t-73 27t-30 73t30 73t73 27zM674 1374q43 0 72.5 -27t29.5 -73t-29.5 -73t-72.5 -27t-72 27t-29 73t29 73t72 27z" />
    <glyph glyph-name="aring" unicode="&#xe5;" horiz-adv-x="970" 
d="M940 59l10 -14q-13 -24 -43.5 -44.5t-70.5 -20.5q-69 0 -106.5 33.5t-37.5 101.5v98q-29 -101 -112 -167t-213 -66q-135 -1 -223 71t-91 185q-4 126 84.5 209.5t231.5 97.5l323 24v107q0 164 -51.5 225.5t-173.5 61.5q-79 0 -133 -42t-53 -112q0 -58 -32 -80.5t-71 -7.5
q-36 16 -42.5 54.5t11.5 68.5q36 70 119.5 106t192.5 41q58 2 108.5 -6.5t99 -32.5t83.5 -62t56 -99t21 -140v-536q0 -39 19.5 -59t45.5 -18t48 23zM422 33q125 3 197.5 103t72.5 239v164q-104 -5 -266 -25q-119 -15 -186 -87.5t-62 -180.5q3 -100 70 -158t174 -55z
M502 1513q90 0 151.5 -54t61.5 -142q0 -90 -61 -143.5t-152 -53.5q-92 0 -153.5 53.5t-61.5 143.5q0 89 61.5 142.5t153.5 53.5zM502 1145q59 0 94 48.5t35 123.5t-35 123.5t-94 48.5q-60 0 -95.5 -48.5t-35.5 -123.5t35.5 -123.5t95.5 -48.5z" />
    <glyph glyph-name="ae" unicode="&#xe6;" horiz-adv-x="1632" 
d="M1581 539h-741v-47q0 -113 40.5 -203t104.5 -142t144 -77t158 -17t148.5 47.5t112.5 106.5l25 -19q-139 -208 -379 -208q-168 0 -298 94t-177 256q-6 -153 -106 -251.5t-246 -98.5q-135 0 -222.5 70.5t-91.5 182.5q-3 127 85.5 211.5t230.5 98.5l325 24v105
q0 164 -52.5 226.5t-174.5 62.5q-79 0 -133 -42t-53 -112q1 -58 -31 -80.5t-72 -7.5q-36 16 -42 54.5t14 68.5q35 70 118 106t191 41q54 2 103 -6.5t95 -27.5t82.5 -54.5t57.5 -85.5q66 85 164 129.5t217 44.5q94 0 167.5 -31t116.5 -77.5t71 -107.5t38 -114.5t10 -105.5
v-14zM1178 961q-142 0 -230.5 -100.5t-105.5 -285.5h612q-1 53 -7.5 99.5t-24.5 101.5t-47 93.5t-79.5 65t-117.5 26.5zM694 375v164q-104 -5 -268 -25q-118 -15 -185.5 -88t-62.5 -180q3 -102 70.5 -159t175.5 -54q124 3 197 103t73 239z" />
    <glyph glyph-name="ccedilla" unicode="&#xe7;" horiz-adv-x="964" 
d="M913 190q-67 -101 -153 -156.5t-207 -56.5l-35 -98q63 4 94 0q62 -10 92 -47.5t25 -85.5q-6 -62 -50 -97.5t-118 -35.5q-41 0 -79 14t-56 35l20 29q36 -29 84 -29q36 0 59 22.5t27 67.5q5 35 -9.5 59.5t-43.5 30.5q-40 8 -74 -6l-12 33l37 111q-198 12 -330.5 151.5
t-132.5 360.5q0 115 39 210t106.5 157t157 96t191.5 34q125 0 216 -43.5t130 -118.5q18 -30 11.5 -68t-42.5 -54q-39 -15 -72 8t-30 82q5 72 -51.5 119t-153.5 47q-161 0 -260.5 -124t-99.5 -345q0 -113 40 -203t103 -142t141.5 -77t155.5 -17t146.5 47.5t111.5 106.5z" />
    <glyph glyph-name="egrave" unicode="&#xe8;" horiz-adv-x="985" 
d="M934 553v-14h-741v-47q0 -113 41 -203t105 -142t144.5 -77t158.5 -17t148.5 47.5t112.5 106.5l25 -17q-143 -213 -381 -213q-136 0 -248 62t-180 181t-68 272q0 230 135 363.5t344 133.5q94 0 167.5 -31t117 -77.5t71.5 -107.5t38 -114.5t10 -105.5zM530 961
q-141 0 -229.5 -101t-103.5 -285h610q-10 386 -277 386zM682 1188q21 -15 10 -35q-11 -21 -35 -12q-92 34 -237 94q-66 27 -37 84q29 56 90 14q145 -95 209 -145z" />
    <glyph glyph-name="eacute" unicode="&#xe9;" horiz-adv-x="985" 
d="M934 553v-14h-741v-47q0 -113 41 -203t105 -142t144.5 -77t158.5 -17t148.5 47.5t112.5 106.5l25 -17q-143 -213 -381 -213q-136 0 -248 62t-180 181t-68 272q0 230 135 363.5t344 133.5q94 0 167.5 -31t117 -77.5t71.5 -107.5t38 -114.5t10 -105.5zM530 961
q-141 0 -229.5 -101t-103.5 -285h610q-10 386 -277 386zM686 1319q26 -58 -39 -84q-122 -52 -237 -94q-24 -9 -35 12q-11 20 10 35q88 66 211 145q60 43 90 -14z" />
    <glyph glyph-name="ecircumflex" unicode="&#xea;" horiz-adv-x="985" 
d="M934 553v-14h-741v-47q0 -113 41 -203t105 -142t144.5 -77t158.5 -17t148.5 47.5t112.5 106.5l25 -17q-143 -213 -381 -213q-136 0 -248 62t-180 181t-68 272q0 230 135 363.5t344 133.5q94 0 167.5 -31t117 -77.5t71.5 -107.5t38 -114.5t10 -105.5zM530 961
q-141 0 -229.5 -101t-103.5 -285h610q-10 386 -277 386zM549 1374l274 -248l-16 -24l-295 176l-293 -176l-16 24l274 248h72z" />
    <glyph glyph-name="edieresis" unicode="&#xeb;" horiz-adv-x="985" 
d="M934 553v-14h-741v-47q0 -113 41 -203t105 -142t144.5 -77t158.5 -17t148.5 47.5t112.5 106.5l25 -17q-143 -213 -381 -213q-136 0 -248 62t-180 181t-68 272q0 230 135 363.5t344 133.5q94 0 167.5 -31t117 -77.5t71.5 -107.5t38 -114.5t10 -105.5zM530 961
q-141 0 -229.5 -101t-103.5 -285h610q-10 386 -277 386zM358 1374q43 0 73 -27t30 -73t-30 -73t-73 -27t-72.5 27t-29.5 73t29.5 73t72.5 27zM707 1374q43 0 72.5 -27t29.5 -73t-29.5 -73t-72.5 -27t-72 27t-29 73t29 73t72 27z" />
    <glyph glyph-name="igrave" unicode="&#xec;" horiz-adv-x="450" 
d="M399 25v-25h-327v25q55 4 75.5 35t20.5 94v616q0 63 -20.5 94t-75.5 35v25l213 65h16v-835q0 -63 21 -94t77 -35zM362 1188q22 -16 11 -35q-11 -21 -35 -12q-100 37 -238 94q-66 27 -37 84t91 14q139 -91 208 -145z" />
    <glyph glyph-name="iacute" unicode="&#xed;" horiz-adv-x="450" 
d="M399 25v-25h-327v25q55 4 75.5 35t20.5 94v616q0 63 -20.5 94t-75.5 35v25l213 65h16v-835q0 -63 21 -94t77 -35zM348 1319q26 -58 -39 -84q-122 -52 -237 -94q-24 -9 -35 12q-11 20 10 35q88 66 211 145q60 43 90 -14z" />
    <glyph glyph-name="icircumflex" unicode="&#xee;" horiz-adv-x="450" 
d="M399 25v-25h-327v25q55 4 75.5 35t20.5 94v616q0 63 -20.5 94t-75.5 35v25l213 65h16v-835q0 -63 21 -94t77 -35zM252 1395l274 -248l-16 -25l-295 176l-293 -176l-16 25l274 248h72z" />
    <glyph glyph-name="idieresis" unicode="&#xef;" horiz-adv-x="450" 
d="M399 25v-25h-327v25q55 4 75.5 35t20.5 94v616q0 63 -20.5 94t-75.5 35v25l213 65h16v-835q0 -63 21 -94t77 -35zM41 1374q43 0 72.5 -27t29.5 -73t-29.5 -73t-72.5 -27t-72.5 27t-29.5 73t29.5 73t72.5 27zM389 1374q43 0 73 -27t30 -73t-30 -73t-73 -27t-71.5 27
t-28.5 73t28.5 73t71.5 27z" />
    <glyph glyph-name="eth" unicode="&#xf0;" horiz-adv-x="1177" 
d="M797 1233q127 -124 196.5 -298t59.5 -390q-9 -247 -150.5 -406t-349.5 -159q-201 0 -337 128.5t-142 337.5q-4 208 133.5 334t341.5 121q116 -2 214 -58.5t165 -160.5q-16 306 -199 508l-190 -117l-21 33l184 113q-91 91 -198.5 141t-200.5 57l4 37q119 -5 239.5 -55
t221.5 -139l168 102l20 -33zM553 14q155 0 262 119.5t107 312.5q0 191 -106 301.5t-263 110.5q-155 0 -250.5 -109t-95.5 -303q0 -196 96.5 -314t249.5 -118z" />
    <glyph glyph-name="ntilde" unicode="&#xf1;" 
d="M1098 25v-25h-328v25q55 4 75.5 35t20.5 94v421q0 77 -13 140.5t-42 119t-85 87t-134 30.5q-112 0 -200.5 -88.5t-88.5 -193.5v-516q0 -63 21 -94t77 -35v-25h-329v25q56 4 77 35t21 94v616q0 63 -21 94t-77 35v25l213 65h18v-180q49 83 131.5 131.5t186.5 48.5
q173 0 276.5 -97.5t103.5 -291.5v-446q0 -63 21 -94t76 -35zM883 1339h35q-9 -89 -53.5 -129.5t-114.5 -40.5q-27 0 -55.5 6.5t-44 12t-52.5 21t-49 20.5q-89 39 -146 39q-73 0 -118 -80h-35q10 91 61 134.5t125 43.5q42 0 80.5 -12t97.5 -39q17 -7 53.5 -25t61.5 -26.5
t51 -8.5q39 0 66 21.5t37 62.5z" />
    <glyph glyph-name="ograve" unicode="&#xf2;" horiz-adv-x="1099" 
d="M535 989q136 0 247.5 -60t178.5 -176.5t67 -269.5q0 -152 -67 -268t-178.5 -175.5t-247.5 -59.5q-137 0 -248.5 59.5t-178.5 175.5t-67 268q0 153 67 269.5t178.5 176.5t248.5 60zM535 10q157 0 254.5 128t97.5 345q0 218 -97.5 346.5t-254.5 128.5t-255 -128.5
t-98 -346.5q0 -217 98 -345t255 -128zM702 1188q22 -16 11 -35q-11 -21 -35 -12q-100 37 -238 94q-66 27 -37 84t91 14q139 -91 208 -145z" />
    <glyph glyph-name="oacute" unicode="&#xf3;" horiz-adv-x="1099" 
d="M535 989q136 0 247.5 -60t178.5 -176.5t67 -269.5q0 -152 -67 -268t-178.5 -175.5t-247.5 -59.5q-137 0 -248.5 59.5t-178.5 175.5t-67 268q0 153 67 269.5t178.5 176.5t248.5 60zM535 10q157 0 254.5 128t97.5 345q0 218 -97.5 346.5t-254.5 128.5t-255 -128.5
t-98 -346.5q0 -217 98 -345t255 -128zM686 1319q26 -58 -39 -84q-122 -52 -237 -94q-24 -9 -35 12q-11 20 10 35q88 66 211 145q60 43 90 -14z" />
    <glyph glyph-name="ocircumflex" unicode="&#xf4;" horiz-adv-x="1099" 
d="M535 989q136 0 247.5 -60t178.5 -176.5t67 -269.5q0 -152 -67 -268t-178.5 -175.5t-247.5 -59.5q-137 0 -248.5 59.5t-178.5 175.5t-67 268q0 153 67 269.5t178.5 176.5t248.5 60zM535 10q157 0 254.5 128t97.5 345q0 218 -97.5 346.5t-254.5 128.5t-255 -128.5
t-98 -346.5q0 -217 98 -345t255 -128zM569 1395l275 -248l-17 -25l-295 176l-292 -176l-17 25l275 248h71z" />
    <glyph glyph-name="otilde" unicode="&#xf5;" horiz-adv-x="1099" 
d="M535 989q136 0 247.5 -60t178.5 -176.5t67 -269.5q0 -152 -67 -268t-178.5 -175.5t-247.5 -59.5q-137 0 -248.5 59.5t-178.5 175.5t-67 268q0 153 67 269.5t178.5 176.5t248.5 60zM535 10q157 0 254.5 128t97.5 345q0 218 -97.5 346.5t-254.5 128.5t-255 -128.5
t-98 -346.5q0 -217 98 -345t255 -128zM834 1319h34q-9 -89 -53.5 -129.5t-114.5 -40.5q-27 0 -56 6.5t-43 11t-52.5 21t-48.5 20.5q-89 39 -146 39q-73 0 -118 -80h-35q10 91 61.5 135t124.5 44q42 0 79.5 -12t98.5 -40q16 -7 53 -25t62 -26t51 -8q39 0 66 21.5t37 62.5z
" />
    <glyph glyph-name="odieresis" unicode="&#xf6;" horiz-adv-x="1099" 
d="M535 989q136 0 247.5 -60t178.5 -176.5t67 -269.5q0 -152 -67 -268t-178.5 -175.5t-247.5 -59.5q-137 0 -248.5 59.5t-178.5 175.5t-67 268q0 153 67 269.5t178.5 176.5t248.5 60zM535 10q157 0 254.5 128t97.5 345q0 218 -97.5 346.5t-254.5 128.5t-255 -128.5
t-98 -346.5q0 -217 98 -345t255 -128zM360 1374q43 0 73 -27t30 -73t-30 -73t-73 -27t-72.5 27t-29.5 73t29.5 73t72.5 27zM709 1374q43 0 72.5 -27t29.5 -73t-29.5 -73t-72.5 -27t-72 27t-29 73t29 73t72 27z" />
    <glyph glyph-name="divide" unicode="&#xf7;" horiz-adv-x="894" 
d="M102 682h691v-45h-691v45zM446 870q-43 0 -71.5 26.5t-28.5 72.5t28.5 73t71.5 27t73 -27t30 -73t-30 -72.5t-73 -26.5zM446 449q43 0 73 -27.5t30 -73.5t-30 -73t-73 -27t-71.5 27t-28.5 73t28.5 73.5t71.5 27.5z" />
    <glyph glyph-name="oslash" unicode="&#xf8;" horiz-adv-x="1099" 
d="M1036 958l-129 -129q121 -137 121 -346q0 -153 -67 -269t-178 -175t-248 -59q-210 0 -347 131l-127 -127l-26 26l127 129q-121 137 -121 344q0 153 67.5 269.5t179 176.5t247.5 60q212 0 346 -131l127 127zM182 483q0 -156 54 -270l579 580q-46 80 -118 122.5t-162 42.5
q-157 0 -255 -128.5t-98 -346.5zM887 483q0 161 -53 273l-580 -580q48 -80 120 -123t161 -43q158 0 255 127.5t97 345.5z" />
    <glyph glyph-name="ugrave" unicode="&#xf9;" horiz-adv-x="1128" 
d="M958 154q0 -64 21.5 -94.5t77.5 -34.5v-25h-232v160q-101 -180 -303 -180q-175 0 -284 98t-109 291v401q0 63 -21 94t-77 35v25l213 65h18v-608q0 -76 15 -139.5t47.5 -115.5t90.5 -81.5t136 -28.5q110 0 192 88.5t82 194.5v471q0 63 -20.5 94t-75.5 35v25l213 65h16
v-835zM713 1188q21 -15 10 -35q-11 -21 -35 -12q-92 34 -237 94q-66 27 -37 84q29 56 90 14q145 -95 209 -145z" />
    <glyph glyph-name="uacute" unicode="&#xfa;" horiz-adv-x="1128" 
d="M958 154q0 -64 21.5 -94.5t77.5 -34.5v-25h-232v160q-101 -180 -303 -180q-175 0 -284 98t-109 291v401q0 63 -21 94t-77 35v25l213 65h18v-608q0 -76 15 -139.5t47.5 -115.5t90.5 -81.5t136 -28.5q110 0 192 88.5t82 194.5v471q0 63 -20.5 94t-75.5 35v25l213 65h16
v-835zM676 1319q26 -58 -39 -84q-116 -49 -238 -94q-24 -9 -34 12q-11 20 10 35q88 66 211 145q60 43 90 -14z" />
    <glyph glyph-name="ucircumflex" unicode="&#xfb;" horiz-adv-x="1128" 
d="M958 154q0 -64 21.5 -94.5t77.5 -34.5v-25h-232v160q-101 -180 -303 -180q-175 0 -284 98t-109 291v401q0 63 -21 94t-77 35v25l213 65h18v-608q0 -76 15 -139.5t47.5 -115.5t90.5 -81.5t136 -28.5q110 0 192 88.5t82 194.5v471q0 63 -20.5 94t-75.5 35v25l213 65h16
v-835zM580 1395l274 -248l-16 -25l-295 176l-293 -176l-17 25l275 248h72z" />
    <glyph glyph-name="udieresis" unicode="&#xfc;" horiz-adv-x="1128" 
d="M958 154q0 -64 21.5 -94.5t77.5 -34.5v-25h-232v160q-101 -180 -303 -180q-175 0 -284 98t-109 291v401q0 63 -21 94t-77 35v25l213 65h18v-608q0 -76 15 -139.5t47.5 -115.5t90.5 -81.5t136 -28.5q110 0 192 88.5t82 194.5v471q0 63 -20.5 94t-75.5 35v25l213 65h16
v-835zM369 1374q43 0 72.5 -27t29.5 -73t-29.5 -73t-72.5 -27t-73 27t-30 73t30 73t73 27zM717 1374q43 0 72.5 -27t29.5 -73t-29.5 -73t-72.5 -27t-72 27t-29 73t29 73t72 27z" />
    <glyph glyph-name="yacute" unicode="&#xfd;" horiz-adv-x="1042" 
d="M819 969h182v-25q-65 -5 -96 -86l-344 -858q-102 -233 -177.5 -328.5t-176.5 -117.5q-41 -10 -91 -2t-81 34q-30 25 -34 64.5t28 68.5q36 28 70.5 14.5t45.5 -50.5q13 -39 38 -57.5t75 -4.5q59 16 120 100.5t142 278.5l-375 856q-37 82 -112 88v25h293v-25
q-38 -3 -49.5 -30.5t6.5 -65.5l297 -696l282 702q34 87 -43 90v25zM694 1319q26 -58 -39 -84q-122 -52 -237 -94q-24 -9 -35 12q-11 20 10 35q88 66 211 145q60 43 90 -14z" />
    <glyph glyph-name="thorn" unicode="&#xfe;" horiz-adv-x="1155" 
d="M621 989q196 0 324 -139.5t128 -366.5q0 -226 -128 -364.5t-324 -138.5q-110 0 -197.5 54t-140.5 154v-499q0 -63 20.5 -93t75.5 -36v-25h-328v25q55 6 75.5 36t20.5 93v1591q0 63 -20.5 93t-75.5 34v27l213 65h19v-721q53 101 140.5 156t197.5 55zM621 10
q146 0 228.5 129t82.5 344q0 217 -82.5 346t-228.5 129q-150 0 -244 -128t-94 -347q0 -218 94 -345.5t244 -127.5z" />
    <glyph glyph-name="ydieresis" unicode="&#xff;" horiz-adv-x="1042" 
d="M819 969h182v-25q-65 -5 -96 -86l-344 -858q-102 -233 -177.5 -328.5t-176.5 -117.5q-41 -10 -91 -2t-81 34q-30 25 -34 64.5t28 68.5q36 28 70.5 14.5t45.5 -50.5q13 -39 38 -57.5t75 -4.5q59 16 120 100.5t142 278.5l-375 856q-37 82 -112 88v25h293v-25
q-38 -3 -49.5 -30.5t6.5 -65.5l297 -696l282 702q34 87 -43 90v25zM408 1374q43 0 72.5 -27t29.5 -73t-29.5 -73t-72.5 -27t-73 27t-30 73t30 73t73 27zM756 1374q43 0 72.5 -27t29.5 -73t-29.5 -73t-72.5 -27t-72 27t-29 73t29 73t72 27z" />
    <glyph glyph-name="Amacron" unicode="&#x100;" horiz-adv-x="1452" 
d="M1262 154q50 -121 149 -129v-25h-371v25q58 5 81.5 39.5t0.5 89.5l-141 333h-625l-129 -333q-44 -119 82 -129v-25h-268v25q55 4 89 37.5t56 91.5l422 1106q23 65 6.5 103t-65.5 44v27h178zM371 526h594l-310 742h-2zM369 1704h610v-39h-610v39z" />
    <glyph glyph-name="amacron" unicode="&#x101;" horiz-adv-x="970" 
d="M940 59l10 -14q-13 -24 -43.5 -44.5t-70.5 -20.5q-69 0 -106.5 33.5t-37.5 101.5v98q-29 -101 -112 -167t-213 -66q-135 -1 -223 71t-91 185q-4 126 84.5 209.5t231.5 97.5l323 24v107q0 164 -51.5 225.5t-173.5 61.5q-79 0 -133 -42t-53 -112q0 -58 -32 -80.5t-71 -7.5
q-36 16 -42.5 54.5t11.5 68.5q36 70 119.5 106t192.5 41q58 2 108.5 -6.5t99 -32.5t83.5 -62t56 -99t21 -140v-536q0 -39 19.5 -59t45.5 -18t48 23zM422 33q125 3 197.5 103t72.5 239v164q-104 -5 -266 -25q-119 -15 -186 -87.5t-62 -180.5q3 -100 70 -158t174 -55z
M174 1274h610v-39h-610v39z" />
    <glyph glyph-name="Abreve" unicode="&#x102;" horiz-adv-x="1452" 
d="M1262 154q50 -121 149 -129v-25h-371v25q58 5 81.5 39.5t0.5 89.5l-141 333h-625l-129 -333q-44 -119 82 -129v-25h-268v25q55 4 89 37.5t56 91.5l422 1106q23 65 6.5 103t-65.5 44v27h178zM371 526h594l-310 742h-2zM895 1796l31 -8q-13 -89 -80.5 -151t-171.5 -62
q-105 0 -173 62.5t-79 150.5l31 8q51 -131 221 -131q167 0 221 131z" />
    <glyph glyph-name="abreve" unicode="&#x103;" horiz-adv-x="970" 
d="M940 59l10 -14q-13 -24 -43.5 -44.5t-70.5 -20.5q-69 0 -106.5 33.5t-37.5 101.5v98q-29 -101 -112 -167t-213 -66q-135 -1 -223 71t-91 185q-4 126 84.5 209.5t231.5 97.5l323 24v107q0 164 -51.5 225.5t-173.5 61.5q-79 0 -133 -42t-53 -112q0 -58 -32 -80.5t-71 -7.5
q-36 16 -42.5 54.5t11.5 68.5q36 70 119.5 106t192.5 41q58 2 108.5 -6.5t99 -32.5t83.5 -62t56 -99t21 -140v-536q0 -39 19.5 -59t45.5 -18t48 23zM422 33q125 3 197.5 103t72.5 239v164q-104 -5 -266 -25q-119 -15 -186 -87.5t-62 -180.5q3 -100 70 -158t174 -55z
M721 1366l31 -8q-13 -89 -80.5 -151t-171.5 -62q-105 0 -173 62.5t-79 150.5l31 8q51 -131 221 -131q167 0 221 131z" />
    <glyph glyph-name="Aogonek" unicode="&#x104;" horiz-adv-x="1449" 
d="M1272 0q-115 -92 -127 -197q-5 -42 13 -70t46.5 -36.5t60.5 -5t54 19.5l18 -22q-19 -31 -58.5 -53.5t-88.5 -22.5q-84 0 -124 53.5t-17 138.5q11 38 43.5 79t63.5 67t65 49h-183v25q58 5 81.5 39.5t0.5 89.5l-139 333h-627l-127 -333q-47 -119 82 -129v-25h-268v25
q95 7 143 129l422 1106q23 66 6.5 103.5t-65.5 45.5v25h178l537 -1280q50 -121 147 -129v-25h-137zM369 526h596l-312 742h-2z" />
    <glyph glyph-name="aogonek" unicode="&#x105;" horiz-adv-x="970" 
d="M737 -197q-5 -42 13.5 -70t47.5 -36.5t61 -5t54 19.5l17 -22q-19 -31 -59 -53.5t-89 -22.5q-85 0 -126.5 54.5t-12.5 137.5q28 86 148 179q-99 19 -99 131v98q-29 -101 -112.5 -167t-214.5 -66q-134 -1 -221.5 71t-90.5 185q-4 126 84.5 209.5t231.5 97.5l323 24v107
q0 164 -52 225.5t-175 61.5q-79 0 -132.5 -42t-53.5 -112q1 -58 -30.5 -80.5t-70.5 -7.5q-37 16 -43 55t12 68q35 70 119 106t193 41q57 2 107.5 -6.5t99 -32.5t83 -62t55.5 -99t21 -140v-536q0 -39 20 -59t46.5 -18t48.5 23l10 -14q-13 -23 -42 -43.5t-68 -21.5
q-93 -89 -103 -177zM692 375v164q-104 -5 -266 -25q-119 -15 -186 -87.5t-64 -180.5q4 -101 71 -158.5t175 -54.5q125 3 197.5 103t72.5 239z" />
    <glyph glyph-name="Cacute" unicode="&#x106;" horiz-adv-x="1413" 
d="M1317 387h24l-41 -256q-187 -151 -485 -151q-154 0 -293 55t-240.5 151t-161 234t-59.5 297q0 212 94.5 380.5t260.5 262.5t372 94q141 0 278.5 -40.5t233.5 -113.5v-256h-24q-44 184 -176.5 278.5t-311.5 94.5q-119 0 -225 -48t-185.5 -135.5t-126 -221.5t-46.5 -295
t50.5 -296t135.5 -223t194.5 -136t229.5 -48q178 0 309.5 92.5t192.5 280.5zM915 1749q27 -59 -38 -84q-116 -49 -238 -94q-24 -9 -35 12q-11 20 10 35q88 66 211 145q60 43 90 -14z" />
    <glyph glyph-name="cacute" unicode="&#x107;" horiz-adv-x="964" 
d="M889 207l24 -17q-66 -101 -153.5 -155.5t-212.5 -54.5q-136 0 -248 61.5t-180 179.5t-68 271q0 115 39 210t106.5 157t157 96t191.5 34q126 0 216.5 -43.5t127.5 -118.5q20 -30 13.5 -68t-42.5 -54q-41 -15 -73 8t-29 82q3 72 -53 119t-154 47q-159 0 -258.5 -124
t-99.5 -345q0 -113 40 -203t102.5 -142t141 -77t155 -17t146 47.5t111.5 106.5zM676 1319q26 -58 -39 -84q-116 -49 -238 -94q-24 -9 -34 12q-11 20 10 35q88 66 211 145q60 43 90 -14z" />
    <glyph glyph-name="Ccircumflex" unicode="&#x108;" horiz-adv-x="1413" 
d="M1317 387h24l-41 -256q-187 -151 -485 -151q-154 0 -293 55t-240.5 151t-161 234t-59.5 297q0 212 94.5 380.5t260.5 262.5t372 94q141 0 278.5 -40.5t233.5 -113.5v-256h-24q-44 184 -176.5 278.5t-311.5 94.5q-119 0 -225 -48t-185.5 -135.5t-126 -221.5t-46.5 -295
t50.5 -296t135.5 -223t194.5 -136t229.5 -48q178 0 309.5 92.5t192.5 280.5zM799 1825l274 -248l-16 -25l-295 177l-293 -177l-16 25l274 248h72z" />
    <glyph glyph-name="ccircumflex" unicode="&#x109;" horiz-adv-x="964" 
d="M889 207l24 -17q-66 -101 -153.5 -155.5t-212.5 -54.5q-136 0 -248 61.5t-180 179.5t-68 271q0 115 39 210t106.5 157t157 96t191.5 34q126 0 216.5 -43.5t127.5 -118.5q20 -30 13.5 -68t-42.5 -54q-41 -15 -73 8t-29 82q3 72 -53 119t-154 47q-159 0 -258.5 -124
t-99.5 -345q0 -113 40 -203t102.5 -142t141 -77t155 -17t146 47.5t111.5 106.5zM559 1395l275 -248l-17 -25l-295 176l-293 -176l-16 25l274 248h72z" />
    <glyph glyph-name="Cdotaccent" unicode="&#x10a;" horiz-adv-x="1413" 
d="M1317 387h24l-41 -256q-187 -151 -485 -151q-154 0 -293 55t-240.5 151t-161 234t-59.5 297q0 212 94.5 380.5t260.5 262.5t372 94q141 0 278.5 -40.5t233.5 -113.5v-256h-24q-44 184 -176.5 278.5t-311.5 94.5q-119 0 -225 -48t-185.5 -135.5t-126 -221.5t-46.5 -295
t50.5 -296t135.5 -223t194.5 -136t229.5 -48q178 0 309.5 92.5t192.5 280.5zM762 1804q43 0 72.5 -27t29.5 -73t-29.5 -73t-72.5 -27t-71.5 27t-28.5 73t28.5 73t71.5 27z" />
    <glyph glyph-name="cdotaccent" unicode="&#x10b;" horiz-adv-x="964" 
d="M889 207l24 -17q-66 -101 -153.5 -155.5t-212.5 -54.5q-136 0 -248 61.5t-180 179.5t-68 271q0 115 39 210t106.5 157t157 96t191.5 34q126 0 216.5 -43.5t127.5 -118.5q20 -30 13.5 -68t-42.5 -54q-41 -15 -73 8t-29 82q3 72 -53 119t-154 47q-159 0 -258.5 -124
t-99.5 -345q0 -113 40 -203t102.5 -142t141 -77t155 -17t146 47.5t111.5 106.5zM522 1374q43 0 73 -27t30 -73t-30 -73t-73 -27t-71.5 27t-28.5 73t28.5 73t71.5 27z" />
    <glyph glyph-name="Ccaron" unicode="&#x10c;" horiz-adv-x="1413" 
d="M1317 387h24l-41 -256q-187 -151 -485 -151q-154 0 -293 55t-240.5 151t-161 234t-59.5 297q0 212 94.5 380.5t260.5 262.5t372 94q141 0 278.5 -40.5t233.5 -113.5v-256h-24q-44 184 -176.5 278.5t-311.5 94.5q-119 0 -225 -48t-185.5 -135.5t-126 -221.5t-46.5 -295
t50.5 -296t135.5 -223t194.5 -136t229.5 -48q178 0 309.5 92.5t192.5 280.5zM1055 1825l18 -25l-276 -248h-70l-276 248l18 25l293 -176z" />
    <glyph glyph-name="ccaron" unicode="&#x10d;" horiz-adv-x="964" 
d="M889 207l24 -17q-66 -101 -153.5 -155.5t-212.5 -54.5q-136 0 -248 61.5t-180 179.5t-68 271q0 115 39 210t106.5 157t157 96t191.5 34q126 0 216.5 -43.5t127.5 -118.5q20 -30 13.5 -68t-42.5 -54q-41 -15 -73 8t-29 82q3 72 -53 119t-154 47q-159 0 -258.5 -124
t-99.5 -345q0 -113 40 -203t102.5 -142t141 -77t155 -17t146 47.5t111.5 106.5zM815 1395l19 -25l-277 -248h-70l-276 248l18 25l293 -176z" />
    <glyph glyph-name="Dcaron" unicode="&#x10e;" horiz-adv-x="1452" 
d="M598 1434q230 0 410 -88.5t281.5 -252t101.5 -376.5q0 -214 -101.5 -377.5t-281.5 -251.5t-410 -88h-496v25q56 4 77.5 34.5t21.5 94.5v1126q0 63 -21.5 93t-77.5 34v27h496zM586 37q314 0 489.5 172.5t175.5 507.5t-175.5 506.5t-489.5 171.5h-250v-1358h250zM997 1825
l19 -25l-277 -248h-69l-277 248l19 25l293 -176z" />
    <glyph glyph-name="dcaron" unicode="&#x10f;" horiz-adv-x="1292" 
d="M1108 37l6 -19q-15 -13 -49 -25.5t-74 -12.5q-65 0 -107 32t-42 94v82q-53 -100 -140.5 -154t-197.5 -54q-196 0 -324.5 138.5t-128.5 364.5q0 227 128 366.5t325 139.5q110 0 197.5 -55t140.5 -156v502q0 63 -21 93t-76 36v25l213 65h19v-1386q0 -56 38.5 -74t92.5 -2z
M504 10q150 0 244 127.5t94 345.5q0 219 -94 347t-244 128q-146 0 -228.5 -129t-82.5 -346q0 -215 82.5 -344t228.5 -129zM1239 1518q42 0 71.5 -31t30.5 -82q1 -56 -16.5 -111.5t-46.5 -99.5t-58.5 -76.5t-58.5 -54.5l-26 29q110 115 120 229h-16q-42 0 -71 25.5t-29 70.5
q0 46 29.5 73.5t70.5 27.5z" />
    <glyph glyph-name="Dcroat" unicode="&#x110;" horiz-adv-x="1452" 
d="M598 1434q230 0 410 -88.5t281.5 -252t101.5 -376.5t-101.5 -376.5t-281.5 -252t-410 -88.5h-496v25q56 4 77.5 35t21.5 94v557h-99v39h99v530q0 63 -21.5 93t-77.5 36v25h496zM586 37q314 0 489.5 172.5t175.5 507.5t-175.5 506.5t-489.5 171.5h-248v-645h375v-39h-375
v-674h248z" />
    <glyph glyph-name="dcroat" unicode="&#x111;" horiz-adv-x="1134" 
d="M1112 1163v-39h-135v-1011q0 -56 38.5 -74.5t90.5 -1.5l6 -19q-12 -12 -46.5 -25t-76.5 -13q-65 0 -106 32t-41 94v82q-53 -100 -140.5 -154t-197.5 -54q-196 0 -324.5 138.5t-128.5 364.5q0 227 128 366.5t325 139.5q110 0 197.5 -55.5t140.5 -155.5v346h-338v39h338
v117q0 63 -21 93t-76 34v27l213 65h19v-336h135zM504 10q150 0 244 127.5t94 345.5q0 219 -94 347t-244 128q-146 0 -230 -129.5t-84 -345.5q0 -215 84 -344t230 -129z" />
    <glyph glyph-name="Emacron" unicode="&#x112;" horiz-adv-x="1202" 
d="M1096 252h24l-39 -252h-979v25q55 4 76 34.5t21 94.5v1126q0 63 -21 93t-76 34v27h926l39 -252h-25q-14 39 -31 70t-47.5 67t-77.5 56t-106 20h-444v-647h319q99 0 135 31.5t48 103.5h24v-308h-24q-6 36 -15 58.5t-28.5 41.5t-53.5 27.5t-86 8.5h-319v-674h498
q59 0 106 20.5t77.5 57t47 67.5t31.5 70zM305 1704h610v-39h-610v39z" />
    <glyph glyph-name="emacron" unicode="&#x113;" horiz-adv-x="985" 
d="M934 553v-14h-741v-47q0 -113 41 -203t105 -142t144.5 -77t158.5 -17t148.5 47.5t112.5 106.5l25 -17q-143 -213 -381 -213q-136 0 -248 62t-180 181t-68 272q0 230 135 363.5t344 133.5q94 0 167.5 -31t117 -77.5t71.5 -107.5t38 -114.5t10 -105.5zM530 961
q-141 0 -229.5 -101t-103.5 -285h610q-10 386 -277 386zM227 1274h611v-39h-611v39z" />
    <glyph glyph-name="Ebreve" unicode="&#x114;" horiz-adv-x="1202" 
d="M1096 252h24l-39 -252h-979v25q55 4 76 34.5t21 94.5v1126q0 63 -21 93t-76 34v27h926l39 -252h-25q-14 39 -31 70t-47.5 67t-77.5 56t-106 20h-444v-647h319q99 0 135 31.5t48 103.5h24v-308h-24q-6 36 -15 58.5t-28.5 41.5t-53.5 27.5t-86 8.5h-319v-674h498
q59 0 106 20.5t77.5 57t47 67.5t31.5 70zM831 1796l31 -8q-13 -89 -80.5 -151t-171.5 -62q-105 0 -173 62.5t-79 150.5l31 8q51 -131 221 -131q167 0 221 131z" />
    <glyph glyph-name="ebreve" unicode="&#x115;" horiz-adv-x="985" 
d="M934 553v-14h-741v-47q0 -113 41 -203t105 -142t144.5 -77t158.5 -17t148.5 47.5t112.5 106.5l25 -17q-143 -213 -381 -213q-136 0 -248 62t-180 181t-68 272q0 230 135 363.5t344 133.5q94 0 167.5 -31t117 -77.5t71.5 -107.5t38 -114.5t10 -105.5zM530 961
q-141 0 -229.5 -101t-103.5 -285h610q-10 386 -277 386zM754 1366l30 -8q-13 -89 -80.5 -151t-171.5 -62q-105 0 -172.5 62t-78.5 151l30 8q51 -131 221 -131q168 0 222 131z" />
    <glyph glyph-name="Edotaccent" unicode="&#x116;" horiz-adv-x="1202" 
d="M1096 252h24l-39 -252h-979v25q55 4 76 34.5t21 94.5v1126q0 63 -21 93t-76 34v27h926l39 -252h-25q-14 39 -31 70t-47.5 67t-77.5 56t-106 20h-444v-647h319q99 0 135 31.5t48 103.5h24v-308h-24q-6 36 -15 58.5t-28.5 41.5t-53.5 27.5t-86 8.5h-319v-674h498
q59 0 106 20.5t77.5 57t47 67.5t31.5 70zM610 1804q43 0 73 -27t30 -73t-30 -73t-73 -27t-71.5 27t-28.5 73t28.5 73t71.5 27z" />
    <glyph glyph-name="edotaccent" unicode="&#x117;" horiz-adv-x="985" 
d="M934 553v-14h-741v-47q0 -113 41 -203t105 -142t144.5 -77t158.5 -17t148.5 47.5t112.5 106.5l25 -17q-143 -213 -381 -213q-136 0 -248 62t-180 181t-68 272q0 230 135 363.5t344 133.5q94 0 167.5 -31t117 -77.5t71.5 -107.5t38 -114.5t10 -105.5zM530 961
q-141 0 -229.5 -101t-103.5 -285h610q-10 386 -277 386zM532 1374q43 0 73 -27t30 -73t-30 -73t-73 -27t-71.5 27t-28.5 73t28.5 73t71.5 27z" />
    <glyph glyph-name="Eogonek" unicode="&#x118;" horiz-adv-x="1202" 
d="M981 0q-113 -91 -125 -197q-5 -42 13 -70t46.5 -36.5t60.5 -5t54 19.5l19 -22q-21 -31 -61 -53.5t-89 -22.5q-83 0 -124.5 54.5t-14.5 137.5q18 54 68.5 106.5t101.5 88.5h-828v25q55 4 76 35t21 94v1126q0 63 -21 93t-76 36v25h926l39 -252h-25q-14 39 -31 70t-47.5 67
t-77.5 56t-106 20h-444v-645h319q68 0 107 16.5t53.5 42.5t22.5 74h24v-305h-24q-8 48 -22.5 74t-53.5 42.5t-107 16.5h-319v-674h498q59 0 106 20.5t77.5 57t47 67.5t31.5 70h24l-39 -252h-100z" />
    <glyph glyph-name="eogonek" unicode="&#x119;" horiz-adv-x="985" 
d="M934 539h-739q-2 -16 -2 -47q0 -113 41 -203t105 -142t144.5 -77t158.5 -17t148.5 47.5t112.5 106.5l25 -17q-126 -190 -338 -210q-95 -83 -105 -177q-5 -42 13.5 -70t47.5 -36.5t61.5 -5t54.5 19.5l16 -22q-19 -31 -59 -53.5t-89 -22.5q-85 0 -126.5 54.5t-12.5 137.5
q25 85 141 175q-99 2 -186.5 39.5t-153 102.5t-103.5 161t-38 209q0 230 135 363.5t344 133.5q94 0 167.5 -31t117 -77.5t71.5 -107.5t38 -114.5t10 -105.5v-14zM530 961q-141 0 -229.5 -101t-103.5 -285h610q-10 386 -277 386z" />
    <glyph glyph-name="Ecaron" unicode="&#x11a;" horiz-adv-x="1202" 
d="M1096 252h24l-39 -252h-979v25q55 4 76 34.5t21 94.5v1126q0 63 -21 93t-76 34v27h926l39 -252h-25q-14 39 -31 70t-47.5 67t-77.5 56t-106 20h-444v-647h319q99 0 135 31.5t48 103.5h24v-308h-24q-6 36 -15 58.5t-28.5 41.5t-53.5 27.5t-86 8.5h-319v-674h498
q59 0 106 20.5t77.5 57t47 67.5t31.5 70zM903 1825l19 -25l-277 -248h-70l-276 248l18 25l293 -176z" />
    <glyph glyph-name="ecaron" unicode="&#x11b;" horiz-adv-x="985" 
d="M934 553v-14h-741v-47q0 -113 41 -203t105 -142t144.5 -77t158.5 -17t148.5 47.5t112.5 106.5l25 -17q-143 -213 -381 -213q-136 0 -248 62t-180 181t-68 272q0 230 135 363.5t344 133.5q94 0 167.5 -31t117 -77.5t71.5 -107.5t38 -114.5t10 -105.5zM530 961
q-141 0 -229.5 -101t-103.5 -285h610q-10 386 -277 386zM825 1395l19 -25l-277 -248h-69l-277 248l19 25l292 -176z" />
    <glyph glyph-name="Gcircumflex" unicode="&#x11c;" horiz-adv-x="1484" 
d="M1120 580h324v-25q-55 -6 -75.5 -36t-20.5 -93v-274q-92 -83 -239.5 -127.5t-295.5 -44.5q-154 0 -292 55t-239.5 151t-161 234t-59.5 297q0 211 98 380.5t266.5 263t373.5 93.5q141 0 271.5 -40t227.5 -114v-256h-24q-44 186 -170 279.5t-305 93.5q-119 0 -226 -48
t-190 -135.5t-131.5 -221.5t-48.5 -295t50.5 -296t135.5 -223t194.5 -136t229.5 -48q131 0 237 42.5t169 121.5v248q0 63 -21.5 93t-77.5 36v25zM850 1825l274 -248l-16 -25l-295 177l-293 -177l-16 25l274 248h72z" />
    <glyph glyph-name="gcircumflex" unicode="&#x11d;" horiz-adv-x="1159" 
d="M596 135q90 0 162 -7t138 -25t110.5 -47.5t71.5 -76.5t28 -110q2 -83 -32 -156.5t-99 -129.5t-167.5 -89t-229.5 -33q-254 0 -400.5 91.5t-144.5 218.5q1 88 77.5 150.5t213.5 92.5q-108 17 -170 67t-50 142q5 38 31 67t65 46.5t75.5 27.5t76.5 15q-70 44 -109.5 114
t-39.5 160q0 154 108 245t267 91q132 0 227 -59q8 87 55 151q36 49 82 58t70 -27q24 -32 -1.5 -69.5t-78.5 -34.5q-44 3 -71 -24.5t-30 -72.5q123 -95 123 -258q0 -153 -108 -244.5t-268 -91.5q-97 0 -183 39q-215 -22 -233 -104q-16 -70 82 -93.5t352 -23.5zM336 653
q0 -138 67.5 -219.5t174.5 -81.5q108 0 174.5 81.5t66.5 219.5q0 140 -66.5 221.5t-174.5 81.5q-107 0 -174.5 -82t-67.5 -221zM590 -496q67 0 134.5 15.5t134 48t109 94t44.5 143.5q1 33 -8 60.5t-24 47t-39.5 34.5t-48.5 24.5t-58 16t-61.5 9.5t-64 4t-60.5 0.5t-57.5 -1
t-47.5 -0.5q-97 0 -150 6q-233 -52 -233 -239q0 -58 20 -103t56.5 -73t77 -46t94 -26.5t94 -11.5t88.5 -3zM604 1415l275 -248l-17 -24l-295 176l-293 -176l-16 24l274 248h72z" />
    <glyph glyph-name="Gbreve" unicode="&#x11e;" horiz-adv-x="1484" 
d="M1120 580h324v-25q-55 -6 -75.5 -36t-20.5 -93v-274q-92 -83 -239.5 -127.5t-295.5 -44.5q-154 0 -292 55t-239.5 151t-161 234t-59.5 297q0 211 98 380.5t266.5 263t373.5 93.5q141 0 271.5 -40t227.5 -114v-256h-24q-44 186 -170 279.5t-305 93.5q-119 0 -226 -48
t-190 -135.5t-131.5 -221.5t-48.5 -295t50.5 -296t135.5 -223t194.5 -136t229.5 -48q131 0 237 42.5t169 121.5v248q0 63 -21.5 93t-77.5 36v25zM1034 1796l31 -8q-13 -89 -80.5 -151t-171.5 -62q-105 0 -173 62.5t-79 150.5l31 8q51 -131 221 -131q167 0 221 131z" />
    <glyph glyph-name="gbreve" unicode="&#x11f;" horiz-adv-x="1159" 
d="M596 135q90 0 162 -7t138 -25t110.5 -47.5t71.5 -76.5t28 -110q2 -83 -32 -156.5t-99 -129.5t-167.5 -89t-229.5 -33q-254 0 -400.5 91.5t-144.5 218.5q1 88 77.5 150.5t213.5 92.5q-108 17 -170 67t-50 142q5 38 31 67t65 46.5t75.5 27.5t76.5 15q-70 44 -109.5 114
t-39.5 160q0 154 108 245t267 91q132 0 227 -59q8 87 55 151q36 49 82 58t70 -27q24 -32 -1.5 -69.5t-78.5 -34.5q-44 3 -71 -24.5t-30 -72.5q123 -95 123 -258q0 -153 -108 -244.5t-268 -91.5q-97 0 -183 39q-215 -22 -233 -104q-16 -70 82 -93.5t352 -23.5zM336 653
q0 -138 67.5 -219.5t174.5 -81.5q108 0 174.5 81.5t66.5 219.5q0 140 -66.5 221.5t-174.5 81.5q-107 0 -174.5 -82t-67.5 -221zM590 -496q67 0 134.5 15.5t134 48t109 94t44.5 143.5q1 33 -8 60.5t-24 47t-39.5 34.5t-48.5 24.5t-58 16t-61.5 9.5t-64 4t-60.5 0.5t-57.5 -1
t-47.5 -0.5q-97 0 -150 6q-233 -52 -233 -239q0 -58 20 -103t56.5 -73t77 -46t94 -26.5t94 -11.5t88.5 -3zM811 1366l31 -8q-13 -89 -80.5 -151t-171.5 -62q-105 0 -173 62.5t-79 150.5l31 8q51 -131 221 -131q167 0 221 131z" />
    <glyph glyph-name="Gdotaccent" unicode="&#x120;" horiz-adv-x="1484" 
d="M1120 580h324v-25q-55 -6 -75.5 -36t-20.5 -93v-274q-92 -83 -239.5 -127.5t-295.5 -44.5q-154 0 -292 55t-239.5 151t-161 234t-59.5 297q0 211 98 380.5t266.5 263t373.5 93.5q141 0 271.5 -40t227.5 -114v-256h-24q-44 186 -170 279.5t-305 93.5q-119 0 -226 -48
t-190 -135.5t-131.5 -221.5t-48.5 -295t50.5 -296t135.5 -223t194.5 -136t229.5 -48q131 0 237 42.5t169 121.5v248q0 63 -21.5 93t-77.5 36v25zM813 1804q43 0 72.5 -27t29.5 -73t-29.5 -73t-72.5 -27t-71.5 27t-28.5 73t28.5 73t71.5 27z" />
    <glyph glyph-name="gdotaccent" unicode="&#x121;" horiz-adv-x="1159" 
d="M596 135q90 0 162 -7t138 -25t110.5 -47.5t71.5 -76.5t28 -110q2 -83 -32 -156.5t-99 -129.5t-167.5 -89t-229.5 -33q-254 0 -400.5 91.5t-144.5 218.5q1 88 77.5 150.5t213.5 92.5q-108 17 -170 67t-50 142q5 38 31 67t65 46.5t75.5 27.5t76.5 15q-70 44 -109.5 114
t-39.5 160q0 154 108 245t267 91q132 0 227 -59q8 87 55 151q36 49 82 58t70 -27q24 -32 -1.5 -69.5t-78.5 -34.5q-44 3 -71 -24.5t-30 -72.5q123 -95 123 -258q0 -153 -108 -244.5t-268 -91.5q-97 0 -183 39q-215 -22 -233 -104q-16 -70 82 -93.5t352 -23.5zM336 653
q0 -138 67.5 -219.5t174.5 -81.5q108 0 174.5 81.5t66.5 219.5q0 140 -66.5 221.5t-174.5 81.5q-107 0 -174.5 -82t-67.5 -221zM590 -496q67 0 134.5 15.5t134 48t109 94t44.5 143.5q1 33 -8 60.5t-24 47t-39.5 34.5t-48.5 24.5t-58 16t-61.5 9.5t-64 4t-60.5 0.5t-57.5 -1
t-47.5 -0.5q-97 0 -150 6q-233 -52 -233 -239q0 -58 20 -103t56.5 -73t77 -46t94 -26.5t94 -11.5t88.5 -3zM567 1374q43 0 73 -27t30 -73t-30 -73t-73 -27t-71.5 27t-28.5 73t28.5 73t71.5 27z" />
    <glyph glyph-name="Gcommaaccent" unicode="&#x122;" horiz-adv-x="1484" 
d="M1120 580h324v-25q-55 -6 -75.5 -36t-20.5 -93v-274q-92 -83 -239.5 -127.5t-295.5 -44.5q-154 0 -292 55t-239.5 151t-161 234t-59.5 297q0 211 98 380.5t266.5 263t373.5 93.5q141 0 271.5 -40t227.5 -114v-256h-24q-44 186 -170 279.5t-305 93.5q-119 0 -226 -48
t-190 -135.5t-131.5 -221.5t-48.5 -295t50.5 -296t135.5 -223t194.5 -136t229.5 -48q131 0 237 42.5t169 121.5v248q0 63 -21.5 93t-77.5 36v25zM813 -160q42 0 71.5 -31.5t30.5 -82.5q1 -55 -16.5 -111t-46.5 -99.5t-58.5 -76.5t-58.5 -55l-28 30q112 118 122 226h-16
q-43 0 -71.5 27t-28.5 73t28.5 73t71.5 27z" />
    <glyph glyph-name="gcommaaccent" unicode="&#x123;" horiz-adv-x="1159" 
d="M596 135q90 0 162 -7t138 -25t110.5 -47.5t71.5 -76.5t28 -110q2 -83 -32 -156.5t-99 -129.5t-167.5 -89t-229.5 -33q-254 0 -400.5 91.5t-144.5 218.5q1 88 77.5 150.5t213.5 92.5q-108 17 -170 67t-50 142q5 38 31 67t65 46.5t75.5 27.5t76.5 15q-70 44 -109.5 114
t-39.5 160q0 154 108 245t267 91q132 0 227 -59q8 87 55 151q36 49 82 58t70 -27q24 -32 -1.5 -69.5t-78.5 -34.5q-44 3 -71 -24.5t-30 -72.5q123 -95 123 -258q0 -153 -108 -244.5t-268 -91.5q-97 0 -183 39q-215 -22 -233 -104q-16 -70 82 -93.5t352 -23.5zM336 653
q0 -138 67.5 -219.5t174.5 -81.5q108 0 174.5 81.5t66.5 219.5q0 140 -66.5 221.5t-174.5 81.5q-107 0 -174.5 -82t-67.5 -221zM590 -496q67 0 134.5 15.5t134 48t109 94t44.5 143.5q1 33 -8 60.5t-24 47t-39.5 34.5t-48.5 24.5t-58 16t-61.5 9.5t-64 4t-60.5 0.5t-57.5 -1
t-47.5 -0.5q-97 0 -150 6q-233 -52 -233 -239q0 -58 20 -103t56.5 -73t77 -46t94 -26.5t94 -11.5t88.5 -3zM567 1378q43 0 73 -26t30 -70q0 -46 -30 -73t-73 -27q-42 0 -70.5 30.5t-29.5 81.5q-2 73 30 146.5t70 119t78 76.5l29 -28q-110 -118 -123 -230h16z" />
    <glyph glyph-name="Hcircumflex" unicode="&#x124;" horiz-adv-x="1523" 
d="M1421 1407q-55 -4 -75.5 -34t-20.5 -93v-1126q0 -64 20.5 -94.5t75.5 -34.5v-25h-329v25q55 4 75.5 34.5t20.5 94.5v553h-852v-553q0 -64 20.5 -94.5t75.5 -34.5v-25h-330v25q55 4 76 34.5t21 94.5v1126q0 63 -21 93t-76 34v27h330v-27q-55 -4 -75.5 -34t-20.5 -93v-535
h852v535q0 63 -20.5 93t-75.5 34v27h329v-27zM797 1825l274 -248l-16 -25l-295 177l-293 -177l-16 25l274 248h72z" />
    <glyph glyph-name="hcircumflex" unicode="&#x125;" horiz-adv-x="1165" 
d="M1114 25v-25h-328v25q55 4 76 35t21 94v421q0 77 -13 140.5t-43 119t-86 87t-135 30.5q-111 0 -199 -88.5t-88 -193.5v-516q0 -63 21.5 -94t77.5 -35v-25h-330v25q56 4 77 35t21 94v1126q0 63 -21 93t-77 36v25l213 65h18v-690q49 83 131.5 131.5t186.5 48.5
q173 0 277 -97.5t104 -291.5v-446q0 -63 20.5 -94t75.5 -35zM418 1821l274 -248l-16 -25l-295 176l-293 -176l-16 25l274 248h72z" />
    <glyph glyph-name="Hbar" unicode="&#x126;" horiz-adv-x="1523" 
d="M1421 1409q-55 -6 -75.5 -36t-20.5 -93v-203h96v-37h-96v-886q0 -63 20.5 -94t75.5 -35v-25h-329v25q55 4 75.5 35t20.5 94v553h-852v-553q0 -63 21 -94t77 -35v-25h-332v25q55 4 76 35t21 94v886h-97v37h97v203q0 63 -21 93t-76 36v25h332v-25q-56 -6 -77 -36t-21 -93
v-203h852v203q0 63 -20.5 93t-75.5 36v25h329v-25zM1188 745v295h-852v-295h852z" />
    <glyph glyph-name="hbar" unicode="&#x127;" 
d="M1001 152q0 -63 21 -93t76 -34v-25h-328v25q55 4 75.5 34t20.5 93v421q0 61 -7.5 114t-27 103t-49.5 85t-79 56.5t-113 20.5q-111 0 -199 -88.5t-88 -193.5v-518q0 -63 21 -93t77 -34v-25h-329v25q56 4 77 34t21 93v972h-98v39h98v117q0 63 -21 93t-77 34v27l213 65h18
v-336h379v-39h-379v-315q49 83 131.5 131.5t186.5 48.5q173 0 276.5 -97.5t103.5 -291.5v-448z" />
    <glyph glyph-name="Itilde" unicode="&#x128;" horiz-adv-x="536" 
d="M434 1407q-56 -4 -77 -34t-21 -93v-1126q0 -65 21 -95t77 -34v-25h-332v25q56 4 77.5 34.5t21.5 94.5v1126q0 63 -21.5 93t-77.5 34v27h332v-27zM567 1749h35q-9 -89 -53.5 -129.5t-114.5 -40.5q-27 0 -56 6.5t-43 11t-54 21.5t-48 20q-89 39 -145 39q-74 0 -119 -80h-35
q10 91 61.5 135t125.5 44q42 0 79.5 -12t98.5 -40q16 -7 53 -25t62 -26t51 -8q81 0 102 84z" />
    <glyph glyph-name="itilde" unicode="&#x129;" horiz-adv-x="450" 
d="M401 25v-25h-327v25q55 4 75.5 35t20.5 94v616q0 63 -20.5 94t-75.5 35v25l213 65h16v-835q0 -63 21 -94t77 -35zM516 1319h35q-9 -89 -53.5 -129.5t-114.5 -40.5q-27 0 -56 6.5t-43 11t-54 21.5t-48 20q-89 39 -145 39q-74 0 -119 -80h-35q10 91 61.5 135t125.5 44
q42 0 79.5 -12t98.5 -40q16 -7 53 -25t62 -26t51 -8q81 0 102 84z" />
    <glyph glyph-name="Imacron" unicode="&#x12a;" horiz-adv-x="536" 
d="M434 1407q-56 -4 -77 -34t-21 -93v-1126q0 -65 21 -95t77 -34v-25h-332v25q56 4 77.5 34.5t21.5 94.5v1126q0 63 -21.5 93t-77.5 34v27h332v-27zM-37 1704h610v-39h-610v39z" />
    <glyph glyph-name="imacron" unicode="&#x12b;" horiz-adv-x="450" 
d="M399 25v-25h-327v25q55 4 75.5 35t20.5 94v616q0 63 -20.5 94t-75.5 35v25l213 65h16v-835q0 -63 21 -94t77 -35zM-90 1274h610v-39h-610v39z" />
    <glyph glyph-name="Ibreve" unicode="&#x12c;" horiz-adv-x="536" 
d="M434 1407q-56 -4 -77 -34t-21 -93v-1126q0 -65 21 -95t77 -34v-25h-332v25q56 4 77.5 34.5t21.5 94.5v1126q0 63 -21.5 93t-77.5 34v27h332v-27zM489 1796l31 -8q-13 -89 -80.5 -151t-171.5 -62q-105 0 -173 62.5t-79 150.5l31 8q51 -131 221 -131q167 0 221 131z" />
    <glyph glyph-name="ibreve" unicode="&#x12d;" horiz-adv-x="450" 
d="M399 25v-25h-327v25q55 4 75.5 35t20.5 94v616q0 63 -20.5 94t-75.5 35v25l213 65h16v-835q0 -63 21 -94t77 -35zM436 1366l31 -8q-13 -89 -80.5 -151t-171.5 -62q-105 0 -173 62.5t-79 150.5l31 8q51 -131 221 -131q167 0 221 131z" />
    <glyph glyph-name="Iogonek" unicode="&#x12e;" horiz-adv-x="536" 
d="M434 1409q-56 -6 -77 -36t-21 -93v-1126q0 -63 21 -94t77 -35v-25h-94q-113 -91 -125 -197q-5 -42 13 -70t46.5 -36.5t60.5 -5t54 19.5l19 -22q-21 -31 -61 -53.5t-89 -22.5q-83 0 -124.5 54.5t-14.5 137.5q18 54 68.5 106.5t101.5 88.5h-187v25q56 4 77.5 35t21.5 94
v1126q0 63 -21.5 93t-77.5 36v25h332v-25z" />
    <glyph glyph-name="iogonek" unicode="&#x12f;" horiz-adv-x="450" 
d="M219 1157q-43 0 -72.5 27t-29.5 73t29.5 73.5t72.5 27.5t71.5 -27.5t28.5 -73.5t-28.5 -73t-71.5 -27zM317 0q-115 -92 -127 -197q-5 -42 13.5 -70t47.5 -36.5t61.5 -5t54.5 19.5l18 -22q-21 -31 -60.5 -53.5t-88.5 -22.5q-85 0 -126 54.5t-14 137.5q18 54 68.5 106.5
t101.5 88.5h-194v25q55 4 75.5 35t20.5 94v616q0 63 -20.5 94t-75.5 35v25l213 65h18v-835q0 -63 20.5 -94t75.5 -35v-25h-82z" />
    <glyph glyph-name="Idotaccent" unicode="&#x130;" horiz-adv-x="536" 
d="M434 1407q-56 -4 -77 -34t-21 -93v-1126q0 -65 21 -95t77 -34v-25h-332v25q56 4 77.5 34.5t21.5 94.5v1126q0 63 -21.5 93t-77.5 34v27h332v-27zM266 1804q43 0 73 -27t30 -73t-30 -73t-73 -27t-71.5 27t-28.5 73t28.5 73t71.5 27z" />
    <glyph glyph-name="dotlessi" unicode="&#x131;" horiz-adv-x="450" 
d="M399 25v-25h-327v25q55 4 75.5 35t20.5 94v616q0 63 -20.5 94t-75.5 35v25l213 65h16v-835q0 -63 21 -94t77 -35z" />
    <glyph glyph-name="IJ" unicode="&#x132;" horiz-adv-x="1482" 
d="M434 1407q-56 -4 -77 -34t-21 -93v-1126q0 -65 21 -95t77 -34v-25h-332v25q56 4 77.5 34.5t21.5 94.5v1126q0 63 -21.5 93t-77.5 34v27h332v-27zM1069 1434h332v-27q-56 -4 -77 -34t-21 -93v-776q0 -264 -103 -394t-289 -130q-124 0 -220.5 58.5t-123.5 129.5
q-13 31 -7 66t32 51q21 14 48 12.5t44 -18.5q23 -23 23 -84q-1 -28 9.5 -57t33 -57.5t66.5 -46.5t104 -18q71 0 120 31t76.5 92t39 139.5t11.5 184.5v817q0 63 -21 93t-77 34v27z" />
    <glyph glyph-name="ij" unicode="&#x133;" horiz-adv-x="909" 
d="M399 25v-25h-327v25q55 4 75.5 35t20.5 94v616q0 63 -20.5 94t-75.5 35v25l213 65h16v-835q0 -63 21 -94t77 -35zM217 1157q-42 0 -71 27t-29 73q0 45 29 72t71 27q43 0 72.5 -26.5t29.5 -72.5t-29.5 -73t-72.5 -27zM559 924l213 65h16v-977q0 -189 -18 -258
q-44 -140 -209 -133q-68 3 -128 35t-83 88q-14 32 -9 66t30 51q23 14 46 12t38 -20q8 -8 12 -18.5t4.5 -20.5t1 -21.5t0.5 -21.5q1 -58 35.5 -88t87.5 -25q40 4 63 35.5t23 77.5q0 13 -13.5 79t-13.5 177v743q0 63 -20.5 94t-75.5 35v25zM705 1157q-42 0 -71.5 27.5
t-29.5 72.5t29.5 72t71.5 27q43 0 72.5 -26.5t29.5 -72.5t-29.5 -73t-72.5 -27z" />
    <glyph glyph-name="Jcircumflex" unicode="&#x134;" horiz-adv-x="966" 
d="M553 1434h332v-27q-56 -4 -77.5 -34t-21.5 -93v-776q0 -264 -102.5 -394t-288.5 -130q-124 0 -220.5 58.5t-123.5 129.5q-13 31 -7 66t32 51q21 14 48 12.5t44 -18.5q22 -22 22 -84q-1 -28 9.5 -57t33 -57.5t66.5 -46.5t104 -18q71 0 120 31t76.5 92t39.5 139.5t12 184.5
v817q0 63 -21 93t-77 34v27zM600 1825l274 -248l-16 -25l-295 177l-293 -177l-16 25l274 248h72z" />
    <glyph glyph-name="jcircumflex" unicode="&#x135;" horiz-adv-x="448" 
d="M78 924l213 65h16v-977q0 -189 -18 -258q-44 -140 -209 -133q-68 3 -128 35t-83 88q-15 32 -10 66t30 51q23 14 46 12t38 -20q8 -8 12.5 -19t5 -19t1 -23t0.5 -21q1 -58 35.5 -88t87.5 -25q40 4 63 35.5t23 77.5q0 13 -13.5 79t-13.5 177v743q0 63 -20.5 94t-75.5 35v25z
M127 1415l274 -248l-16 -24l-295 176l-293 -176l-16 24l274 248h72z" />
    <glyph glyph-name="Kcommaaccent" unicode="&#x136;" horiz-adv-x="1435" 
d="M1247 154q65 -104 148 -129v-25h-340v25q56 6 67 39.5t-24 89.5l-451 686l-311 -334v-352q0 -63 20.5 -93t75.5 -36v-25h-330v25q55 6 76 36t21 93v1126q0 63 -21 94t-76 35v25h330v-25q-55 -4 -75.5 -35t-20.5 -94v-719l670 719q48 52 56.5 86.5t-30.5 42.5v25h219v-25
q-28 -7 -44.5 -13t-51.5 -29t-72 -60l-342 -367zM688 -160q42 0 72 -31.5t31 -82.5q1 -55 -16.5 -111t-46.5 -100t-59 -76.5t-59 -54.5l-28 30q113 119 123 226h-17q-43 0 -71.5 27t-28.5 73t28.5 73t71.5 27z" />
    <glyph glyph-name="kcommaaccent" unicode="&#x137;" horiz-adv-x="1110" 
d="M899 154q41 -51 80 -80.5t90 -48.5v-25h-301v25q28 4 39 15t3.5 30t-19.5 37t-37 47l-312 370l-139 -131v-239q0 -63 20.5 -93t75.5 -36v-25h-327v25q56 6 77 36t21 93v1126q0 63 -21 94t-77 35v25l213 67h18v-1055l459 428q24 23 26.5 39.5t-8.5 24t-28 8.5v25h190v-25
q-26 -5 -37 -9t-36 -20.5t-60 -48.5l-277 -260zM545 -160q42 0 71.5 -31.5t30.5 -82.5q1 -55 -16.5 -111t-46.5 -99.5t-58.5 -76.5t-58.5 -55l-29 30q113 119 123 226h-16q-43 0 -72 27t-29 73t29 73t72 27z" />
    <glyph glyph-name="kgreenlandic" unicode="&#x138;" horiz-adv-x="1107" 
d="M899 154q77 -96 168 -129v-25h-299v25q27 4 37.5 15t3 30t-19.5 37t-37 47l-310 370l-141 -131v-239q0 -63 21 -93t77 -36v-25h-327v25q55 6 75.5 36t20.5 93v751q0 63 -20.5 93t-75.5 36v25l213 65h16v-678l459 428q24 23 27 39.5t-7.5 24t-27.5 8.5v25h190v-25
q-26 -5 -37 -9t-36 -20.5t-60 -48.5l-279 -260z" />
    <glyph glyph-name="Lacute" unicode="&#x139;" horiz-adv-x="1173" 
d="M1096 252h26l-41 -252h-979v25q55 4 76 34.5t21 94.5v1126q0 63 -21 93t-76 34v27h330v-27q-55 -4 -75.5 -34t-20.5 -93v-1243h500q48 0 88 15t66.5 36t48.5 52.5t34 56t23 55.5zM416 1749q26 -58 -39 -84q-116 -49 -238 -94q-24 -9 -35 12q-11 19 11 35q88 66 211 145
q60 43 90 -14z" />
    <glyph glyph-name="lacute" unicode="&#x13a;" horiz-adv-x="450" 
d="M399 25v-25h-327v25q55 4 75.5 35t20.5 94v1126q0 63 -20.5 93t-75.5 36v25l213 65h18v-1345q0 -63 20.5 -94t75.5 -35zM367 1753q26 -58 -39 -84q-116 -49 -238 -94q-24 -9 -35 12q-11 19 11 35q93 70 210 145q33 21 55.5 16t35.5 -30z" />
    <glyph glyph-name="Lcommaaccent" unicode="&#x13b;" horiz-adv-x="1173" 
d="M1096 252h26l-41 -252h-979v25q55 4 76 34.5t21 94.5v1126q0 63 -21 93t-76 34v27h330v-27q-55 -4 -75.5 -34t-20.5 -93v-1243h500q48 0 88 15t66.5 36t48.5 52.5t34 56t23 55.5zM653 -160q42 0 72 -31.5t31 -82.5q1 -55 -16.5 -111t-46.5 -100t-59 -76.5t-59 -54.5
l-28 30q113 119 123 226h-17q-43 0 -71.5 27t-28.5 73t28.5 73t71.5 27z" />
    <glyph glyph-name="lcommaaccent" unicode="&#x13c;" horiz-adv-x="450" 
d="M399 25v-25h-327v25q55 4 75.5 35t20.5 94v1126q0 63 -20.5 93t-75.5 36v25l213 65h18v-1345q0 -63 20.5 -94t75.5 -35zM236 -160q42 0 71.5 -31.5t30.5 -82.5q1 -55 -16.5 -111t-46.5 -99.5t-58.5 -76.5t-58.5 -55l-29 30q113 119 123 226h-16q-43 0 -72 27t-29 73
t29 73t72 27z" />
    <glyph glyph-name="Lcaron" unicode="&#x13d;" horiz-adv-x="1173" 
d="M1096 252h26l-41 -252h-979v25q55 4 76 34.5t21 94.5v1126q0 63 -21 93t-76 34v27h330v-27q-55 -4 -75.5 -34t-20.5 -93v-1243h500q48 0 88 15t66.5 36t48.5 52.5t34 56t23 55.5zM844 1454q42 0 71.5 -31t30.5 -82q1 -56 -16.5 -111.5t-46.5 -99.5t-58.5 -76.5
t-58.5 -54.5l-27 29q111 116 121 229h-16q-42 0 -71.5 26t-29.5 71t29.5 72.5t71.5 27.5z" />
    <glyph glyph-name="lcaron" unicode="&#x13e;" horiz-adv-x="587" 
d="M399 25v-25h-327v25q55 4 75.5 35t20.5 94v1126q0 63 -20.5 93t-75.5 36v25l213 65h18v-1345q0 -63 20.5 -94t75.5 -35zM535 1518q42 0 71.5 -31t30.5 -82q1 -56 -16.5 -111.5t-46.5 -99.5t-58.5 -76.5t-58.5 -54.5l-27 29q111 116 121 229h-16q-42 0 -71.5 25.5
t-29.5 70.5q0 46 29.5 73.5t71.5 27.5z" />
    <glyph glyph-name="Ldot" unicode="&#x13f;" horiz-adv-x="1173" 
d="M1096 252h26l-41 -252h-979v25q55 4 76 34.5t21 94.5v1126q0 63 -21 93t-76 34v27h330v-27q-55 -4 -75.5 -34t-20.5 -93v-1243h500q48 0 88 15t66.5 36t48.5 52.5t34 56t23 55.5zM801 834q43 0 72.5 -27.5t29.5 -73.5t-29.5 -73t-72.5 -27t-72 27t-29 73t29 73.5t72 27.5
z" />
    <glyph glyph-name="ldot" unicode="&#x140;" horiz-adv-x="667" 
d="M399 25v-25h-327v25q55 4 75.5 35t20.5 94v1126q0 63 -20.5 93t-75.5 36v25l213 65h18v-1345q0 -63 20.5 -94t75.5 -35zM514 846q43 0 72.5 -27.5t29.5 -73.5t-29.5 -73t-72.5 -27t-71.5 27t-28.5 73t28.5 73.5t71.5 27.5z" />
    <glyph glyph-name="Lslash" unicode="&#x141;" horiz-adv-x="1171" 
d="M1096 252h24l-39 -252h-979v25q55 4 76 35t21 94v243l-97 -30v39l97 28v846q0 63 -21 93t-76 36v25h330v-25q-55 -6 -75.5 -36t-20.5 -93v-803l416 129v-39l-416 -129v-401h498q59 0 106 20.5t77.5 57t47 67.5t31.5 70z" />
    <glyph glyph-name="lslash" unicode="&#x142;" horiz-adv-x="450" 
d="M496 567l-193 -73v-342q0 -63 21 -93t77 -34v-25h-327v25q55 4 75.5 34t20.5 93v288l-190 -73v39l190 73v801q0 63 -20.5 93t-75.5 34v27l213 65h16v-969l193 74v-37z" />
    <glyph glyph-name="Nacute" unicode="&#x143;" horiz-adv-x="1462" 
d="M1139 1434h231v-27q-55 -4 -75.5 -34t-20.5 -93v-1280h-72l-964 1243v-1089q0 -65 21 -95t77 -34v-25h-234v25q55 4 76 34.5t21 94.5v1126q0 63 -21 93t-76 34v27h170l963 -1244v1090q0 63 -20.5 93t-75.5 34v27zM930 1749q26 -58 -39 -84q-116 -49 -238 -94
q-24 -9 -35 12q-11 19 11 35q88 66 211 145q60 43 90 -14z" />
    <glyph glyph-name="nacute" unicode="&#x144;" 
d="M1098 25v-25h-328v25q55 4 75.5 35t20.5 94v421q0 77 -13 140.5t-42 119t-85 87t-134 30.5q-112 0 -200.5 -88.5t-88.5 -193.5v-516q0 -63 21 -94t77 -35v-25h-329v25q56 4 77 35t21 94v616q0 63 -21 94t-77 35v25l213 65h18v-180q49 83 131.5 131.5t186.5 48.5
q173 0 276.5 -97.5t103.5 -291.5v-446q0 -63 21 -94t76 -35zM676 1319q26 -58 -39 -84q-116 -49 -238 -94q-24 -9 -34 12q-11 20 10 35q88 66 211 145q60 43 90 -14z" />
    <glyph glyph-name="Ncommaaccent" unicode="&#x145;" horiz-adv-x="1462" 
d="M1139 1434h231v-27q-55 -4 -75.5 -34t-20.5 -93v-1280h-72l-964 1243v-1089q0 -65 21 -95t77 -34v-25h-234v25q55 4 76 34.5t21 94.5v1126q0 63 -21 93t-76 34v27h170l963 -1244v1090q0 63 -20.5 93t-75.5 34v27zM735 -160q42 0 72 -31.5t31 -82.5q1 -55 -16.5 -111
t-46.5 -100t-59 -76.5t-59 -54.5l-28 30q113 119 123 226h-17q-43 0 -71.5 27t-28.5 73t28.5 73t71.5 27z" />
    <glyph glyph-name="ncommaaccent" unicode="&#x146;" 
d="M1098 25v-25h-328v25q55 4 75.5 35t20.5 94v421q0 77 -13 140.5t-42 119t-85 87t-134 30.5q-112 0 -200.5 -88.5t-88.5 -193.5v-516q0 -63 21 -94t77 -35v-25h-329v25q56 4 77 35t21 94v616q0 63 -21 94t-77 35v25l213 65h18v-180q49 83 131.5 131.5t186.5 48.5
q173 0 276.5 -97.5t103.5 -291.5v-446q0 -63 21 -94t76 -35zM584 -160q42 0 71.5 -31.5t30.5 -82.5q1 -55 -16.5 -111t-46.5 -99.5t-58.5 -76.5t-58.5 -55l-29 30q113 119 123 226h-16q-43 0 -72 27t-29 73t29 73t72 27z" />
    <glyph glyph-name="Ncaron" unicode="&#x147;" horiz-adv-x="1462" 
d="M1139 1434h231v-27q-55 -4 -75.5 -34t-20.5 -93v-1280h-72l-964 1243v-1089q0 -65 21 -95t77 -34v-25h-234v25q55 4 76 34.5t21 94.5v1126q0 63 -21 93t-76 34v27h170l963 -1244v1090q0 63 -20.5 93t-75.5 34v27zM1049 1825l18 -25l-276 -248h-70l-277 248l19 25
l293 -176z" />
    <glyph glyph-name="ncaron" unicode="&#x148;" 
d="M1098 25v-25h-328v25q55 4 75.5 35t20.5 94v421q0 77 -13 140.5t-42 119t-85 87t-134 30.5q-112 0 -200.5 -88.5t-88.5 -193.5v-516q0 -63 21 -94t77 -35v-25h-329v25q56 4 77 35t21 94v616q0 63 -21 94t-77 35v25l213 65h18v-180q49 83 131.5 131.5t186.5 48.5
q173 0 276.5 -97.5t103.5 -291.5v-446q0 -63 21 -94t76 -35zM897 1395l18 -25l-276 -248h-70l-276 248l18 25l293 -176z" />
    <glyph glyph-name="napostrophe" unicode="&#x149;" horiz-adv-x="1415" 
d="M1364 25v-25h-328v25q55 4 76 35t21 94v421q0 77 -13 140.5t-42.5 119t-85.5 87t-134 30.5q-112 0 -200.5 -88.5t-88.5 -193.5v-516q0 -63 21.5 -94t77.5 -35v-25h-330v25q56 4 77 35t21 94v616q0 63 -21 94t-77 35v25l213 65h18v-180q49 83 131.5 131.5t186.5 48.5
q173 0 277 -97.5t104 -291.5v-446q0 -63 20.5 -94t75.5 -35zM178 1454q42 0 72 -32t31 -83q1 -55 -16.5 -111t-46.5 -100t-59 -76.5t-59 -54.5l-28 31q113 119 123 225h-17q-43 0 -71.5 27.5t-28.5 73.5t28.5 73t71.5 27z" />
    <glyph glyph-name="Eng" unicode="&#x14a;" horiz-adv-x="1462" 
d="M1139 1434h231v-25q-55 -6 -75.5 -36t-20.5 -93v-1280q0 -102 -20 -185t-60 -146.5t-106 -98.5t-154 -35q-122 0 -218 64.5t-124 138.5q-14 32 -8.5 66t30.5 51q23 14 49.5 12t43.5 -19q26 -24 22 -84q0 -29 10.5 -59t33 -61t66.5 -50.5t103 -19.5q284 0 293 426h-33
l-964 1243v-1089q0 -63 21 -94t77 -35v-25h-234v25q56 4 77.5 35t21.5 94v1126q0 63 -21.5 93t-77.5 36v25h170l963 -1244v1090q0 63 -20.5 93t-75.5 36v25z" />
    <glyph glyph-name="eng" unicode="&#x14b;" horiz-adv-x="1142" 
d="M618 989q172 0 276.5 -103.5t104.5 -299.5v-660q0 -190 -20 -258q-42 -140 -207 -133q-68 3 -128.5 35t-82.5 88q-14 32 -9 66t30 51q52 30 84 -6q8 -9 12 -19.5t4.5 -21t1 -22t0.5 -21.5q1 -58 35.5 -88t87.5 -25q40 4 63 35.5t23 77.5q0 13 -13.5 79.5t-13.5 176.5v632
q0 61 -7.5 114t-27 103t-49.5 85t-79 56.5t-113 20.5q-111 0 -199 -88.5t-88 -193.5v-518q0 -63 20.5 -93t75.5 -34v-25h-327v25q56 4 77 34t21 93v618q0 63 -21 94t-77 35v25l213 65h18v-180q49 83 130 131.5t185 48.5z" />
    <glyph glyph-name="Omacron" unicode="&#x14c;" horiz-adv-x="1628" 
d="M813 1454q154 0 293 -55t240.5 -151.5t161 -234.5t59.5 -296q0 -159 -59.5 -297t-161 -234t-240.5 -151t-293 -55t-292 55t-239.5 151t-161 234t-59.5 297q0 158 59.5 296t161 234.5t239.5 151.5t292 55zM813 14q120 0 229.5 48t194.5 136t135.5 223t50.5 296t-50.5 295
t-135.5 221.5t-194.5 135.5t-229.5 48t-229.5 -48t-194.5 -135.5t-135.5 -221.5t-50.5 -295t50.5 -296t135.5 -223t194.5 -136t229.5 -48zM508 1704h610v-39h-610v39z" />
    <glyph glyph-name="omacron" unicode="&#x14d;" horiz-adv-x="1099" 
d="M535 989q136 0 247.5 -60t178.5 -176.5t67 -269.5q0 -152 -67 -268t-178.5 -175.5t-247.5 -59.5q-137 0 -248.5 59.5t-178.5 175.5t-67 268q0 153 67 269.5t178.5 176.5t248.5 60zM535 10q157 0 254.5 128t97.5 345q0 218 -97.5 346.5t-254.5 128.5t-255 -128.5
t-98 -346.5q0 -217 98 -345t255 -128zM229 1274h611v-39h-611v39z" />
    <glyph glyph-name="Obreve" unicode="&#x14e;" horiz-adv-x="1628" 
d="M813 1454q154 0 293 -55t240.5 -151.5t161 -234.5t59.5 -296q0 -159 -59.5 -297t-161 -234t-240.5 -151t-293 -55t-292 55t-239.5 151t-161 234t-59.5 297q0 158 59.5 296t161 234.5t239.5 151.5t292 55zM813 14q120 0 229.5 48t194.5 136t135.5 223t50.5 296t-50.5 295
t-135.5 221.5t-194.5 135.5t-229.5 48t-229.5 -48t-194.5 -135.5t-135.5 -221.5t-50.5 -295t50.5 -296t135.5 -223t194.5 -136t229.5 -48zM1034 1796l31 -8q-13 -89 -80.5 -151t-171.5 -62q-105 0 -173 62.5t-79 150.5l31 8q51 -131 221 -131q167 0 221 131z" />
    <glyph glyph-name="obreve" unicode="&#x14f;" horiz-adv-x="1099" 
d="M535 989q136 0 247.5 -60t178.5 -176.5t67 -269.5q0 -152 -67 -268t-178.5 -175.5t-247.5 -59.5q-137 0 -248.5 59.5t-178.5 175.5t-67 268q0 153 67 269.5t178.5 176.5t248.5 60zM535 10q157 0 254.5 128t97.5 345q0 218 -97.5 346.5t-254.5 128.5t-255 -128.5
t-98 -346.5q0 -217 98 -345t255 -128zM756 1366l30 -8q-13 -89 -80 -151t-171 -62q-105 0 -173 62.5t-79 150.5l30 8q51 -131 222 -131q167 0 221 131z" />
    <glyph glyph-name="Ohungarumlaut" unicode="&#x150;" horiz-adv-x="1628" 
d="M813 1454q154 0 293 -55t240.5 -151.5t161 -234.5t59.5 -296q0 -159 -59.5 -297t-161 -234t-240.5 -151t-293 -55t-292 55t-239.5 151t-161 234t-59.5 297q0 158 59.5 296t161 234.5t239.5 151.5t292 55zM813 14q120 0 229.5 48t194.5 136t135.5 223t50.5 296t-50.5 295
t-135.5 221.5t-194.5 135.5t-229.5 48t-229.5 -48t-194.5 -135.5t-135.5 -221.5t-50.5 -295t50.5 -296t135.5 -223t194.5 -136t229.5 -48zM745 1780q44 57 91 14q46 -43 -9 -90q-127 -114 -194 -166q-22 -15 -37 0q-18 15 -2 37q17 25 151 205zM1133 1794q44 -44 -9 -90
q-127 -114 -194 -166q-23 -16 -39 0q-17 14 0 37q17 25 151 205q44 57 91 14z" />
    <glyph glyph-name="ohungarumlaut" unicode="&#x151;" horiz-adv-x="1099" 
d="M535 989q136 0 247.5 -60t178.5 -176.5t67 -269.5q0 -152 -67 -268t-178.5 -175.5t-247.5 -59.5q-137 0 -248.5 59.5t-178.5 175.5t-67 268q0 153 67 269.5t178.5 176.5t248.5 60zM535 10q157 0 254.5 128t97.5 345q0 218 -97.5 346.5t-254.5 128.5t-255 -128.5
t-98 -346.5q0 -217 98 -345t255 -128zM467 1350q44 57 90 14q47 -43 -8 -90q-120 -107 -195 -166q-22 -15 -37 0q-18 15 -2 37q17 25 40 56t57.5 76.5t54.5 72.5zM854 1364q45 -45 -8 -90q-120 -107 -195 -166q-23 -16 -39 0q-17 14 0 37q17 25 40 56t57.5 76.5t54.5 72.5
q44 57 90 14z" />
    <glyph glyph-name="OE" unicode="&#x152;" horiz-adv-x="2437" 
d="M2331 252h24l-39 -252h-981v25q56 4 77.5 35t21.5 94v133q-104 -144 -266.5 -225.5t-354.5 -81.5q-154 0 -292 55t-239.5 151t-161 234t-59.5 297q0 158 59.5 296t161 234.5t239.5 151.5t292 55q192 0 355 -81.5t266 -227.5v135q0 63 -21.5 93t-77.5 36v25h928l39 -252
h-25q-14 39 -31 70t-47.5 67t-77.5 56t-106 20h-444v-645h319q99 0 135 31t46 102h26v-305h-26q-10 71 -46 102t-135 31h-319v-674h497q184 0 263 215zM813 14q120 0 229.5 48t194.5 136t135.5 223t50.5 296t-50.5 295t-135.5 221.5t-194.5 135.5t-229.5 48t-229 -48
t-193.5 -135.5t-135 -221.5t-50.5 -295q0 -162 50.5 -296.5t135 -222.5t193.5 -136t229 -48z" />
    <glyph glyph-name="oe" unicode="&#x153;" horiz-adv-x="1822" 
d="M1772 539h-742v-47q0 -113 40.5 -203t104.5 -142t144.5 -77t158.5 -17t148.5 47.5t112.5 106.5l24 -19q-139 -208 -379 -208q-135 0 -247 61t-176 172q-64 -111 -176.5 -172t-249.5 -61t-248.5 59t-178.5 175t-67 269t67 269.5t178.5 176.5t248.5 60q133 0 244 -58.5
t175 -166.5q61 108 169.5 166.5t244.5 58.5q94 0 167.5 -31t117 -77.5t71.5 -107.5t38 -114.5t10 -105.5v-14zM1368 961q-142 0 -230.5 -100.5t-105.5 -285.5h613q-1 53 -7.5 99.5t-25 101.5t-47.5 93.5t-79.5 65t-117.5 26.5zM535 10q157 0 254.5 128t97.5 345
q0 218 -97.5 346.5t-254.5 128.5q-159 0 -256 -128t-97 -347q0 -217 97 -345t256 -128z" />
    <glyph glyph-name="Racute" unicode="&#x154;" horiz-adv-x="1298" 
d="M1092 154q74 -105 165 -129v-25h-210l-433 623q-10 -2 -28 -2h-248v-467q0 -63 20.5 -93t75.5 -36v-25h-330v25q55 6 76 36t21 93v1126q0 63 -21 94t-76 35v25h482q238 0 374 -108.5t136 -297.5q0 -155 -91 -256t-257 -135zM573 659q188 0 285.5 98.5t97.5 270.5
t-97.5 270.5t-285.5 98.5h-235v-738h235zM795 1749q26 -58 -39 -84q-116 -49 -238 -94q-24 -9 -35 12q-11 19 11 35q88 66 211 145q60 43 90 -14z" />
    <glyph glyph-name="racute" unicode="&#x155;" horiz-adv-x="845" 
d="M793 887q15 -30 9 -67.5t-34 -53.5q-37 -22 -74.5 -3t-38.5 62q-6 101 -90 107q-47 3 -93.5 -24.5t-84.5 -79.5t-62 -134.5t-24 -179.5v-360q0 -65 21 -95t77 -34v-25h-327v25q55 4 75.5 34.5t20.5 94.5v616q0 63 -20.5 94t-75.5 35v25l213 65h16v-272
q42 124 117.5 196.5t181.5 75.5q67 1 119 -26.5t74 -75.5zM549 1319q26 -58 -39 -84q-116 -49 -238 -94q-24 -9 -34 12q-11 20 10 35q88 66 211 145q60 43 90 -14z" />
    <glyph glyph-name="Rcommaaccent" unicode="&#x156;" horiz-adv-x="1298" 
d="M1092 154q74 -105 165 -129v-25h-210l-433 623q-10 -2 -28 -2h-248v-467q0 -63 20.5 -93t75.5 -36v-25h-330v25q55 6 76 36t21 93v1126q0 63 -21 94t-76 35v25h482q238 0 374 -108.5t136 -297.5q0 -155 -91 -256t-257 -135zM573 659q188 0 285.5 98.5t97.5 270.5
t-97.5 270.5t-285.5 98.5h-235v-738h235zM684 -160q42 0 71.5 -31.5t30.5 -82.5q1 -55 -16.5 -111t-46.5 -99.5t-58.5 -76.5t-58.5 -55l-28 30q112 118 122 226h-16q-43 0 -71.5 27t-28.5 73t28.5 73t71.5 27z" />
    <glyph glyph-name="rcommaaccent" unicode="&#x157;" horiz-adv-x="845" 
d="M793 887q15 -30 9 -67.5t-34 -53.5q-37 -22 -74.5 -3t-38.5 62q-6 101 -90 107q-47 3 -93.5 -24.5t-84.5 -79.5t-62 -134.5t-24 -179.5v-360q0 -65 21 -95t77 -34v-25h-327v25q55 4 75.5 34.5t20.5 94.5v616q0 63 -20.5 94t-75.5 35v25l213 65h16v-272
q42 124 117.5 196.5t181.5 75.5q67 1 119 -26.5t74 -75.5zM229 -160q42 0 72 -31.5t31 -82.5q1 -55 -16.5 -111t-46.5 -99.5t-58.5 -76.5t-58.5 -55l-29 30q113 119 123 226h-17q-43 0 -71.5 27t-28.5 73t28.5 73t71.5 27z" />
    <glyph glyph-name="Rcaron" unicode="&#x158;" horiz-adv-x="1298" 
d="M1092 154q74 -105 165 -129v-25h-210l-433 623q-10 -2 -28 -2h-248v-467q0 -63 20.5 -93t75.5 -36v-25h-330v25q55 6 76 36t21 93v1126q0 63 -21 94t-76 35v25h482q238 0 374 -108.5t136 -297.5q0 -155 -91 -256t-257 -135zM573 659q188 0 285.5 98.5t97.5 270.5
t-97.5 270.5t-285.5 98.5h-235v-738h235zM895 1825l18 -25l-276 -248h-70l-276 248l18 25l293 -176z" />
    <glyph glyph-name="rcaron" unicode="&#x159;" horiz-adv-x="845" 
d="M793 887q15 -30 9 -67.5t-34 -53.5q-37 -22 -74.5 -3t-38.5 62q-6 101 -90 107q-47 3 -93.5 -24.5t-84.5 -79.5t-62 -134.5t-24 -179.5v-360q0 -65 21 -95t77 -34v-25h-327v25q55 4 75.5 34.5t20.5 94.5v616q0 63 -20.5 94t-75.5 35v25l213 65h16v-272
q42 124 117.5 196.5t181.5 75.5q67 1 119 -26.5t74 -75.5zM752 1395l18 -25l-276 -248h-70l-277 248l19 25l293 -176z" />
    <glyph glyph-name="Sacute" unicode="&#x15a;" 
d="M279 1192q-7 -64 18 -121t72.5 -100.5t111 -83.5t134 -77t140.5 -74.5t131 -81t105 -92t63.5 -112.5t6.5 -137q-31 -171 -158.5 -253.5t-318.5 -79.5q-127 3 -269.5 41t-232.5 102v270h24q22 -92 72.5 -165.5t117 -118t140 -68t148.5 -25.5q132 -3 226.5 54t119.5 176
q14 69 -7 127t-67 101t-109 82t-134.5 75t-142.5 73t-132.5 83t-105.5 99t-61.5 127t-0.5 161q27 137 132.5 209.5t266.5 72.5q218 0 418 -153v-256h-22q-92 372 -396 372q-113 0 -196 -58.5t-94 -168.5zM750 1749q26 -58 -39 -84q-116 -49 -238 -94q-24 -9 -35 12
q-11 19 11 35q93 70 210 145q33 21 55.5 16t35.5 -30z" />
    <glyph glyph-name="sacute" unicode="&#x15b;" horiz-adv-x="841" 
d="M473 555q132 -62 172 -88q119 -76 123 -187q2 -29 -4 -61q-21 -115 -118 -177t-243 -62q-98 0 -197 28t-165 78v195h20q20 -83 77.5 -146t126.5 -94t138 -33q97 -3 166 40t86 114q6 24 7 45t-7 40t-14.5 33t-26 30.5t-30 25.5t-39.5 24.5t-40.5 21.5t-46.5 22.5t-46 21.5
q-33 15 -55.5 26t-54.5 28.5t-53.5 32t-47 34.5t-41.5 39.5t-31 45t-21 51t-6 57t9 65.5q22 87 104 135.5t203 48.5q167 0 301 -104v-180h-21q-32 129 -104 193.5t-176 62.5q-84 0 -142.5 -36t-64.5 -106q-4 -45 14.5 -84t62 -72t82.5 -55.5t103 -52.5zM582 1319
q26 -58 -39 -84q-116 -49 -238 -94q-24 -9 -35 12q-11 19 11 35q88 66 211 145q60 43 90 -14z" />
    <glyph glyph-name="Scircumflex" unicode="&#x15c;" 
d="M279 1192q-7 -64 18 -121t72.5 -100.5t111 -83.5t134 -77t140.5 -74.5t131 -81t105 -92t63.5 -112.5t6.5 -137q-31 -171 -158.5 -253.5t-318.5 -79.5q-127 3 -269.5 41t-232.5 102v270h24q22 -92 72.5 -165.5t117 -118t140 -68t148.5 -25.5q132 -3 226.5 54t119.5 176
q14 69 -7 127t-67 101t-109 82t-134.5 75t-142.5 73t-132.5 83t-105.5 99t-61.5 127t-0.5 161q27 137 132.5 209.5t266.5 72.5q218 0 418 -153v-256h-22q-92 372 -396 372q-113 0 -196 -58.5t-94 -168.5zM612 1825l275 -248l-17 -25l-295 177l-292 -177l-17 25l275 248h71z
" />
    <glyph glyph-name="scircumflex" unicode="&#x15d;" horiz-adv-x="841" 
d="M473 555q132 -62 172 -88q119 -76 123 -187q2 -29 -4 -61q-21 -115 -118 -177t-243 -62q-98 0 -197 28t-165 78v195h20q20 -83 77.5 -146t126.5 -94t138 -33q97 -3 166 40t86 114q6 24 7 45t-7 40t-14.5 33t-26 30.5t-30 25.5t-39.5 24.5t-40.5 21.5t-46.5 22.5t-46 21.5
q-33 15 -55.5 26t-54.5 28.5t-53.5 32t-47 34.5t-41.5 39.5t-31 45t-21 51t-6 57t9 65.5q22 87 104 135.5t203 48.5q167 0 301 -104v-180h-21q-32 129 -104 193.5t-176 62.5q-84 0 -142.5 -36t-64.5 -106q-4 -45 14.5 -84t62 -72t82.5 -55.5t103 -52.5zM444 1395l275 -248
l-17 -25l-294 176l-293 -176l-17 25l275 248h71z" />
    <glyph glyph-name="Scedilla" unicode="&#x15e;" 
d="M279 1190q-7 -64 18 -120t72.5 -99t111 -83.5t134 -77t140.5 -74t131 -81.5t105 -93t63.5 -113t6.5 -138q-30 -171 -156.5 -254t-316.5 -80l-35 -100q54 7 94 2q62 -10 92 -47.5t25 -85.5q-6 -63 -49.5 -98t-118.5 -35q-41 0 -79.5 13.5t-55.5 33.5l20 31q36 -29 84 -29
q36 0 59 22.5t27 67.5q5 35 -9.5 59.5t-43.5 30.5q-40 8 -74 -6l-12 31l37 113q-124 8 -253.5 45t-213.5 96v270h24q22 -92 72.5 -165.5t117 -118t140 -68t148.5 -25.5q132 -3 226.5 54t119.5 176q14 68 -7 125.5t-67 100.5t-109 81.5t-134.5 74t-142.5 73t-132.5 83.5
t-105.5 99.5t-61.5 127.5t-0.5 162q27 137 132.5 210t266.5 73q216 0 418 -154l2 -256h-24q-92 373 -396 373q-113 0 -196 -58.5t-94 -168.5z" />
    <glyph glyph-name="scedilla" unicode="&#x15f;" horiz-adv-x="841" 
d="M473 555q132 -62 172 -88q119 -76 123 -187q2 -29 -4 -61q-21 -110 -110.5 -171t-225.5 -66l-33 -101q51 8 94 2q61 -10 90.5 -47t24.5 -86q-6 -64 -49 -98.5t-117 -34.5q-42 0 -80 13t-57 34l23 31q29 -29 84 -29q34 0 57 22.5t29 67.5q4 35 -11 59.5t-43 30.5
q-45 6 -73 -6l-15 31l37 109q-97 3 -191.5 30.5t-156.5 75.5v195h20q20 -83 77.5 -146t126.5 -94t138 -33q97 -3 166 40t86 114q6 24 7 45t-7 40t-14.5 33t-26 30.5t-30 25.5t-39.5 24.5t-40.5 21.5t-46.5 22.5t-46 21.5q-33 15 -55.5 26t-54.5 28.5t-53.5 32t-47 34.5
t-41.5 39.5t-31 45t-21 51t-6 57t9 65.5q22 87 104 135.5t203 48.5q167 0 301 -104v-180h-21q-32 129 -104 193.5t-176 62.5q-84 0 -142.5 -36t-64.5 -106q-4 -45 14.5 -84t62 -72t82.5 -55.5t103 -52.5z" />
    <glyph glyph-name="Scaron" unicode="&#x160;" 
d="M279 1192q-7 -64 18 -121t72.5 -100.5t111 -83.5t134 -77t140.5 -74.5t131 -81t105 -92t63.5 -112.5t6.5 -137q-31 -171 -158.5 -253.5t-318.5 -79.5q-127 3 -269.5 41t-232.5 102v270h24q22 -92 72.5 -165.5t117 -118t140 -68t148.5 -25.5q132 -3 226.5 54t119.5 176
q14 69 -7 127t-67 101t-109 82t-134.5 75t-142.5 73t-132.5 83t-105.5 99t-61.5 127t-0.5 161q27 137 132.5 209.5t266.5 72.5q218 0 418 -153v-256h-22q-92 372 -396 372q-113 0 -196 -58.5t-94 -168.5zM870 1825l19 -25l-277 -248h-69l-277 248l19 25l293 -176z" />
    <glyph glyph-name="scaron" unicode="&#x161;" horiz-adv-x="841" 
d="M473 555q132 -62 172 -88q119 -76 123 -187q2 -29 -4 -61q-21 -115 -118 -177t-243 -62q-98 0 -197 28t-165 78v195h20q20 -83 77.5 -146t126.5 -94t138 -33q97 -3 166 40t86 114q6 24 7 45t-7 40t-14.5 33t-26 30.5t-30 25.5t-39.5 24.5t-40.5 21.5t-46.5 22.5t-46 21.5
q-33 15 -55.5 26t-54.5 28.5t-53.5 32t-47 34.5t-41.5 39.5t-31 45t-21 51t-6 57t9 65.5q22 87 104 135.5t203 48.5q167 0 301 -104v-180h-21q-32 129 -104 193.5t-176 62.5q-84 0 -142.5 -36t-64.5 -106q-4 -45 14.5 -84t62 -72t82.5 -55.5t103 -52.5zM723 1395l18 -25
l-276 -248h-70l-276 248l18 25l293 -176z" />
    <glyph glyph-name="Tcommaaccent" unicode="&#x162;" horiz-adv-x="1296" 
d="M1196 1434l39 -267h-25q-15 43 -31 75t-46 71t-77 60.5t-108 21.5h-231v-1241q0 -64 20.5 -94.5t75.5 -34.5v-25h-330v25q55 4 76 34.5t21 94.5v1241h-232q-61 0 -108 -21.5t-77 -60.5t-46 -71t-31 -75h-25l39 267h1096zM647 -160q42 0 72 -31.5t31 -82.5
q1 -55 -16.5 -111t-46.5 -100t-59 -76.5t-59 -54.5l-28 30q113 119 123 226h-17q-43 0 -71.5 27t-28.5 73t28.5 73t71.5 27z" />
    <glyph glyph-name="tcommaaccent" unicode="&#x163;" horiz-adv-x="694" 
d="M610 86l13 -20q-28 -33 -76 -59.5t-103 -26.5q-106 0 -173.5 67t-67.5 217v668h-162v37q65 0 114 20.5t79 58t47 84t22 105.5h35v-268h233v-37h-233v-668q0 -168 92 -213q41 -19 89.5 -10t90.5 45zM291 -160q42 0 71.5 -31.5t30.5 -82.5q1 -55 -16.5 -111t-46.5 -99.5
t-58.5 -76.5t-58.5 -55l-29 30q113 119 123 226h-16q-43 0 -72 27t-29 73t29 73t72 27z" />
    <glyph glyph-name="Tcaron" unicode="&#x164;" horiz-adv-x="1296" 
d="M1196 1434l39 -267h-25q-15 43 -31 75t-46 71t-77 60.5t-108 21.5h-231v-1241q0 -64 20.5 -94.5t75.5 -34.5v-25h-330v25q55 4 76 34.5t21 94.5v1241h-232q-61 0 -108 -21.5t-77 -60.5t-46 -71t-31 -75h-25l39 267h1096zM940 1825l18 -25l-276 -248h-70l-276 248l18 25
l293 -176z" />
    <glyph glyph-name="tcaron" unicode="&#x165;" horiz-adv-x="800" 
d="M610 86l13 -20q-28 -33 -76 -59.5t-103 -26.5q-106 0 -173.5 67t-67.5 217v668h-162v37q65 0 114 20.5t79 58t47 84t22 105.5h35v-268h233v-37h-233v-668q0 -168 92 -213q41 -19 89.5 -10t90.5 45zM748 1454q42 0 71.5 -31t30.5 -82q1 -56 -16.5 -111.5t-46.5 -99.5
t-58.5 -76.5t-58.5 -54.5l-27 29q111 116 121 229h-16q-42 0 -71.5 26t-29.5 71t29.5 72.5t71.5 27.5z" />
    <glyph glyph-name="Tbar" unicode="&#x166;" horiz-adv-x="1296" 
d="M1196 1434l39 -267h-25q-73 228 -262 228h-231v-660h237v-39h-237v-542q0 -63 20.5 -94t75.5 -35v-25h-330v25q55 4 76 35t21 94v542h-236v39h236v660h-232q-61 0 -108 -21.5t-77 -60.5t-46 -71t-31 -75h-25l41 267h1094z" />
    <glyph glyph-name="tbar" unicode="&#x167;" horiz-adv-x="694" 
d="M610 86l15 -20q-28 -34 -77.5 -61.5t-103.5 -27.5q-50 0 -91.5 15t-75.5 47.5t-53 89.5t-19 135v377h-164v37h164v254h-164v37q235 0 264 268h33v-268h233v-37h-233v-254h194v-37h-194v-377q0 -167 94 -213q39 -19 87.5 -10t90.5 45z" />
    <glyph glyph-name="Utilde" unicode="&#x168;" horiz-adv-x="1476" 
d="M1163 1434h232v-25q-55 -6 -76 -36t-21 -93v-729q0 -76 -15.5 -151.5t-53 -152t-93.5 -135t-144.5 -95.5t-198.5 -37q-265 0 -429.5 153.5t-164.5 417.5v729q0 63 -21 93t-76 36v25h332v-25q-56 -6 -77 -36t-21 -93v-729q0 -246 122.5 -385t336.5 -139q102 0 184 33.5
t133 86.5t85.5 123.5t48.5 140t14 140.5v729q0 63 -21 93t-76 36v25zM1108 1749h35q-9 -89 -53.5 -129.5t-114.5 -40.5q-27 0 -56 6.5t-43 11t-54 21.5t-48 20q-89 39 -145 39q-74 0 -119 -80h-35q10 91 61.5 135t125.5 44q42 0 79.5 -12t98.5 -40q16 -7 53 -25t62 -26
t51 -8q81 0 102 84z" />
    <glyph glyph-name="utilde" unicode="&#x169;" horiz-adv-x="1128" 
d="M958 154q0 -64 21.5 -94.5t77.5 -34.5v-25h-232v160q-101 -180 -303 -180q-175 0 -284 98t-109 291v401q0 63 -21 94t-77 35v25l213 65h18v-608q0 -76 15 -139.5t47.5 -115.5t90.5 -81.5t136 -28.5q110 0 192 88.5t82 194.5v471q0 63 -20.5 94t-75.5 35v25l213 65h16
v-835zM842 1319h35q-9 -89 -53.5 -129.5t-114.5 -40.5q-27 0 -56 6.5t-43 11t-54 21.5t-48 20q-89 39 -146 39q-73 0 -118 -80h-35q10 91 61.5 135t124.5 44q42 0 79.5 -12t98.5 -40q16 -7 53 -25t62 -26t51 -8q39 0 66 21.5t37 62.5z" />
    <glyph glyph-name="Umacron" unicode="&#x16a;" horiz-adv-x="1476" 
d="M1163 1434h232v-25q-55 -6 -76 -36t-21 -93v-729q0 -76 -15.5 -151.5t-53 -152t-93.5 -135t-144.5 -95.5t-198.5 -37q-265 0 -429.5 153.5t-164.5 417.5v729q0 63 -21 93t-76 36v25h332v-25q-56 -6 -77 -36t-21 -93v-729q0 -246 122.5 -385t336.5 -139q102 0 184 33.5
t133 86.5t85.5 123.5t48.5 140t14 140.5v729q0 63 -21 93t-76 36v25zM504 1704h610v-39h-610v39z" />
    <glyph glyph-name="umacron" unicode="&#x16b;" horiz-adv-x="1128" 
d="M958 154q0 -64 21.5 -94.5t77.5 -34.5v-25h-232v160q-101 -180 -303 -180q-175 0 -284 98t-109 291v401q0 63 -21 94t-77 35v25l213 65h18v-608q0 -76 15 -139.5t47.5 -115.5t90.5 -81.5t136 -28.5q110 0 192 88.5t82 194.5v471q0 63 -20.5 94t-75.5 35v25l213 65h16
v-835zM238 1274h610v-39h-610v39z" />
    <glyph glyph-name="Ubreve" unicode="&#x16c;" horiz-adv-x="1476" 
d="M1163 1434h232v-25q-55 -6 -76 -36t-21 -93v-729q0 -76 -15.5 -151.5t-53 -152t-93.5 -135t-144.5 -95.5t-198.5 -37q-265 0 -429.5 153.5t-164.5 417.5v729q0 63 -21 93t-76 36v25h332v-25q-56 -6 -77 -36t-21 -93v-729q0 -246 122.5 -385t336.5 -139q102 0 184 33.5
t133 86.5t85.5 123.5t48.5 140t14 140.5v729q0 63 -21 93t-76 36v25zM1030 1796l31 -8q-13 -89 -80.5 -151t-171.5 -62q-105 0 -173 62.5t-79 150.5l31 8q51 -131 221 -131q167 0 221 131z" />
    <glyph glyph-name="ubreve" unicode="&#x16d;" horiz-adv-x="1128" 
d="M958 154q0 -64 21.5 -94.5t77.5 -34.5v-25h-232v160q-101 -180 -303 -180q-175 0 -284 98t-109 291v401q0 63 -21 94t-77 35v25l213 65h18v-608q0 -76 15 -139.5t47.5 -115.5t90.5 -81.5t136 -28.5q110 0 192 88.5t82 194.5v471q0 63 -20.5 94t-75.5 35v25l213 65h16
v-835zM764 1366l31 -8q-13 -89 -80.5 -151t-171.5 -62q-105 0 -173 62.5t-79 150.5l31 8q51 -131 221 -131q167 0 221 131z" />
    <glyph glyph-name="Uring" unicode="&#x16e;" horiz-adv-x="1476" 
d="M1163 1434h232v-25q-55 -6 -76 -36t-21 -93v-729q0 -76 -15.5 -151.5t-53 -152t-93.5 -135t-144.5 -95.5t-198.5 -37q-265 0 -429.5 153.5t-164.5 417.5v729q0 63 -21 93t-76 36v25h332v-25q-56 -6 -77 -36t-21 -93v-729q0 -246 122.5 -385t336.5 -139q102 0 184 33.5
t133 86.5t85.5 123.5t48.5 140t14 140.5v729q0 63 -21 93t-76 36v25zM811 1923q90 0 151.5 -54t61.5 -143q0 -90 -61 -143t-152 -53q-92 0 -153.5 53t-61.5 143q0 89 61.5 143t153.5 54zM811 1554q59 0 94 48.5t35 123.5t-35 123.5t-94 48.5q-60 0 -95.5 -48.5t-35.5 -123.5
t35.5 -123.5t95.5 -48.5z" />
    <glyph glyph-name="uring" unicode="&#x16f;" horiz-adv-x="1128" 
d="M958 154q0 -64 21.5 -94.5t77.5 -34.5v-25h-232v160q-101 -180 -303 -180q-175 0 -284 98t-109 291v401q0 63 -21 94t-77 35v25l213 65h18v-608q0 -76 15 -139.5t47.5 -115.5t90.5 -81.5t136 -28.5q110 0 192 88.5t82 194.5v471q0 63 -20.5 94t-75.5 35v25l213 65h16
v-835zM545 1493q90 0 151.5 -54t61.5 -143q0 -90 -61 -143t-152 -53q-92 0 -153.5 53t-61.5 143q0 89 61.5 143t153.5 54zM545 1124q59 0 94 48.5t35 123.5t-35 123.5t-94 48.5q-60 0 -95.5 -48.5t-35.5 -123.5t35.5 -123.5t95.5 -48.5z" />
    <glyph glyph-name="Uhungarumlaut" unicode="&#x170;" horiz-adv-x="1476" 
d="M1163 1434h232v-25q-55 -6 -76 -36t-21 -93v-729q0 -76 -15.5 -151.5t-53 -152t-93.5 -135t-144.5 -95.5t-198.5 -37q-265 0 -429.5 153.5t-164.5 417.5v729q0 63 -21 93t-76 36v25h332v-25q-56 -6 -77 -36t-21 -93v-729q0 -246 122.5 -385t336.5 -139q102 0 184 33.5
t133 86.5t85.5 123.5t48.5 140t14 140.5v729q0 63 -21 93t-76 36v25zM741 1780q44 57 90 14q47 -43 -8 -90q-127 -114 -194 -166q-22 -15 -37 0q-18 15 -2 37q17 25 151 205zM1128 1794q45 -45 -8 -90q-127 -114 -194 -166q-23 -16 -39 0q-17 14 0 37q17 25 151 205
q44 57 90 14z" />
    <glyph glyph-name="uhungarumlaut" unicode="&#x171;" horiz-adv-x="1128" 
d="M958 154q0 -64 21.5 -94.5t77.5 -34.5v-25h-232v160q-101 -180 -303 -180q-175 0 -284 98t-109 291v401q0 63 -21 94t-77 35v25l213 65h18v-608q0 -76 15 -139.5t47.5 -115.5t90.5 -81.5t136 -28.5q110 0 192 88.5t82 194.5v471q0 63 -20.5 94t-75.5 35v25l213 65h16
v-835zM455 1350q44 57 90 14q47 -43 -8 -90q-120 -107 -195 -166q-22 -15 -37 0q-18 15 -2 37q17 25 40 56t57.5 76.5t54.5 72.5zM842 1364q45 -45 -8 -90q-120 -107 -195 -166q-23 -16 -39 0q-17 14 0 37q17 25 40 56t57.5 76.5t54.5 72.5q44 57 90 14z" />
    <glyph glyph-name="Uogonek" unicode="&#x172;" horiz-adv-x="1476" 
d="M1161 1434h234v-25q-56 -6 -77.5 -36t-21.5 -93v-729q0 -72 -14 -144.5t-48.5 -147t-85 -132.5t-131 -98.5t-179.5 -48.5q-93 -85 -103 -177q-5 -42 13 -70t46.5 -36.5t60.5 -5t54 19.5l19 -22q-21 -31 -61 -53.5t-89 -22.5q-83 0 -124.5 54.5t-14.5 137.5q27 81 141 172
q-261 5 -421 158.5t-160 415.5v729q0 63 -21 93t-76 36v25h330v-25q-55 -6 -75.5 -36t-20.5 -93v-729q0 -246 122.5 -385t336.5 -139q102 0 183.5 33.5t132.5 86.5t85 123.5t47.5 140t13.5 140.5v729q0 63 -20.5 93t-75.5 36v25z" />
    <glyph glyph-name="uogonek" unicode="&#x173;" horiz-adv-x="1126" 
d="M967 0q-114 -88 -127 -197q-5 -42 13 -70t46.5 -36.5t60.5 -5t54 19.5l18 -22q-19 -31 -58.5 -53.5t-88.5 -22.5q-85 0 -127 54.5t-15 137.5q18 54 69 107t103 88h-90v160q-102 -183 -303 -183q-175 0 -285 99t-110 293v401q0 63 -20.5 94t-75.5 35v25l213 65h18v-608
q0 -76 15 -139t47 -115.5t90 -82t137 -28.5q110 0 192 88.5t82 194.5v471q0 63 -21 94t-77 35v25l213 65h18v-835q0 -63 21 -94t76 -35v-25h-88z" />
    <glyph glyph-name="Wcircumflex" unicode="&#x174;" horiz-adv-x="2097" 
d="M1788 1434h268v-25q-109 -12 -145 -129l-393 -1280h-54l-424 1245l-370 -1245h-52l-440 1280q-22 65 -52 94t-85 35v25h371v-25q-60 -6 -86 -38t-7 -91l367 -1087l369 1241h57l422 -1246l334 1092q19 66 0 94.5t-80 34.5v25zM1124 1825l275 -248l-17 -25l-295 177
l-292 -177l-17 25l275 248h71z" />
    <glyph glyph-name="wcircumflex" unicode="&#x175;" horiz-adv-x="1509" 
d="M1286 969h182v-25q-66 -5 -92 -86l-307 -858h-43l-283 776l-262 -776h-41l-334 856q-31 82 -106 88v25h293v-25q-38 -3 -51.5 -29t0.5 -67l256 -684l270 805h31l286 -809l248 694q33 87 -47 90v25zM831 1395l275 -248l-16 -25l-295 176l-293 -176l-17 25l275 248h71z" />
    <glyph glyph-name="Ycircumflex" unicode="&#x176;" horiz-adv-x="1320" 
d="M1012 1434h268v-25q-104 -11 -168 -129l-360 -674v-452q0 -64 20.5 -94.5t75.5 -34.5v-25h-330v25q55 4 75.5 34.5t20.5 94.5v436l-405 690q-68 119 -168 129v25h371v-25q-59 -6 -76 -38t16 -91l377 -635l342 635q61 117 -59 129v25zM758 1825l274 -248l-16 -25l-295 177
l-293 -177l-16 25l274 248h72z" />
    <glyph glyph-name="ycircumflex" unicode="&#x177;" horiz-adv-x="1042" 
d="M819 969h182v-25q-65 -5 -96 -86l-344 -858q-102 -233 -177.5 -328.5t-176.5 -117.5q-41 -10 -91 -2t-81 34q-30 25 -34 64.5t28 68.5q36 28 70.5 14.5t45.5 -50.5q13 -39 38 -57.5t75 -4.5q59 16 120 100.5t142 278.5l-375 856q-37 82 -112 88v25h293v-25
q-38 -3 -49.5 -30.5t6.5 -65.5l297 -696l282 702q34 87 -43 90v25zM557 1395l274 -248l-16 -25l-295 176l-293 -176l-16 25l274 248h72z" />
    <glyph glyph-name="Ydieresis" unicode="&#x178;" horiz-adv-x="1320" 
d="M1012 1434h268v-25q-104 -11 -168 -129l-360 -674v-452q0 -64 20.5 -94.5t75.5 -34.5v-25h-330v25q55 4 75.5 34.5t20.5 94.5v436l-405 690q-68 119 -168 129v25h371v-25q-59 -6 -76 -38t16 -91l377 -635l342 635q61 117 -59 129v25zM547 1804q43 0 72.5 -27t29.5 -73
t-29.5 -73t-72.5 -27t-73 27t-30 73t30 73t73 27zM895 1804q43 0 72.5 -27t29.5 -73t-29.5 -73t-72.5 -27t-71.5 27t-28.5 73t28.5 73t71.5 27z" />
    <glyph glyph-name="Zacute" unicode="&#x179;" horiz-adv-x="1239" 
d="M1143 264h24l-39 -264h-1056v37l882 1358h-559q-61 0 -108 -21.5t-77 -60.5t-46 -71t-31 -75h-24l41 267h964v-39l-887 -1358h654q61 0 108 21.5t77 60t46 70.5t31 75zM813 1749q26 -58 -39 -84q-122 -52 -237 -94q-24 -9 -35 12q-11 20 10 35q88 66 211 145
q60 43 90 -14z" />
    <glyph glyph-name="zacute" unicode="&#x17a;" horiz-adv-x="964" 
d="M848 252h24l-38 -252h-762v37l608 895h-299q-191 0 -260 -215h-27l41 252h690v-37l-608 -895h369q61 0 108 19.5t77 55.5t46.5 67.5t30.5 72.5zM645 1319q26 -58 -39 -84q-122 -52 -237 -94q-24 -9 -35 12q-11 20 10 35q88 66 211 145q60 43 90 -14z" />
    <glyph glyph-name="Zdotaccent" unicode="&#x17b;" horiz-adv-x="1239" 
d="M1143 264h24l-39 -264h-1056v37l882 1358h-559q-61 0 -108 -21.5t-77 -60.5t-46 -71t-31 -75h-24l41 267h964v-39l-887 -1358h654q61 0 108 21.5t77 60t46 70.5t31 75zM659 1804q43 0 73 -27t30 -73t-30 -73t-73 -27t-71.5 27t-28.5 73t28.5 73t71.5 27z" />
    <glyph glyph-name="zdotaccent" unicode="&#x17c;" horiz-adv-x="964" 
d="M848 252h24l-38 -252h-762v37l608 895h-299q-191 0 -260 -215h-27l41 252h690v-37l-608 -895h369q61 0 108 19.5t77 55.5t46.5 67.5t30.5 72.5zM492 1374q43 0 72.5 -27t29.5 -73t-29.5 -73t-72.5 -27t-72 27t-29 73t29 73t72 27z" />
    <glyph glyph-name="Zcaron" unicode="&#x17d;" horiz-adv-x="1239" 
d="M1143 264h24l-39 -264h-1056v37l882 1358h-559q-61 0 -108 -21.5t-77 -60.5t-46 -71t-31 -75h-24l41 267h964v-39l-887 -1358h654q61 0 108 21.5t77 60t46 70.5t31 75zM932 1825l18 -25l-276 -248h-70l-276 248l18 25l293 -176z" />
    <glyph glyph-name="zcaron" unicode="&#x17e;" horiz-adv-x="964" 
d="M848 252h24l-38 -252h-762v37l608 895h-299q-191 0 -260 -215h-27l41 252h690v-37l-608 -895h369q61 0 108 19.5t77 55.5t46.5 67.5t30.5 72.5zM784 1395l19 -25l-277 -248h-69l-277 248l19 25l293 -176z" />
    <glyph glyph-name="longs" unicode="&#x17f;" horiz-adv-x="561" 
d="M637 1409q51 -32 63.5 -77t-20.5 -72q-31 -27 -69 -5t-42 78q-4 48 -35.5 72.5t-78.5 19.5q-31 -3 -53 -13t-33.5 -30t-17.5 -41t-7 -56.5t0.5 -65.5t3.5 -78t2 -84v-905q0 -63 20.5 -93t75.5 -34v-25h-327v25q56 4 77 34t21 93v780h-186v37h186v149q-3 75 5.5 130.5
t34 104.5t80 75t136.5 26q96 0 164 -45z" />
    <glyph glyph-name="AEacute" unicode="&#x1fc;" horiz-adv-x="1970" 
d="M1864 252h24l-39 -252h-979v25q55 4 76 35t21 94v333h-496l-211 -333q-36 -59 -23 -91.5t72 -37.5v-25h-268v25q94 7 170 129l713 1126q35 57 20 90t-74 39v25h926l39 -252h-25q-14 39 -31 70t-47.5 67t-77.5 56t-106 20h-444v-645h319q68 0 107 16.5t53.5 42.5t22.5 74
h24v-305h-24q-8 48 -22.5 74t-53.5 42.5t-107 16.5h-319v-674h498q59 0 106 20.5t77.5 57t47 67.5t31.5 70zM496 526h471v744zM1362 1749q26 -58 -39 -84q-116 -49 -238 -94q-24 -9 -34 12q-11 20 10 35q88 66 211 145q60 43 90 -14z" />
    <glyph glyph-name="aeacute" unicode="&#x1fd;" horiz-adv-x="1632" 
d="M1581 539h-741v-47q0 -113 40.5 -203t104.5 -142t144 -77t158 -17t148.5 47.5t112.5 106.5l25 -19q-139 -208 -379 -208q-168 0 -298 94t-177 256q-6 -153 -106 -251.5t-246 -98.5q-135 0 -222.5 70.5t-91.5 182.5q-3 127 85.5 211.5t230.5 98.5l325 24v105
q0 164 -52.5 226.5t-174.5 62.5q-79 0 -133 -42t-53 -112q1 -58 -31 -80.5t-72 -7.5q-36 16 -42 54.5t14 68.5q35 70 118 106t191 41q54 2 103 -6.5t95 -27.5t82.5 -54.5t57.5 -85.5q66 85 164 129.5t217 44.5q94 0 167.5 -31t116.5 -77.5t71 -107.5t38 -114.5t10 -105.5
v-14zM1178 961q-142 0 -230.5 -100.5t-105.5 -285.5h612q-1 53 -7.5 99.5t-24.5 101.5t-47 93.5t-79.5 65t-117.5 26.5zM694 375v164q-104 -5 -268 -25q-118 -15 -185.5 -88t-62.5 -180q3 -102 70.5 -159t175.5 -54q124 3 197 103t73 239zM1051 1319q26 -58 -39 -84
q-116 -49 -238 -94q-24 -9 -35 12q-11 19 11 35q88 66 211 145q60 43 90 -14z" />
    <glyph glyph-name="Oslashacute" unicode="&#x1fe;" horiz-adv-x="1628" 
d="M1362 1231q97 -99 151 -230.5t54 -283.5q0 -159 -59.5 -297t-161 -234t-240.5 -151t-293 -55q-148 0 -280 49t-234 141l-164 -166l-33 33l164 164q-97 99 -151 231.5t-54 284.5q0 158 59.5 296t161 234.5t239.5 151.5t292 55q305 0 516 -192l164 165l33 -30zM205 717
q0 -264 129 -449l932 932q-86 105 -204 161t-249 56q-119 0 -228 -48t-194 -135.5t-135.5 -221.5t-50.5 -295zM813 14q120 0 229.5 48t194.5 136t135.5 223t50.5 296q0 261 -129 446l-932 -932q86 -104 204 -160.5t247 -56.5zM967 1749q26 -58 -39 -84q-116 -49 -238 -94
q-24 -9 -35 12q-11 19 11 35q88 66 211 145q60 43 90 -14z" />
    <glyph glyph-name="oslashacute" unicode="&#x1ff;" horiz-adv-x="1099" 
d="M1036 958l-129 -129q121 -137 121 -346q0 -153 -67 -269t-178 -175t-248 -59q-210 0 -347 131l-127 -127l-26 26l127 129q-121 137 -121 344q0 153 67.5 269.5t179 176.5t247.5 60q212 0 346 -131l127 127zM182 483q0 -156 54 -270l579 580q-46 80 -118 122.5t-162 42.5
q-157 0 -255 -128.5t-98 -346.5zM887 483q0 161 -53 273l-580 -580q48 -80 120 -123t161 -43q158 0 255 127.5t97 345.5zM680 1319q26 -58 -39 -84q-116 -49 -238 -94q-24 -9 -34 12q-11 20 10 35q88 66 211 145q60 43 90 -14z" />
    <glyph glyph-name="Scommaaccent" unicode="&#x218;" 
d="M279 1192q-7 -64 18 -121t72.5 -100.5t111 -83.5t134 -77t140.5 -74.5t131 -81t105 -92t63.5 -112.5t6.5 -137q-31 -171 -158.5 -253.5t-318.5 -79.5q-127 3 -269.5 41t-232.5 102v270h24q22 -92 72.5 -165.5t117 -118t140 -68t148.5 -25.5q132 -3 226.5 54t119.5 176
q14 69 -7 127t-67 101t-109 82t-134.5 75t-142.5 73t-132.5 83t-105.5 99t-61.5 127t-0.5 161q27 137 132.5 209.5t266.5 72.5q218 0 418 -153v-256h-22q-92 372 -396 372q-113 0 -196 -58.5t-94 -168.5zM612 -160q42 0 72 -31.5t31 -82.5q1 -55 -16.5 -111t-46.5 -99.5
t-58.5 -76.5t-58.5 -55l-29 30q113 119 123 226h-17q-43 0 -71.5 27t-28.5 73t28.5 73t71.5 27z" />
    <glyph glyph-name="scommaaccent" unicode="&#x219;" horiz-adv-x="841" 
d="M473 555q132 -62 172 -88q119 -76 123 -187q2 -29 -4 -61q-21 -115 -118 -177t-243 -62q-98 0 -197 28t-165 78v195h20q20 -83 77.5 -146t126.5 -94t138 -33q97 -3 166 40t86 114q6 24 7 45t-7 40t-14.5 33t-26 30.5t-30 25.5t-39.5 24.5t-40.5 21.5t-46.5 22.5t-46 21.5
q-33 15 -55.5 26t-54.5 28.5t-53.5 32t-47 34.5t-41.5 39.5t-31 45t-21 51t-6 57t9 65.5q22 87 104 135.5t203 48.5q167 0 301 -104v-180h-21q-32 129 -104 193.5t-176 62.5q-84 0 -142.5 -36t-64.5 -106q-4 -45 14.5 -84t62 -72t82.5 -55.5t103 -52.5zM410 -160
q42 0 71.5 -31.5t30.5 -82.5q1 -55 -16.5 -111t-46.5 -99.5t-58.5 -76.5t-58.5 -55l-29 30q113 119 123 226h-16q-43 0 -72 27t-29 73t29 73t72 27z" />
    <glyph glyph-name="circumflex" unicode="&#x2c6;" horiz-adv-x="825" 
d="M449 1415l274 -248l-16 -24l-295 176l-293 -176l-17 24l275 248h72z" />
    <glyph glyph-name="caron" unicode="&#x2c7;" horiz-adv-x="827" 
d="M707 1415l18 -24l-276 -248h-70l-277 248l19 24l293 -176z" />
    <glyph glyph-name="breve" unicode="&#x2d8;" horiz-adv-x="708" 
d="M575 1386l31 -8q-13 -89 -80.5 -151t-171.5 -62q-105 0 -173 62.5t-79 150.5l31 8q51 -131 221 -131q167 0 221 131z" />
    <glyph glyph-name="dotaccent" unicode="&#x2d9;" horiz-adv-x="407" 
d="M203 1395q43 0 72.5 -27.5t29.5 -73.5t-29.5 -73t-72.5 -27t-72 27t-29 73t29 73.5t72 27.5z" />
    <glyph glyph-name="ring" unicode="&#x2da;" horiz-adv-x="632" 
d="M317 1513q90 0 151.5 -54t61.5 -142q0 -90 -61 -143.5t-152 -53.5q-92 0 -153.5 53.5t-61.5 143.5q0 89 61.5 142.5t153.5 53.5zM317 1145q59 0 94 48.5t35 123.5t-35 123.5t-94 48.5q-60 0 -95.5 -48.5t-35.5 -123.5t35.5 -123.5t95.5 -48.5z" />
    <glyph glyph-name="ogonek" unicode="&#x2db;" horiz-adv-x="503" 
d="M285 0h51q-115 -92 -127 -197q-5 -42 13.5 -70t47.5 -36.5t61 -5t54 19.5l16 -22q-19 -31 -58.5 -53.5t-88.5 -22.5q-85 0 -126.5 54.5t-12.5 137.5q17 53 67 105.5t103 89.5z" />
    <glyph glyph-name="tilde" unicode="&#x2dc;" horiz-adv-x="872" 
d="M735 1339h35q-9 -89 -53.5 -129.5t-114.5 -40.5q-27 0 -55.5 6.5t-44 12t-52.5 21t-49 20.5q-89 39 -145 39q-74 0 -119 -80h-35q10 91 61.5 134.5t125.5 43.5q42 0 80.5 -12t97.5 -39q17 -7 53.5 -25t61.5 -26.5t51 -8.5q81 0 102 84z" />
    <glyph glyph-name="hungarumlaut" unicode="&#x2dd;" horiz-adv-x="772" 
d="M262 1370q44 57 90 14q47 -43 -8 -90q-127 -114 -194 -166q-22 -15 -37 0q-18 15 -2 37q17 25 151 205zM649 1384q45 -45 -8 -90q-120 -107 -195 -166q-22 -16 -38 0q-17 14 0 37q17 25 151 205q44 57 90 14z" />
    <glyph glyph-name="Wgrave" unicode="&#x1e80;" horiz-adv-x="2097" 
d="M1788 1434h268v-25q-109 -12 -145 -129l-393 -1280h-54l-424 1245l-370 -1245h-52l-440 1280q-22 65 -52 94t-85 35v25h371v-25q-60 -6 -86 -38t-7 -91l367 -1087l369 1241h57l422 -1246l334 1092q19 66 0 94.5t-80 34.5v25zM1217 1618q21 -15 10 -35q-11 -21 -35 -12
q-100 37 -238 94q-66 27 -36 84q29 56 90 14q145 -95 209 -145z" />
    <glyph glyph-name="wgrave" unicode="&#x1e81;" horiz-adv-x="1509" 
d="M1286 969h182v-25q-66 -5 -92 -86l-307 -858h-43l-283 776l-262 -776h-41l-334 856q-31 82 -106 88v25h293v-25q-38 -3 -51.5 -29t0.5 -67l256 -684l270 805h31l286 -809l248 694q33 87 -47 90v25zM924 1188q21 -15 10 -35q-11 -21 -35 -12q-92 34 -237 94q-66 27 -37 84
q29 56 90 14q145 -95 209 -145z" />
    <glyph glyph-name="Wacute" unicode="&#x1e82;" horiz-adv-x="2097" 
d="M1788 1434h268v-25q-109 -12 -145 -129l-393 -1280h-54l-424 1245l-370 -1245h-52l-440 1280q-22 65 -52 94t-85 35v25h371v-25q-60 -6 -86 -38t-7 -91l367 -1087l369 1241h57l422 -1246l334 1092q19 66 0 94.5t-80 34.5v25zM1241 1749q26 -58 -39 -84q-122 -52 -237 -94
q-24 -9 -35 12q-11 20 10 35q88 66 211 145q60 43 90 -14z" />
    <glyph glyph-name="wacute" unicode="&#x1e83;" horiz-adv-x="1509" 
d="M1286 969h182v-25q-66 -5 -92 -86l-307 -858h-43l-283 776l-262 -776h-41l-334 856q-31 82 -106 88v25h293v-25q-38 -3 -51.5 -29t0.5 -67l256 -684l270 805h31l286 -809l248 694q33 87 -47 90v25zM948 1319q26 -58 -39 -84q-122 -52 -237 -94q-24 -9 -35 12
q-11 20 10 35q88 66 211 145q60 43 90 -14z" />
    <glyph glyph-name="Wdieresis" unicode="&#x1e84;" horiz-adv-x="2097" 
d="M1788 1434h268v-25q-109 -12 -145 -129l-393 -1280h-54l-424 1245l-370 -1245h-52l-440 1280q-22 65 -52 94t-85 35v25h371v-25q-60 -6 -86 -38t-7 -91l367 -1087l369 1241h57l422 -1246l334 1092q19 66 0 94.5t-80 34.5v25zM915 1804q43 0 73 -27t30 -73t-30 -73
t-73 -27t-72.5 27t-29.5 73t29.5 73t72.5 27zM1264 1804q43 0 72.5 -27t29.5 -73t-29.5 -73t-72.5 -27t-72 27t-29 73t29 73t72 27z" />
    <glyph glyph-name="wdieresis" unicode="&#x1e85;" horiz-adv-x="1509" 
d="M1286 969h182v-25q-66 -5 -92 -86l-307 -858h-43l-283 776l-262 -776h-41l-334 856q-31 82 -106 88v25h293v-25q-38 -3 -51.5 -29t0.5 -67l256 -684l270 805h31l286 -809l248 694q33 87 -47 90v25zM600 1374q43 0 72.5 -27t29.5 -73t-29.5 -73t-72.5 -27t-72.5 27
t-29.5 73t29.5 73t72.5 27zM948 1374q43 0 73 -27t30 -73t-30 -73t-73 -27t-71.5 27t-28.5 73t28.5 73t71.5 27z" />
    <glyph glyph-name="Ygrave" unicode="&#x1ef2;" horiz-adv-x="1320" 
d="M1012 1434h268v-25q-104 -11 -168 -129l-360 -674v-452q0 -64 20.5 -94.5t75.5 -34.5v-25h-330v25q55 4 75.5 34.5t20.5 94.5v436l-405 690q-68 119 -168 129v25h371v-25q-59 -6 -76 -38t16 -91l377 -635l342 635q61 117 -59 129v25zM850 1618q21 -15 10 -35
q-11 -21 -35 -12q-92 34 -237 94q-66 27 -37 84q29 56 90 14q145 -95 209 -145z" />
    <glyph glyph-name="ygrave" unicode="&#x1ef3;" horiz-adv-x="1042" 
d="M819 969h182v-25q-65 -5 -96 -86l-344 -858q-102 -233 -177.5 -328.5t-176.5 -117.5q-41 -10 -91 -2t-81 34q-30 25 -34 64.5t28 68.5q36 28 70.5 14.5t45.5 -50.5q13 -39 38 -57.5t75 -4.5q59 16 120 100.5t142 278.5l-375 856q-37 82 -112 88v25h293v-25
q-38 -3 -49.5 -30.5t6.5 -65.5l297 -696l282 702q34 87 -43 90v25zM711 1188q21 -15 10 -35q-11 -21 -35 -12q-92 34 -237 94q-66 27 -37 84q29 56 90 14q145 -95 209 -145z" />
    <glyph glyph-name="endash" unicode="&#x2013;" horiz-adv-x="989" 
d="M102 682h785v-45h-785v45z" />
    <glyph glyph-name="emdash" unicode="&#x2014;" horiz-adv-x="1093" 
d="M102 682h889v-45h-889v45z" />
    <glyph glyph-name="quoteleft" unicode="&#x2018;" horiz-adv-x="413" 
d="M205 1337q43 0 72.5 -26t29.5 -70q0 -46 -29.5 -73t-72.5 -27q-42 0 -71 30.5t-30 81.5q-2 73 30.5 146.5t70.5 119t78 76.5l28 -28q-110 -118 -123 -230h17z" />
    <glyph glyph-name="quoteright" unicode="&#x2019;" horiz-adv-x="413" 
d="M207 1454q42 0 71.5 -31t30.5 -82q1 -56 -16.5 -111.5t-46.5 -99.5t-58.5 -76.5t-58.5 -54.5l-27 29q111 116 121 229h-16q-42 0 -71.5 26t-29.5 71t29.5 72.5t71.5 27.5z" />
    <glyph glyph-name="quotesinglbase" unicode="&#x201a;" horiz-adv-x="415" 
d="M209 178q42 0 71.5 -31t30.5 -84q1 -55 -16.5 -111t-46.5 -99.5t-58.5 -76.5t-58.5 -55l-29 31q113 119 123 228h-16q-43 0 -71.5 26t-28.5 72t28.5 73t71.5 27z" />
    <glyph glyph-name="quotedblleft" unicode="&#x201c;" horiz-adv-x="743" 
d="M535 1337q43 0 72.5 -26t29.5 -70q0 -46 -29.5 -73t-72.5 -27q-42 0 -71 30.5t-30 81.5q-2 73 30 146.5t70 119t78 76.5l29 -28q-110 -118 -123 -230h17zM285 1595l28 -28q-113 -122 -123 -230h17q43 0 71.5 -26t28.5 -70q0 -46 -28.5 -73t-71.5 -27t-72.5 30.5
t-30.5 81.5q-2 73 30.5 146.5t71 119t79.5 76.5z" />
    <glyph glyph-name="quotedblright" unicode="&#x201d;" horiz-adv-x="743" 
d="M207 1454q42 0 71.5 -31t30.5 -82q1 -56 -16.5 -111.5t-46.5 -99.5t-58.5 -76.5t-58.5 -54.5l-27 29q110 115 123 229h-18q-42 0 -71.5 26t-29.5 71t29.5 72.5t71.5 27.5zM537 1454q42 0 71.5 -31t30.5 -82q1 -56 -16.5 -111.5t-46.5 -99.5t-58.5 -76.5t-58.5 -54.5
l-29 29q113 119 123 229h-16q-43 0 -73 26t-30 71q0 46 30 73t73 27z" />
    <glyph glyph-name="quotedblbase" unicode="&#x201e;" horiz-adv-x="743" 
d="M209 178q42 0 71.5 -31t30.5 -84q1 -55 -16.5 -111t-46.5 -99.5t-58.5 -76.5t-58.5 -55l-29 31q113 119 123 228h-16q-43 0 -71.5 26t-28.5 72t28.5 73t71.5 27zM539 178q42 0 70.5 -31t29.5 -84q3 -104 -54.5 -197t-123.5 -145l-29 31q109 115 123 228h-16
q-43 0 -73 26.5t-30 71.5q0 46 30 73t73 27z" />
    <glyph glyph-name="dagger" unicode="&#x2020;" horiz-adv-x="960" 
d="M776 1133q82 8 82 -64q0 -71 -82 -63q-51 4 -96 10.5t-95 15.5t-73 12q-1 0 -3 1.5t-3 1.5q2 -110 20 -412t23 -520q1 -52 -19 -76.5t-49 -24.5q-30 0 -50 24t-19 77q6 225 24.5 528.5t20.5 403.5q-2 0 -4.5 -1.5t-3.5 -1.5q-23 -3 -73 -12t-95 -15.5t-97 -10.5
q-42 -4 -62 13.5t-20 49.5t20 50t62 14q52 -4 97.5 -11t94 -15.5t73.5 -12.5q2 -2 6 -2q-21 139 -39 307q-5 82 65 82q72 0 64 -82q-18 -168 -39 -307q4 0 6 2q25 4 73.5 12.5t94 15.5t96.5 11z" />
    <glyph glyph-name="daggerdbl" unicode="&#x2021;" horiz-adv-x="960" 
d="M776 717q82 8 82 -64q0 -71 -82 -63q-49 5 -90 10.5t-93.5 15t-66.5 11.5q20 -369 23 -512q1 -52 -19 -76.5t-49 -24.5t-49.5 24.5t-19.5 76.5q9 288 24 512q-18 -3 -68 -12t-92 -15t-92 -10q-42 -4 -62 13.5t-20 49.5t20 50t62 14q50 -4 94 -11t90.5 -15.5t69.5 -12.5
q18 306 19 369q-1 0 -4 -1.5t-4 -1.5q-23 -3 -73 -12t-95 -15.5t-97 -10.5q-42 -4 -62 13.5t-20 49.5t20 50t62 14q52 -4 97.5 -11t94 -15.5t73.5 -12.5q2 -2 8 -2q-28 189 -39 307q-8 82 63 82q72 0 64 -82q-11 -118 -39 -307q4 0 8 2q25 4 73 12.5t93 15.5t96 11
q82 8 82 -64q0 -71 -82 -63q-51 4 -96 10.5t-93.5 15t-72.5 12.5q-2 0 -4.5 1.5t-3.5 1.5q2 -88 18 -369q23 4 69.5 12.5t90 15.5t92.5 11z" />
    <glyph glyph-name="bullet" unicode="&#x2022;" horiz-adv-x="530" 
d="M266 952q69 0 115.5 -42.5t46.5 -114.5q0 -74 -46.5 -117t-115.5 -43t-116.5 43t-47.5 117q0 72 47.5 114.5t116.5 42.5z" />
    <glyph glyph-name="ellipsis" unicode="&#x2026;" 
d="M203 178q43 0 72.5 -27t29.5 -73t-29.5 -73.5t-72.5 -27.5t-72 27.5t-29 73.5t29 73t72 27zM573 178q43 0 73 -27t30 -73t-30 -73.5t-73 -27.5q-41 0 -70.5 27.5t-29.5 73.5t29 73t71 27zM946 178q43 0 72 -27t29 -73t-29 -73.5t-72 -27.5t-72.5 27.5t-29.5 73.5t29.5 73
t72.5 27z" />
    <glyph glyph-name="perthousand" unicode="&#x2030;" horiz-adv-x="2611" 
d="M2200 754q148 0 244 -105.5t96 -281.5t-96 -281.5t-244 -105.5q-149 0 -245.5 105t-96.5 282t96.5 282t245.5 105zM2200 8q103 0 165 97.5t62 261.5t-62 260t-165 96q-105 0 -167.5 -96t-62.5 -260t63 -261.5t167 -97.5zM754 1065q0 -175 -96.5 -281t-245.5 -106
q-148 0 -244 106t-96 281q0 177 96 283t244 106q149 0 245.5 -106t96.5 -283zM412 709q104 0 166.5 96.5t62.5 259.5q0 164 -62.5 261t-166.5 97q-103 0 -165.5 -97t-62.5 -261q0 -162 62.5 -259t165.5 -97zM1317 754q149 0 245.5 -105t96.5 -282t-96.5 -282t-245.5 -105
q-148 0 -244 105.5t-96 281.5t96 281.5t244 105.5zM1317 8q104 0 166.5 97.5t62.5 261.5t-62 260t-167 96q-103 0 -165 -96t-62 -260t62 -261.5t165 -97.5zM1255 1434h50l-826 -1434h-49z" />
    <glyph glyph-name="guilsinglleft" unicode="&#x2039;" horiz-adv-x="555" 
d="M453 948l-228 -286l228 -287l-21 -25l-330 289v45l330 289z" />
    <glyph glyph-name="guilsinglright" unicode="&#x203a;" horiz-adv-x="555" 
d="M123 973l330 -289v-45l-330 -289l-21 25l228 287l-228 286z" />
    <glyph glyph-name="fraction" unicode="&#x2044;" horiz-adv-x="768" 
d="M621 1434h45l-519 -1434h-45z" />
    <glyph glyph-name="Euro" unicode="&#x20ac;" horiz-adv-x="1548" 
d="M1434 387h22l-41 -256q-190 -151 -485 -151q-275 0 -480.5 163t-256.5 426h-132v37h125q-8 49 -8 111q0 55 6 108h-123v39h129q47 264 243.5 427t469.5 163q141 0 278.5 -40.5t233.5 -113.5l2 -256h-24q-45 184 -178 278.5t-312 94.5q-141 0 -261 -64t-202.5 -190.5
t-107.5 -298.5h633v-39h-637q-6 -53 -6 -108t6 -111h569v-37h-565q28 -171 118 -299t214.5 -192t265.5 -64q179 0 310.5 92t193.5 281z" />
    <glyph glyph-name="ruble" unicode="&#x20bd;" horiz-adv-x="1157" 
d="M571 582h-235v-162h444v-37h-444v-229q0 -63 21 -93t77 -36v-25h-332v25q56 6 77.5 36t21.5 93v229h-99v37h99v162h-99v36h99v662q0 63 -21.5 94t-77.5 35v25h469q250 0 387.5 -115.5t137.5 -310.5t-137.5 -310.5t-387.5 -115.5zM336 1397v-779h223q194 0 295.5 107.5
t101.5 282.5t-101.5 282t-295.5 107h-223z" />
    <glyph glyph-name="bitcoin" unicode="&#x20bf;" horiz-adv-x="1275" 
d="M1214 385q0 -175 -127.5 -269t-359.5 -112v-244h-39v242q-25 -2 -76 -2h-127v-240h-39v240h-344v25q55 4 76 35t21 94v1126q0 63 -21 93t-76 36v25h344v237h39v-237h54q63 0 149 -11v248h39v-254q164 -30 253 -114t89 -220q0 -126 -93 -213.5t-224 -103.5
q211 -12 336.5 -112.5t125.5 -268.5zM336 1395v-623h203q196 0 298.5 78t102.5 233q0 149 -107 230.5t-309 81.5h-188zM598 37q87 0 153.5 8t130 30.5t104.5 60.5t66 100.5t25 148.5q0 78 -25 138.5t-68 99.5t-105 64t-131 35.5t-150 10.5l2 2l-2 -2h-262v-696h262z" />
    <glyph glyph-name="afii61352" unicode="&#x2116;" horiz-adv-x="2396" 
d="M1487 653h837v-41h-837v41zM1137 1409v25h233v-25q-56 -6 -77 -36t-21 -93v-1280h-70l-964 1243v-1089q0 -64 20.5 -94.5t75.5 -34.5v-25h-232v25q55 4 76 34.5t21 94.5v1126q0 63 -21 93t-76 36v25h168l965 -1244v1090q0 63 -21 93t-77 36zM1905 885q-116 0 -197.5 80
t-81.5 204t81.5 204.5t197.5 80.5q117 0 198.5 -80.5t81.5 -204.5t-81 -204t-199 -80zM1905 1417q-85 0 -136 -66.5t-51 -181.5t51 -181t136 -66q87 0 137.5 66t50.5 181t-50.5 181.5t-137.5 66.5z" />
    <glyph glyph-name="minus" unicode="&#x2212;" horiz-adv-x="894" 
d="M102 682h691v-45h-691v45z" />
    <glyph glyph-name="approxequal" unicode="&#x2248;" horiz-adv-x="872" 
d="M254 872q-76 0 -117 -81h-35q14 192 191 192q72 0 172 -49q4 -2 17.5 -9t17.5 -9t16 -8.5t17 -8.5t15.5 -6.5t16.5 -6.5t16 -5t17 -4t16 -2t17 -1q80 0 104 82h35q-13 -182 -170 -182q-18 0 -37 2.5t-32 5.5t-33.5 10.5t-30.5 11.5t-34.5 15t-33.5 15q-84 38 -145 38z
M631 592q80 0 104 84h35q-13 -182 -170 -182q-18 0 -37.5 3t-31.5 5t-34.5 10.5t-29.5 11t-35 15t-33 14.5q-93 39 -145 39q-75 0 -117 -82h-35q14 192 191 192q72 0 172 -49q2 -1 23.5 -12.5t26 -13.5t22 -10.5t25 -10.5t21.5 -6.5t25 -6t23 -1.5z" />
    <glyph glyph-name="notequal" unicode="&#x2260;" horiz-adv-x="894" 
d="M793 784h-248l-146 -252h394v-45h-418l-121 -208l-39 22l107 186h-220v45h246l146 252h-392v45h418l119 209l39 -22l-107 -187h222v-45z" />
    <glyph glyph-name="commaaccent" unicode="&#xf6c3;" horiz-adv-x="415" 
d="M209 -160q42 0 71.5 -31.5t30.5 -82.5q1 -55 -16.5 -111t-46.5 -99.5t-58.5 -76.5t-58.5 -55l-29 30q113 119 123 226h-16q-43 0 -71.5 27t-28.5 73t28.5 73t71.5 27z" />
    </font>
</defs>
</svg>
