<svg width="14" height="12" viewBox="0 0 14 12" fill="none" xmlns="http://www.w3.org/2000/svg">
<path d="M0.75 3C0.75 2.80109 0.829018 2.61032 0.96967 2.46967C1.11032 2.32902 1.30109 2.25 1.5 2.25H3.25C3.44891 2.25 3.63968 2.32902 3.78033 2.46967C3.92098 2.61032 4 2.80109 4 3C4 3.19891 3.92098 3.38968 3.78033 3.53033C3.63968 3.67098 3.44891 3.75 3.25 3.75H1.5C1.30109 3.75 1.11032 3.67098 0.96967 3.53033C0.829018 3.38968 0.75 3.19891 0.75 3ZM12.5 8.25H10.5V7.5C10.5 7.30109 10.421 7.11032 10.2803 6.96967C10.1397 6.82902 9.94891 6.75 9.75 6.75C9.55109 6.75 9.36032 6.82902 9.21967 6.96967C9.07902 7.11032 9 7.30109 9 7.5V10.5C9 10.6989 9.07902 10.8897 9.21967 11.0303C9.36032 11.171 9.55109 11.25 9.75 11.25C9.94891 11.25 10.1397 11.171 10.2803 11.0303C10.421 10.8897 10.5 10.6989 10.5 10.5V9.75H12.5C12.6989 9.75 12.8897 9.67098 13.0303 9.53033C13.171 9.38968 13.25 9.19891 13.25 9C13.25 8.80109 13.171 8.61032 13.0303 8.46967C12.8897 8.32902 12.6989 8.25 12.5 8.25ZM7.25 8.25H1.5C1.30109 8.25 1.11032 8.32902 0.96967 8.46967C0.829018 8.61032 0.75 8.80109 0.75 9C0.75 9.19891 0.829018 9.38968 0.96967 9.53033C1.11032 9.67098 1.30109 9.75 1.5 9.75H7.25C7.44891 9.75 7.63968 9.67098 7.78033 9.53033C7.92098 9.38968 8 9.19891 8 9C8 8.80109 7.92098 8.61032 7.78033 8.46967C7.63968 8.32902 7.44891 8.25 7.25 8.25ZM5.75 5.25C5.94891 5.25 6.13968 5.17098 6.28033 5.03033C6.42098 4.88968 6.5 4.69891 6.5 4.5V3.75H12.5C12.6989 3.75 12.8897 3.67098 13.0303 3.53033C13.171 3.38968 13.25 3.19891 13.25 3C13.25 2.80109 13.171 2.61032 13.0303 2.46967C12.8897 2.32902 12.6989 2.25 12.5 2.25H6.5V1.5C6.5 1.30109 6.42098 1.11032 6.28033 0.96967C6.13968 0.829018 5.94891 0.75 5.75 0.75C5.55109 0.75 5.36032 0.829018 5.21967 0.96967C5.07902 1.11032 5 1.30109 5 1.5V4.5C5 4.69891 5.07902 4.88968 5.21967 5.03033C5.36032 5.17098 5.55109 5.25 5.75 5.25Z" fill="#F2BF91"/>
</svg>
