<svg width="344" height="257" viewBox="0 0 344 257" fill="none" xmlns="http://www.w3.org/2000/svg">
<path d="M192.947 76.666C189.616 73.3345 183.748 73.7178 178.691 76.9461L179.089 77.5652C184.021 74.418 189.461 74.2116 192.431 77.1819L192.955 76.6586L192.947 76.666ZM195.078 84.9873C195.682 81.6411 194.945 78.6782 192.947 76.6734L192.424 77.1967C194.215 78.9877 194.923 81.6927 194.355 84.862L195.078 84.9947V84.9873ZM189.903 94.3553C192.638 91.6208 194.481 88.2967 195.078 84.9873L194.355 84.8547C193.788 87.9945 192.026 91.186 189.387 93.832L189.91 94.3553H189.903ZM184.367 98.2764C186.357 97.3404 188.259 95.9989 189.903 94.3553L189.38 93.832C187.795 95.4166 185.959 96.7139 184.058 97.6131L184.375 98.2838L184.367 98.2764ZM189.903 101.534C188.259 99.8906 186.357 98.5417 184.367 97.6131L184.05 98.2838C185.959 99.183 187.788 100.473 189.38 102.065L189.903 101.542V101.534ZM190.316 101.962C190.183 101.822 190.043 101.674 189.903 101.534L189.38 102.057C189.512 102.19 189.645 102.33 189.778 102.47L190.316 101.962ZM184.205 97.9374L184.05 97.6057L183.343 97.9374L184.05 98.269L184.205 97.9374Z" fill="#EEEEEC"/>
<path d="M195.078 84.9873C195.682 81.6411 194.945 78.6782 192.947 76.6734L192.424 77.1967C194.215 78.9877 194.923 81.6927 194.355 84.862L195.078 84.9947V84.9873ZM195.078 84.9873C194.481 88.2967 192.638 91.6208 189.903 94.3553M195.078 84.9873L194.355 84.8547C193.788 87.9945 192.026 91.186 189.387 93.832L189.91 94.3553H189.903M189.903 94.3553C188.259 95.9989 186.357 97.3404 184.367 98.2764L184.375 98.2838L184.058 97.6131C185.959 96.7139 187.795 95.4166 189.38 93.832L189.903 94.3553ZM189.903 101.534C188.259 99.8906 186.357 98.5417 184.367 97.6131L184.05 98.2838C185.959 99.183 187.788 100.473 189.38 102.065L189.903 101.542V101.534ZM189.903 101.534C190.043 101.674 190.183 101.822 190.316 101.962L189.778 102.47C189.645 102.33 189.512 102.19 189.38 102.057L189.903 101.534ZM192.682 76.924L192.94 76.666M194.709 84.9136L194.348 84.8473M189.638 94.0826L189.38 93.8246M189.638 101.792L189.38 102.05M192.947 76.666C189.616 73.3345 183.748 73.7178 178.691 76.9461L179.089 77.5652C184.021 74.418 189.461 74.2116 192.431 77.1819L192.955 76.6586L192.947 76.666ZM184.205 97.9374L184.05 97.6057L183.343 97.9374L184.05 98.269L184.205 97.9374Z" stroke="#EEEEEC" stroke-width="0.5"/>
<path d="M148.255 84.9866C148.624 87.0429 149.479 89.0993 150.717 91.0157L151.337 90.6177C150.143 88.7677 149.332 86.7997 148.978 84.8539L148.255 84.9866ZM150.386 76.6652C148.388 78.6626 147.651 81.6403 148.255 84.9866L148.978 84.8539C148.403 81.6846 149.118 78.9796 150.902 77.1885L150.378 76.6652H150.386ZM168.069 79.7093C165.239 76.879 161.855 75.1027 158.664 74.5351C155.472 73.9676 152.442 74.6089 150.386 76.6652L150.909 77.1885C152.745 75.3533 155.509 74.7268 158.538 75.2648C161.561 75.8029 164.811 77.4907 167.553 80.2326L168.077 79.7093H168.069ZM171.991 85.2372C171.062 83.2545 169.706 81.3529 168.069 79.7093L167.546 80.2326C169.131 81.8172 170.436 83.6525 171.327 85.5541L171.998 85.2445L171.991 85.2372ZM175.249 79.7093C173.605 81.3529 172.256 83.2545 171.327 85.2372L171.991 85.5541C172.89 83.6525 174.18 81.8172 175.772 80.2326L175.249 79.7093ZM175.802 79.1786C175.618 79.3481 175.433 79.525 175.249 79.7093L175.772 80.2326C175.949 80.0557 176.126 79.8862 176.303 79.724L175.802 79.186V79.1786ZM171.659 85.3993L171.327 85.5541L171.659 86.2617L171.991 85.5541L171.659 85.3993Z" fill="#EEEEEC"/>
<path d="M148.255 84.9866C148.624 87.0429 149.479 89.0993 150.717 91.0157L151.337 90.6177C150.143 88.7677 149.332 86.7997 148.978 84.8539M148.255 84.9866L148.978 84.8539M148.255 84.9866C147.651 81.6403 148.388 78.6626 150.386 76.6652M148.978 84.8539C148.403 81.6846 149.118 78.9796 150.902 77.1885L150.378 76.6652H150.386M148.978 84.8539L148.617 84.9202M150.386 76.6652C152.442 74.6089 155.472 73.9676 158.664 74.5351C161.855 75.1027 165.239 76.879 168.069 79.7093M150.386 76.6652L150.909 77.1885C152.745 75.3533 155.509 74.7268 158.538 75.2648C161.561 75.8029 164.811 77.4907 167.553 80.2326L168.077 79.7093H168.069M168.069 79.7093C169.706 81.3529 171.062 83.2545 171.991 85.2372L171.998 85.2445L171.327 85.5541M168.069 79.7093L167.546 80.2326C169.131 81.8172 170.436 83.6525 171.327 85.5541M171.327 85.5541L171.659 85.3993L171.991 85.5541M171.327 85.5541L171.659 86.2617L171.991 85.5541M175.249 79.7093C173.605 81.3529 172.256 83.2545 171.327 85.2372L171.991 85.5541M175.249 79.7093L175.772 80.2326M175.249 79.7093C175.433 79.525 175.618 79.3481 175.802 79.1786V79.186L176.303 79.724C176.126 79.8862 175.949 80.0557 175.772 80.2326M171.991 85.5541C172.89 83.6525 174.18 81.8172 175.772 80.2326M175.772 80.2326L175.514 79.9746M150.644 76.9306L150.386 76.6726M167.804 79.9746L168.062 79.7166" stroke="#EEEEEC" stroke-width="0.5"/>
<path d="M192.888 105.351L192.579 104.828L191.945 105.204L192.254 105.727L192.888 105.351ZM195.07 110.894C194.694 108.83 194.141 107.283 192.881 105.337L192.262 105.742C193.471 107.592 193.987 109.051 194.348 111.027L195.07 110.894ZM192.94 119.215C194.937 117.218 195.675 114.24 195.07 110.894L194.348 111.027C194.923 114.196 194.208 116.901 192.424 118.692L192.947 119.215H192.94ZM175.256 116.171C178.087 119.002 181.47 120.778 184.662 121.346C187.854 121.913 190.883 121.272 192.94 119.215L192.417 118.692C190.581 120.527 187.817 121.154 184.787 120.616C181.765 120.078 178.514 118.39 175.772 115.648L175.249 116.171H175.256ZM171.335 110.643C172.264 112.626 173.62 114.528 175.256 116.171L175.78 115.648C174.195 114.063 172.89 112.228 171.998 110.327L171.327 110.636L171.335 110.643ZM168.077 116.171C169.72 114.528 171.069 112.626 171.998 110.643L171.335 110.327C170.435 112.228 169.145 114.063 167.553 115.648L168.077 116.171ZM167.598 116.636C167.752 116.488 167.914 116.334 168.077 116.171L167.553 115.648C167.399 115.803 167.251 115.943 167.082 116.098L167.59 116.636H167.598ZM192.579 105.543L192.262 105.727V105.742L192.571 105.543H192.579ZM171.674 110.481L172.006 110.327L171.674 109.619L171.342 110.327L171.674 110.481Z" fill="#EEEEEC"/>
<path d="M195.07 110.894C194.694 108.83 194.141 107.283 192.881 105.337L192.262 105.742M195.07 110.894L194.348 111.027M195.07 110.894C195.675 114.24 194.937 117.218 192.94 119.215M192.262 105.742C193.471 107.592 193.987 109.051 194.348 111.027M192.262 105.742V105.727L192.579 105.543H192.571L192.262 105.742ZM194.348 111.027C194.923 114.196 194.208 116.901 192.424 118.692L192.947 119.215H192.94M192.94 119.215C190.883 121.272 187.854 121.913 184.662 121.346C181.47 120.778 178.087 119.002 175.256 116.171M192.94 119.215L192.417 118.692C190.581 120.527 187.817 121.154 184.787 120.616C181.765 120.078 178.514 118.39 175.772 115.648L175.249 116.171H175.256M175.256 116.171C173.62 114.528 172.264 112.626 171.335 110.643L171.327 110.636L171.998 110.327C172.89 112.228 174.195 114.063 175.78 115.648L175.256 116.171ZM168.077 116.171C169.72 114.528 171.069 112.626 171.998 110.643L171.335 110.327C170.435 112.228 169.145 114.063 167.553 115.648M168.077 116.171L167.553 115.648M168.077 116.171C167.914 116.334 167.752 116.488 167.598 116.636H167.59L167.082 116.098C167.251 115.943 167.399 115.803 167.553 115.648M194.716 110.96L195.078 110.894M192.689 118.95L192.947 119.208M175.529 115.906L175.271 116.164M167.819 115.906L167.561 115.648M192.888 105.351L192.579 104.828L191.945 105.204L192.254 105.727L192.888 105.351ZM171.674 110.481L172.006 110.327L171.674 109.619L171.342 110.327L171.674 110.481Z" stroke="#EEEEEC" stroke-width="0.5"/>
<path d="M156.504 121.537C159.135 121.537 162.04 120.616 164.73 118.877L164.332 118.257C161.737 119.938 158.973 120.8 156.511 120.8V121.537H156.504ZM150.393 119.216C151.978 120.8 154.138 121.537 156.504 121.537V120.8C154.292 120.8 152.332 120.107 150.916 118.692L150.393 119.216ZM148.263 110.894C147.658 114.241 148.395 117.204 150.393 119.208L150.916 118.685C149.125 116.894 148.418 114.189 148.985 111.02L148.263 110.887V110.894ZM153.437 101.526C150.703 104.261 148.86 107.585 148.263 110.894L148.985 111.027C149.553 107.887 151.314 104.696 153.953 102.05L153.43 101.526H153.437ZM158.973 97.6052C156.983 98.5413 155.081 99.8827 153.437 101.526L153.961 102.05C155.546 100.465 157.381 99.1678 159.283 98.2686L158.966 97.5979L158.973 97.6052ZM153.437 94.3475C155.081 95.9911 156.983 97.3399 158.973 98.2686L159.29 97.5979C157.381 96.6987 155.553 95.4088 153.961 93.8168L153.437 94.3401V94.3475ZM152.98 93.8758C153.128 94.0305 153.283 94.1927 153.437 94.3475L153.961 93.8242C153.813 93.6767 153.666 93.522 153.518 93.3672L152.98 93.8758ZM159.128 97.9369L159.283 98.2686L159.99 97.9369L159.283 97.6052L159.128 97.9369Z" fill="#EEEEEC"/>
<path d="M156.504 121.537C159.135 121.537 162.04 120.616 164.73 118.877L164.332 118.257C161.737 119.938 158.973 120.8 156.511 120.8V121.537H156.504ZM156.504 121.537C154.138 121.537 151.978 120.8 150.393 119.216L150.916 118.692C152.332 120.107 154.292 120.8 156.504 120.8V121.537ZM148.263 110.894C147.658 114.241 148.395 117.204 150.393 119.208M148.263 110.894V110.887L148.985 111.02C148.418 114.189 149.125 116.894 150.916 118.685L150.393 119.208M148.263 110.894C148.86 107.585 150.703 104.261 153.437 101.526M148.263 110.894L148.985 111.027M150.393 119.208L150.651 118.95M153.437 101.526H153.43L153.953 102.05M153.437 101.526C155.081 99.8827 156.983 98.5413 158.973 97.6052L158.966 97.5979L159.283 98.2686M153.437 101.526L153.961 102.05C155.546 100.465 157.381 99.1678 159.283 98.2686M148.985 111.027C149.553 107.887 151.314 104.696 153.953 102.05M148.985 111.027L148.624 110.961M153.953 102.05L153.695 101.792M159.283 98.2686L159.128 97.9369L159.283 97.6052L159.99 97.9369L159.283 98.2686ZM153.437 94.3475C155.081 95.9911 156.983 97.3399 158.973 98.2686L159.29 97.5979C157.381 96.6987 155.553 95.4088 153.961 93.8168L153.437 94.3401V94.3475ZM153.437 94.3475C153.283 94.1927 153.128 94.0305 152.98 93.8758L153.518 93.3672C153.666 93.522 153.813 93.6767 153.961 93.8242L153.437 94.3475ZM153.695 94.0821L153.953 93.8242" stroke="#EEEEEC" stroke-width="0.5"/>
<path d="M209.429 97.9963C209.429 118.818 192.49 135.756 171.667 135.756V136.493C192.896 136.493 210.167 119.223 210.167 97.9963H209.429ZM171.667 60.2371C192.483 60.2371 209.429 77.1745 209.429 97.9963H210.167C210.167 76.7692 192.896 59.5 171.667 59.5V60.2371ZM133.904 97.9963C133.904 77.1745 150.843 60.2371 171.667 60.2371V59.5C150.437 59.5 133.167 76.7692 133.167 97.9963H133.904ZM171.667 135.763C150.85 135.763 133.904 118.825 133.904 97.9963H133.167C133.167 119.223 150.437 136.5 171.667 136.5V135.763ZM171.667 136.124V135.756H171.298V136.124H171.667ZM171.667 136.124V136.493H172.035V136.124H171.667Z" fill="#EEEEEC"/>
<path d="M171.298 136.124H172.035M171.298 136.124V135.756H171.667M171.298 136.124H171.667M172.035 136.124V136.493H171.667M172.035 136.124H171.667M209.429 97.9963C209.429 118.818 192.49 135.756 171.667 135.756M209.429 97.9963H210.167M209.429 97.9963C209.429 77.1745 192.483 60.2371 171.667 60.2371M171.667 135.756V136.493M171.667 135.756V136.124M171.667 136.493C192.896 136.493 210.167 119.223 210.167 97.9963M171.667 136.493V136.124M210.167 97.9963C210.167 76.7692 192.896 59.5 171.667 59.5M171.667 60.2371V59.5M171.667 60.2371C150.843 60.2371 133.904 77.1745 133.904 97.9963M171.667 59.5C150.437 59.5 133.167 76.7692 133.167 97.9963M133.904 97.9963H133.167M133.904 97.9963C133.904 118.825 150.85 135.763 171.667 135.763V136.5C150.437 136.5 133.167 119.223 133.167 97.9963" stroke="#EEEEEC" stroke-width="0.5"/>
<path d="M179.038 116.194C183.394 110.025 191.252 102.396 203.753 98.6814L203.547 97.9739C190.854 101.748 182.871 109.494 178.433 115.766L179.038 116.194ZM203.761 97.9739C199.699 96.7061 195.932 94.5687 192.814 92.6523L192.431 93.2788C195.557 95.2026 199.397 97.3842 203.547 98.6814L203.768 97.9812L203.761 97.9739ZM203.65 98.3277L203.753 98.6814L204.911 98.335L203.753 97.9739L203.643 98.3277H203.65Z" fill="#EEEEEC"/>
<path d="M203.753 98.6814C191.252 102.396 183.394 110.025 179.038 116.194L178.433 115.766C182.871 109.494 190.854 101.748 203.547 97.9739L203.753 98.6814ZM203.753 98.6814L203.65 98.3277H203.643L203.753 97.9739L204.911 98.335L203.753 98.6814ZM203.761 97.9739C199.699 96.7061 195.932 94.5687 192.814 92.6523L192.431 93.2788C195.557 95.2026 199.397 97.3842 203.547 98.6814L203.768 97.9812L203.761 97.9739Z" stroke="#EEEEEC" stroke-width="0.5"/>
<path d="M138.356 98.6821C142.395 99.8835 147.327 101.476 150.364 103.274L150.74 102.64C147.614 100.783 142.587 99.1686 138.562 97.9745L138.349 98.6821H138.356ZM139.793 97.5102L138.349 97.9819L138.577 98.6821L140.022 98.2104L139.793 97.5102ZM164.398 79.5777C160.042 85.7689 152.354 93.5891 139.793 97.5102L140.014 98.2104C152.767 94.2303 160.58 86.2849 165.003 79.9978L164.398 79.5703V79.5777ZM138.459 98.3283L138.349 97.9745L137.221 98.3431L138.356 98.6821L138.459 98.3283Z" fill="#EEEEEC"/>
<path d="M138.356 98.6821C142.395 99.8835 147.327 101.476 150.364 103.274L150.74 102.64C147.614 100.783 142.587 99.1686 138.562 97.9745L138.349 98.6821H138.356ZM138.356 98.6821L137.221 98.3431L138.349 97.9745L138.459 98.3283L138.356 98.6821ZM139.793 97.5102L138.349 97.9819L138.577 98.6821L140.022 98.2104L139.793 97.5102ZM139.793 97.5102C152.354 93.5891 160.042 85.7689 164.398 79.5777V79.5703L165.003 79.9978C160.58 86.2849 152.767 94.2303 140.014 98.2104L139.793 97.5102ZM139.904 97.8566L139.793 97.5028" stroke="#EEEEEC" stroke-width="0.5"/>
<path d="M177.372 79.3782C179.915 83.1667 183.726 87.6848 189.144 91.6207L189.579 91.0237C184.242 87.1467 180.49 82.7023 177.984 78.9655L177.372 79.3782ZM171.313 64.7845C171.866 66.5977 173.613 73.7913 177.372 79.3782L177.984 78.9655C174.306 73.4891 172.588 66.4355 172.02 64.5634L171.313 64.7772V64.7845ZM167.31 77.2629C170.148 72.5531 171.541 66.3471 172.02 64.7845L171.313 64.5708C170.812 66.2144 169.455 72.2804 166.676 76.887L167.31 77.2702V77.2629ZM177.682 79.1718L177.991 78.9655L177.689 79.1718H177.682ZM171.667 64.674L172.02 64.5634L171.667 63.4062L171.313 64.5634L171.667 64.674Z" fill="#EEEEEC"/>
<path d="M177.372 79.3782C179.915 83.1667 183.726 87.6848 189.144 91.6207L189.579 91.0237C184.242 87.1467 180.49 82.7023 177.984 78.9655M177.372 79.3782L177.984 78.9655M177.372 79.3782C173.613 73.7913 171.866 66.5977 171.313 64.7845V64.7772L172.02 64.5634M177.984 78.9655C174.306 73.4891 172.588 66.4355 172.02 64.5634M172.02 64.5634L171.667 64.674L171.313 64.5634L171.667 63.4062L172.02 64.5634ZM167.31 77.2629C170.148 72.5531 171.541 66.3471 172.02 64.7845L171.313 64.5708C170.812 66.2144 169.455 72.2804 166.676 76.887L167.31 77.2702V77.2629ZM177.682 79.1718L177.991 78.9655L177.689 79.1718H177.682Z" stroke="#EEEEEC" stroke-width="0.5"/>
<path d="M165.076 117.33C169.44 123.905 171.172 130.317 171.312 130.863L172.028 130.686C171.88 130.089 170.118 123.588 165.696 116.918L165.084 117.323L165.076 117.33ZM153.334 105.206C158.789 109.061 162.57 113.557 165.076 117.33L165.688 116.925C163.145 113.092 159.305 108.515 153.754 104.602L153.327 105.206H153.334ZM176.119 118.51C173.207 123.352 171.806 129.013 171.32 130.679L172.028 130.885C172.521 129.19 173.9 123.632 176.752 118.893L176.119 118.51ZM171.666 130.782L171.305 130.87L171.637 132.189L172.02 130.885L171.666 130.782Z" fill="#EEEEEC"/>
<path d="M165.076 117.33C169.44 123.905 171.172 130.317 171.312 130.863L172.028 130.686C171.88 130.089 170.118 123.588 165.696 116.918L165.084 117.323L165.076 117.33ZM165.076 117.33C162.57 113.557 158.789 109.061 153.334 105.206H153.327L153.754 104.602C159.305 108.515 163.145 113.092 165.688 116.925L165.076 117.33ZM165.386 117.131L165.696 116.925M176.119 118.51C173.207 123.352 171.806 129.013 171.32 130.679L172.028 130.885C172.521 129.19 173.9 123.632 176.752 118.893L176.119 118.51ZM171.666 130.782L171.305 130.87L171.637 132.189L172.02 130.885L171.666 130.782Z" stroke="#EEEEEC" stroke-width="0.5"/>
<path d="M96.4019 184.687H96.8049L96.1849 188.5H81.3669V188.128C82.5139 188.035 82.8239 187.415 82.8239 186.175V169.125C82.8239 167.916 82.5139 167.296 81.3669 167.203V166.8H86.3579V167.203C85.2109 167.296 84.9009 167.916 84.9009 169.125V187.942H92.4649C94.9759 187.942 95.9369 185.958 96.4019 184.687ZM114.172 184.687H114.544L113.955 188.5H99.1374V188.128C100.284 188.035 100.594 187.415 100.594 186.175V169.125C100.594 167.916 100.284 167.296 99.1374 167.203V166.8H113.149L113.738 170.613H113.366C112.901 169.342 111.94 167.389 109.398 167.389H102.671V177.185H107.507C109.646 177.185 110.049 176.441 110.266 175.139H110.638V179.789H110.266C110.049 178.487 109.646 177.743 107.507 177.743H102.671V187.942H110.204C112.746 187.942 113.707 185.958 114.172 184.687ZM140.627 186.175C140.906 187.508 141.402 188.035 142.58 188.128V188.5H137.155V188.128C138.333 188.035 138.829 187.415 138.612 186.175L135.512 169.776L129.095 188.5H128.227L121.345 169.621L118.803 186.175C118.586 187.508 118.958 188.035 120.136 188.128V188.5H116.261V188.128C117.408 188.035 117.966 187.508 118.152 186.175L120.787 169.125C120.973 167.854 120.756 167.296 119.578 167.203V166.8H122.306L129.343 185.896L135.884 166.8H138.364V167.203C137.217 167.296 136.938 167.916 137.186 169.125L140.627 186.175ZM150.236 167.203C149.058 167.296 148.748 167.916 148.748 169.125V186.175C148.748 187.415 149.058 188.035 150.236 188.128V188.5H145.214V188.128C146.392 188.035 146.702 187.415 146.702 186.175V169.125C146.702 167.916 146.392 167.296 145.214 167.203V166.8H150.236V167.203ZM168.3 186.175C169.044 187.229 169.881 187.88 170.811 188.128V188.5H167.618L161.077 179.076C160.922 179.107 160.798 179.107 160.643 179.107H156.892V186.175C156.892 187.384 157.202 188.004 158.349 188.128V188.5H153.358V188.128C154.505 188.004 154.815 187.384 154.815 186.175V169.125C154.815 167.916 154.505 167.265 153.358 167.172V166.8H160.643C165.448 166.8 168.362 169.125 168.362 172.938C168.362 176.069 166.44 178.177 163.092 178.859L168.3 186.175ZM160.457 178.518C164.332 178.518 166.254 176.317 166.254 172.938C166.254 169.559 164.332 167.358 160.457 167.358H156.892V178.518H160.457ZM177.996 167.203C176.818 167.296 176.508 167.916 176.508 169.125V186.175C176.508 187.415 176.818 188.035 177.996 188.128V188.5H172.974V188.128C174.152 188.035 174.462 187.415 174.462 186.175V169.125C174.462 167.916 174.152 167.296 172.974 167.203V166.8H177.996V167.203ZM203.631 184.377C205.026 185.772 207.661 188.345 210.017 188.128C210.017 188.283 210.017 188.345 210.017 188.5C207.289 189.616 204.592 187.818 203.166 186.578C202.732 186.206 201.957 185.493 201.027 184.594C200.283 186.33 198.671 188.81 194.889 188.81C190.952 188.81 187.139 186.454 187.139 182.734C187.139 179.572 189.681 177.495 192.812 176.875C190.952 175.356 189.154 173.372 189.34 171.016C189.526 168.133 191.851 166.49 195.044 166.49C198.175 166.49 200.934 168.164 201.027 171.047C201.12 173.899 198.95 176.193 195.881 176.937C195.881 176.937 199.57 180.471 201.43 182.238C202.546 179.231 203.104 176.503 205.956 176.441C207.32 176.41 208.436 177.061 208.87 177.991C209.149 178.642 209.087 179.479 208.498 179.82C207.754 180.254 206.824 179.82 206.762 178.921C206.731 177.898 206.297 177.402 205.429 177.34C203.786 177.216 202.794 179.851 201.771 182.579C202.639 183.385 203.321 184.067 203.631 184.377ZM191.293 170.644C191.293 172.597 193.401 174.674 195.23 176.286C197.4 175.573 199.136 173.62 199.198 171.14C199.291 168.753 197.524 167.048 195.261 167.048C192.75 167.048 191.293 168.381 191.293 170.644ZM195.044 188.283C198.516 188.283 199.911 185.772 200.562 184.191C197.927 181.68 194.3 178.239 193.494 177.464C191.293 178.146 189.464 179.882 189.309 182.455C189.061 186.206 192.254 188.283 195.044 188.283ZM237.1 182.641H237.472L236.852 186.516C234.868 188.128 232.295 188.81 229.505 188.81C223.212 188.81 218.097 184.191 218.097 177.65C218.097 171.14 222.809 166.49 229.102 166.49C231.892 166.49 234.868 167.296 236.852 168.815V172.69H236.48C235.55 168.815 232.543 167.048 229.102 167.048C224.297 167.048 220.267 170.954 220.267 177.65C220.267 184.377 224.7 188.283 229.505 188.283C232.946 188.283 235.829 186.578 237.1 182.641ZM251.181 166.49C257.474 166.49 262.589 171.14 262.589 177.65C262.589 184.191 257.474 188.81 251.181 188.81C244.919 188.81 239.804 184.191 239.804 177.65C239.804 171.14 244.919 166.49 251.181 166.49ZM251.181 188.283C255.986 188.283 260.419 184.377 260.419 177.65C260.419 170.954 255.986 167.048 251.181 167.048C246.376 167.048 241.943 170.954 241.943 177.65C241.943 184.377 246.376 188.283 251.181 188.283Z" fill="#EEEEEC"/>
</svg>
