<svg version="1.2" xmlns="http://www.w3.org/2000/svg" viewBox="0 0 182 130" width="182" height="130">
	<title>footer-logo</title>
	<style>
		.s0 { fill: #eeeeec } 
		.s1 { fill: none;stroke: #eeeeec;stroke-width: .5 } 
	</style>
	<path class="s0" d="m111.9 17.7c-3.3-3.4-9.2-3-14.2 0.2l0.4 0.7c4.9-3.2 10.4-3.4 13.3-0.4l0.6-0.5zm2.1 8.3c0.6-3.4-0.1-6.3-2.1-8.3l-0.6 0.5c1.8 1.8 2.5 4.5 2 7.7l0.7 0.1zm-5.2 9.4c2.7-2.8 4.6-6.1 5.2-9.4l-0.7-0.1c-0.6 3.1-2.4 6.3-5 8.9l0.5 0.6zm-5.5 3.9c2-1 3.9-2.3 5.5-3.9l-0.5-0.6c-1.6 1.6-3.4 2.9-5.3 3.8l0.3 0.7zm5.5 3.2c-1.6-1.6-3.5-3-5.5-3.9l-0.3 0.7c1.9 0.9 3.7 2.2 5.3 3.8l0.5-0.6zm0.4 0.5q-0.2-0.2-0.4-0.5l-0.5 0.6q0.2 0.2 0.4 0.4zm-6.1-4l-0.2-0.4-0.7 0.4 0.7 0.3z"/>
	<path class="s1" d="m114.1 26c0.6-3.4-0.2-6.3-2.2-8.3l-0.5 0.5c1.8 1.8 2.5 4.5 2 7.7l0.7 0.1zm0 0l-0.7-0.1c-0.6 3.1-2.4 6.3-5 8.9l0.5 0.6m5.2-9.4c-0.6 3.3-2.5 6.6-5.2 9.4m0 0c-1.6 1.6-3.5 2.9-5.5 3.9l-0.3-0.7c1.9-0.9 3.7-2.2 5.3-3.8zm0 7.2c-1.7-1.6-3.6-3-5.6-3.9l-0.3 0.7c1.9 0.9 3.8 2.2 5.4 3.7l0.5-0.5zm0 0q0.2 0.2 0.4 0.5l-0.5 0.5q-0.2-0.2-0.4-0.5zm3-24.8c-3.3-3.4-9.2-3-14.3 0.3l0.4 0.6c5-3.2 10.4-3.4 13.4-0.4l0.5-0.5zm1.8 8.2h-0.4m-4.7 9.2l-0.3-0.3m0.3 8l-0.3 0.3m3.3-25.2l0.3-0.2m-8.7 21.2l-0.2-0.3-0.7 0.3 0.7 0.4z"/>
	<path class="s0" d="m67.3 26c0.3 2 1.2 4.1 2.4 6l0.6-0.4c-1.2-1.8-2-3.8-2.3-5.7zm2.1-8.4c-2 2-2.7 5-2.1 8.4l0.7-0.2c-0.6-3.1 0.1-5.9 1.9-7.6l-0.5-0.6zm17.7 3.1c-2.8-2.9-6.2-4.6-9.4-5.2-3.2-0.6-6.2 0.1-8.3 2.1l0.5 0.6c1.9-1.9 4.6-2.5 7.7-2 3 0.6 6.2 2.3 9 5l0.5-0.5zm3.9 5.5c-0.9-2-2.3-3.9-3.9-5.5l-0.5 0.5c1.6 1.6 2.9 3.4 3.8 5.3l0.6-0.3zm3.3-5.5c-1.7 1.6-3 3.5-3.9 5.5l0.6 0.3c0.9-1.9 2.2-3.7 3.8-5.3zm0.6-0.5q-0.3 0.2-0.6 0.5l0.5 0.5q0.3-0.2 0.6-0.5l-0.5-0.5zm-4.2 6.2l-0.3 0.2 0.3 0.7 0.3-0.7z"/>
	<path class="s1" d="m67.3 26c0.3 2 1.2 4.1 2.4 6l0.6-0.4c-1.2-1.8-2-3.8-2.3-5.7m-0.7 0.1c-0.6-3.4 0.1-6.3 2.1-8.3m-2.1 8.3l0.7-0.1m0 0c-0.6-3.2 0.1-5.9 1.9-7.7l-0.5-0.5m-1.4 8.2h-0.4m1.8-8.2c2-2.1 5.1-2.7 8.3-2.2 3.2 0.6 6.5 2.4 9.4 5.2m-17.7-3l0.5 0.5c1.8-1.8 4.6-2.5 7.6-1.9 3.1 0.5 6.3 2.2 9.1 4.9l0.5-0.5m0 0c1.6 1.7 3 3.6 3.9 5.5l-0.7 0.4m-3.2-5.9l-0.6 0.5c1.6 1.6 2.9 3.5 3.8 5.4m3.9-5.9c-1.6 1.7-2.9 3.6-3.9 5.5l0.7 0.4m-0.7 0l0.4 0.7 0.3-0.7m-0.7 0l0.4-0.2 0.3 0.2m3.2-5.9q0.3-0.3 0.6-0.5l0.5 0.5q-0.3 0.3-0.5 0.5m-0.6-0.5l0.6 0.5m-3.8 5.4c0.9-1.9 2.2-3.8 3.8-5.4m0 0l-0.3-0.2m-24.9-3.1l-0.2-0.2m17.4 3.3l0.3-0.3"/>
	<path class="s0" d="m111.9 46.4l-0.3-0.6-0.7 0.4 0.4 0.5zm2.1 5.6c-0.3-2.1-0.9-3.6-2.2-5.6l-0.6 0.4c1.2 1.9 1.8 3.3 2.1 5.3zm-2.1 8.3c2-2 2.7-5 2.1-8.3l-0.7 0.1c0.6 3.2-0.1 5.9-1.9 7.7l0.5 0.5zm-17.7-3c2.8 2.8 6.2 4.6 9.4 5.2 3.2 0.5 6.2-0.1 8.3-2.2l-0.5-0.5c-1.9 1.8-4.6 2.5-7.7 1.9-3-0.5-6.2-2.2-9-4.9l-0.5 0.5zm-3.9-5.5c0.9 1.9 2.3 3.8 3.9 5.5l0.5-0.5c-1.6-1.6-2.9-3.5-3.8-5.4l-0.6 0.3zm-3.3 5.6c1.7-1.7 3-3.6 3.9-5.6l-0.6-0.3c-0.9 1.9-2.2 3.8-3.8 5.3zm-0.5 0.5q0.2-0.2 0.5-0.5l-0.5-0.5q-0.3 0.3-0.5 0.5l0.5 0.5zm25-11.1l-0.3 0.2 0.3-0.2zm-20.9 5l0.3-0.2-0.3-0.7-0.4 0.7z"/>
	<path class="s1" d="m114.1 51.9c-0.4-2.1-1-3.6-2.2-5.6l-0.6 0.4m2.8 5.2c0.6 3.3-0.2 6.3-2.2 8.3m2.2-8.3l-0.8 0.1m-2-5.3c1.2 1.9 1.7 3.4 2 5.3m-2-5.3l0.3-0.2zm2.1 5.3c0.5 3.2-0.2 5.9-2 7.7l0.6 0.5h-0.1m0 0c-2 2.1-5 2.7-8.2 2.1-3.2-0.5-6.6-2.3-9.4-5.1m17.6 3l-0.5-0.5c-1.8 1.8-4.6 2.5-7.6 1.9-3-0.5-6.3-2.2-9-5l-0.5 0.6m0 0c-1.7-1.7-3-3.6-4-5.6l0.7-0.3c0.9 1.9 2.2 3.8 3.8 5.3zm-7.2 0c1.7-1.6 3-3.5 3.9-5.5l-0.6-0.3c-0.9 1.9-2.2 3.7-3.8 5.3m0.5 0.5q-0.2 0.3-0.5 0.5l-0.5-0.5q0.3-0.2 0.5-0.5m0.5 0.5l-0.5-0.5m27.1-4.7h0.4m-2.4 8l0.3 0.3m-17.4-3.3l-0.3 0.2m-7.4-0.2l-0.3-0.3m25.3-10.3l-0.3-0.5-0.6 0.4 0.3 0.5zm-21.2 5.1l0.3-0.1-0.3-0.7-0.4 0.7z"/>
	<path class="s0" d="m75.5 62.5c2.6 0 5.5-0.9 8.2-2.6l-0.4-0.6c-2.6 1.6-5.3 2.5-7.8 2.5v0.7zm-6.1-2.3c1.6 1.6 3.7 2.3 6.1 2.3v-0.7c-2.2 0-4.2-0.7-5.6-2.1zm-2.1-8.3c-0.6 3.3 0.1 6.3 2.1 8.3l0.5-0.5c-1.7-1.8-2.5-4.5-1.9-7.7l-0.7-0.1zm5.2-9.4c-2.8 2.7-4.6 6.1-5.2 9.4l0.7 0.1c0.6-3.1 2.3-6.3 5-9l-0.5-0.5zm5.5-3.9c-2 0.9-3.9 2.3-5.5 3.9l0.5 0.5c1.6-1.6 3.4-2.9 5.3-3.8l-0.3-0.6zm-5.5-3.3c1.6 1.7 3.5 3 5.5 3.9l0.3-0.6c-1.9-0.9-3.7-2.2-5.3-3.8l-0.5 0.5zm-0.5-0.5q0.2 0.3 0.5 0.5l0.5-0.5q-0.2-0.2-0.5-0.5zm6.2 4.1l0.1 0.3 0.7-0.3-0.7-0.3z"/>
	<path class="s1" d="m75.5 62.5c2.6 0 5.5-0.9 8.2-2.6l-0.4-0.6c-2.6 1.6-5.3 2.5-7.8 2.5v0.7zm0 0c-2.4 0-4.5-0.7-6.1-2.3l0.5-0.5c1.4 1.4 3.4 2.1 5.6 2.1zm-8.2-10.6c-0.6 3.3 0.1 6.3 2.1 8.3m-2.1-8.3v-0.1l0.7 0.2c-0.6 3.2 0.1 5.9 1.9 7.6l-0.5 0.6m-2.1-8.3c0.6-3.4 2.4-6.7 5.1-9.4m-5.1 9.4l0.7 0.1m1.4 8.2l0.3-0.3m2.7-17.4l0.6 0.5m-0.6-0.5c1.7-1.7 3.6-3 5.6-3.9l0.3 0.6m-5.9 3.3l0.6 0.5c1.6-1.6 3.4-2.9 5.3-3.8m-10.3 12.8c0.6-3.2 2.3-6.3 5-9m-5 9l-0.4-0.1m5.4-8.9l-0.3-0.2m5.6-3.6l-0.2-0.3 0.2-0.3 0.7 0.3zm-5.8-3.9c1.6 1.6 3.5 3 5.5 3.9l0.3-0.7c-1.9-0.9-3.7-2.2-5.3-3.8l-0.5 0.6zm0 0q-0.3-0.3-0.5-0.5l0.5-0.5q0.3 0.2 0.5 0.4zm0.2-0.2l0.3-0.3"/>
	<path class="s0" d="m128.4 39c0 20.8-16.9 37.8-37.7 37.8v0.7c21.2 0 38.5-17.3 38.5-38.5zm-37.8-37.8c20.8 0 37.8 17 37.8 37.8h0.7c0-21.2-17.3-38.5-38.5-38.5zm-37.8 37.8c0-20.9 17-37.8 37.8-37.8v-0.7c-21.2 0-38.5 17.2-38.5 38.5zm37.8 37.7c-20.8 0-37.8-16.9-37.8-37.7h-0.7c0 21.2 17.2 38.5 38.5 38.5zm0 0.3v-0.3h-0.4v0.3zm0 0v0.4h0.4v-0.4z"/>
	<path class="s1" d="m90.3 77.1h0.7m-38.1-38.1c0 20.8 16.9 37.8 37.8 37.8v0.7c-21.3 0-38.5-17.3-38.5-38.5m38.1 38.1v-0.3h0.4m0 0.7c21.2 0 38.5-17.3 38.5-38.5m-38.2 38.1v0.4h-0.3m37.7-38.5c0 20.8-16.9 37.8-37.7 37.8m38.5-37.8c0-21.2-17.3-38.5-38.5-38.5m37.7 38.5c0-20.8-16.9-37.8-37.7-37.8m0 75.6v0.7m0-0.7v0.3m0.3 0h-0.3m0 0.4v-0.4m37.7-38.1h0.8m-38.5-38.5c-21.3 0-38.5 17.3-38.5 38.5m38.5-37.8c-20.9 0-37.8 17-37.8 37.8m37.8-37.8v-0.7m-37.8 38.5h-0.7m38.1 38.1h0.4"/>
	<path class="s0" d="m98 57.2c4.4-6.2 12.3-13.8 24.8-17.5l-0.3-0.7c-12.6 3.7-20.6 11.5-25.1 17.8zm24.8-18.3c-4.1-1.2-7.9-3.4-11-5.3l-0.4 0.7c3.2 1.9 7 4.1 11.1 5.4l0.3-0.7zm-0.1 0.3l0.1 0.4 1.1-0.4-1.1-0.3-0.2 0.3z"/>
	<path class="s1" d="m122.8 39.7c-12.5 3.7-20.4 11.3-24.8 17.5l-0.6-0.4c4.5-6.3 12.5-14.1 25.1-17.8zm0 0l-0.1-0.4 0.1-0.3 1.2 0.3zm0-0.7c-4-1.2-7.8-3.4-10.9-5.3l-0.4 0.6c3.1 1.9 6.9 4.1 11.1 5.4l0.2-0.7z"/>
	<path class="s0" d="m57.4 39.7c4 1.2 8.9 2.8 12 4.6l0.3-0.7c-3.1-1.8-8.1-3.4-12.1-4.6l-0.3 0.7zm1.5-1.2l-1.5 0.5 0.3 0.7 1.4-0.5zm24.6-17.9c-4.3 6.2-12 14-24.6 17.9l0.2 0.7c12.8-4 20.6-11.9 25-18.2l-0.6-0.4zm-25.9 18.7l-0.1-0.3-1.2 0.3 1.2 0.4z"/>
	<path class="s1" d="m57.4 39.7c4 1.2 8.9 2.8 12 4.6l0.3-0.7c-3.1-1.8-8.1-3.4-12.1-4.6l-0.3 0.7zm0 0l-1.1-0.4 1.1-0.3 0.2 0.3zm1.4-1.1l-1.5 0.4 0.3 0.7 1.4-0.4zm0 0c12.6-4 20.3-11.8 24.6-18l0.6 0.4c-4.4 6.3-12.2 14.3-25 18.3zm0.1 0.3l-0.1-0.4"/>
	<path class="s0" d="m96.4 20.4c2.5 3.8 6.3 8.3 11.7 12.2l0.5-0.6c-5.4-3.9-9.1-8.3-11.6-12zm-6.1-14.6c0.6 1.8 2.3 9 6.1 14.6l0.6-0.4c-3.7-5.5-5.4-12.6-6-14.4l-0.7 0.2zm-4 12.4c2.9-4.7 4.3-10.9 4.7-12.4l-0.7-0.2c-0.5 1.6-1.8 7.7-4.6 12.3l0.6 0.4zm10.4 1.9l0.3-0.2-0.3 0.2zm-6-14.5l0.3-0.1-0.3-1.2-0.4 1.2z"/>
	<path class="s1" d="m96.4 20.4c2.5 3.8 6.3 8.3 11.7 12.2l0.5-0.6c-5.4-3.9-9.1-8.3-11.6-12m-0.6 0.4l0.6-0.4m-0.6 0.4c-3.8-5.6-5.5-12.8-6.1-14.6l0.7-0.2m6 14.4c-3.7-5.5-5.4-12.6-6-14.4m0 0l-0.3 0.1-0.4-0.1 0.4-1.2zm-4.7 12.7c2.8-4.7 4.2-10.9 4.7-12.5l-0.7-0.2c-0.5 1.7-1.9 7.7-4.7 12.3l0.7 0.4zm10.3 1.9l0.3-0.2-0.3 0.2z"/>
	<path class="s0" d="m84.1 58.3c4.3 6.6 6.1 13 6.2 13.6l0.7-0.2c-0.1-0.6-1.9-7.1-6.3-13.8l-0.6 0.4zm-11.8-12.1c5.5 3.9 9.3 8.4 11.8 12.1l0.6-0.4c-2.5-3.8-6.4-8.4-11.9-12.3l-0.5 0.6zm22.8 13.3c-2.9 4.8-4.3 10.5-4.8 12.2l0.7 0.2c0.5-1.7 1.9-7.3 4.8-12zm-4.5 12.3h-0.4l0.4 1.4 0.4-1.3z"/>
	<path class="s1" d="m84.1 58.3c4.3 6.6 6.1 13 6.2 13.6l0.7-0.2c-0.1-0.6-1.9-7.1-6.3-13.8l-0.6 0.4zm0 0c-2.5-3.7-6.3-8.2-11.8-12.1l0.5-0.6c5.5 3.9 9.4 8.5 11.9 12.3zm0.3-0.2l0.3-0.2m10.4 1.6c-2.9 4.8-4.3 10.5-4.8 12.2l0.7 0.2c0.5-1.7 1.9-7.3 4.8-12zm-4.5 12.3h-0.3l0.3 1.4 0.4-1.3z"/>
	<path class="s0" d="m15.4 125.7h0.4l-0.6 3.8h-14.8v-0.4c1.1-0.1 1.4-0.7 1.4-1.9v-17.1c0-1.2-0.3-1.8-1.4-1.9v-0.4h5v0.4c-1.2 0.1-1.5 0.7-1.5 1.9v18.8h7.6c2.5 0 3.4-1.9 3.9-3.2zm17.8 0h0.3l-0.5 3.8h-14.9v-0.4c1.2-0.1 1.5-0.7 1.5-1.9v-17.1c0-1.2-0.3-1.8-1.5-1.9v-0.4h14l0.6 3.8h-0.3c-0.5-1.3-1.5-3.2-4-3.2h-6.7v9.8h4.8c2.1 0 2.5-0.8 2.8-2.1h0.3v4.7h-0.3c-0.3-1.3-0.7-2.1-2.8-2.1h-4.8v10.2h7.5c2.5 0 3.5-1.9 4-3.2zm26.4 1.5c0.3 1.3 0.8 1.8 2 1.9v0.4h-5.4v-0.4c1.1-0.1 1.6-0.7 1.4-1.9l-3.1-16.4-6.4 18.7h-0.9l-6.9-18.9-2.5 16.6c-0.2 1.3 0.2 1.8 1.3 1.9v0.4h-3.8v-0.4c1.1-0.1 1.7-0.6 1.9-1.9l2.6-17.1c0.2-1.2 0-1.8-1.2-1.9v-0.4h2.7l7 19.1 6.6-19.1h2.5v0.4c-1.2 0.1-1.5 0.7-1.2 1.9zm9.6-18.9c-1.2 0-1.5 0.7-1.5 1.9v17c0 1.3 0.3 1.9 1.5 2v0.3h-5v-0.3c1.2-0.1 1.5-0.7 1.5-2v-17c0-1.2-0.3-1.9-1.5-1.9v-0.5h5zm18.1 19q1.1 1.6 2.5 2v0.3h-3.2l-6.6-9.4c-0.1 0.1-0.2 0.1-0.4 0.1h-3.7v7c0 1.2 0.3 1.9 1.4 2v0.3h-5v-0.3c1.2-0.1 1.5-0.8 1.5-2v-17c0-1.2-0.3-1.9-1.5-2v-0.4h7.3c4.8 0 7.7 2.4 7.7 6.2 0 3.1-1.9 5.2-5.2 5.9zm-7.9-7.7c3.9 0 5.8-2.2 5.8-5.5 0-3.4-1.9-5.6-5.8-5.6h-3.6v11.1zm17.6-11.3c-1.2 0.1-1.5 0.7-1.5 2v17c0 1.2 0.3 1.9 1.5 2v0.3h-5v-0.3c1.1-0.1 1.4-0.8 1.4-2v-17c0-1.3-0.3-1.9-1.4-2v-0.4h5zm25.6 17.2c1.4 1.4 4 4 6.4 3.8 0 0.1 0 0.2 0 0.3-2.7 1.1-5.4-0.7-6.8-1.9-0.5-0.4-1.3-1.1-2.2-2-0.7 1.8-2.3 4.2-6.1 4.2-4 0-7.8-2.3-7.8-6 0-3.2 2.6-5.3 5.7-5.9-1.9-1.5-3.7-3.5-3.5-5.9 0.2-2.8 2.5-4.5 5.7-4.5 3.2 0 5.9 1.7 6 4.6 0.1 2.8-2.1 5.1-5.1 5.9 0 0 3.7 3.5 5.5 5.3 1.1-3 1.7-5.8 4.5-5.8 1.4-0.1 2.5 0.6 3 1.5 0.2 0.7 0.2 1.5-0.4 1.8-0.8 0.5-1.7 0-1.8-0.9 0-1-0.4-1.5-1.3-1.5-1.6-0.2-2.6 2.5-3.6 5.2 0.8 0.8 1.5 1.5 1.8 1.8zm-12.3-13.7c0 1.9 2.1 4 3.9 5.6 2.2-0.7 3.9-2.7 4-5.1 0.1-2.4-1.7-4.1-4-4.1-2.5 0-3.9 1.3-3.9 3.6zm3.7 17.6c3.5 0 4.9-2.5 5.5-4.1-2.6-2.5-6.2-5.9-7-6.7-2.2 0.7-4.1 2.4-4.2 5-0.3 3.7 2.9 5.8 5.7 5.8zm42.1-5.6h0.4l-0.7 3.8c-1.9 1.7-4.5 2.3-7.3 2.3-6.3 0-11.4-4.6-11.4-11.1 0-6.5 4.7-11.2 11-11.2 2.8 0 5.8 0.8 7.7 2.3v3.9h-0.3c-1-3.9-4-5.6-7.4-5.6-4.8 0-8.8 3.9-8.8 10.6 0 6.7 4.4 10.6 9.2 10.6 3.4 0 6.3-1.7 7.6-5.6zm14.1-16.2c6.3 0 11.4 4.7 11.4 11.2 0 6.5-5.1 11.1-11.4 11.1-6.3 0-11.4-4.6-11.4-11.1 0-6.5 5.1-11.2 11.4-11.2zm0 21.8c4.8 0 9.2-3.9 9.2-10.6 0-6.7-4.4-10.6-9.2-10.6-4.8 0-9.3 3.9-9.3 10.6 0 6.7 4.5 10.6 9.3 10.6z"/>
</svg>