<svg version="1.2" xmlns="http://www.w3.org/2000/svg" viewBox="0 0 191 34" width="191" height="34">
	<title>logo</title>
	<style>
		.s0 { fill: #eeeeec } 
		.s1 { fill: none;stroke: #eeeeec;stroke-width: .5 } 
	</style>
	<path class="s0" d="m25.8 8.1c-1.3-1.3-3.8-1.2-5.9 0.2l0.2 0.2c2-1.3 4.3-1.4 5.5-0.2l0.2-0.2zm0.9 3.5c0.3-1.4 0-2.6-0.9-3.5l-0.2 0.3c0.8 0.7 1.1 1.8 0.8 3.1l0.3 0.1zm-2.1 3.9c1.1-1.2 1.9-2.5 2.1-3.9l-0.3-0.1c-0.2 1.3-0.9 2.7-2 3.8l0.2 0.2zm-2.3 1.6c0.8-0.4 1.6-0.9 2.3-1.6l-0.2-0.2c-0.7 0.6-1.5 1.2-2.2 1.5l0.1 0.3zm2.3 1.4c-0.7-0.7-1.5-1.3-2.3-1.7l-0.1 0.3c0.7 0.4 1.5 0.9 2.2 1.6l0.2-0.2zm0.2 0.2q-0.1-0.1-0.2-0.2l-0.2 0.2q0.1 0.1 0.1 0.2zm-2.5-1.7l-0.1-0.1-0.3 0.1 0.3 0.1z"/>
	<path class="s1" d="m26.7 11.6c0.3-1.4 0-2.6-0.9-3.5l-0.2 0.3c0.8 0.7 1.1 1.8 0.8 3.1l0.3 0.1zm0 0l-0.3-0.1c-0.2 1.3-0.9 2.7-2 3.8l0.2 0.2m2.1-3.9c-0.2 1.4-1 2.8-2.1 3.9m0 0c-0.7 0.7-1.5 1.2-2.3 1.6l-0.2-0.3c0.8-0.3 1.6-0.9 2.3-1.5zm0 3c-0.7-0.7-1.5-1.3-2.3-1.7l-0.2 0.3c0.8 0.4 1.6 0.9 2.2 1.6l0.3-0.2zm0 0q0 0 0.1 0.1l-0.2 0.2q-0.1 0-0.2-0.1zm1.3-10.4c-1.4-1.3-3.8-1.2-5.9 0.2l0.1 0.2c2.1-1.3 4.4-1.4 5.6-0.1l0.2-0.3zm0.7 3.5l-0.1-0.1m-2 3.9l-0.1-0.1m0.1 3.3l-0.1 0.1m1.4-10.5l0.1-0.1m-3.6 8.9l-0.1-0.2-0.3 0.2 0.3 0.1z"/>
	<path class="s0" d="m7.3 11.6c0.1 0.8 0.5 1.7 1 2.5l0.3-0.2c-0.5-0.7-0.9-1.6-1-2.4zm0.9-3.4c-0.9 0.8-1.2 2-0.9 3.4h0.3c-0.3-1.3 0-2.5 0.8-3.2l-0.2-0.2zm7.3 1.2c-1.2-1.1-2.6-1.9-3.9-2.1-1.3-0.2-2.6 0-3.4 0.9l0.2 0.2c0.7-0.8 1.9-1 3.1-0.8 1.3 0.2 2.6 0.9 3.8 2.1l0.2-0.3zm1.6 2.3c-0.4-0.8-0.9-1.6-1.6-2.3l-0.2 0.3c0.6 0.6 1.2 1.4 1.6 2.2l0.2-0.2zm1.4-2.3c-0.7 0.7-1.3 1.5-1.6 2.3l0.2 0.2c0.4-0.8 0.9-1.6 1.6-2.2zm0.2-0.3q-0.1 0.1-0.2 0.3l0.2 0.2q0.1-0.1 0.2-0.2l-0.2-0.3zm-1.7 2.6l-0.1 0.1 0.1 0.3 0.2-0.3z"/>
	<path class="s1" d="m7.3 11.6c0.1 0.8 0.5 1.7 1 2.5l0.3-0.2c-0.5-0.7-0.9-1.6-1-2.4m-0.3 0.1c-0.3-1.4 0-2.6 0.9-3.5m-0.9 3.5l0.3-0.1m0 0c-0.3-1.3 0-2.4 0.8-3.1l-0.2-0.3m-0.6 3.4l-0.2 0.1m0.8-3.5c0.8-0.8 2.1-1.1 3.4-0.9 1.3 0.3 2.7 1 3.9 2.2m-7.3-1.3l0.2 0.3c0.7-0.8 1.9-1.1 3.1-0.8 1.3 0.2 2.7 0.9 3.8 2l0.2-0.2m0 0c0.7 0.7 1.2 1.5 1.6 2.3l-0.2 0.1m-1.4-2.4l-0.2 0.2c0.6 0.7 1.2 1.4 1.6 2.2m1.6-2.4c-0.7 0.7-1.3 1.5-1.6 2.3l0.2 0.1m-0.2 0l0.1 0.3 0.1-0.3m-0.2 0h0.1 0.1m1.4-2.4q0.1-0.1 0.2-0.2l0.2 0.2q-0.1 0.1-0.2 0.2m-0.2-0.2l0.2 0.2m-1.6 2.2c0.4-0.8 0.9-1.5 1.6-2.2m0 0l-0.1-0.1m-10.3-1.3l-0.1-0.1m7.2 1.4l0.1-0.1"/>
	<path class="s0" d="m25.8 20.1l-0.1-0.3-0.3 0.2 0.2 0.2zm0.9 2.3c-0.2-0.8-0.4-1.5-0.9-2.3l-0.3 0.2c0.5 0.7 0.7 1.3 0.9 2.2zm-0.9 3.4c0.8-0.8 1.1-2 0.9-3.4h-0.3c0.2 1.3-0.1 2.5-0.8 3.2l0.2 0.2zm-7.4-1.2c1.2 1.1 2.6 1.9 3.9 2.1 1.4 0.2 2.6 0 3.5-0.9l-0.2-0.2c-0.8 0.8-1.9 1-3.2 0.8-1.3-0.2-2.6-0.9-3.8-2.1l-0.2 0.3zm-1.6-2.3c0.4 0.8 0.9 1.6 1.6 2.3l0.2-0.3c-0.6-0.6-1.2-1.4-1.5-2.2l-0.3 0.2zm-1.4 2.3c0.7-0.7 1.3-1.5 1.7-2.3l-0.3-0.2c-0.4 0.8-0.9 1.6-1.6 2.2zm-0.2 0.2q0.1-0.1 0.2-0.2l-0.2-0.2q-0.1 0.1-0.2 0.2l0.2 0.2zm10.4-4.6l-0.1 0.1 0.1-0.1zm-8.7 2.1l0.2-0.1-0.2-0.3-0.1 0.3z"/>
	<path class="s1" d="m26.7 22.4c-0.1-0.9-0.4-1.5-0.9-2.4l-0.2 0.2m1.1 2.2c0.3 1.3 0 2.6-0.9 3.4m0.9-3.4h-0.3m-0.8-2.2c0.5 0.8 0.7 1.4 0.8 2.2m-0.8-2.2l0.1-0.1zm0.9 2.2c0.2 1.3-0.1 2.5-0.8 3.2l0.2 0.2m0 0c-0.9 0.9-2.1 1.2-3.5 0.9-1.3-0.2-2.7-1-3.9-2.1m7.4 1.2l-0.2-0.2c-0.8 0.8-2 1-3.2 0.8-1.3-0.2-2.6-0.9-3.8-2l-0.2 0.2m0 0c-0.7-0.7-1.2-1.5-1.6-2.3l0.3-0.2c0.3 0.8 0.9 1.6 1.5 2.3zm-2.9 0c0.6-0.7 1.2-1.5 1.6-2.3l-0.3-0.2c-0.4 0.8-0.9 1.6-1.6 2.2m0.3 0.3q-0.1 0.1-0.2 0.1l-0.3-0.2q0.1-0.1 0.2-0.2m0.3 0.3l-0.3-0.3m11.3-1.9h0.2m-1 3.3l0.1 0.1m-7.2-1.4l-0.2 0.1m-3.1-0.1l-0.1-0.1m10.6-4.2l-0.2-0.3-0.2 0.2 0.1 0.2zm-8.8 2.1h0.1l-0.1-0.3-0.2 0.3z"/>
	<path class="s0" d="m10.7 26.8c1.1 0 2.3-0.4 3.4-1.1l-0.1-0.3c-1.1 0.7-2.3 1.1-3.3 1.1v0.3zm-2.5-1c0.6 0.7 1.5 1 2.5 1v-0.3c-0.9 0-1.7-0.3-2.3-0.9zm-0.9-3.5c-0.3 1.4 0 2.7 0.9 3.5l0.2-0.2c-0.7-0.8-1-1.9-0.8-3.2l-0.3-0.1zm2.1-3.9c-1.1 1.2-1.9 2.6-2.1 3.9l0.3 0.1c0.2-1.3 1-2.6 2.1-3.7l-0.3-0.3zm2.3-1.6c-0.8 0.4-1.6 1-2.3 1.6l0.3 0.3c0.6-0.7 1.4-1.2 2.2-1.6l-0.2-0.3zm-2.3-1.3c0.7 0.6 1.5 1.2 2.3 1.6l0.2-0.3c-0.8-0.4-1.6-0.9-2.2-1.6l-0.3 0.3zm-0.2-0.2q0.1 0.1 0.2 0.2l0.3-0.3q-0.1-0.1-0.2-0.2zm2.5 1.7l0.1 0.2 0.3-0.2-0.3-0.1z"/>
	<path class="s1" d="m10.7 26.8c1.1 0 2.3-0.4 3.4-1.1l-0.1-0.3c-1.1 0.7-2.3 1.1-3.3 1.1v0.3zm0 0c-1 0-1.9-0.3-2.5-1l0.2-0.2c0.6 0.6 1.4 0.9 2.3 0.9zm-3.4-4.4c-0.3 1.3 0 2.6 0.9 3.4m-0.9-3.4v-0.1l0.3 0.1c-0.3 1.3 0 2.4 0.8 3.2l-0.2 0.2m-0.9-3.4c0.2-1.4 1-2.8 2.1-3.9m-2.1 3.9h0.3m0.6 3.4l0.1-0.1m1.1-7.2l0.2 0.2m-0.2-0.2c0.7-0.7 1.5-1.3 2.3-1.7l0.2 0.3m-2.5 1.4l0.2 0.2c0.7-0.7 1.5-1.2 2.3-1.6m-4.3 5.3c0.2-1.3 0.9-2.6 2-3.7m-2 3.7h-0.2m2.2-3.7l-0.1-0.1m2.4-1.5l-0.1-0.1 0.1-0.2 0.3 0.2zm-2.5-1.7c0.7 0.7 1.5 1.3 2.3 1.7l0.2-0.3c-0.8-0.4-1.6-0.9-2.3-1.6l-0.2 0.2zm0 0q-0.1-0.1-0.2-0.2l0.3-0.2q0 0.1 0.1 0.2zm0.1-0.1l0.2-0.1"/>
	<path class="s0" d="m32.7 17c0 8.7-7 15.7-15.7 15.7v0.3c8.8 0 16-7.2 16-16zm-15.7-15.7c8.7 0 15.7 7 15.7 15.7h0.3c0-8.8-7.2-16-16-16zm-15.7 15.7c0-8.7 7.1-15.7 15.7-15.7v-0.3c-8.8 0-16 7.2-16 16zm15.7 15.7c-8.7 0-15.7-7.1-15.7-15.7h-0.3c0 8.8 7.2 16 16 16zm0 0.1v-0.1h-0.2v0.1zm0 0v0.2h0.2v-0.2z"/>
	<path class="s1" d="m16.8 32.8h0.4m-15.9-15.8c0 8.7 7 15.7 15.7 15.7v0.3c-8.8 0-16-7.2-16-16m15.8 15.8v-0.1h0.2m0 0.3c8.8 0 16-7.2 16-16m-15.8 15.8v0.2h-0.2m15.7-16c0 8.7-7 15.7-15.7 15.7m16-15.7c0-8.8-7.2-16-16-16m15.7 16c0-8.7-7-15.7-15.7-15.7m0 31.4v0.3m0-0.3v0.1m0.2 0h-0.2m0 0.2v-0.2m15.7-15.8h0.3m-16-16c-8.8 0-16 7.2-16 16m16-15.7c-8.7 0-15.7 7-15.7 15.7m15.7-15.7v-0.3m-15.7 16h-0.3m15.8 15.8h0.2"/>
	<path class="s0" d="m20.1 24.6c1.8-2.6 5-5.8 10.2-7.3l-0.1-0.3c-5.2 1.6-8.5 4.8-10.4 7.4zm10.3-7.6c-1.7-0.5-3.3-1.4-4.6-2.2l-0.1 0.3c1.3 0.8 2.9 1.7 4.6 2.2l0.1-0.3zm-0.1 0.2l0.1 0.1 0.5-0.1-0.5-0.2-0.1 0.2z"/>
	<path class="s1" d="m30.3 17.3c-5.2 1.5-8.4 4.7-10.2 7.3l-0.3-0.2c1.9-2.6 5.2-5.8 10.4-7.4zm0 0v-0.2-0.1l0.5 0.1zm0-0.2c-1.7-0.6-3.2-1.5-4.5-2.3l-0.2 0.3c1.3 0.8 2.9 1.7 4.6 2.2l0.1-0.2z"/>
	<path class="s0" d="m3.2 17.3c1.6 0.5 3.7 1.1 4.9 1.9l0.2-0.3c-1.3-0.7-3.4-1.4-5.1-1.9v0.3zm0.6-0.5l-0.6 0.2v0.3l0.6-0.2zm10.3-7.5c-1.8 2.6-5 5.9-10.3 7.5l0.1 0.3c5.3-1.7 8.6-5 10.4-7.6l-0.2-0.2zm-10.8 7.8l-0.1-0.1-0.4 0.1 0.4 0.2z"/>
	<path class="s1" d="m3.2 17.3c1.6 0.5 3.7 1.1 4.9 1.9l0.2-0.3c-1.3-0.7-3.4-1.4-5.1-1.9v0.3zm0 0l-0.5-0.2 0.5-0.1v0.1zm0.6-0.5l-0.6 0.2 0.1 0.3 0.6-0.2zm0 0c5.2-1.6 8.4-4.8 10.2-7.4l0.3 0.2c-1.9 2.6-5.1 5.9-10.4 7.5zm0 0.2v-0.2"/>
	<path class="s0" d="m19.4 9.3c1 1.5 2.6 3.4 4.9 5l0.1-0.2c-2.2-1.6-3.7-3.5-4.8-5zm-2.5-6.1c0.2 0.8 1 3.8 2.5 6.1l0.3-0.2c-1.5-2.3-2.3-5.2-2.5-6l-0.3 0.1zm-1.7 5.2c1.2-2 1.8-4.5 2-5.2l-0.3-0.1c-0.2 0.7-0.8 3.2-1.9 5.2l0.2 0.1zm4.4 0.8l0.1-0.1-0.1 0.1zm-2.5-6l0.1-0.1-0.1-0.4-0.2 0.4z"/>
	<path class="s1" d="m19.4 9.3c1 1.5 2.6 3.4 4.9 5l0.1-0.2c-2.2-1.6-3.7-3.5-4.8-5m-0.2 0.2l0.2-0.2m-0.2 0.2c-1.6-2.4-2.3-5.4-2.5-6.1l0.2-0.1m2.5 6c-1.5-2.3-2.2-5.2-2.5-6m0 0h-0.1-0.1l0.1-0.5zm-2 5.3c1.2-2 1.8-4.5 2-5.2l-0.3-0.1c-0.2 0.7-0.8 3.2-1.9 5.1l0.2 0.2zm4.4 0.8l0.1-0.1-0.1 0.1z"/>
	<path class="s0" d="m14.3 25c1.8 2.8 2.5 5.4 2.6 5.7l0.3-0.1c-0.1-0.3-0.8-3-2.7-5.7l-0.2 0.1zm-4.9-5c2.3 1.6 3.8 3.5 4.9 5l0.2-0.1c-1-1.6-2.6-3.5-4.9-5.2l-0.2 0.3zm9.5 5.5c-1.3 2-1.8 4.4-2 5.1l0.3 0.1c0.2-0.7 0.7-3.1 1.9-5zm-1.8 5.1h-0.2l0.2 0.6 0.1-0.6z"/>
	<path class="s1" d="m14.3 25c1.8 2.8 2.5 5.4 2.6 5.7l0.3-0.1c-0.1-0.3-0.8-3-2.7-5.7l-0.2 0.1zm0 0c-1.1-1.5-2.6-3.4-4.9-5l0.2-0.3c2.3 1.7 3.9 3.6 4.9 5.2zm0.1-0.1l0.2-0.1m4.3 0.7c-1.2 2-1.8 4.3-2 5l0.3 0.1c0.2-0.7 0.8-3 2-5zm-1.9 5.1h-0.1l0.1 0.6 0.2-0.5z"/>
	<path class="s0" d="m61.8 21.5h0.4l-0.5 3h-11.5v-0.3c0.9-0.1 1.1-0.5 1.1-1.5v-13.2c0-0.9-0.2-1.4-1.1-1.5v-0.3h3.9v0.3c-0.9 0.1-1.2 0.6-1.2 1.5v14.6h5.9c1.9 0 2.7-1.6 3-2.6zm13.8 0h0.3l-0.5 3h-11.4v-0.3c0.8-0.1 1.1-0.5 1.1-1.5v-13.2c0-0.9-0.3-1.4-1.1-1.5v-0.3h10.8l0.5 3h-0.3c-0.4-1-1.1-2.5-3.1-2.5h-5.2v7.5h3.7c1.7 0 2-0.5 2.2-1.5h0.3v3.6h-0.3c-0.2-1.1-0.5-1.6-2.2-1.6h-3.7v7.9h5.8c2 0 2.7-1.6 3.1-2.6zm20.5 1.2c0.2 1 0.6 1.4 1.5 1.5v0.3h-4.2v-0.3c0.9-0.1 1.3-0.5 1.1-1.5l-2.4-12.7-4.9 14.5h-0.7l-5.3-14.6-2 12.8c-0.2 1 0.1 1.4 1 1.5v0.3h-3v-0.3c0.9-0.1 1.3-0.5 1.5-1.5l2-13.2c0.2-1 0-1.4-0.9-1.5v-0.3h2.1l5.4 14.8 5.1-14.8h1.9v0.3c-0.9 0.1-1.1 0.6-0.9 1.5zm7.5-14.7c-1 0.1-1.2 0.6-1.2 1.5v13.2c0 1 0.2 1.4 1.2 1.5v0.3h-3.9v-0.3c0.9-0.1 1.1-0.5 1.1-1.5v-13.2c0-0.9-0.2-1.4-1.1-1.5v-0.3h3.9zm13.9 14.7q0.9 1.2 2 1.5v0.3h-2.5l-5.1-7.3q-0.1 0-0.3 0h-2.9v5.5c0 0.9 0.2 1.4 1.1 1.5v0.3h-3.8v-0.3c0.9-0.1 1.1-0.6 1.1-1.5v-13.2c0-0.9-0.2-1.5-1.1-1.5v-0.3h5.6c3.7 0 6 1.8 6 4.7 0 2.5-1.5 4.1-4.1 4.6zm-6.1-5.9c3 0 4.5-1.7 4.5-4.3 0-2.6-1.5-4.3-4.5-4.3h-2.7v8.6zm13.6-8.8c-1 0.1-1.2 0.6-1.2 1.5v13.2c0 1 0.2 1.5 1.2 1.5v0.3h-3.9v-0.3c0.9 0 1.1-0.5 1.1-1.5v-13.2c0-0.9-0.2-1.4-1.1-1.5v-0.3h3.9zm19.8 13.3c1.1 1.1 3.1 3.1 4.9 2.9 0 0.1 0 0.2 0 0.3-2.1 0.9-4.2-0.5-5.3-1.5-0.3-0.3-0.9-0.8-1.6-1.5-0.6 1.3-1.8 3.3-4.8 3.3-3 0-6-1.9-6-4.8 0-2.4 2-4 4.4-4.5-1.4-1.2-2.8-2.7-2.7-4.5 0.2-2.3 2-3.5 4.5-3.5 2.4 0 4.5 1.3 4.6 3.5 0.1 2.2-1.6 4-4 4.6 0 0 2.9 2.7 4.3 4.1 0.9-2.4 1.3-4.5 3.5-4.5 1.1 0 1.9 0.5 2.3 1.2 0.2 0.5 0.1 1.1-0.3 1.4-0.6 0.3-1.3 0-1.4-0.7 0-0.8-0.3-1.2-1-1.2-1.3-0.1-2 1.9-2.8 4 0.6 0.7 1.2 1.2 1.4 1.4zm-9.6-10.6c0 1.5 1.7 3.1 3.1 4.4 1.7-0.6 3-2.1 3.1-4 0-1.9-1.3-3.2-3.1-3.2-1.9 0-3.1 1-3.1 2.8zm3 13.6c2.6 0 3.7-1.9 4.2-3.1-2-2-4.8-4.6-5.4-5.2-1.8 0.5-3.2 1.8-3.3 3.8-0.2 2.9 2.3 4.5 4.5 4.5zm32.5-4.3h0.3l-0.5 3c-1.5 1.2-3.5 1.8-5.7 1.8-4.8 0-8.8-3.6-8.8-8.7 0-5 3.6-8.6 8.5-8.6 2.2 0 4.5 0.6 6 1.8v3h-0.3c-0.7-3-3-4.4-5.7-4.4-3.7 0-6.8 3-6.8 8.2 0 5.2 3.4 8.2 7.1 8.2 2.7 0 4.9-1.3 5.9-4.3zm10.9-12.5c4.9 0 8.8 3.6 8.8 8.6 0 5.1-3.9 8.7-8.8 8.7-4.8 0-8.8-3.6-8.8-8.7 0-5 4-8.6 8.8-8.6zm0 16.8c3.7 0 7.2-3 7.2-8.2 0-5.2-3.5-8.2-7.2-8.2-3.7 0-7.1 3-7.1 8.2 0 5.2 3.4 8.2 7.1 8.2z"/>
</svg>