<svg width="12" height="12" viewBox="0 0 12 12" fill="none" xmlns="http://www.w3.org/2000/svg">
<path d="M8.64795 6.39746L4.89795 10.1475C4.79228 10.2531 4.64895 10.3125 4.49951 10.3125C4.35007 10.3125 4.20675 10.2531 4.10107 10.1475C3.9954 10.0418 3.93604 9.89847 3.93604 9.74902C3.93604 9.59958 3.9954 9.45626 4.10107 9.35058L7.4531 5.99949L4.10201 2.64746C4.04969 2.59514 4.00818 2.53302 3.97986 2.46466C3.95155 2.39629 3.93697 2.32302 3.93697 2.24902C3.93697 2.17503 3.95155 2.10175 3.97986 2.03339C4.00818 1.96503 4.04969 1.90291 4.10201 1.85059C4.15433 1.79826 4.21645 1.75676 4.28482 1.72844C4.35318 1.70012 4.42645 1.68555 4.50045 1.68555C4.57445 1.68555 4.64772 1.70012 4.71608 1.72844C4.78445 1.75676 4.84656 1.79826 4.89889 1.85059L8.64889 5.60058C8.70126 5.6529 8.7428 5.71505 8.77111 5.78346C8.79942 5.85186 8.81395 5.92518 8.81386 5.99922C8.81377 6.07325 8.79907 6.14654 8.7706 6.21488C8.74213 6.28322 8.70045 6.34526 8.64795 6.39746Z" fill="#F2BF91"/>
</svg>
