<svg width="16" height="17" viewBox="0 0 16 17" fill="none" xmlns="http://www.w3.org/2000/svg">
<path d="M11 10.2502C10.3303 10.2491 9.68337 10.4937 9.1819 10.9377L6.63127 9.30018C6.78959 8.77859 6.78959 8.22176 6.63127 7.70018L9.1819 6.06268C9.67836 6.49899 10.3158 6.74109 10.9768 6.74434C11.6377 6.7476 12.2775 6.51178 12.7783 6.08037C13.279 5.64897 13.6069 5.05107 13.7014 4.39692C13.796 3.74278 13.6509 3.0765 13.2928 2.52095C12.9347 1.9654 12.3879 1.55804 11.7531 1.37399C11.1183 1.18993 10.4384 1.24159 9.83866 1.51944C9.23895 1.7973 8.75993 2.2826 8.48991 2.88588C8.21989 3.48915 8.17709 4.1697 8.3694 4.80205L5.81815 6.43768C5.4214 6.08705 4.93188 5.85842 4.40836 5.77923C3.88485 5.70004 3.3496 5.77367 2.86691 5.99126C2.38421 6.20886 1.9746 6.56117 1.68726 7.00589C1.39992 7.45061 1.24707 7.96883 1.24707 8.4983C1.24707 9.02777 1.39992 9.54599 1.68726 9.99071C1.9746 10.4354 2.38421 10.7877 2.86691 11.0053C3.3496 11.2229 3.88485 11.2966 4.40836 11.2174C4.93188 11.1382 5.4214 10.9095 5.81815 10.5589L8.36877 12.2002C8.20048 12.7537 8.21102 13.3461 8.3989 13.8933C8.58678 14.4404 8.94242 14.9144 9.41523 15.2477C9.88804 15.5811 10.4539 15.7568 11.0324 15.75C11.6109 15.7431 12.1724 15.554 12.6372 15.2096C13.102 14.8651 13.4463 14.3829 13.6212 13.8314C13.7961 13.28 13.7926 12.6875 13.6112 12.1381C13.4299 11.5888 13.0799 11.1106 12.6111 10.7716C12.1423 10.4327 11.5785 10.2502 11 10.2502ZM11 2.75018C11.2472 2.75018 11.4889 2.82349 11.6945 2.96084C11.9 3.09819 12.0603 3.29341 12.1549 3.52182C12.2495 3.75023 12.2742 4.00156 12.226 4.24404C12.1778 4.48651 12.0587 4.70924 11.8839 4.88406C11.7091 5.05887 11.4864 5.17793 11.2439 5.22616C11.0014 5.27439 10.7501 5.24963 10.5217 5.15503C10.2933 5.06042 10.098 4.9002 9.96069 4.69464C9.82333 4.48908 9.75002 4.2474 9.75002 4.00018C9.75002 3.66866 9.88172 3.35071 10.1161 3.11629C10.3506 2.88187 10.6685 2.75018 11 2.75018ZM4.00002 9.75018C3.7528 9.75018 3.51112 9.67686 3.30556 9.53951C3.1 9.40216 2.93978 9.20694 2.84517 8.97853C2.75056 8.75012 2.72581 8.49879 2.77404 8.25631C2.82227 8.01384 2.94132 7.79111 3.11614 7.61629C3.29096 7.44148 3.51368 7.32243 3.75616 7.27419C3.99864 7.22596 4.24997 7.25072 4.47838 7.34533C4.70679 7.43994 4.90201 7.60015 5.03936 7.80571C5.17671 8.01127 5.25002 8.25295 5.25002 8.50018C5.25002 8.8317 5.11833 9.14964 4.88391 9.38406C4.64949 9.61848 4.33154 9.75018 4.00002 9.75018ZM11 14.2502C10.7528 14.2502 10.5111 14.1769 10.3056 14.0395C10.1 13.9022 9.93978 13.7069 9.84517 13.4785C9.75056 13.2501 9.72581 12.9988 9.77404 12.7563C9.82227 12.5138 9.94132 12.2911 10.1161 12.1163C10.291 11.9415 10.5137 11.8224 10.7562 11.7742C10.9986 11.726 11.25 11.7507 11.4784 11.8453C11.7068 11.9399 11.902 12.1002 12.0394 12.3057C12.1767 12.5113 12.25 12.7529 12.25 13.0002C12.25 13.3317 12.1183 13.6496 11.8839 13.8841C11.6495 14.1185 11.3315 14.2502 11 14.2502Z" fill="#B5B3AD"/>
</svg>
